<?xml version="1.0" encoding="UTF-8" standalone="no"?>
<!DOCTYPE svg PUBLIC "-//W3C//DTD SVG 1.1//EN" "http://www.w3.org/Graphics/SVG/1.1/DTD/svg11.dtd">
<svg width="100%" height="100%" viewBox="0 0 626 319" version="1.1" xmlns="http://www.w3.org/2000/svg" xmlns:xlink="http://www.w3.org/1999/xlink" xml:space="preserve" xmlns:serif="http://www.serif.com/" style="fill-rule:evenodd;clip-rule:evenodd;stroke-linecap:round;stroke-linejoin:round;stroke-miterlimit:1.5;">
    <g transform="matrix(-0.512861,0,0,0.512861,158.082,173.557)">
        <path d="M7,7L14,7L14,14L7,14L7,7ZM14,7L21,7L21,14L14,14L14,7ZM21,7L28,7L28,14L21,14L21,7ZM28,7L35,7L35,14L28,14L28,7ZM35,7L42,7L42,14L35,14L35,7ZM42,7L49,7L49,14L42,14L42,7ZM49,7L56,7L56,14L49,14L49,7ZM77,7L84,7L84,14L77,14L77,7ZM91,7L98,7L98,14L91,14L91,7ZM98,7L105,7L105,14L98,14L98,7ZM105,7L112,7L112,14L105,14L105,7ZM112,7L119,7L119,14L112,14L112,7ZM119,7L126,7L126,14L119,14L119,7ZM126,7L133,7L133,14L126,14L126,7ZM133,7L140,7L140,14L133,14L133,7ZM140,7L147,7L147,14L140,14L140,7ZM147,7L154,7L154,14L147,14L147,7ZM168,7L175,7L175,14L168,14L168,7ZM175,7L182,7L182,14L175,14L175,7ZM189,7L196,7L196,14L189,14L189,7ZM196,7L203,7L203,14L196,14L196,7ZM203,7L210,7L210,14L203,14L203,7ZM210,7L217,7L217,14L210,14L210,7ZM217,7L224,7L224,14L217,14L217,7ZM224,7L231,7L231,14L224,14L224,7ZM231,7L238,7L238,14L231,14L231,7ZM7,14L14,14L14,21L7,21L7,14ZM49,14L56,14L56,21L49,21L49,14ZM63,14L70,14L70,21L63,21L63,14ZM77,14L84,14L84,21L77,21L77,14ZM112,14L119,14L119,21L112,21L112,14ZM119,14L126,14L126,21L119,21L119,14ZM147,14L154,14L154,21L147,21L147,14ZM154,14L161,14L161,21L154,21L154,14ZM161,14L168,14L168,21L161,21L161,14ZM175,14L182,14L182,21L175,21L175,14ZM189,14L196,14L196,21L189,21L189,14ZM231,14L238,14L238,21L231,21L231,14ZM7,21L14,21L14,28L7,28L7,21ZM21,21L28,21L28,28L21,28L21,21ZM28,21L35,21L35,28L28,28L28,21ZM35,21L42,21L42,28L35,28L35,21ZM49,21L56,21L56,28L49,28L49,21ZM91,21L98,21L98,28L91,28L91,21ZM105,21L112,21L112,28L105,28L105,21ZM112,21L119,21L119,28L112,28L112,21ZM119,21L126,21L126,28L119,28L119,21ZM133,21L140,21L140,28L133,28L133,21ZM147,21L154,21L154,28L147,28L147,21ZM154,21L161,21L161,28L154,28L154,21ZM161,21L168,21L168,28L161,28L161,21ZM175,21L182,21L182,28L175,28L175,21ZM189,21L196,21L196,28L189,28L189,21ZM203,21L210,21L210,28L203,28L203,21ZM210,21L217,21L217,28L210,28L210,21ZM217,21L224,21L224,28L217,28L217,21ZM231,21L238,21L238,28L231,28L231,21ZM7,28L14,28L14,35L7,35L7,28ZM21,28L28,28L28,35L21,35L21,28ZM28,28L35,28L35,35L28,35L28,28ZM35,28L42,28L42,35L35,35L35,28ZM49,28L56,28L56,35L49,35L49,28ZM63,28L70,28L70,35L63,35L63,28ZM70,28L77,28L77,35L70,35L70,28ZM77,28L84,28L84,35L77,35L77,28ZM91,28L98,28L98,35L91,35L91,28ZM98,28L105,28L105,35L98,35L98,28ZM126,28L133,28L133,35L126,35L126,28ZM154,28L161,28L161,35L154,35L154,28ZM161,28L168,28L168,35L161,35L161,28ZM168,28L175,28L175,35L168,35L168,28ZM175,28L182,28L182,35L175,35L175,28ZM189,28L196,28L196,35L189,35L189,28ZM203,28L210,28L210,35L203,35L203,28ZM210,28L217,28L217,35L210,35L210,28ZM217,28L224,28L224,35L217,35L217,28ZM231,28L238,28L238,35L231,35L231,28ZM7,35L14,35L14,42L7,42L7,35ZM21,35L28,35L28,42L21,42L21,35ZM28,35L35,35L35,42L28,42L28,35ZM35,35L42,35L42,42L35,42L35,35ZM49,35L56,35L56,42L49,42L49,35ZM70,35L77,35L77,42L70,42L70,35ZM98,35L105,35L105,42L98,42L98,35ZM140,35L147,35L147,42L140,42L140,35ZM147,35L154,35L154,42L147,42L147,35ZM154,35L161,35L161,42L154,42L154,35ZM161,35L168,35L168,42L161,42L161,35ZM189,35L196,35L196,42L189,42L189,35ZM203,35L210,35L210,42L203,42L203,35ZM210,35L217,35L217,42L210,42L210,35ZM217,35L224,35L224,42L217,42L217,35ZM231,35L238,35L238,42L231,42L231,35ZM7,42L14,42L14,49L7,49L7,42ZM49,42L56,42L56,49L49,49L49,42ZM63,42L70,42L70,49L63,49L63,42ZM70,42L77,42L77,49L70,49L70,42ZM84,42L91,42L91,49L84,49L84,42ZM91,42L98,42L98,49L91,49L91,42ZM105,42L112,42L112,49L105,49L105,42ZM112,42L119,42L119,49L112,49L112,42ZM175,42L182,42L182,49L175,49L175,42ZM189,42L196,42L196,49L189,49L189,42ZM231,42L238,42L238,49L231,49L231,42ZM7,49L14,49L14,56L7,56L7,49ZM14,49L21,49L21,56L14,56L14,49ZM21,49L28,49L28,56L21,56L21,49ZM28,49L35,49L35,56L28,56L28,49ZM35,49L42,49L42,56L35,56L35,49ZM42,49L49,49L49,56L42,56L42,49ZM49,49L56,49L56,56L49,56L49,49ZM63,49L70,49L70,56L63,56L63,49ZM77,49L84,49L84,56L77,56L77,49ZM91,49L98,49L98,56L91,56L91,49ZM105,49L112,49L112,56L105,56L105,49ZM119,49L126,49L126,56L119,56L119,49ZM133,49L140,49L140,56L133,56L133,49ZM147,49L154,49L154,56L147,56L147,49ZM161,49L168,49L168,56L161,56L161,49ZM175,49L182,49L182,56L175,56L175,49ZM189,49L196,49L196,56L189,56L189,49ZM196,49L203,49L203,56L196,56L196,49ZM203,49L210,49L210,56L203,56L203,49ZM210,49L217,49L217,56L210,56L210,49ZM217,49L224,49L224,56L217,56L217,49ZM224,49L231,49L231,56L224,56L224,49ZM231,49L238,49L238,56L231,56L231,49ZM70,56L77,56L77,63L70,63L70,56ZM77,56L84,56L84,63L77,63L77,56ZM84,56L91,56L91,63L84,63L84,56ZM105,56L112,56L112,63L105,63L105,56ZM119,56L126,56L126,63L119,63L119,56ZM133,56L140,56L140,63L133,63L133,56ZM140,56L147,56L147,63L140,63L140,56ZM154,56L161,56L161,63L154,63L154,56ZM161,56L168,56L168,63L161,63L161,56ZM7,63L14,63L14,70L7,70L7,63ZM14,63L21,63L21,70L14,70L14,63ZM21,63L28,63L28,70L21,70L21,63ZM28,63L35,63L35,70L28,70L28,63ZM35,63L42,63L42,70L35,70L35,63ZM49,63L56,63L56,70L49,70L49,63ZM56,63L63,63L63,70L56,70L56,63ZM63,63L70,63L70,70L63,70L63,63ZM70,63L77,63L77,70L70,70L70,63ZM84,63L91,63L91,70L84,70L84,63ZM105,63L112,63L112,70L105,70L105,63ZM126,63L133,63L133,70L126,70L126,63ZM133,63L140,63L140,70L133,70L133,63ZM161,63L168,63L168,70L161,70L161,63ZM168,63L175,63L175,70L168,70L168,63ZM175,63L182,63L182,70L175,70L175,63ZM182,63L189,63L189,70L182,70L182,63ZM196,63L203,63L203,70L196,70L196,63ZM210,63L217,63L217,70L210,70L210,63ZM224,63L231,63L231,70L224,70L224,63ZM7,70L14,70L14,77L7,77L7,70ZM21,70L28,70L28,77L21,77L21,70ZM28,70L35,70L35,77L28,77L28,70ZM35,70L42,70L42,77L35,77L35,70ZM42,70L49,70L49,77L42,77L42,70ZM63,70L70,70L70,77L63,77L63,70ZM77,70L84,70L84,77L77,77L77,70ZM91,70L98,70L98,77L91,77L91,70ZM119,70L126,70L126,77L119,77L119,70ZM126,70L133,70L133,77L126,77L126,70ZM133,70L140,70L140,77L133,77L133,70ZM147,70L154,70L154,77L147,77L147,70ZM154,70L161,70L161,77L154,77L154,70ZM161,70L168,70L168,77L161,77L161,70ZM189,70L196,70L196,77L189,77L189,70ZM217,70L224,70L224,77L217,77L217,70ZM224,70L231,70L231,77L224,77L224,70ZM231,70L238,70L238,77L231,77L231,70ZM21,77L28,77L28,84L21,84L21,77ZM28,77L35,77L35,84L28,84L28,77ZM35,77L42,77L42,84L35,84L35,77ZM49,77L56,77L56,84L49,84L49,77ZM63,77L70,77L70,84L63,84L63,77ZM77,77L84,77L84,84L77,84L77,77ZM112,77L119,77L119,84L112,84L112,77ZM119,77L126,77L126,84L119,84L119,77ZM147,77L154,77L154,84L147,84L147,77ZM154,77L161,77L161,84L154,84L154,77ZM161,77L168,77L168,84L161,84L161,77ZM196,77L203,77L203,84L196,84L196,77ZM203,77L210,77L210,84L203,84L203,77ZM210,77L217,77L217,84L210,84L210,77ZM224,77L231,77L231,84L224,84L224,77ZM21,84L28,84L28,91L21,91L21,84ZM28,84L35,84L35,91L28,91L28,84ZM35,84L42,84L42,91L35,91L35,84ZM56,84L63,84L63,91L56,91L56,84ZM91,84L98,84L98,91L91,91L91,84ZM105,84L112,84L112,91L105,91L105,84ZM119,84L126,84L126,91L119,91L119,84ZM140,84L147,84L147,91L140,91L140,84ZM147,84L154,84L154,91L147,91L147,84ZM154,84L161,84L161,91L154,91L154,84ZM168,84L175,84L175,91L168,91L168,84ZM182,84L189,84L189,91L182,91L182,84ZM189,84L196,84L196,91L189,91L189,84ZM203,84L210,84L210,91L203,91L203,84ZM217,84L224,84L224,91L217,91L217,84ZM7,91L14,91L14,98L7,98L7,91ZM28,91L35,91L35,98L28,98L28,91ZM42,91L49,91L49,98L42,98L42,91ZM49,91L56,91L56,98L49,98L49,91ZM56,91L63,91L63,98L56,98L56,91ZM63,91L70,91L70,98L63,98L63,91ZM70,91L77,91L77,98L70,98L70,91ZM77,91L84,91L84,98L77,98L77,91ZM91,91L98,91L98,98L91,98L91,91ZM98,91L105,91L105,98L98,98L98,91ZM105,91L112,91L112,98L105,98L105,91ZM140,91L147,91L147,98L140,98L140,91ZM161,91L168,91L168,98L161,98L161,91ZM168,91L175,91L175,98L168,98L168,91ZM175,91L182,91L182,98L175,98L175,91ZM182,91L189,91L189,98L182,98L182,91ZM196,91L203,91L203,98L196,98L196,91ZM203,91L210,91L210,98L203,98L203,91ZM210,91L217,91L217,98L210,98L210,91ZM21,98L28,98L28,105L21,105L21,98ZM35,98L42,98L42,105L35,105L35,98ZM42,98L49,98L49,105L42,105L42,98ZM56,98L63,98L63,105L56,105L56,98ZM63,98L70,98L70,105L63,105L63,98ZM98,98L105,98L105,105L98,105L98,98ZM105,98L112,98L112,105L105,105L105,98ZM119,98L126,98L126,105L119,105L119,98ZM126,98L133,98L133,105L126,105L126,98ZM133,98L140,98L140,105L133,105L133,98ZM140,98L147,98L147,105L140,105L140,98ZM168,98L175,98L175,105L168,105L168,98ZM175,98L182,98L182,105L175,105L175,98ZM189,98L196,98L196,105L189,105L189,98ZM196,98L203,98L203,105L196,105L196,98ZM224,98L231,98L231,105L224,105L224,98ZM231,98L238,98L238,105L231,105L231,98ZM28,105L35,105L35,112L28,112L28,105ZM49,105L56,105L56,112L49,112L49,105ZM56,105L63,105L63,112L56,112L56,105ZM84,105L91,105L91,112L84,112L84,105ZM91,105L98,105L98,112L91,112L91,105ZM112,105L119,105L119,112L112,112L112,105ZM119,105L126,105L126,112L119,112L119,105ZM133,105L140,105L140,112L133,112L133,105ZM147,105L154,105L154,112L147,112L147,105ZM154,105L161,105L161,112L154,112L154,105ZM182,105L189,105L189,112L182,112L182,105ZM189,105L196,105L196,112L189,112L189,105ZM196,105L203,105L203,112L196,112L196,105ZM203,105L210,105L210,112L203,112L203,105ZM224,105L231,105L231,112L224,112L224,105ZM7,112L14,112L14,119L7,119L7,112ZM21,112L28,112L28,119L21,119L21,112ZM28,112L35,112L35,119L28,119L28,112ZM35,112L42,112L42,119L35,119L35,112ZM70,112L77,112L77,119L70,119L70,112ZM77,112L84,112L84,119L77,119L77,112ZM84,112L91,112L91,119L84,119L84,112ZM112,112L119,112L119,119L112,119L112,112ZM154,112L161,112L161,119L154,119L154,112ZM161,112L168,112L168,119L161,119L161,112ZM168,112L175,112L175,119L168,119L168,112ZM182,112L189,112L189,119L182,119L182,112ZM189,112L196,112L196,119L189,119L189,112ZM196,112L203,112L203,119L196,119L196,112ZM217,112L224,112L224,119L217,119L217,112ZM28,119L35,119L35,126L28,126L28,119ZM49,119L56,119L56,126L49,126L49,119ZM56,119L63,119L63,126L56,126L56,119ZM63,119L70,119L70,126L63,126L63,119ZM70,119L77,119L77,126L70,126L70,119ZM77,119L84,119L84,126L77,126L77,119ZM84,119L91,119L91,126L84,126L84,119ZM98,119L105,119L105,126L98,126L98,119ZM105,119L112,119L112,126L105,126L105,119ZM126,119L133,119L133,126L126,126L126,119ZM140,119L147,119L147,126L140,126L140,119ZM161,119L168,119L168,126L161,126L161,119ZM168,119L175,119L175,126L168,126L168,119ZM175,119L182,119L182,126L175,126L175,119ZM182,119L189,119L189,126L182,126L182,119ZM196,119L203,119L203,126L196,126L196,119ZM203,119L210,119L210,126L203,126L203,119ZM224,119L231,119L231,126L224,126L224,119ZM14,126L21,126L21,133L14,133L14,126ZM21,126L28,126L28,133L21,133L21,126ZM42,126L49,126L49,133L42,133L42,126ZM70,126L77,126L77,133L70,133L70,126ZM91,126L98,126L98,133L91,133L91,126ZM98,126L105,126L105,133L98,133L98,126ZM119,126L126,126L126,133L119,133L119,126ZM126,126L133,126L133,133L126,133L126,126ZM133,126L140,126L140,133L133,133L133,126ZM140,126L147,126L147,133L140,133L140,126ZM147,126L154,126L154,133L147,133L147,126ZM168,126L175,126L175,133L168,133L168,126ZM189,126L196,126L196,133L189,133L189,126ZM210,126L217,126L217,133L210,133L210,126ZM224,126L231,126L231,133L224,133L224,126ZM231,126L238,126L238,133L231,133L231,126ZM7,133L14,133L14,140L7,140L7,133ZM14,133L21,133L21,140L14,140L14,133ZM21,133L28,133L28,140L21,140L21,133ZM28,133L35,133L35,140L28,140L28,133ZM49,133L56,133L56,140L49,140L49,133ZM63,133L70,133L70,140L63,140L63,133ZM70,133L77,133L77,140L70,140L70,133ZM112,133L119,133L119,140L112,140L112,133ZM126,133L133,133L133,140L126,140L126,133ZM147,133L154,133L154,140L147,140L147,133ZM161,133L168,133L168,140L161,140L161,133ZM175,133L182,133L182,140L175,140L175,133ZM182,133L189,133L189,140L182,140L182,133ZM189,133L196,133L196,140L189,140L189,133ZM210,133L217,133L217,140L210,140L210,133ZM224,133L231,133L231,140L224,140L224,133ZM14,140L21,140L21,147L14,147L14,140ZM21,140L28,140L28,147L21,147L21,140ZM28,140L35,140L35,147L28,147L28,140ZM35,140L42,140L42,147L35,147L35,140ZM56,140L63,140L63,147L56,147L56,140ZM70,140L77,140L77,147L70,147L70,140ZM77,140L84,140L84,147L77,147L77,140ZM91,140L98,140L98,147L91,147L91,140ZM105,140L112,140L112,147L105,147L105,140ZM112,140L119,140L119,147L112,147L112,140ZM119,140L126,140L126,147L119,147L119,140ZM133,140L140,140L140,147L133,147L133,140ZM140,140L147,140L147,147L140,147L140,140ZM154,140L161,140L161,147L154,147L154,140ZM182,140L189,140L189,147L182,147L182,140ZM217,140L224,140L224,147L217,147L217,140ZM14,147L21,147L21,154L14,154L14,147ZM21,147L28,147L28,154L21,154L21,147ZM49,147L56,147L56,154L49,154L49,147ZM91,147L98,147L98,154L91,154L91,147ZM98,147L105,147L105,154L98,154L98,147ZM105,147L112,147L112,154L105,154L105,147ZM112,147L119,147L119,154L112,154L112,147ZM119,147L126,147L126,154L119,154L119,147ZM126,147L133,147L133,154L126,154L126,147ZM140,147L147,147L147,154L140,154L140,147ZM161,147L168,147L168,154L161,154L161,147ZM175,147L182,147L182,154L175,154L175,147ZM203,147L210,147L210,154L203,154L203,147ZM224,147L231,147L231,154L224,154L224,147ZM7,154L14,154L14,161L7,161L7,154ZM14,154L21,154L21,161L14,161L14,154ZM21,154L28,154L28,161L21,161L21,154ZM28,154L35,154L35,161L28,161L28,154ZM56,154L63,154L63,161L56,161L56,154ZM70,154L77,154L77,161L70,161L70,154ZM77,154L84,154L84,161L77,161L77,154ZM105,154L112,154L112,161L105,161L105,154ZM119,154L126,154L126,161L119,161L119,154ZM140,154L147,154L147,161L140,161L140,154ZM147,154L154,154L154,161L147,161L147,154ZM154,154L161,154L161,161L154,161L154,154ZM168,154L175,154L175,161L168,161L168,154ZM189,154L196,154L196,161L189,161L189,154ZM210,154L217,154L217,161L210,161L210,154ZM224,154L231,154L231,161L224,161L224,154ZM231,154L238,154L238,161L231,161L231,154ZM7,161L14,161L14,168L7,168L7,161ZM35,161L42,161L42,168L35,168L35,161ZM42,161L49,161L49,168L42,168L42,161ZM49,161L56,161L56,168L49,168L49,161ZM70,161L77,161L77,168L70,168L70,161ZM77,161L84,161L84,168L77,168L77,161ZM84,161L91,161L91,168L84,168L84,161ZM91,161L98,161L98,168L91,168L91,161ZM98,161L105,161L105,168L98,168L98,161ZM112,161L119,161L119,168L112,168L112,161ZM119,161L126,161L126,168L119,168L119,161ZM126,161L133,161L133,168L126,168L126,161ZM133,161L140,161L140,168L133,168L133,161ZM147,161L154,161L154,168L147,168L147,161ZM161,161L168,161L168,168L161,168L161,161ZM175,161L182,161L182,168L175,168L175,161ZM182,161L189,161L189,168L182,168L182,161ZM189,161L196,161L196,168L189,168L189,161ZM196,161L203,161L203,168L196,168L196,161ZM210,161L217,161L217,168L210,168L210,161ZM224,161L231,161L231,168L224,168L224,161ZM7,168L14,168L14,175L7,175L7,168ZM35,168L42,168L42,175L35,175L35,168ZM77,168L84,168L84,175L77,175L77,168ZM84,168L91,168L91,175L84,175L84,168ZM105,168L112,168L112,175L105,175L105,168ZM112,168L119,168L119,175L112,175L112,168ZM154,168L161,168L161,175L154,175L154,168ZM161,168L168,168L168,175L161,175L161,168ZM168,168L175,168L175,175L168,175L168,168ZM182,168L189,168L189,175L182,175L182,168ZM189,168L196,168L196,175L189,175L189,168ZM196,168L203,168L203,175L196,175L196,168ZM203,168L210,168L210,175L203,175L203,168ZM210,168L217,168L217,175L210,175L210,168ZM217,168L224,168L224,175L217,175L217,168ZM7,175L14,175L14,182L7,182L7,175ZM21,175L28,175L28,182L21,182L21,175ZM28,175L35,175L35,182L28,182L28,175ZM42,175L49,175L49,182L42,182L42,175ZM49,175L56,175L56,182L49,182L49,175ZM63,175L70,175L70,182L63,182L63,175ZM77,175L84,175L84,182L77,182L77,175ZM84,175L91,175L91,182L84,182L84,175ZM112,175L119,175L119,182L112,182L112,175ZM126,175L133,175L133,182L126,182L126,175ZM140,175L147,175L147,182L140,182L140,175ZM161,175L168,175L168,182L161,182L161,175ZM168,175L175,175L175,182L168,182L168,175ZM175,175L182,175L182,182L175,182L175,175ZM182,175L189,175L189,182L182,182L182,175ZM189,175L196,175L196,182L189,182L189,175ZM196,175L203,175L203,182L196,182L196,175ZM203,175L210,175L210,182L203,182L203,175ZM231,175L238,175L238,182L231,182L231,175ZM63,182L70,182L70,189L63,189L63,182ZM91,182L98,182L98,189L91,189L91,182ZM98,182L105,182L105,189L98,189L98,182ZM119,182L126,182L126,189L119,189L119,182ZM140,182L147,182L147,189L140,189L140,182ZM147,182L154,182L154,189L147,189L147,182ZM154,182L161,182L161,189L154,189L154,182ZM175,182L182,182L182,189L175,189L175,182ZM203,182L210,182L210,189L203,189L203,182ZM210,182L217,182L217,189L210,189L210,182ZM217,182L224,182L224,189L217,189L217,182ZM231,182L238,182L238,189L231,189L231,182ZM7,189L14,189L14,196L7,196L7,189ZM14,189L21,189L21,196L14,196L14,189ZM21,189L28,189L28,196L21,196L21,189ZM28,189L35,189L35,196L28,196L28,189ZM35,189L42,189L42,196L35,196L35,189ZM42,189L49,189L49,196L42,196L42,189ZM49,189L56,189L56,196L49,196L49,189ZM63,189L70,189L70,196L63,196L63,189ZM70,189L77,189L77,196L70,196L70,189ZM77,189L84,189L84,196L77,196L77,189ZM98,189L105,189L105,196L98,196L98,189ZM105,189L112,189L112,196L105,196L105,189ZM112,189L119,189L119,196L112,196L112,189ZM147,189L154,189L154,196L147,196L147,189ZM154,189L161,189L161,196L154,196L154,189ZM161,189L168,189L168,196L161,196L161,189ZM168,189L175,189L175,196L168,196L168,189ZM175,189L182,189L182,196L175,196L175,189ZM189,189L196,189L196,196L189,196L189,189ZM203,189L210,189L210,196L203,196L203,189ZM210,189L217,189L217,196L210,196L210,189ZM224,189L231,189L231,196L224,196L224,189ZM7,196L14,196L14,203L7,203L7,196ZM49,196L56,196L56,203L49,203L49,196ZM77,196L84,196L84,203L77,203L77,196ZM91,196L98,196L98,203L91,203L91,196ZM98,196L105,196L105,203L98,203L98,196ZM112,196L119,196L119,203L112,203L112,196ZM119,196L126,196L126,203L119,203L119,196ZM133,196L140,196L140,203L133,203L133,196ZM140,196L147,196L147,203L140,203L140,196ZM147,196L154,196L154,203L147,203L147,196ZM154,196L161,196L161,203L154,203L154,196ZM161,196L168,196L168,203L161,203L161,196ZM168,196L175,196L175,203L168,203L168,196ZM175,196L182,196L182,203L175,203L175,196ZM203,196L210,196L210,203L203,203L203,196ZM210,196L217,196L217,203L210,203L210,196ZM217,196L224,196L224,203L217,203L217,196ZM224,196L231,196L231,203L224,203L224,196ZM7,203L14,203L14,210L7,210L7,203ZM21,203L28,203L28,210L21,210L21,203ZM28,203L35,203L35,210L28,210L28,203ZM35,203L42,203L42,210L35,210L35,203ZM49,203L56,203L56,210L49,210L49,203ZM63,203L70,203L70,210L63,210L63,203ZM91,203L98,203L98,210L91,210L91,203ZM105,203L112,203L112,210L105,210L105,203ZM126,203L133,203L133,210L126,210L126,203ZM147,203L154,203L154,210L147,210L147,203ZM161,203L168,203L168,210L161,210L161,203ZM175,203L182,203L182,210L175,210L175,203ZM182,203L189,203L189,210L182,210L182,203ZM189,203L196,203L196,210L189,210L189,203ZM196,203L203,203L203,210L196,210L196,203ZM203,203L210,203L210,210L203,210L203,203ZM7,210L14,210L14,217L7,217L7,210ZM21,210L28,210L28,217L21,217L21,210ZM28,210L35,210L35,217L28,217L28,210ZM35,210L42,210L42,217L35,217L35,210ZM49,210L56,210L56,217L49,217L49,210ZM63,210L70,210L70,217L63,217L63,210ZM70,210L77,210L77,217L70,217L70,210ZM119,210L126,210L126,217L119,217L119,210ZM133,210L140,210L140,217L133,217L133,210ZM140,210L147,210L147,217L140,217L140,210ZM147,210L154,210L154,217L147,217L147,210ZM154,210L161,210L161,217L154,217L154,210ZM161,210L168,210L168,217L161,217L161,210ZM175,210L182,210L182,217L175,217L175,210ZM182,210L189,210L189,217L182,217L182,210ZM196,210L203,210L203,217L196,217L196,210ZM203,210L210,210L210,217L203,217L203,210ZM7,217L14,217L14,224L7,224L7,217ZM21,217L28,217L28,224L21,224L21,217ZM28,217L35,217L35,224L28,224L28,217ZM35,217L42,217L42,224L35,224L35,217ZM49,217L56,217L56,224L49,224L49,217ZM63,217L70,217L70,224L63,224L63,217ZM70,217L77,217L77,224L70,224L70,217ZM77,217L84,217L84,224L77,224L77,217ZM84,217L91,217L91,224L84,224L84,217ZM91,217L98,217L98,224L91,224L91,217ZM112,217L119,217L119,224L112,224L112,217ZM133,217L140,217L140,224L133,224L133,217ZM147,217L154,217L154,224L147,224L147,217ZM189,217L196,217L196,224L189,224L189,217ZM210,217L217,217L217,224L210,224L210,217ZM217,217L224,217L224,224L217,224L217,217ZM224,217L231,217L231,224L224,224L224,217ZM7,224L14,224L14,231L7,231L7,224ZM49,224L56,224L56,231L49,231L49,224ZM63,224L70,224L70,231L63,231L63,224ZM70,224L77,224L77,231L70,231L70,224ZM84,224L91,224L91,231L84,231L84,224ZM105,224L112,224L112,231L105,231L105,224ZM112,224L119,224L119,231L112,231L112,224ZM119,224L126,224L126,231L119,231L119,224ZM140,224L147,224L147,231L140,231L140,224ZM147,224L154,224L154,231L147,231L147,224ZM154,224L161,224L161,231L154,231L154,224ZM182,224L189,224L189,231L182,231L182,224ZM189,224L196,224L196,231L189,231L189,224ZM196,224L203,224L203,231L196,231L196,224ZM210,224L217,224L217,231L210,231L210,224ZM217,224L224,224L224,231L217,231L217,224ZM7,231L14,231L14,238L7,238L7,231ZM14,231L21,231L21,238L14,238L14,231ZM21,231L28,231L28,238L21,238L21,231ZM28,231L35,231L35,238L28,238L28,231ZM35,231L42,231L42,238L35,238L35,231ZM42,231L49,231L49,238L42,238L42,231ZM49,231L56,231L56,238L49,238L49,231ZM63,231L70,231L70,238L63,238L63,231ZM84,231L91,231L91,238L84,238L84,231ZM126,231L133,231L133,238L126,238L126,231ZM140,231L147,231L147,238L140,238L140,231ZM168,231L175,231L175,238L168,238L168,231ZM175,231L182,231L182,238L175,238L175,231ZM210,231L217,231L217,238L210,238L210,231ZM224,231L231,231L231,238L224,238L224,231Z" style="fill:white;fill-rule:nonzero;"/>
    </g>
    <g transform="matrix(-1.87451,3.52803e-16,3.69895e-16,1.7879,394.024,-890.036)">
        <g transform="matrix(9.32195,0,0,9.32195,127.108,509.895)">
            <path d="M0.04,-0.047L0.04,-0.123L0.389,-0.319L0.042,-0.496L0.042,-0.567L0.466,-0.344L0.466,-0.296L0.04,-0.047Z" style="fill:white;fill-rule:nonzero;"/>
        </g>
        <g transform="matrix(9.32195,0,0,9.32195,136.43,509.895)">
            <path d="M0.066,-0.623L0.148,-0.623L0.148,-0.616C0.144,-0.612 0.141,-0.608 0.141,-0.603C0.14,-0.598 0.139,-0.59 0.139,-0.579L0.139,-0.06L0.439,-0.06L0.439,-0L0.066,-0L0.066,-0.623Z" style="fill:white;fill-rule:nonzero;"/>
        </g>
        <g transform="matrix(9.32195,0,0,9.32195,141.091,509.895)">
            <path d="M0.25,0.011C0.179,0.011 0.124,-0.017 0.085,-0.072C0.046,-0.127 0.027,-0.206 0.027,-0.308C0.027,-0.407 0.047,-0.485 0.086,-0.542C0.125,-0.599 0.179,-0.627 0.25,-0.627C0.321,-0.627 0.376,-0.599 0.414,-0.542C0.454,-0.485 0.473,-0.407 0.473,-0.308C0.473,-0.206 0.454,-0.127 0.415,-0.072C0.376,-0.017 0.321,0.011 0.25,0.011ZM0.25,-0.05C0.298,-0.05 0.335,-0.072 0.362,-0.117C0.388,-0.162 0.401,-0.225 0.401,-0.308C0.401,-0.387 0.388,-0.45 0.361,-0.497C0.334,-0.543 0.297,-0.566 0.25,-0.566C0.203,-0.566 0.166,-0.543 0.139,-0.497C0.112,-0.45 0.099,-0.387 0.099,-0.308C0.099,-0.225 0.112,-0.162 0.139,-0.117C0.165,-0.072 0.202,-0.05 0.25,-0.05Z" style="fill:white;fill-rule:nonzero;"/>
        </g>
        <g transform="matrix(9.32195,0,0,9.32195,145.752,509.895)">
            <path d="M0.117,-0L0.017,-0.623L0.082,-0.623L0.149,-0.202L0.249,-0.577L0.271,-0.577L0.372,-0.2L0.429,-0.623L0.488,-0.623L0.389,-0L0.362,-0L0.255,-0.407L0.146,-0L0.117,-0Z" style="fill:white;fill-rule:nonzero;"/>
        </g>
        <g transform="matrix(9.32195,0,0,9.32195,150.413,509.895)">
            <path d="M0.059,-0L0.059,-0.624L0.441,-0.624L0.441,-0.562L0.125,-0.562L0.125,-0.357L0.386,-0.357L0.386,-0.293L0.125,-0.293L0.125,-0.062L0.438,-0.062L0.438,-0L0.059,-0Z" style="fill:white;fill-rule:nonzero;"/>
        </g>
        <g transform="matrix(9.32195,0,0,9.32195,155.074,509.895)">
            <path d="M0.056,-0.623L0.24,-0.623C0.311,-0.623 0.363,-0.607 0.397,-0.576C0.43,-0.545 0.447,-0.501 0.447,-0.445C0.447,-0.408 0.435,-0.374 0.411,-0.341C0.388,-0.308 0.357,-0.287 0.32,-0.278L0.464,-0L0.386,-0L0.248,-0.275L0.127,-0.275L0.127,-0L0.056,-0L0.056,-0.623ZM0.248,-0.337C0.291,-0.337 0.323,-0.346 0.344,-0.366C0.365,-0.385 0.375,-0.411 0.375,-0.445C0.375,-0.478 0.365,-0.505 0.344,-0.526C0.323,-0.547 0.291,-0.557 0.248,-0.557L0.127,-0.557L0.127,-0.337L0.248,-0.337Z" style="fill:white;fill-rule:nonzero;"/>
        </g>
        <g transform="matrix(9.32195,0,0,9.32195,164.396,509.895)">
            <path d="M0.298,-0.344C0.357,-0.319 0.398,-0.294 0.421,-0.268C0.444,-0.242 0.455,-0.209 0.455,-0.17C0.455,-0.139 0.448,-0.11 0.433,-0.083C0.418,-0.056 0.394,-0.033 0.363,-0.016C0.332,0.001 0.293,0.01 0.247,0.01C0.166,0.01 0.101,-0.016 0.052,-0.069L0.088,-0.132L0.088,-0.133C0.089,-0.133 0.089,-0.133 0.089,-0.133L0.089,-0.132C0.107,-0.108 0.13,-0.089 0.159,-0.075C0.187,-0.06 0.22,-0.053 0.257,-0.053C0.294,-0.053 0.324,-0.063 0.349,-0.084C0.374,-0.105 0.386,-0.13 0.386,-0.16C0.386,-0.179 0.382,-0.196 0.375,-0.209C0.367,-0.222 0.353,-0.234 0.333,-0.247C0.313,-0.26 0.283,-0.275 0.243,-0.292C0.182,-0.316 0.138,-0.343 0.112,-0.374C0.085,-0.405 0.072,-0.439 0.072,-0.477C0.072,-0.524 0.089,-0.561 0.123,-0.589C0.157,-0.617 0.203,-0.631 0.262,-0.631C0.296,-0.631 0.328,-0.624 0.358,-0.611C0.387,-0.597 0.413,-0.578 0.435,-0.553L0.396,-0.501L0.395,-0.5C0.375,-0.527 0.354,-0.546 0.333,-0.557C0.311,-0.568 0.284,-0.573 0.251,-0.573C0.219,-0.573 0.193,-0.564 0.173,-0.547C0.154,-0.529 0.144,-0.507 0.144,-0.482C0.144,-0.463 0.148,-0.446 0.157,-0.432C0.165,-0.417 0.18,-0.403 0.202,-0.39C0.224,-0.376 0.256,-0.361 0.298,-0.344ZM0.384,-0.498C0.384,-0.5 0.385,-0.5 0.388,-0.499C0.391,-0.498 0.392,-0.497 0.393,-0.497L0.39,-0.493L0.384,-0.497L0.384,-0.498ZM0.395,-0.5C0.399,-0.495 0.4,-0.493 0.398,-0.495C0.395,-0.496 0.394,-0.497 0.393,-0.497L0.395,-0.5ZM0.099,-0.136C0.099,-0.134 0.098,-0.134 0.095,-0.135C0.092,-0.136 0.091,-0.137 0.09,-0.137L0.092,-0.141L0.099,-0.137L0.099,-0.136ZM0.088,-0.133C0.084,-0.138 0.085,-0.14 0.09,-0.137L0.088,-0.133Z" style="fill:white;fill-rule:nonzero;"/>
        </g>
        <g transform="matrix(9.32195,0,0,9.32195,169.057,509.895)">
            <path d="M0.251,0.011C0.185,0.011 0.135,-0.009 0.101,-0.048C0.067,-0.087 0.05,-0.143 0.05,-0.215L0.05,-0.623L0.128,-0.623L0.128,-0.616C0.124,-0.612 0.122,-0.608 0.121,-0.603C0.119,-0.598 0.119,-0.59 0.119,-0.579L0.119,-0.214C0.119,-0.161 0.129,-0.12 0.15,-0.091C0.171,-0.062 0.205,-0.048 0.252,-0.048C0.3,-0.048 0.335,-0.062 0.356,-0.091C0.377,-0.12 0.387,-0.162 0.387,-0.217L0.387,-0.623L0.454,-0.623L0.454,-0.218C0.454,-0.141 0.436,-0.084 0.401,-0.046C0.365,-0.008 0.315,0.011 0.251,0.011Z" style="fill:white;fill-rule:nonzero;"/>
        </g>
        <g transform="matrix(9.32195,0,0,9.32195,173.718,509.895)">
            <path d="M0.056,-0.623L0.24,-0.623C0.311,-0.623 0.363,-0.607 0.397,-0.576C0.43,-0.545 0.447,-0.501 0.447,-0.445C0.447,-0.408 0.435,-0.374 0.411,-0.341C0.388,-0.308 0.357,-0.287 0.32,-0.278L0.464,-0L0.386,-0L0.248,-0.275L0.127,-0.275L0.127,-0L0.056,-0L0.056,-0.623ZM0.248,-0.337C0.291,-0.337 0.323,-0.346 0.344,-0.366C0.365,-0.385 0.375,-0.411 0.375,-0.445C0.375,-0.478 0.365,-0.505 0.344,-0.526C0.323,-0.547 0.291,-0.557 0.248,-0.557L0.127,-0.557L0.127,-0.337L0.248,-0.337Z" style="fill:white;fill-rule:nonzero;"/>
        </g>
        <g transform="matrix(9.32195,0,0,9.32195,178.379,509.895)">
            <path d="M0.078,-0L0.078,-0.624L0.437,-0.624L0.437,-0.563L0.148,-0.563L0.148,-0.367L0.381,-0.367L0.381,-0.306L0.148,-0.306L0.148,-0L0.078,-0Z" style="fill:white;fill-rule:nonzero;"/>
        </g>
        <g transform="matrix(9.32195,0,0,9.32195,183.04,509.895)">
            <path d="M0.412,-0L0.349,-0.182L0.148,-0.182L0.085,-0L0.016,-0L0.246,-0.634L0.254,-0.634L0.484,-0L0.412,-0ZM0.167,-0.236L0.331,-0.236L0.249,-0.474L0.167,-0.236Z" style="fill:white;fill-rule:nonzero;"/>
        </g>
        <g transform="matrix(9.32195,0,0,9.32195,187.701,509.895)">
            <path d="M0.282,-0.05C0.307,-0.05 0.33,-0.057 0.353,-0.07C0.376,-0.084 0.394,-0.103 0.408,-0.126L0.46,-0.092C0.439,-0.058 0.415,-0.033 0.387,-0.016C0.359,0.001 0.325,0.01 0.285,0.01C0.238,0.01 0.197,-0.002 0.161,-0.025C0.124,-0.048 0.095,-0.083 0.074,-0.13C0.052,-0.177 0.041,-0.237 0.041,-0.308C0.041,-0.385 0.053,-0.447 0.076,-0.495C0.099,-0.542 0.129,-0.576 0.165,-0.597C0.201,-0.618 0.24,-0.628 0.281,-0.628C0.325,-0.628 0.363,-0.617 0.396,-0.595C0.428,-0.573 0.452,-0.543 0.469,-0.505L0.409,-0.477C0.408,-0.477 0.408,-0.477 0.408,-0.477L0.408,-0.478C0.391,-0.513 0.371,-0.537 0.35,-0.551C0.329,-0.565 0.305,-0.572 0.279,-0.572C0.226,-0.572 0.185,-0.549 0.155,-0.503C0.124,-0.458 0.109,-0.394 0.109,-0.313C0.109,-0.262 0.117,-0.216 0.132,-0.176C0.147,-0.136 0.168,-0.105 0.195,-0.083C0.221,-0.061 0.25,-0.05 0.282,-0.05ZM0.397,-0.48C0.398,-0.481 0.399,-0.482 0.399,-0.482C0.4,-0.482 0.403,-0.48 0.407,-0.476L0.4,-0.473L0.397,-0.48ZM0.409,-0.477C0.412,-0.471 0.411,-0.471 0.407,-0.476L0.409,-0.477Z" style="fill:white;fill-rule:nonzero;"/>
        </g>
        <g transform="matrix(9.32195,0,0,9.32195,192.362,509.895)">
            <path d="M0.059,-0L0.059,-0.624L0.441,-0.624L0.441,-0.562L0.125,-0.562L0.125,-0.357L0.386,-0.357L0.386,-0.293L0.125,-0.293L0.125,-0.062L0.438,-0.062L0.438,-0L0.059,-0Z" style="fill:white;fill-rule:nonzero;"/>
        </g>
        <g transform="matrix(9.32195,0,0,9.32195,201.684,509.895)">
            <path d="M0.461,-0.047L0.035,-0.296L0.035,-0.344L0.458,-0.567L0.458,-0.496L0.111,-0.319L0.461,-0.123L0.461,-0.047Z" style="fill:white;fill-rule:nonzero;"/>
        </g>
    </g>
    <g transform="matrix(-4.16667,0,0,4.3257,614.112,-349.778)">
        <path d="M37.121,80.861L37.121,154.561" style="fill:none;stroke:white;stroke-width:0.39px;stroke-dasharray:1.96,1.96,0,0;"/>
    </g>
    <g transform="matrix(-4.16667,0,0,4.3257,320.018,-349.778)">
        <path d="M37.121,80.861L37.121,154.561" style="fill:none;stroke:white;stroke-width:0.39px;stroke-dasharray:1.96,1.96,0,0;"/>
    </g>
    <g transform="matrix(-4.16667,0,0,4.32693,625.979,-349.874)">
        <g transform="matrix(1,0,0,1,-3.05301,-0.0217109)">
            <rect x="44.94" y="80.86" width="1.629" height="73.701" style="fill:white;"/>
        </g>
        <g transform="matrix(1,0,0,1,8.29201,-0.0217109)">
            <rect x="44.94" y="80.86" width="1.629" height="73.701" style="fill:white;"/>
        </g>
        <g transform="matrix(1,0,0,1,19.637,-0.0217109)">
            <rect x="44.94" y="80.86" width="1.629" height="73.701" style="fill:white;"/>
        </g>
        <g transform="matrix(1,0,0,1,30.9821,-0.0217109)">
            <rect x="44.94" y="80.86" width="1.629" height="73.701" style="fill:white;"/>
        </g>
        <g transform="matrix(1,0,0,1,42.3271,-0.0217109)">
            <rect x="44.94" y="80.86" width="1.629" height="73.701" style="fill:white;"/>
        </g>
        <g transform="matrix(1,0,0,1,53.6721,-0.0217109)">
            <rect x="44.94" y="80.86" width="1.629" height="73.701" style="fill:white;"/>
        </g>
        <g transform="matrix(1,0,0,1,2.62917,-0.0217109)">
            <rect x="44.94" y="80.86" width="1.629" height="73.701" style="fill:white;"/>
        </g>
        <g transform="matrix(1,0,0,1,13.9742,-0.0217109)">
            <rect x="44.94" y="80.86" width="1.629" height="73.701" style="fill:white;"/>
        </g>
        <g transform="matrix(1,0,0,1,25.3192,-0.0217109)">
            <rect x="44.94" y="80.86" width="1.629" height="73.701" style="fill:white;"/>
        </g>
        <g transform="matrix(1,0,0,1,36.6642,-0.0217109)">
            <rect x="44.94" y="80.86" width="1.629" height="73.701" style="fill:white;"/>
        </g>
        <g transform="matrix(1,0,0,1,48.0093,-0.0217109)">
            <rect x="44.94" y="80.86" width="1.629" height="73.701" style="fill:white;"/>
        </g>
        <g transform="matrix(1,0,0,1,59.3543,-0.0217109)">
            <rect x="44.94" y="80.86" width="1.629" height="73.701" style="fill:white;"/>
        </g>
        <g transform="matrix(1,0,0,1,-0.192593,-0.0217109)">
            <rect x="44.94" y="80.86" width="1.629" height="73.701" style="fill:white;"/>
        </g>
        <g transform="matrix(1,0,0,1,11.1524,-0.0217109)">
            <rect x="44.94" y="80.86" width="1.629" height="73.701" style="fill:white;"/>
        </g>
        <g transform="matrix(1,0,0,1,22.4975,-0.0217109)">
            <rect x="44.94" y="80.86" width="1.629" height="73.701" style="fill:white;"/>
        </g>
        <g transform="matrix(1,0,0,1,33.8425,-0.0217109)">
            <rect x="44.94" y="80.86" width="1.629" height="73.701" style="fill:white;"/>
        </g>
        <g transform="matrix(1,0,0,1,45.1875,-0.0217109)">
            <rect x="44.94" y="80.86" width="1.629" height="73.701" style="fill:white;"/>
        </g>
        <g transform="matrix(1,0,0,1,56.5325,-0.0217109)">
            <rect x="44.94" y="80.86" width="1.629" height="73.701" style="fill:white;"/>
        </g>
        <g transform="matrix(1,0,0,1,5.48959,-0.0217109)">
            <rect x="44.94" y="80.86" width="1.629" height="73.701" style="fill:white;"/>
        </g>
        <g transform="matrix(1,0,0,1,16.8346,-0.0217109)">
            <rect x="44.94" y="80.86" width="1.629" height="73.701" style="fill:white;"/>
        </g>
        <g transform="matrix(1,0,0,1,28.1796,-0.0217109)">
            <rect x="44.94" y="80.86" width="1.629" height="73.701" style="fill:white;"/>
        </g>
        <g transform="matrix(1,0,0,1,39.5247,-0.0217109)">
            <rect x="44.94" y="80.86" width="1.629" height="73.701" style="fill:white;"/>
        </g>
        <g transform="matrix(1,0,0,1,50.8697,-0.0217109)">
            <rect x="44.94" y="80.86" width="1.629" height="73.701" style="fill:white;"/>
        </g>
        <g transform="matrix(1,0,0,1,62.2147,-0.0217109)">
            <rect x="44.94" y="80.86" width="1.629" height="73.701" style="fill:white;"/>
        </g>
    </g>
    <g transform="matrix(1.36116,1.66693e-16,1.66693e-16,-1.36116,405.209,106.681)">
        <g transform="matrix(0.391526,0,0,0.391526,-273.816,0)">
            <path d="M872.96,23.77L864.64,23.74C864.24,23.74 864.04,23.54 864.04,23.14L864.01,21.41C864.003,21.017 864.197,20.82 864.59,20.82L882.04,20.83C882.353,20.83 882.513,20.983 882.52,21.29L882.57,22.95L882.57,22.965C882.578,23.382 882.238,23.732 881.815,23.74L881.8,23.74L874.53,23.75C873.983,23.75 873.913,23.937 874.32,24.31C876.58,26.383 878.89,28.35 881.25,30.21C882.54,31.24 882.93,32.12 882.48,33.68C882.38,34.027 882.197,34.083 881.93,33.85L874.27,27.28C873.963,27.007 873.657,27.01 873.35,27.29L864.82,35.12C864.6,35.32 864.42,35.287 864.28,35.02C863.633,33.747 863.72,32.67 864.54,31.79C865.633,30.617 868.48,28.057 873.08,24.11C873.347,23.883 873.307,23.77 872.96,23.77Z" style="fill:white;fill-rule:nonzero;"/>
        </g>
        <g transform="matrix(0.391526,0,0,0.391526,-273.816,0)">
            <path d="M872.23,42.17L866.69,42.22C866.471,42.22 866.29,42.401 866.29,42.62L866.29,52.04C866.29,52.252 866.122,52.429 865.91,52.44L864.43,52.5C864.423,52.5 864.417,52.501 864.41,52.501C864.191,52.501 864.01,52.32 864.01,52.101L864.02,39.65C864.02,39.431 864.201,39.25 864.42,39.25L882.14,39.25C882.359,39.25 882.54,39.431 882.54,39.65L882.53,51.38C882.53,51.6 882.349,51.78 882.13,51.78L882.12,51.78L880.71,51.76C880.494,51.755 880.32,51.576 880.32,51.36L880.3,42.62C880.3,42.401 880.119,42.22 879.9,42.22L875.24,42.21C875.021,42.21 874.84,42.391 874.84,42.61L874.81,49.85C874.81,50.069 874.629,50.25 874.41,50.25L873.02,50.24C872.801,50.24 872.62,50.059 872.62,49.84L872.63,42.57C872.63,42.351 872.449,42.17 872.23,42.17Z" style="fill:white;fill-rule:nonzero;"/>
        </g>
        <g transform="matrix(0.391526,0,0,0.391526,-273.816,0)">
            <path d="M879.92,59.86L875.23,59.81C875.014,59.81 874.835,59.984 874.83,60.2L874.81,67.59C874.81,67.809 874.629,67.99 874.41,67.99L873.03,68C872.811,68 872.63,67.819 872.63,67.6L872.62,60.26C872.62,60.041 872.439,59.86 872.22,59.86L866.69,59.8C866.471,59.8 866.29,59.981 866.29,60.2L866.28,69.75C866.277,69.948 866.127,70.115 865.93,70.14L864.48,70.32C864.463,70.322 864.447,70.323 864.43,70.323C864.213,70.323 864.034,70.147 864.03,69.93L864.02,57.39C864.02,57.171 864.201,56.99 864.42,56.99L882.14,56.99C882.359,56.99 882.54,57.171 882.54,57.39L882.53,69.11C882.53,69.329 882.349,69.51 882.13,69.51L880.71,69.5C880.491,69.5 880.31,69.319 880.31,69.1L880.31,60.26C880.31,60.044 880.136,59.865 879.92,59.86Z" style="fill:white;fill-rule:nonzero;"/>
        </g>
        <g transform="matrix(0.391526,0,0,0.391526,-273.816,0)">
            <path d="M870.48,77.77L864.74,77.74C864.24,77.74 863.997,77.49 864.01,76.99L864.05,75.38C864.057,75.013 864.247,74.83 864.62,74.83L882,74.83C882.3,74.83 882.457,74.98 882.47,75.28C882.63,78.09 883.01,83.71 881.64,86.13C880.44,88.24 877.3,88.7 875.41,88.01C871.72,86.66 870.78,81.99 871.08,78.42C871.081,78.403 871.082,78.387 871.082,78.37C871.082,78.041 870.811,77.77 870.482,77.77L870.48,77.77ZM879.84,77.75L873.66,77.71C873.402,77.71 873.19,77.922 873.19,78.18L873.17,80.66L873.17,80.663C873.157,83.137 874.65,85.18 876.476,85.19L876.94,85.19C878.765,85.197 880.276,83.171 880.29,80.7L880.31,78.22C880.31,77.962 880.098,77.75 879.84,77.75Z" style="fill:white;fill-rule:nonzero;"/>
        </g>
        <g transform="matrix(-0.391526,4.79481e-17,-4.79481e-17,-0.391526,410.283,72.0228)">
            <path d="M898.78,76.67L918.77,89.36C918.867,89.42 918.925,89.526 918.925,89.64C918.925,89.754 918.867,89.86 918.77,89.92L898.78,102.61C898.726,102.645 898.664,102.663 898.6,102.663C898.419,102.663 898.27,102.514 898.27,102.333L898.27,76.947C898.27,76.766 898.419,76.617 898.6,76.617C898.664,76.617 898.726,76.635 898.78,76.67Z" style="fill:white;fill-rule:nonzero;"/>
        </g>
        <g transform="matrix(0.391526,0,0,0.391526,-273.816,0)">
            <path d="M868.19,111.3L864.64,110.04C864.307,109.92 864.13,109.683 864.11,109.33L864,107.87C863.967,107.383 864.177,107.23 864.63,107.41L881.51,114.08C882.272,114.381 882.775,115.121 882.775,115.94C882.775,116.759 882.272,117.499 881.51,117.8L864.72,124.45C864.267,124.63 864.04,124.477 864.04,123.99L864.02,122.04C864.02,121.7 864.18,121.473 864.5,121.36L868.08,120.11C868.433,119.983 868.61,119.733 868.61,119.36L868.64,111.94C868.64,111.62 868.49,111.407 868.19,111.3ZM871.25,112.54C871.215,112.527 871.178,112.52 871.14,112.52C870.965,112.52 870.82,112.665 870.82,112.84L870.82,118.5C870.82,118.675 870.965,118.82 871.14,118.82C871.178,118.82 871.215,118.813 871.25,118.8L878.76,115.97C878.885,115.924 878.969,115.803 878.969,115.67C878.969,115.537 878.885,115.416 878.76,115.37L871.25,112.54Z" style="fill:white;fill-rule:nonzero;"/>
        </g>
        <g transform="matrix(0.391526,0,0,0.391526,-273.816,0)">
            <path d="M868.49,130.03L877.56,132.08C878.336,132.257 878.89,132.952 878.89,133.747C878.89,134.535 878.346,135.226 877.58,135.41L868.99,137.45C868.023,137.683 868.03,137.873 869.01,138.02L881.94,139.97C882.353,140.037 882.56,140.277 882.56,140.69L882.56,141.77C882.56,142.163 882.367,142.327 881.98,142.26L865.31,139.55C864.404,139.403 863.732,138.612 863.732,137.694C863.732,136.818 864.345,136.052 865.2,135.86L873.48,133.97C874.12,133.83 874.127,133.66 873.5,133.46C870.8,132.62 868.033,131.983 865.2,131.55C864.228,131.395 863.506,130.549 863.506,129.565C863.506,128.581 864.228,127.735 865.2,127.58L881.84,125.09C881.86,125.087 881.881,125.085 881.902,125.084C882.263,125.068 882.574,125.348 882.59,125.704C882.591,125.726 882.591,125.748 882.59,125.77L882.52,127C882.504,127.288 882.286,127.528 882,127.57L868.51,129.57C867.677,129.697 867.67,129.85 868.49,130.03Z" style="fill:white;fill-rule:nonzero;"/>
        </g>
        <g transform="matrix(0.391526,0,0,0.391526,-273.816,0)">
            <path d="M868.06,146.76L864.55,145.42C864.143,145.267 863.957,144.973 863.99,144.54L864.08,143.38C864.12,142.907 864.36,142.757 864.8,142.93L881.5,149.54C881.754,149.641 881.985,149.794 882.178,149.987C882.958,150.767 882.961,152.047 882.185,152.823C881.99,153.018 881.757,153.17 881.5,153.27L864.71,159.91C864.283,160.077 864.067,159.93 864.06,159.47L864.02,157.55C864.013,157.217 864.167,156.993 864.48,156.88L868.04,155.54C868.394,155.413 868.631,155.076 868.63,154.7L868.62,147.57C868.62,147.17 868.433,146.9 868.06,146.76ZM871.22,148.01C871.185,147.997 871.147,147.99 871.11,147.99C870.934,147.99 870.79,148.135 870.79,148.31L870.79,148.32L870.81,154C870.81,154.175 870.955,154.32 871.13,154.32C871.168,154.32 871.205,154.313 871.24,154.3L878.67,151.43C878.793,151.382 878.874,151.263 878.874,151.132C878.874,150.996 878.788,150.875 878.66,150.83L871.22,148.01Z" style="fill:white;fill-rule:nonzero;"/>
        </g>
        <g transform="matrix(0.391526,0,0,0.391526,-273.816,0)">
            <path d="M874.72,169.77C877.08,171.517 879.513,173.17 882.02,174.73C882.82,175.237 882.92,176.107 882.32,177.34C882.187,177.607 881.997,177.657 881.75,177.49L872.14,170.95C871.833,170.743 871.49,170.637 871.11,170.63L864.6,170.63C864.24,170.63 864.057,170.453 864.05,170.1L864.01,168.23C864.003,167.883 864.173,167.71 864.52,167.71L871.24,167.72C871.475,167.72 871.708,167.65 871.91,167.52L881.82,161.1C882.293,160.787 882.533,160.917 882.54,161.49L882.54,163.43C882.547,163.837 882.377,164.147 882.03,164.36L874.75,168.94C874.33,169.2 874.32,169.477 874.72,169.77Z" style="fill:white;fill-rule:nonzero;"/>
        </g>
    </g>
    <g transform="matrix(-2.67495e-16,-4.36852,-4.16667,2.55135e-16,581.319,278.759)">
        <g transform="matrix(5.29588,0,0,5.29588,0,3.57369)">
            <path d="M0.201,-0L0.201,-0.246L0.009,-0.623L0.134,-0.623L0.262,-0.371L0.376,-0.623L0.497,-0.623L0.319,-0.245L0.319,-0L0.201,-0Z" style="fill:white;fill-rule:nonzero;"/>
        </g>
        <g transform="matrix(5.29588,0,0,5.29588,2.64794,3.57369)">
            <rect x="0.064" y="-0.366" width="0.375" height="0.091" style="fill:white;fill-rule:nonzero;"/>
        </g>
        <g transform="matrix(5.29588,0,0,5.29588,5.29588,3.57369)">
            <path d="M0.189,-0L0.189,-0.526L0.02,-0.526L0.02,-0.623L0.479,-0.623L0.479,-0.526L0.303,-0.526L0.303,-0L0.189,-0Z" style="fill:white;fill-rule:nonzero;"/>
        </g>
        <g transform="matrix(5.29588,0,0,5.29588,7.94383,3.57369)">
            <path d="M0.056,-0L0.056,-0.623L0.462,-0.623L0.462,-0.527L0.165,-0.527L0.165,-0.373L0.411,-0.373L0.411,-0.275L0.165,-0.275L0.165,-0.096L0.46,-0.096L0.46,-0L0.056,-0Z" style="fill:white;fill-rule:nonzero;"/>
        </g>
        <g transform="matrix(5.29588,0,0,5.29588,10.5918,3.57369)">
            <path d="M0.032,-0.623L0.169,-0.623L0.367,-0.177L0.367,-0.623L0.476,-0.623L0.476,-0.612C0.472,-0.608 0.47,-0.604 0.469,-0.599C0.468,-0.594 0.467,-0.586 0.468,-0.575L0.468,-0L0.344,-0L0.133,-0.471L0.133,-0L0.032,-0L0.032,-0.623Z" style="fill:white;fill-rule:nonzero;"/>
        </g>
        <g transform="matrix(5.29588,0,0,5.29588,13.2397,3.57369)">
            <path d="M0.297,-0.361C0.339,-0.341 0.372,-0.321 0.396,-0.302C0.419,-0.284 0.436,-0.264 0.445,-0.244C0.455,-0.223 0.46,-0.199 0.46,-0.172C0.46,-0.139 0.452,-0.108 0.437,-0.079C0.422,-0.05 0.398,-0.027 0.365,-0.009C0.331,0.009 0.29,0.018 0.239,0.018C0.158,0.018 0.087,-0.011 0.028,-0.069L0.077,-0.154L0.077,-0.155L0.078,-0.154C0.127,-0.103 0.183,-0.078 0.248,-0.078C0.279,-0.078 0.303,-0.085 0.321,-0.1C0.338,-0.115 0.346,-0.137 0.346,-0.166C0.346,-0.181 0.343,-0.194 0.335,-0.206C0.328,-0.218 0.315,-0.23 0.298,-0.242C0.28,-0.254 0.255,-0.267 0.224,-0.281C0.166,-0.306 0.124,-0.334 0.098,-0.365C0.072,-0.396 0.059,-0.433 0.059,-0.474C0.059,-0.504 0.067,-0.532 0.084,-0.557C0.101,-0.582 0.124,-0.602 0.154,-0.617C0.183,-0.632 0.216,-0.639 0.253,-0.639C0.294,-0.639 0.33,-0.632 0.36,-0.619C0.39,-0.605 0.418,-0.584 0.446,-0.555L0.39,-0.477L0.389,-0.476C0.389,-0.476 0.389,-0.476 0.389,-0.476L0.389,-0.477C0.373,-0.501 0.354,-0.519 0.33,-0.53C0.306,-0.541 0.28,-0.547 0.252,-0.547C0.234,-0.547 0.218,-0.544 0.205,-0.537C0.192,-0.531 0.182,-0.523 0.175,-0.512C0.168,-0.502 0.165,-0.49 0.165,-0.478C0.165,-0.463 0.169,-0.45 0.177,-0.439C0.184,-0.428 0.197,-0.416 0.216,-0.405C0.234,-0.393 0.261,-0.378 0.297,-0.361ZM0.375,-0.478C0.375,-0.478 0.376,-0.479 0.376,-0.479C0.377,-0.479 0.378,-0.478 0.381,-0.476C0.383,-0.474 0.385,-0.473 0.386,-0.472L0.385,-0.47L0.375,-0.476L0.375,-0.478ZM0.389,-0.476C0.391,-0.472 0.393,-0.47 0.393,-0.469C0.393,-0.469 0.392,-0.469 0.392,-0.469C0.391,-0.469 0.389,-0.47 0.386,-0.472L0.389,-0.476ZM0.091,-0.154C0.091,-0.154 0.091,-0.153 0.09,-0.153C0.089,-0.153 0.088,-0.154 0.085,-0.155C0.083,-0.157 0.081,-0.158 0.079,-0.158L0.081,-0.162L0.091,-0.156L0.091,-0.154ZM0.077,-0.155C0.075,-0.157 0.073,-0.159 0.073,-0.16L0.073,-0.16C0.073,-0.161 0.073,-0.161 0.074,-0.161L0.079,-0.158L0.077,-0.155Z" style="fill:white;fill-rule:nonzero;"/>
        </g>
        <g transform="matrix(5.29588,0,0,5.29588,15.8877,3.57369)">
            <path d="M0.073,-0L0.073,-0.093L0.194,-0.093L0.194,-0.53L0.079,-0.53L0.079,-0.623L0.427,-0.623L0.427,-0.53L0.306,-0.53L0.306,-0.092L0.432,-0.092L0.432,-0L0.073,-0Z" style="fill:white;fill-rule:nonzero;"/>
        </g>
        <g transform="matrix(5.29588,0,0,5.29588,18.5356,3.57369)">
            <path d="M0.253,0.018C0.204,0.018 0.162,0.005 0.126,-0.021C0.091,-0.047 0.064,-0.085 0.045,-0.135C0.026,-0.185 0.017,-0.244 0.017,-0.313C0.017,-0.381 0.026,-0.439 0.045,-0.488C0.064,-0.537 0.091,-0.574 0.126,-0.6C0.162,-0.626 0.204,-0.639 0.253,-0.639C0.302,-0.639 0.344,-0.626 0.38,-0.6C0.415,-0.574 0.442,-0.537 0.461,-0.488C0.479,-0.439 0.489,-0.381 0.489,-0.313C0.489,-0.244 0.479,-0.185 0.461,-0.135C0.442,-0.085 0.415,-0.047 0.38,-0.021C0.344,0.005 0.302,0.018 0.253,0.018ZM0.253,-0.072C0.278,-0.072 0.299,-0.082 0.317,-0.102C0.335,-0.123 0.349,-0.151 0.359,-0.189C0.368,-0.226 0.373,-0.269 0.373,-0.319C0.373,-0.365 0.368,-0.405 0.359,-0.44C0.349,-0.474 0.335,-0.501 0.317,-0.52C0.299,-0.539 0.278,-0.549 0.253,-0.549C0.229,-0.549 0.207,-0.539 0.189,-0.52C0.171,-0.501 0.157,-0.474 0.147,-0.44C0.138,-0.405 0.133,-0.365 0.133,-0.319C0.133,-0.269 0.138,-0.226 0.147,-0.189C0.157,-0.151 0.171,-0.123 0.189,-0.102C0.207,-0.082 0.228,-0.072 0.253,-0.072Z" style="fill:white;fill-rule:nonzero;"/>
        </g>
        <g transform="matrix(5.29588,0,0,5.29588,21.1835,3.57369)">
            <path d="M0.032,-0.623L0.169,-0.623L0.367,-0.177L0.367,-0.623L0.476,-0.623L0.476,-0.612C0.472,-0.608 0.47,-0.604 0.469,-0.599C0.468,-0.594 0.467,-0.586 0.468,-0.575L0.468,-0L0.344,-0L0.133,-0.471L0.133,-0L0.032,-0L0.032,-0.623Z" style="fill:white;fill-rule:nonzero;"/>
        </g>
        <g transform="matrix(5.29588,0,0,5.29588,23.8315,3.57369)">
            <path d="M0.056,-0L0.056,-0.623L0.462,-0.623L0.462,-0.527L0.165,-0.527L0.165,-0.373L0.411,-0.373L0.411,-0.275L0.165,-0.275L0.165,-0.096L0.46,-0.096L0.46,-0L0.056,-0Z" style="fill:white;fill-rule:nonzero;"/>
        </g>
        <g transform="matrix(5.29588,0,0,5.29588,26.4794,3.57369)">
            <path d="M0.047,-0.623L0.244,-0.623C0.319,-0.623 0.374,-0.607 0.409,-0.574C0.444,-0.541 0.462,-0.496 0.462,-0.437C0.462,-0.414 0.457,-0.391 0.447,-0.369C0.437,-0.346 0.423,-0.326 0.405,-0.308C0.387,-0.291 0.366,-0.278 0.343,-0.271L0.489,-0L0.363,-0L0.234,-0.258L0.161,-0.258L0.161,-0L0.047,-0L0.047,-0.623ZM0.251,-0.353C0.283,-0.353 0.307,-0.361 0.323,-0.375C0.339,-0.39 0.347,-0.411 0.347,-0.437C0.347,-0.466 0.339,-0.488 0.324,-0.502C0.309,-0.517 0.284,-0.524 0.251,-0.524L0.161,-0.524L0.161,-0.353L0.251,-0.353Z" style="fill:white;fill-rule:nonzero;"/>
        </g>
    </g>
    <g transform="matrix(-3.02532,0,0,3.02532,93.5791,-41.4332)">
        <g transform="matrix(1.04844,0,0,1,0.0133294,0)">
            <g transform="matrix(5.29588,0,0,5.29588,-0.27515,56.6483)">
                <path d="M0.201,-0L0.201,-0.246L0.009,-0.623L0.134,-0.623L0.262,-0.371L0.376,-0.623L0.497,-0.623L0.319,-0.245L0.319,-0L0.201,-0Z" style="fill:white;fill-rule:nonzero;"/>
            </g>
            <g transform="matrix(5.29588,0,0,5.29588,2.37279,56.6483)">
                <path d="M0.233,-0.299C0.22,-0.299 0.208,-0.302 0.197,-0.308C0.185,-0.314 0.176,-0.323 0.169,-0.333C0.163,-0.344 0.159,-0.355 0.159,-0.367C0.159,-0.379 0.163,-0.39 0.169,-0.401C0.176,-0.411 0.185,-0.42 0.197,-0.426C0.208,-0.432 0.22,-0.435 0.233,-0.435C0.245,-0.435 0.257,-0.432 0.269,-0.426C0.28,-0.42 0.29,-0.412 0.297,-0.402C0.304,-0.391 0.308,-0.38 0.308,-0.367C0.308,-0.355 0.305,-0.344 0.298,-0.333C0.291,-0.323 0.282,-0.314 0.27,-0.308C0.259,-0.302 0.246,-0.299 0.233,-0.299ZM0.233,0.013C0.22,0.013 0.207,0.01 0.196,0.004C0.184,-0.002 0.175,-0.01 0.169,-0.021C0.162,-0.031 0.159,-0.042 0.159,-0.054C0.159,-0.067 0.163,-0.078 0.169,-0.089C0.176,-0.099 0.185,-0.108 0.197,-0.114C0.208,-0.12 0.22,-0.123 0.233,-0.123C0.245,-0.123 0.257,-0.12 0.269,-0.114C0.28,-0.108 0.29,-0.1 0.297,-0.089C0.304,-0.079 0.308,-0.067 0.308,-0.054C0.308,-0.042 0.305,-0.031 0.298,-0.021C0.291,-0.01 0.282,-0.002 0.271,0.004C0.259,0.01 0.247,0.013 0.233,0.013Z" style="fill:white;fill-rule:nonzero;"/>
            </g>
            <g transform="matrix(5.29588,0,0,5.29588,5.02073,56.6483)">
                <path d="M0.209,-0L0.209,-0.496L0.102,-0.464L0.075,-0.532L0.244,-0.623L0.319,-0.623L0.319,-0L0.209,-0Z" style="fill:white;fill-rule:nonzero;"/>
            </g>
            <g transform="matrix(5.29588,0,0,5.29588,7.66868,56.6483)">
                <path d="M0.209,-0L0.209,-0.496L0.102,-0.464L0.075,-0.532L0.244,-0.623L0.319,-0.623L0.319,-0L0.209,-0Z" style="fill:white;fill-rule:nonzero;"/>
            </g>
            <g transform="matrix(5.29588,0,0,5.29588,10.3166,56.6483)">
                <path d="M0.25,0.019C0.211,0.019 0.176,0.011 0.144,-0.005C0.113,-0.021 0.088,-0.043 0.069,-0.071C0.051,-0.098 0.042,-0.129 0.042,-0.162C0.042,-0.195 0.052,-0.226 0.073,-0.257C0.094,-0.287 0.122,-0.312 0.157,-0.331C0.132,-0.348 0.111,-0.369 0.095,-0.394C0.079,-0.419 0.071,-0.445 0.071,-0.471C0.071,-0.501 0.079,-0.529 0.096,-0.555C0.112,-0.581 0.135,-0.601 0.163,-0.616C0.191,-0.632 0.222,-0.639 0.256,-0.639C0.29,-0.639 0.321,-0.632 0.348,-0.617C0.376,-0.603 0.398,-0.583 0.414,-0.558C0.43,-0.533 0.438,-0.506 0.438,-0.477C0.438,-0.451 0.429,-0.425 0.412,-0.399C0.395,-0.373 0.374,-0.352 0.347,-0.334C0.38,-0.315 0.407,-0.291 0.428,-0.261C0.449,-0.23 0.459,-0.199 0.459,-0.165C0.459,-0.131 0.45,-0.1 0.431,-0.072C0.413,-0.044 0.387,-0.022 0.355,-0.005C0.324,0.011 0.288,0.019 0.25,0.019ZM0.266,-0.38C0.284,-0.392 0.298,-0.406 0.309,-0.423C0.32,-0.439 0.325,-0.457 0.325,-0.474C0.325,-0.486 0.322,-0.497 0.315,-0.507C0.309,-0.517 0.3,-0.526 0.289,-0.532C0.278,-0.538 0.266,-0.541 0.253,-0.541C0.24,-0.541 0.228,-0.538 0.218,-0.532C0.207,-0.526 0.199,-0.518 0.193,-0.509C0.187,-0.499 0.184,-0.488 0.184,-0.476C0.184,-0.441 0.211,-0.409 0.266,-0.38ZM0.252,-0.082C0.269,-0.082 0.284,-0.086 0.298,-0.093C0.311,-0.101 0.322,-0.111 0.329,-0.124C0.337,-0.136 0.341,-0.15 0.341,-0.166C0.341,-0.19 0.332,-0.212 0.313,-0.233C0.294,-0.254 0.27,-0.27 0.239,-0.281C0.216,-0.269 0.197,-0.253 0.182,-0.233C0.167,-0.213 0.16,-0.192 0.16,-0.169C0.16,-0.154 0.164,-0.139 0.173,-0.126C0.181,-0.113 0.192,-0.102 0.206,-0.094C0.22,-0.086 0.236,-0.082 0.252,-0.082Z" style="fill:white;fill-rule:nonzero;"/>
            </g>
            <g transform="matrix(5.29588,0,0,5.29588,12.9646,56.6483)">
                <path d="M0.043,-0.623L0.166,-0.623L0.166,-0.612C0.162,-0.608 0.16,-0.604 0.159,-0.599C0.158,-0.594 0.158,-0.586 0.158,-0.575L0.158,-0.37L0.342,-0.37L0.342,-0.623L0.465,-0.623L0.465,-0.612C0.461,-0.608 0.459,-0.604 0.458,-0.599C0.457,-0.594 0.457,-0.586 0.457,-0.575L0.457,-0L0.342,-0L0.342,-0.277L0.158,-0.277L0.158,-0L0.043,-0L0.043,-0.623Z" style="fill:white;fill-rule:nonzero;"/>
            </g>
            <g transform="matrix(5.29588,0,0,5.29588,15.6125,56.6483)">
                <path d="M0.041,-0.068L0.323,-0.526L0.052,-0.526L0.052,-0.623L0.461,-0.623L0.461,-0.555L0.184,-0.096L0.428,-0.096C0.438,-0.096 0.446,-0.097 0.451,-0.098C0.456,-0.099 0.461,-0.101 0.465,-0.105L0.476,-0.105L0.476,-0L0.041,-0L0.041,-0.068Z" style="fill:white;fill-rule:nonzero;"/>
            </g>
        </g>
        <g transform="matrix(1.04844,0,0,1,0.0133294,0)">
            <g transform="matrix(5.29588,0,0,5.29588,-0.27515,61.9442)">
                <path d="M0.021,-0L0.189,-0.318L0.023,-0.623L0.145,-0.623L0.253,-0.419L0.358,-0.623L0.474,-0.623L0.319,-0.319L0.494,-0L0.368,-0L0.254,-0.214L0.143,-0L0.021,-0Z" style="fill:white;fill-rule:nonzero;"/>
            </g>
            <g transform="matrix(5.29588,0,0,5.29588,2.37279,61.9442)">
                <path d="M0.233,-0.299C0.22,-0.299 0.208,-0.302 0.197,-0.308C0.185,-0.314 0.176,-0.323 0.169,-0.333C0.163,-0.344 0.159,-0.355 0.159,-0.367C0.159,-0.379 0.163,-0.39 0.169,-0.401C0.176,-0.411 0.185,-0.42 0.197,-0.426C0.208,-0.432 0.22,-0.435 0.233,-0.435C0.245,-0.435 0.257,-0.432 0.269,-0.426C0.28,-0.42 0.29,-0.412 0.297,-0.402C0.304,-0.391 0.308,-0.38 0.308,-0.367C0.308,-0.355 0.305,-0.344 0.298,-0.333C0.291,-0.323 0.282,-0.314 0.27,-0.308C0.259,-0.302 0.246,-0.299 0.233,-0.299ZM0.233,0.013C0.22,0.013 0.207,0.01 0.196,0.004C0.184,-0.002 0.175,-0.01 0.169,-0.021C0.162,-0.031 0.159,-0.042 0.159,-0.054C0.159,-0.067 0.163,-0.078 0.169,-0.089C0.176,-0.099 0.185,-0.108 0.197,-0.114C0.208,-0.12 0.22,-0.123 0.233,-0.123C0.245,-0.123 0.257,-0.12 0.269,-0.114C0.28,-0.108 0.29,-0.1 0.297,-0.089C0.304,-0.079 0.308,-0.067 0.308,-0.054C0.308,-0.042 0.305,-0.031 0.298,-0.021C0.291,-0.01 0.282,-0.002 0.271,0.004C0.259,0.01 0.247,0.013 0.233,0.013Z" style="fill:white;fill-rule:nonzero;"/>
            </g>
            <g transform="matrix(5.29588,0,0,5.29588,5.02073,61.9442)">
                <path d="M0.209,-0L0.209,-0.496L0.102,-0.464L0.075,-0.532L0.244,-0.623L0.319,-0.623L0.319,-0L0.209,-0Z" style="fill:white;fill-rule:nonzero;"/>
            </g>
            <g transform="matrix(5.29588,0,0,5.29588,7.66868,61.9442)">
                <path d="M0.25,-0.635C0.295,-0.635 0.334,-0.622 0.366,-0.596C0.398,-0.57 0.423,-0.533 0.44,-0.484C0.457,-0.435 0.466,-0.376 0.466,-0.308C0.466,-0.24 0.457,-0.181 0.44,-0.132C0.423,-0.083 0.398,-0.046 0.366,-0.02C0.334,0.006 0.295,0.019 0.25,0.019C0.205,0.019 0.166,0.006 0.134,-0.02C0.102,-0.046 0.077,-0.083 0.06,-0.132C0.043,-0.181 0.034,-0.24 0.034,-0.308C0.034,-0.376 0.043,-0.435 0.06,-0.484C0.077,-0.533 0.102,-0.57 0.134,-0.596C0.166,-0.622 0.205,-0.635 0.25,-0.635ZM0.25,-0.545C0.227,-0.545 0.208,-0.536 0.191,-0.517C0.175,-0.498 0.163,-0.471 0.154,-0.436C0.145,-0.4 0.141,-0.358 0.141,-0.308C0.141,-0.283 0.142,-0.258 0.145,-0.233L0.338,-0.462C0.329,-0.489 0.317,-0.51 0.302,-0.524C0.287,-0.538 0.27,-0.545 0.25,-0.545ZM0.25,-0.071C0.273,-0.071 0.292,-0.08 0.309,-0.099C0.325,-0.118 0.337,-0.145 0.346,-0.181C0.355,-0.216 0.359,-0.259 0.359,-0.308C0.359,-0.337 0.357,-0.364 0.354,-0.388L0.161,-0.157C0.17,-0.129 0.182,-0.108 0.197,-0.093C0.212,-0.078 0.23,-0.071 0.25,-0.071Z" style="fill:white;fill-rule:nonzero;"/>
            </g>
            <g transform="matrix(5.29588,0,0,5.29588,10.3166,61.9442)">
                <path d="M0.25,0.019C0.211,0.019 0.176,0.011 0.144,-0.005C0.113,-0.021 0.088,-0.043 0.069,-0.071C0.051,-0.098 0.042,-0.129 0.042,-0.162C0.042,-0.195 0.052,-0.226 0.073,-0.257C0.094,-0.287 0.122,-0.312 0.157,-0.331C0.132,-0.348 0.111,-0.369 0.095,-0.394C0.079,-0.419 0.071,-0.445 0.071,-0.471C0.071,-0.501 0.079,-0.529 0.096,-0.555C0.112,-0.581 0.135,-0.601 0.163,-0.616C0.191,-0.632 0.222,-0.639 0.256,-0.639C0.29,-0.639 0.321,-0.632 0.348,-0.617C0.376,-0.603 0.398,-0.583 0.414,-0.558C0.43,-0.533 0.438,-0.506 0.438,-0.477C0.438,-0.451 0.429,-0.425 0.412,-0.399C0.395,-0.373 0.374,-0.352 0.347,-0.334C0.38,-0.315 0.407,-0.291 0.428,-0.261C0.449,-0.23 0.459,-0.199 0.459,-0.165C0.459,-0.131 0.45,-0.1 0.431,-0.072C0.413,-0.044 0.387,-0.022 0.355,-0.005C0.324,0.011 0.288,0.019 0.25,0.019ZM0.266,-0.38C0.284,-0.392 0.298,-0.406 0.309,-0.423C0.32,-0.439 0.325,-0.457 0.325,-0.474C0.325,-0.486 0.322,-0.497 0.315,-0.507C0.309,-0.517 0.3,-0.526 0.289,-0.532C0.278,-0.538 0.266,-0.541 0.253,-0.541C0.24,-0.541 0.228,-0.538 0.218,-0.532C0.207,-0.526 0.199,-0.518 0.193,-0.509C0.187,-0.499 0.184,-0.488 0.184,-0.476C0.184,-0.441 0.211,-0.409 0.266,-0.38ZM0.252,-0.082C0.269,-0.082 0.284,-0.086 0.298,-0.093C0.311,-0.101 0.322,-0.111 0.329,-0.124C0.337,-0.136 0.341,-0.15 0.341,-0.166C0.341,-0.19 0.332,-0.212 0.313,-0.233C0.294,-0.254 0.27,-0.27 0.239,-0.281C0.216,-0.269 0.197,-0.253 0.182,-0.233C0.167,-0.213 0.16,-0.192 0.16,-0.169C0.16,-0.154 0.164,-0.139 0.173,-0.126C0.181,-0.113 0.192,-0.102 0.206,-0.094C0.22,-0.086 0.236,-0.082 0.252,-0.082Z" style="fill:white;fill-rule:nonzero;"/>
            </g>
            <g transform="matrix(5.29588,0,0,5.29588,12.9646,61.9442)">
                <path d="M0.043,-0.623L0.166,-0.623L0.166,-0.612C0.162,-0.608 0.16,-0.604 0.159,-0.599C0.158,-0.594 0.158,-0.586 0.158,-0.575L0.158,-0.37L0.342,-0.37L0.342,-0.623L0.465,-0.623L0.465,-0.612C0.461,-0.608 0.459,-0.604 0.458,-0.599C0.457,-0.594 0.457,-0.586 0.457,-0.575L0.457,-0L0.342,-0L0.342,-0.277L0.158,-0.277L0.158,-0L0.043,-0L0.043,-0.623Z" style="fill:white;fill-rule:nonzero;"/>
            </g>
            <g transform="matrix(5.29588,0,0,5.29588,15.6125,61.9442)">
                <path d="M0.041,-0.068L0.323,-0.526L0.052,-0.526L0.052,-0.623L0.461,-0.623L0.461,-0.555L0.184,-0.096L0.428,-0.096C0.438,-0.096 0.446,-0.097 0.451,-0.098C0.456,-0.099 0.461,-0.101 0.465,-0.105L0.476,-0.105L0.476,-0L0.041,-0L0.041,-0.068Z" style="fill:white;fill-rule:nonzero;"/>
            </g>
        </g>
        <g transform="matrix(1.04844,0,0,1,0.0133294,0)">
            <g transform="matrix(5.29588,0,0,5.29588,-0.27515,67.2401)">
                <path d="M0.041,-0.068L0.323,-0.526L0.052,-0.526L0.052,-0.623L0.461,-0.623L0.461,-0.555L0.184,-0.096L0.428,-0.096C0.438,-0.096 0.446,-0.097 0.451,-0.098C0.456,-0.099 0.461,-0.101 0.465,-0.105L0.476,-0.105L0.476,-0L0.041,-0L0.041,-0.068Z" style="fill:white;fill-rule:nonzero;"/>
            </g>
            <g transform="matrix(5.29588,0,0,5.29588,2.37279,67.2401)">
                <path d="M0.233,-0.299C0.22,-0.299 0.208,-0.302 0.197,-0.308C0.185,-0.314 0.176,-0.323 0.169,-0.333C0.163,-0.344 0.159,-0.355 0.159,-0.367C0.159,-0.379 0.163,-0.39 0.169,-0.401C0.176,-0.411 0.185,-0.42 0.197,-0.426C0.208,-0.432 0.22,-0.435 0.233,-0.435C0.245,-0.435 0.257,-0.432 0.269,-0.426C0.28,-0.42 0.29,-0.412 0.297,-0.402C0.304,-0.391 0.308,-0.38 0.308,-0.367C0.308,-0.355 0.305,-0.344 0.298,-0.333C0.291,-0.323 0.282,-0.314 0.27,-0.308C0.259,-0.302 0.246,-0.299 0.233,-0.299ZM0.233,0.013C0.22,0.013 0.207,0.01 0.196,0.004C0.184,-0.002 0.175,-0.01 0.169,-0.021C0.162,-0.031 0.159,-0.042 0.159,-0.054C0.159,-0.067 0.163,-0.078 0.169,-0.089C0.176,-0.099 0.185,-0.108 0.197,-0.114C0.208,-0.12 0.22,-0.123 0.233,-0.123C0.245,-0.123 0.257,-0.12 0.269,-0.114C0.28,-0.108 0.29,-0.1 0.297,-0.089C0.304,-0.079 0.308,-0.067 0.308,-0.054C0.308,-0.042 0.305,-0.031 0.298,-0.021C0.291,-0.01 0.282,-0.002 0.271,0.004C0.259,0.01 0.247,0.013 0.233,0.013Z" style="fill:white;fill-rule:nonzero;"/>
            </g>
            <g transform="matrix(5.29588,0,0,5.29588,7.66868,67.2401)">
                <path d="M0.252,-0.636C0.315,-0.636 0.363,-0.611 0.396,-0.56C0.428,-0.51 0.445,-0.433 0.445,-0.33C0.445,-0.097 0.374,0.019 0.231,0.019C0.198,0.019 0.166,0.013 0.133,0C0.101,-0.012 0.072,-0.03 0.046,-0.055L0.113,-0.13L0.114,-0.131L0.115,-0.13C0.132,-0.113 0.149,-0.1 0.167,-0.093C0.185,-0.085 0.204,-0.081 0.225,-0.081C0.251,-0.081 0.272,-0.087 0.287,-0.098C0.302,-0.109 0.313,-0.127 0.32,-0.151C0.327,-0.175 0.332,-0.208 0.334,-0.25C0.305,-0.218 0.27,-0.202 0.229,-0.202C0.198,-0.202 0.168,-0.211 0.139,-0.23C0.11,-0.249 0.087,-0.274 0.069,-0.307C0.051,-0.34 0.042,-0.377 0.042,-0.418C0.042,-0.458 0.051,-0.495 0.069,-0.529C0.087,-0.562 0.112,-0.588 0.144,-0.607C0.175,-0.627 0.212,-0.636 0.252,-0.636ZM0.244,-0.301C0.268,-0.301 0.287,-0.307 0.3,-0.319C0.314,-0.33 0.326,-0.348 0.337,-0.372C0.336,-0.416 0.332,-0.449 0.326,-0.473C0.32,-0.497 0.311,-0.513 0.299,-0.522C0.288,-0.532 0.272,-0.536 0.254,-0.536C0.222,-0.536 0.198,-0.525 0.18,-0.503C0.162,-0.482 0.153,-0.451 0.153,-0.411C0.153,-0.374 0.161,-0.347 0.177,-0.328C0.192,-0.31 0.215,-0.301 0.244,-0.301ZM0.127,-0.129C0.127,-0.128 0.127,-0.127 0.125,-0.127C0.124,-0.127 0.121,-0.129 0.115,-0.132L0.119,-0.137L0.127,-0.129L0.127,-0.129ZM0.114,-0.131C0.112,-0.132 0.111,-0.133 0.111,-0.134C0.11,-0.135 0.109,-0.135 0.109,-0.136C0.109,-0.136 0.111,-0.135 0.115,-0.132L0.114,-0.131Z" style="fill:white;fill-rule:nonzero;"/>
            </g>
            <g transform="matrix(5.29588,0,0,5.29588,10.3166,67.2401)">
                <path d="M0.25,-0.635C0.295,-0.635 0.334,-0.622 0.366,-0.596C0.398,-0.57 0.423,-0.533 0.44,-0.484C0.457,-0.435 0.466,-0.376 0.466,-0.308C0.466,-0.24 0.457,-0.181 0.44,-0.132C0.423,-0.083 0.398,-0.046 0.366,-0.02C0.334,0.006 0.295,0.019 0.25,0.019C0.205,0.019 0.166,0.006 0.134,-0.02C0.102,-0.046 0.077,-0.083 0.06,-0.132C0.043,-0.181 0.034,-0.24 0.034,-0.308C0.034,-0.376 0.043,-0.435 0.06,-0.484C0.077,-0.533 0.102,-0.57 0.134,-0.596C0.166,-0.622 0.205,-0.635 0.25,-0.635ZM0.25,-0.545C0.227,-0.545 0.208,-0.536 0.191,-0.517C0.175,-0.498 0.163,-0.471 0.154,-0.436C0.145,-0.4 0.141,-0.358 0.141,-0.308C0.141,-0.283 0.142,-0.258 0.145,-0.233L0.338,-0.462C0.329,-0.489 0.317,-0.51 0.302,-0.524C0.287,-0.538 0.27,-0.545 0.25,-0.545ZM0.25,-0.071C0.273,-0.071 0.292,-0.08 0.309,-0.099C0.325,-0.118 0.337,-0.145 0.346,-0.181C0.355,-0.216 0.359,-0.259 0.359,-0.308C0.359,-0.337 0.357,-0.364 0.354,-0.388L0.161,-0.157C0.17,-0.129 0.182,-0.108 0.197,-0.093C0.212,-0.078 0.23,-0.071 0.25,-0.071Z" style="fill:white;fill-rule:nonzero;"/>
            </g>
            <g transform="matrix(5.29588,0,0,5.29588,12.9646,67.2401)">
                <path d="M0.043,-0.623L0.166,-0.623L0.166,-0.612C0.162,-0.608 0.16,-0.604 0.159,-0.599C0.158,-0.594 0.158,-0.586 0.158,-0.575L0.158,-0.37L0.342,-0.37L0.342,-0.623L0.465,-0.623L0.465,-0.612C0.461,-0.608 0.459,-0.604 0.458,-0.599C0.457,-0.594 0.457,-0.586 0.457,-0.575L0.457,-0L0.342,-0L0.342,-0.277L0.158,-0.277L0.158,-0L0.043,-0L0.043,-0.623Z" style="fill:white;fill-rule:nonzero;"/>
            </g>
            <g transform="matrix(5.29588,0,0,5.29588,15.6125,67.2401)">
                <path d="M0.041,-0.068L0.323,-0.526L0.052,-0.526L0.052,-0.623L0.461,-0.623L0.461,-0.555L0.184,-0.096L0.428,-0.096C0.438,-0.096 0.446,-0.097 0.451,-0.098C0.456,-0.099 0.461,-0.101 0.465,-0.105L0.476,-0.105L0.476,-0L0.041,-0L0.041,-0.068Z" style="fill:white;fill-rule:nonzero;"/>
            </g>
        </g>
    </g>
    <g transform="matrix(-2.49167,0,0,2.37654,428.17,-144.175)">
        <g transform="matrix(5.29588,0,0,5.29588,125.738,106.948)">
            <path d="M0.04,-0.623L0.229,-0.623C0.302,-0.623 0.356,-0.609 0.393,-0.58C0.429,-0.551 0.447,-0.512 0.447,-0.462C0.447,-0.437 0.44,-0.412 0.426,-0.389C0.413,-0.365 0.394,-0.347 0.371,-0.334C0.39,-0.325 0.407,-0.312 0.423,-0.296C0.438,-0.28 0.45,-0.262 0.458,-0.242C0.467,-0.223 0.471,-0.203 0.471,-0.183C0.471,-0.126 0.451,-0.081 0.41,-0.049C0.37,-0.016 0.309,-0 0.228,-0L0.04,-0L0.04,-0.623ZM0.22,-0.38C0.26,-0.38 0.289,-0.387 0.307,-0.4C0.325,-0.414 0.334,-0.433 0.334,-0.456C0.334,-0.469 0.33,-0.482 0.323,-0.493C0.315,-0.504 0.303,-0.513 0.288,-0.52C0.272,-0.526 0.253,-0.53 0.23,-0.53L0.152,-0.53L0.152,-0.38L0.22,-0.38ZM0.239,-0.095C0.276,-0.095 0.305,-0.102 0.324,-0.116C0.344,-0.13 0.354,-0.153 0.354,-0.186C0.354,-0.217 0.344,-0.242 0.323,-0.261C0.302,-0.28 0.268,-0.289 0.223,-0.289L0.152,-0.289L0.152,-0.095L0.239,-0.095Z" style="fill:white;fill-rule:nonzero;"/>
        </g>
        <g transform="matrix(5.29588,0,0,5.29588,128.386,106.948)">
            <path d="M0.056,-0L0.056,-0.623L0.462,-0.623L0.462,-0.527L0.165,-0.527L0.165,-0.373L0.411,-0.373L0.411,-0.275L0.165,-0.275L0.165,-0.096L0.46,-0.096L0.46,-0L0.056,-0Z" style="fill:white;fill-rule:nonzero;"/>
        </g>
        <g transform="matrix(5.29588,0,0,5.29588,131.034,106.948)">
            <path d="M0.061,-0.623L0.184,-0.623L0.184,-0.612C0.18,-0.608 0.178,-0.604 0.177,-0.599C0.176,-0.594 0.175,-0.586 0.176,-0.575L0.176,-0.094L0.459,-0.094L0.459,-0L0.061,-0L0.061,-0.623Z" style="fill:white;fill-rule:nonzero;"/>
        </g>
        <g transform="matrix(5.29588,0,0,5.29588,133.682,106.948)">
            <path d="M0.189,-0L0.189,-0.526L0.02,-0.526L0.02,-0.623L0.479,-0.623L0.479,-0.526L0.303,-0.526L0.303,-0L0.189,-0Z" style="fill:white;fill-rule:nonzero;"/>
        </g>
        <g transform="matrix(5.29588,0,0,5.29588,138.978,106.948)">
            <path d="M0.189,-0L0.189,-0.526L0.02,-0.526L0.02,-0.623L0.479,-0.623L0.479,-0.526L0.303,-0.526L0.303,-0L0.189,-0Z" style="fill:white;fill-rule:nonzero;"/>
        </g>
        <g transform="matrix(5.29588,0,0,5.29588,141.626,106.948)">
            <path d="M0.056,-0L0.056,-0.623L0.462,-0.623L0.462,-0.527L0.165,-0.527L0.165,-0.373L0.411,-0.373L0.411,-0.275L0.165,-0.275L0.165,-0.096L0.46,-0.096L0.46,-0L0.056,-0Z" style="fill:white;fill-rule:nonzero;"/>
        </g>
        <g transform="matrix(5.29588,0,0,5.29588,144.274,106.948)">
            <path d="M0.032,-0.623L0.169,-0.623L0.367,-0.177L0.367,-0.623L0.476,-0.623L0.476,-0.612C0.472,-0.608 0.47,-0.604 0.469,-0.599C0.468,-0.594 0.467,-0.586 0.468,-0.575L0.468,-0L0.344,-0L0.133,-0.471L0.133,-0L0.032,-0L0.032,-0.623Z" style="fill:white;fill-rule:nonzero;"/>
        </g>
        <g transform="matrix(5.29588,0,0,5.29588,146.922,106.948)">
            <path d="M0.297,-0.361C0.339,-0.341 0.372,-0.321 0.396,-0.302C0.419,-0.284 0.436,-0.264 0.445,-0.244C0.455,-0.223 0.46,-0.199 0.46,-0.172C0.46,-0.139 0.452,-0.108 0.437,-0.079C0.422,-0.05 0.398,-0.027 0.365,-0.009C0.331,0.009 0.29,0.018 0.239,0.018C0.158,0.018 0.087,-0.011 0.028,-0.069L0.077,-0.154L0.077,-0.155L0.078,-0.154C0.127,-0.103 0.183,-0.078 0.248,-0.078C0.279,-0.078 0.303,-0.085 0.321,-0.1C0.338,-0.115 0.346,-0.137 0.346,-0.166C0.346,-0.181 0.343,-0.194 0.335,-0.206C0.328,-0.218 0.315,-0.23 0.298,-0.242C0.28,-0.254 0.255,-0.267 0.224,-0.281C0.166,-0.306 0.124,-0.334 0.098,-0.365C0.072,-0.396 0.059,-0.433 0.059,-0.474C0.059,-0.504 0.067,-0.532 0.084,-0.557C0.101,-0.582 0.124,-0.602 0.154,-0.617C0.183,-0.632 0.216,-0.639 0.253,-0.639C0.294,-0.639 0.33,-0.632 0.36,-0.619C0.39,-0.605 0.418,-0.584 0.446,-0.555L0.39,-0.477L0.389,-0.476C0.389,-0.476 0.389,-0.476 0.389,-0.476L0.389,-0.477C0.373,-0.501 0.354,-0.519 0.33,-0.53C0.306,-0.541 0.28,-0.547 0.252,-0.547C0.234,-0.547 0.218,-0.544 0.205,-0.537C0.192,-0.531 0.182,-0.523 0.175,-0.512C0.168,-0.502 0.165,-0.49 0.165,-0.478C0.165,-0.463 0.169,-0.45 0.177,-0.439C0.184,-0.428 0.197,-0.416 0.216,-0.405C0.234,-0.393 0.261,-0.378 0.297,-0.361ZM0.375,-0.478C0.375,-0.478 0.376,-0.479 0.376,-0.479C0.377,-0.479 0.378,-0.478 0.381,-0.476C0.383,-0.474 0.385,-0.473 0.386,-0.472L0.385,-0.47L0.375,-0.476L0.375,-0.478ZM0.389,-0.476C0.391,-0.472 0.393,-0.47 0.393,-0.469C0.393,-0.469 0.392,-0.469 0.392,-0.469C0.391,-0.469 0.389,-0.47 0.386,-0.472L0.389,-0.476ZM0.091,-0.154C0.091,-0.154 0.091,-0.153 0.09,-0.153C0.089,-0.153 0.088,-0.154 0.085,-0.155C0.083,-0.157 0.081,-0.158 0.079,-0.158L0.081,-0.162L0.091,-0.156L0.091,-0.154ZM0.077,-0.155C0.075,-0.157 0.073,-0.159 0.073,-0.16L0.073,-0.16C0.073,-0.161 0.073,-0.161 0.074,-0.161L0.079,-0.158L0.077,-0.155Z" style="fill:white;fill-rule:nonzero;"/>
        </g>
        <g transform="matrix(5.29588,0,0,5.29588,149.57,106.948)">
            <path d="M0.073,-0L0.073,-0.093L0.194,-0.093L0.194,-0.53L0.079,-0.53L0.079,-0.623L0.427,-0.623L0.427,-0.53L0.306,-0.53L0.306,-0.092L0.432,-0.092L0.432,-0L0.073,-0Z" style="fill:white;fill-rule:nonzero;"/>
        </g>
        <g transform="matrix(5.29588,0,0,5.29588,152.218,106.948)">
            <path d="M0.253,0.018C0.204,0.018 0.162,0.005 0.126,-0.021C0.091,-0.047 0.064,-0.085 0.045,-0.135C0.026,-0.185 0.017,-0.244 0.017,-0.313C0.017,-0.381 0.026,-0.439 0.045,-0.488C0.064,-0.537 0.091,-0.574 0.126,-0.6C0.162,-0.626 0.204,-0.639 0.253,-0.639C0.302,-0.639 0.344,-0.626 0.38,-0.6C0.415,-0.574 0.442,-0.537 0.461,-0.488C0.479,-0.439 0.489,-0.381 0.489,-0.313C0.489,-0.244 0.479,-0.185 0.461,-0.135C0.442,-0.085 0.415,-0.047 0.38,-0.021C0.344,0.005 0.302,0.018 0.253,0.018ZM0.253,-0.072C0.278,-0.072 0.299,-0.082 0.317,-0.102C0.335,-0.123 0.349,-0.151 0.359,-0.189C0.368,-0.226 0.373,-0.269 0.373,-0.319C0.373,-0.365 0.368,-0.405 0.359,-0.44C0.349,-0.474 0.335,-0.501 0.317,-0.52C0.299,-0.539 0.278,-0.549 0.253,-0.549C0.229,-0.549 0.207,-0.539 0.189,-0.52C0.171,-0.501 0.157,-0.474 0.147,-0.44C0.138,-0.405 0.133,-0.365 0.133,-0.319C0.133,-0.269 0.138,-0.226 0.147,-0.189C0.157,-0.151 0.171,-0.123 0.189,-0.102C0.207,-0.082 0.228,-0.072 0.253,-0.072Z" style="fill:white;fill-rule:nonzero;"/>
        </g>
        <g transform="matrix(5.29588,0,0,5.29588,154.866,106.948)">
            <path d="M0.032,-0.623L0.169,-0.623L0.367,-0.177L0.367,-0.623L0.476,-0.623L0.476,-0.612C0.472,-0.608 0.47,-0.604 0.469,-0.599C0.468,-0.594 0.467,-0.586 0.468,-0.575L0.468,-0L0.344,-0L0.133,-0.471L0.133,-0L0.032,-0L0.032,-0.623Z" style="fill:white;fill-rule:nonzero;"/>
        </g>
    </g>
</svg>
