<?xml version="1.0" encoding="UTF-8" standalone="no"?>
<!DOCTYPE svg PUBLIC "-//W3C//DTD SVG 1.1//EN" "http://www.w3.org/Graphics/SVG/1.1/DTD/svg11.dtd">
<svg width="100%" height="100%" viewBox="0 0 626 319" version="1.1" xmlns="http://www.w3.org/2000/svg" xmlns:xlink="http://www.w3.org/1999/xlink" xml:space="preserve" xmlns:serif="http://www.serif.com/" style="fill-rule:evenodd;clip-rule:evenodd;stroke-linecap:round;stroke-linejoin:round;">
    <g transform="matrix(-0.623526,-7.63599e-17,7.92968e-17,-0.647508,632.232,408.092)">
        <path d="M10.039,605.959L10.143,608.2L10.453,610.422L10.967,612.606L11.68,614.734L12.586,616.786L13.678,618.746L14.945,620.597L16.379,622.324L17.965,623.91L19.692,625.343L21.543,626.611L23.503,627.703L25.555,628.609L27.683,629.322L29.866,629.836L32.089,630.146L34.33,630.25L512.002,630.25L989.67,630.248L991.911,630.145L994.134,629.835L996.318,629.321L998.445,628.608L1000.5,627.702L1002.46,626.61L1004.31,625.342L1006.03,623.908L1007.62,622.322L1009.05,620.596L1010.32,618.745L1011.41,616.785L1012.32,614.732L1013.03,612.605L1013.55,610.421L1013.86,608.199L1013.96,605.957L1013.96,227.298L1013.86,223.773L1013.56,220.259L1013.07,216.767L1012.38,213.308L1011.5,209.893L1010.43,206.533L1009.17,203.238L1007.73,200.019L1006.11,196.886L1004.32,193.848L1002.36,190.916L1000.24,188.098L997.967,185.404L995.545,182.841L962.123,149.42L960.042,147.482L957.827,145.697L955.491,144.075L953.044,142.624L950.501,141.351L947.873,140.262L945.174,139.364L942.418,138.661L939.619,138.156L936.791,137.852L933.949,137.75L512.001,137.752L511.998,137.752L90.05,137.751L87.207,137.853L84.379,138.157L81.58,138.662L78.824,139.365L76.125,140.264L73.498,141.352L70.954,142.625L68.508,144.077L66.172,145.699L63.957,147.484L61.875,149.422L28.454,182.843L26.031,185.406L23.756,188.1L21.635,190.918L19.676,193.85L17.884,196.888L16.266,200.021L14.825,203.24L13.568,206.535L12.496,209.895L11.616,213.309L10.928,216.768L10.435,220.26L10.138,223.774L10.039,227.3L10.039,605.959" style="fill:none;stroke:rgb(255,229,33);stroke-width:4.17px;"/>
    </g>
    <g transform="matrix(-0.623526,-7.63599e-17,7.63599e-17,-0.623526,632.232,392.977)">
        <circle cx="219.894" cy="416.838" r="31.254" style="fill:none;stroke:rgb(255,229,33);stroke-width:4.17px;"/>
    </g>
    <g transform="matrix(-0.623526,-7.63599e-17,7.63599e-17,-0.623526,632.232,392.977)">
        <circle cx="804.106" cy="416.837" r="31.254" style="fill:none;stroke:rgb(255,229,33);stroke-width:4.17px;"/>
    </g>
</svg>
