<?xml version="1.0" encoding="UTF-8" standalone="no"?>
<!DOCTYPE svg PUBLIC "-//W3C//DTD SVG 1.1//EN" "http://www.w3.org/Graphics/SVG/1.1/DTD/svg11.dtd">
<svg width="100%" height="100%" viewBox="0 0 626 319" version="1.1" xmlns="http://www.w3.org/2000/svg" xmlns:xlink="http://www.w3.org/1999/xlink" xml:space="preserve" xmlns:serif="http://www.serif.com/" style="fill-rule:evenodd;clip-rule:evenodd;stroke-linejoin:round;stroke-miterlimit:2;">
    <g id="Front" transform="matrix(4.16667,0,0,4.16667,-0.00496936,4.26326e-14)">
        <g transform="matrix(0.244236,0,0,0.244236,3.21408,-41.6342)">
            <g transform="matrix(0.391526,0,0,0.391526,0,0)">
                <path d="M877.94,617.02L729.62,826.9C727.922,829.306 725.155,830.74 722.21,830.74C719.265,830.74 716.498,829.306 714.8,826.9L566.49,617.02C565.41,615.49 564.83,613.663 564.83,611.79C564.83,606.814 568.924,602.72 573.9,602.72L870.53,602.72C875.506,602.72 879.6,606.814 879.6,611.79C879.6,613.663 879.02,615.49 877.94,617.02ZM696.7,654.61L666.39,713.98C666.36,714.039 666.345,714.104 666.345,714.17C666.345,714.399 666.531,714.588 666.76,714.59L726.32,714.6C726.61,714.599 726.876,714.437 727.01,714.18L757.26,654.65C757.44,654.297 757.333,654.12 756.94,654.12L746.81,654.09C746.45,654.09 746.187,654.25 746.02,654.57L721.31,702.86C721.157,703.16 720.913,703.31 720.58,703.31C709.307,703.39 698.03,703.54 686.75,703.76C685.58,703.79 685.17,703.29 683.94,703.26C683.42,703.247 683.28,703.007 683.52,702.54L707.81,654.7C708.01,654.313 707.893,654.12 707.46,654.12L697.52,654.11C697.147,654.11 696.873,654.277 696.7,654.61ZM780.42,663.06C779.88,663.473 779.57,663.87 779.49,664.25C778.94,666.86 777.12,669.26 776.3,670.92C773.4,676.86 770.38,682.777 767.24,688.67C767.067,689.003 766.793,689.167 766.42,689.16L746.75,689.05L746.74,689.05C746.493,689.05 746.29,689.253 746.29,689.5L746.27,698.75C746.27,699.063 746.43,699.22 746.75,699.22L761.25,699.25C761.643,699.25 761.75,699.423 761.57,699.77L754.59,713.43C754.183,714.217 754.423,714.613 755.31,714.62L765.01,714.63C765.323,714.637 765.55,714.5 765.69,714.22L795.93,654.76C795.96,654.698 795.976,654.629 795.976,654.56C795.976,654.309 795.771,654.102 795.52,654.1L785.27,654.12C784.899,654.121 784.562,654.336 784.41,654.67L780.57,662.86C780.537,662.939 780.486,663.007 780.42,663.06Z" style="fill:rgb(174,140,69);fill-rule:nonzero;"/>
            </g>
            <g transform="matrix(0.391526,0,0,0.391526,0,0)">
                <path d="M759.02,817.44L908.41,606.29C909.99,604.054 912.562,602.721 915.3,602.72L928.87,602.72C933.499,602.722 937.307,606.531 937.307,611.16C937.307,612.904 936.766,614.606 935.76,616.03L786.36,827.18C784.78,829.416 782.208,830.749 779.47,830.75L765.91,830.75C761.281,830.748 757.473,826.939 757.473,822.31C757.473,820.566 758.014,818.864 759.02,817.44Z" style="fill:rgb(174,140,69);fill-rule:nonzero;"/>
            </g>
        </g>
        <g transform="matrix(0.0872337,0.0872337,-0.0872337,0.0872337,141.61,-99.0168)">
            <g id="screw">
                <g>
                    <path d="M121.8,1253.51L109.13,1273.45C109.068,1273.55 108.958,1273.61 108.84,1273.61C108.722,1273.61 108.612,1273.55 108.55,1273.45L95.9,1253.51C95.866,1253.46 95.848,1253.39 95.848,1253.33C95.848,1253.14 96.002,1252.99 96.188,1252.99L121.512,1252.99C121.698,1252.99 121.852,1253.14 121.852,1253.33C121.852,1253.39 121.834,1253.46 121.8,1253.51Z" style="fill:rgb(174,140,69);fill-rule:nonzero;"/>
                </g>
            </g>
        </g>
        <g transform="matrix(0.0868105,0.087722,-0.087722,0.0868105,230.232,-98.5856)">
            <g id="screwr">
                <g>
                    <path d="M121.8,1253.51L109.13,1273.45C109.068,1273.55 108.958,1273.61 108.84,1273.61C108.722,1273.61 108.612,1273.55 108.55,1273.45L95.9,1253.51C95.866,1253.46 95.848,1253.39 95.848,1253.33C95.848,1253.14 96.002,1252.99 96.188,1252.99L121.512,1252.99C121.698,1252.99 121.852,1253.14 121.852,1253.33C121.852,1253.39 121.834,1253.46 121.8,1253.51Z" style="fill:rgb(174,140,69);fill-rule:nonzero;"/>
                </g>
            </g>
        </g>
        <g id="REF">
        </g>
        <g transform="matrix(0.750113,0,0,0.641233,-329.424,-121.051)">
            <g transform="matrix(0.788115,0,0,-0.788115,301.341,303.816)">
                <path d="M301.62,18.958C301.692,18.807 301.828,18.714 301.976,18.714C302.124,18.714 302.26,18.807 302.332,18.958L305.785,26.111C305.857,26.259 305.856,26.44 305.782,26.587C305.709,26.734 305.575,26.825 305.429,26.825L298.523,26.825C298.377,26.825 298.243,26.734 298.17,26.587C298.096,26.44 298.095,26.259 298.167,26.111L301.62,18.958ZM301.976,20.167L299.224,25.867C299.224,25.867 304.728,25.867 304.728,25.867L301.976,20.167Z" style="fill:rgb(174,140,69);"/>
            </g>
        </g>
        <g id="Ruler" transform="matrix(0.092291,0,0,0.1,9.2741,2.83465)">
            <g transform="matrix(0.746403,0,0,1,176.319,0)">
                <rect x="713.439" y="654.21" width="12.345" height="82.798" style="fill:rgb(174,140,69);"/>
            </g>
            <g>
                <g transform="matrix(0.746403,0,0,1,-130.823,0)">
                    <rect x="713.439" y="654.21" width="12.345" height="82.798" style="fill:rgb(174,140,69);"/>
                </g>
                <g transform="matrix(0.497602,0,0,0.763684,201.788,174.167)">
                    <rect x="713.439" y="654.21" width="12.345" height="82.798" style="fill:rgb(174,140,69);"/>
                </g>
                <g transform="matrix(0.248801,0,0,0.5,350.114,368.504)">
                    <rect x="713.439" y="654.21" width="12.345" height="82.798" style="fill:rgb(174,140,69);"/>
                </g>
                <g transform="matrix(0.248801,0,0,0.5,319.399,368.504)">
                    <rect x="713.439" y="654.21" width="12.345" height="82.798" style="fill:rgb(174,140,69);"/>
                </g>
                <g transform="matrix(0.248801,0,0,0.5,288.685,368.504)">
                    <rect x="713.439" y="654.21" width="12.345" height="82.798" style="fill:rgb(174,140,69);"/>
                </g>
                <g transform="matrix(0.248801,0,0,0.5,257.971,368.504)">
                    <rect x="713.439" y="654.21" width="12.345" height="82.798" style="fill:rgb(174,140,69);"/>
                </g>
                <g transform="matrix(0.248801,0,0,0.5,503.685,368.504)">
                    <rect x="713.439" y="654.21" width="12.345" height="82.798" style="fill:rgb(174,140,69);"/>
                </g>
                <g transform="matrix(0.248801,0,0,0.5,472.971,368.504)">
                    <rect x="713.439" y="654.21" width="12.345" height="82.798" style="fill:rgb(174,140,69);"/>
                </g>
                <g transform="matrix(0.248801,0,0,0.5,442.256,368.504)">
                    <rect x="713.439" y="654.21" width="12.345" height="82.798" style="fill:rgb(174,140,69);"/>
                </g>
                <g transform="matrix(0.248801,0,0,0.5,411.542,368.504)">
                    <rect x="713.439" y="654.21" width="12.345" height="82.798" style="fill:rgb(174,140,69);"/>
                </g>
            </g>
            <g transform="matrix(1,0,0,1,-305.606,0)">
                <g transform="matrix(0.746403,0,0,1,-130.823,0)">
                    <rect x="713.439" y="654.21" width="12.345" height="82.798" style="fill:rgb(174,140,69);"/>
                </g>
                <g transform="matrix(0.497602,0,0,0.763684,201.788,174.167)">
                    <rect x="713.439" y="654.21" width="12.345" height="82.798" style="fill:rgb(174,140,69);"/>
                </g>
                <g transform="matrix(0.248801,0,0,0.5,350.114,368.504)">
                    <rect x="713.439" y="654.21" width="12.345" height="82.798" style="fill:rgb(174,140,69);"/>
                </g>
                <g transform="matrix(0.248801,0,0,0.5,319.399,368.504)">
                    <rect x="713.439" y="654.21" width="12.345" height="82.798" style="fill:rgb(174,140,69);"/>
                </g>
                <g transform="matrix(0.248801,0,0,0.5,288.685,368.504)">
                    <rect x="713.439" y="654.21" width="12.345" height="82.798" style="fill:rgb(174,140,69);"/>
                </g>
                <g transform="matrix(0.248801,0,0,0.5,257.971,368.504)">
                    <rect x="713.439" y="654.21" width="12.345" height="82.798" style="fill:rgb(174,140,69);"/>
                </g>
                <g transform="matrix(0.248801,0,0,0.5,503.685,368.504)">
                    <rect x="713.439" y="654.21" width="12.345" height="82.798" style="fill:rgb(174,140,69);"/>
                </g>
                <g transform="matrix(0.248801,0,0,0.5,472.971,368.504)">
                    <rect x="713.439" y="654.21" width="12.345" height="82.798" style="fill:rgb(174,140,69);"/>
                </g>
                <g transform="matrix(0.248801,0,0,0.5,442.256,368.504)">
                    <rect x="713.439" y="654.21" width="12.345" height="82.798" style="fill:rgb(174,140,69);"/>
                </g>
                <g transform="matrix(0.248801,0,0,0.5,411.542,368.504)">
                    <rect x="713.439" y="654.21" width="12.345" height="82.798" style="fill:rgb(174,140,69);"/>
                </g>
            </g>
            <g transform="matrix(1,0,0,1,307.142,-5.68434e-13)">
                <g transform="matrix(0.746403,0,0,1,176.319,0)">
                    <rect x="713.439" y="654.21" width="12.345" height="82.798" style="fill:rgb(174,140,69);"/>
                </g>
                <g transform="matrix(0.497602,0,0,0.763684,201.788,174.167)">
                    <rect x="713.439" y="654.21" width="12.345" height="82.798" style="fill:rgb(174,140,69);"/>
                </g>
                <g transform="matrix(0.248801,0,0,0.5,350.114,368.504)">
                    <rect x="713.439" y="654.21" width="12.345" height="82.798" style="fill:rgb(174,140,69);"/>
                </g>
                <g transform="matrix(0.248801,0,0,0.5,319.399,368.504)">
                    <rect x="713.439" y="654.21" width="12.345" height="82.798" style="fill:rgb(174,140,69);"/>
                </g>
                <g transform="matrix(0.248801,0,0,0.5,288.685,368.504)">
                    <rect x="713.439" y="654.21" width="12.345" height="82.798" style="fill:rgb(174,140,69);"/>
                </g>
                <g transform="matrix(0.248801,0,0,0.5,257.971,368.504)">
                    <rect x="713.439" y="654.21" width="12.345" height="82.798" style="fill:rgb(174,140,69);"/>
                </g>
                <g transform="matrix(0.248801,0,0,0.5,503.685,368.504)">
                    <rect x="713.439" y="654.21" width="12.345" height="82.798" style="fill:rgb(174,140,69);"/>
                </g>
                <g transform="matrix(0.248801,0,0,0.5,472.971,368.504)">
                    <rect x="713.439" y="654.21" width="12.345" height="82.798" style="fill:rgb(174,140,69);"/>
                </g>
                <g transform="matrix(0.248801,0,0,0.5,442.256,368.504)">
                    <rect x="713.439" y="654.21" width="12.345" height="82.798" style="fill:rgb(174,140,69);"/>
                </g>
                <g transform="matrix(0.248801,0,0,0.5,411.542,368.504)">
                    <rect x="713.439" y="654.21" width="12.345" height="82.798" style="fill:rgb(174,140,69);"/>
                </g>
            </g>
            <g transform="matrix(1,0,0,1,615.82,-5.68434e-13)">
                <g transform="matrix(0.746403,0,0,1,176.319,0)">
                    <rect x="713.439" y="654.21" width="12.345" height="82.798" style="fill:rgb(174,140,69);"/>
                </g>
                <g transform="matrix(0.497602,0,0,0.763684,201.788,174.167)">
                    <rect x="713.439" y="654.21" width="12.345" height="82.798" style="fill:rgb(174,140,69);"/>
                </g>
                <g transform="matrix(0.248801,0,0,0.5,350.114,368.504)">
                    <rect x="713.439" y="654.21" width="12.345" height="82.798" style="fill:rgb(174,140,69);"/>
                </g>
                <g transform="matrix(0.248801,0,0,0.5,319.399,368.504)">
                    <rect x="713.439" y="654.21" width="12.345" height="82.798" style="fill:rgb(174,140,69);"/>
                </g>
                <g transform="matrix(0.248801,0,0,0.5,288.685,368.504)">
                    <rect x="713.439" y="654.21" width="12.345" height="82.798" style="fill:rgb(174,140,69);"/>
                </g>
                <g transform="matrix(0.248801,0,0,0.5,257.971,368.504)">
                    <rect x="713.439" y="654.21" width="12.345" height="82.798" style="fill:rgb(174,140,69);"/>
                </g>
                <g transform="matrix(0.248801,0,0,0.5,503.685,368.504)">
                    <rect x="713.439" y="654.21" width="12.345" height="82.798" style="fill:rgb(174,140,69);"/>
                </g>
                <g transform="matrix(0.248801,0,0,0.5,472.971,368.504)">
                    <rect x="713.439" y="654.21" width="12.345" height="82.798" style="fill:rgb(174,140,69);"/>
                </g>
                <g transform="matrix(0.248801,0,0,0.5,442.256,368.504)">
                    <rect x="713.439" y="654.21" width="12.345" height="82.798" style="fill:rgb(174,140,69);"/>
                </g>
                <g transform="matrix(0.248801,0,0,0.5,411.542,368.504)">
                    <rect x="713.439" y="654.21" width="12.345" height="82.798" style="fill:rgb(174,140,69);"/>
                </g>
            </g>
        </g>
        <g id="LH-ENG" serif:id="LH ENG" transform="matrix(0.175526,-0.30402,0.30402,0.175526,-37.8072,81.2278)">
            <g transform="matrix(0.391526,0,0,0.391526,0,-93.56)">
                <path d="M595.14,237.98L605.2,232.13C605.292,232.078 605.396,232.05 605.501,232.05C605.836,232.05 606.111,232.326 606.111,232.66C606.111,232.714 606.104,232.768 606.09,232.82C605.22,235.9 600.62,237.79 597.96,239.18C597.647,239.347 597.34,239.337 597.04,239.15L595.14,237.98Z" style="fill:rgb(174,140,69);fill-rule:nonzero;"/>
            </g>
            <g transform="matrix(0.391526,0,0,0.391526,0,-93.56)">
                <path d="M595.14,237.98C597.433,240.087 599.03,242.667 599.93,245.72C600.237,246.753 600.01,247.55 599.25,248.11C599.23,248.125 599.208,248.139 599.187,248.152C598.793,248.392 598.274,248.269 598.038,247.88C598.024,247.857 598.011,247.834 598,247.81C596.88,245.53 595.78,243.193 594.7,240.8C594.1,239.453 594.247,238.513 595.14,237.98Z" style="fill:rgb(174,140,69);fill-rule:nonzero;"/>
            </g>
            <g transform="matrix(0.391526,0,0,0.391526,0,-93.56)">
                <path d="M590.66,245.42C591.44,247.113 592.217,248.873 592.99,250.7C593.002,250.727 593.012,250.754 593.021,250.781C593.2,251.312 592.906,251.896 592.37,252.076C592.344,252.085 592.317,252.093 592.29,252.1C591.55,252.273 591.007,252.053 590.66,251.44C588.98,248.5 587.75,246.15 587.68,242.69L587.68,242.67C587.68,242.357 587.937,242.1 588.25,242.1C588.322,242.1 588.393,242.113 588.46,242.14C589.85,242.67 590.15,244.31 590.66,245.42Z" style="fill:rgb(174,140,69);fill-rule:nonzero;"/>
            </g>
            <g transform="matrix(0.391526,0,0,0.391526,0,-93.56)">
                <path d="M612.43,251.43C610.823,249.59 609.8,247.513 609.36,245.2C609.233,244.533 609.343,243.993 609.69,243.58C609.882,243.348 610.168,243.213 610.469,243.213C610.866,243.213 611.227,243.448 611.39,243.81L614.26,250.26C614.32,250.398 614.351,250.547 614.351,250.698C614.351,251.301 613.854,251.798 613.251,251.798C612.937,251.798 612.639,251.664 612.43,251.43Z" style="fill:rgb(174,140,69);fill-rule:nonzero;"/>
            </g>
            <g transform="matrix(0.391526,0,0,0.391526,0,-93.56)">
                <path d="M580.77,250.45C581.3,252.2 583.68,256.1 582.59,257.74C582.405,258.017 582.092,258.185 581.758,258.185C581.36,258.185 580.998,257.946 580.84,257.58L577.23,249.27C577.198,249.197 577.179,249.12 577.174,249.04C577.15,248.663 577.445,248.331 577.828,248.307C577.906,248.302 577.985,248.309 578.06,248.33C579.1,248.63 580.003,249.337 580.77,250.45Z" style="fill:rgb(174,140,69);fill-rule:nonzero;"/>
            </g>
            <g transform="matrix(0.391526,0,0,0.391526,0,-93.56)">
                <path d="M604.58,258.69C604.353,258.723 604.163,258.817 604.01,258.97C603.875,259.107 603.69,259.185 603.497,259.185C603.214,259.185 602.956,259.018 602.84,258.76L599.28,250.82C599.216,250.678 599.184,250.523 599.184,250.368C599.184,249.927 599.446,249.526 599.85,249.35C600.603,249.03 601.223,249.247 601.71,250C603.383,252.6 604.34,255.497 604.58,258.69Z" style="fill:rgb(174,140,69);fill-rule:nonzero;"/>
            </g>
            <g transform="matrix(0.391526,0,0,0.391526,0,-93.56)">
                <path d="M580.77,250.45C580.717,250.283 580.8,250.147 581.02,250.04C581.218,249.945 581.454,249.981 581.61,250.13L585.55,253.75C585.87,254.037 585.987,254.393 585.9,254.82C585.86,255 585.833,255.183 585.82,255.37C585.8,255.75 585.897,255.783 586.11,255.47L586.62,254.71C586.874,254.331 587.301,254.103 587.758,254.103C588.05,254.103 588.335,254.197 588.57,254.37C589.737,255.23 589.46,256.09 587.74,256.95C587.12,257.263 586.567,257.083 586.08,256.41C585.873,256.117 585.63,256.083 585.35,256.31C584.663,256.877 584.127,256.787 583.74,256.04C582.773,254.153 581.783,252.29 580.77,250.45Z" style="fill:rgb(174,140,69);fill-rule:nonzero;"/>
            </g>
            <g transform="matrix(0.391526,0,0,0.391526,0,-93.56)">
                <path d="M604.58,258.69L604.68,256.39C604.693,256.067 604.874,255.769 605.16,255.6L611.73,251.8C612.033,251.626 612.39,251.562 612.74,251.62C615.027,252.02 615.62,252.573 614.52,253.28C611.313,255.313 608,257.117 604.58,258.69Z" style="fill:rgb(174,140,69);fill-rule:nonzero;"/>
            </g>
            <g transform="matrix(0.391526,0,0,0.391526,0,-93.56)">
                <path d="M566.03,255.69C565.777,256.01 565.7,256.393 565.8,256.84C565.867,257.16 565.797,257.443 565.59,257.69C564.363,259.157 562.807,259.673 560.92,259.24C560.55,259.163 560.283,258.834 560.283,258.457C560.283,258.168 560.439,257.902 560.69,257.76L571.2,251.7C571.306,251.637 571.428,251.604 571.552,251.604C571.93,251.604 572.242,251.915 572.242,252.294C572.242,252.364 572.231,252.433 572.21,252.5C571.357,255.36 569.563,256.34 566.83,255.44C566.538,255.344 566.215,255.445 566.03,255.69Z" style="fill:rgb(174,140,69);fill-rule:nonzero;"/>
            </g>
            <g transform="matrix(0.391526,0,0,0.391526,0,-93.56)">
                <path d="M594.28,259.91L591.99,254.61C591.852,254.295 591.849,253.948 591.982,253.646C592.256,253.022 593.035,252.753 593.709,253.049C594.034,253.191 594.293,253.447 594.43,253.76L597.89,261.68C597.927,261.768 597.946,261.863 597.946,261.958C597.946,262.353 597.621,262.678 597.226,262.678C597.12,262.678 597.016,262.655 596.92,262.61C595.11,261.73 590,258.7 589.27,256.68C589.023,255.98 589.083,255.437 589.45,255.05C589.729,254.76 590.114,254.596 590.517,254.596C591.13,254.596 591.682,254.977 591.9,255.55C592.567,257.297 593.283,258.79 594.05,260.03C594.074,260.069 594.116,260.092 594.161,260.092C594.232,260.092 594.291,260.034 594.291,259.962C594.291,259.944 594.287,259.926 594.28,259.91Z" style="fill:rgb(174,140,69);fill-rule:nonzero;"/>
            </g>
            <g transform="matrix(0.356273,-0.162363,0.162363,0.356273,222.602,8.33074)">
                <rect x="-1.29" y="-4.79" width="2.58" height="9.58" style="fill:rgb(174,140,69);"/>
            </g>
            <g transform="matrix(0.391526,0,0,0.391526,0,-93.56)">
                <path d="M581.91,259.66C581.898,259.633 581.891,259.603 581.891,259.574C581.891,259.489 581.942,259.413 582.02,259.38L582.29,259.27C583.415,258.807 584.876,259.721 585.528,261.295C585.529,261.297 585.529,261.298 585.53,261.3L587.2,265.34C587.201,265.342 587.202,265.344 587.203,265.346C587.856,266.923 587.467,268.603 586.342,269.069C586.341,269.07 586.341,269.07 586.34,269.07L586.08,269.18C586.054,269.191 586.026,269.197 585.997,269.197C585.909,269.197 585.83,269.142 585.8,269.06L581.91,259.66Z" style="fill:rgb(174,140,69);fill-rule:nonzero;"/>
            </g>
            <g transform="matrix(0.391526,0,0,0.391526,0,-93.56)">
                <path d="M553.41,264.42L553.23,264.8C553.123,265.033 552.963,265.213 552.75,265.34C550.69,266.55 546.5,269.59 544.15,269.28C543.663,269.218 543.294,268.799 543.294,268.308C543.294,267.952 543.488,267.622 543.8,267.45L554.41,261.45C554.521,261.387 554.647,261.354 554.775,261.354C555.066,261.354 555.331,261.525 555.45,261.79L559.32,270.4C559.504,270.809 559.325,271.297 558.92,271.49C558.06,271.903 557.363,271.647 556.83,270.72C555.677,268.7 554.657,266.603 553.77,264.43C553.657,264.157 553.537,264.153 553.41,264.42Z" style="fill:rgb(174,140,69);fill-rule:nonzero;"/>
            </g>
            <g transform="matrix(0.391526,0,0,0.391526,0,-93.56)">
                <path d="M575.47,273.29C576.67,271.503 578.34,270.837 580.48,271.29C580.588,271.311 580.689,271.355 580.778,271.419C581.121,271.665 581.198,272.154 580.948,272.502C580.885,272.59 580.804,272.665 580.71,272.72L577.09,274.84C576.646,275.101 576.141,275.238 575.626,275.238C574.482,275.238 573.44,274.558 572.98,273.51L570.32,267.42C570.237,267.247 570.194,267.057 570.194,266.865C570.194,266.162 570.772,265.584 571.475,265.584C571.967,265.584 572.417,265.867 572.63,266.31C573.79,268.563 574.723,270.887 575.43,273.28C575.43,273.282 575.429,273.283 575.429,273.285C575.429,273.296 575.439,273.306 575.45,273.306C575.459,273.306 575.468,273.299 575.47,273.29Z" style="fill:rgb(174,140,69);fill-rule:nonzero;"/>
            </g>
            <g transform="matrix(0.391526,0,0,0.391526,0,-93.56)">
                <path d="M547.26,277.11C546.14,275.77 544.82,272.18 544.13,270.31C543.983,269.89 544.13,269.69 544.57,269.71L546.28,269.76C546.627,269.773 546.87,269.943 547.01,270.27L549.32,275.87C549.375,276.011 549.403,276.161 549.403,276.312C549.403,276.981 548.852,277.532 548.183,277.532C547.829,277.532 547.492,277.378 547.26,277.11Z" style="fill:rgb(174,140,69);fill-rule:nonzero;"/>
            </g>
            <g transform="matrix(0.391526,0,0,0.391526,0,-93.56)">
                <path d="M533.06,285.55L539.91,281.54C540.368,281.27 540.957,281.345 541.34,281.72C541.773,282.14 541.867,282.61 541.62,283.13C541.5,283.39 541.257,283.637 540.89,283.87C538.703,285.297 536.443,286.633 534.11,287.88C533.8,288.042 533.416,287.967 533.19,287.7C532.67,287.093 532.043,286.947 531.31,287.26C530.93,287.427 530.657,287.32 530.49,286.94L527.07,279.34C526.624,278.342 527.011,277.154 527.96,276.61L537.73,271C537.798,270.961 537.875,270.94 537.954,270.94C538.178,270.94 538.37,271.108 538.4,271.33C538.79,274.34 533.85,276.33 530.4,278.18C530.06,278.367 529.743,278.34 529.45,278.1L528.93,277.68C528.9,277.664 528.866,277.655 528.831,277.655C528.716,277.655 528.621,277.75 528.621,277.865C528.621,277.914 528.638,277.962 528.67,278L529.73,278.89C529.776,278.93 529.814,278.977 529.84,279.03L532.64,285.42C532.733,285.62 532.873,285.663 533.06,285.55Z" style="fill:rgb(174,140,69);fill-rule:nonzero;"/>
            </g>
            <g transform="matrix(0.391526,0,0,0.391526,0,-93.56)">
                <path d="M570.33,275.72L572.19,274.54C572.373,274.427 572.598,274.405 572.8,274.48L574.38,275.06C574.659,275.159 574.847,275.424 574.847,275.72C574.847,275.972 574.71,276.206 574.49,276.33L570.05,278.87C569.946,278.929 569.828,278.959 569.708,278.959C569.324,278.959 569.008,278.643 569.008,278.259C569.008,278.152 569.033,278.046 569.08,277.95L570.08,275.99C570.138,275.879 570.224,275.786 570.33,275.72Z" style="fill:rgb(174,140,69);fill-rule:nonzero;"/>
            </g>
            <g transform="matrix(0.391526,0,0,0.391526,0,-93.56)">
                <path d="M550.45,278.93C552,280.77 554.18,285.32 553.25,287.93C553.15,288.214 552.881,288.405 552.58,288.405C552.299,288.405 552.043,288.238 551.93,287.98L548.32,279.79C548.269,279.673 548.242,279.547 548.242,279.42C548.242,278.923 548.644,278.512 549.14,278.5C549.287,278.493 549.427,278.493 549.56,278.5C549.92,278.507 550.217,278.65 550.45,278.93Z" style="fill:rgb(174,140,69);fill-rule:nonzero;"/>
            </g>
            <g transform="matrix(0.391526,0,0,0.391526,0,-93.56)">
                <path d="M516.3,295.33C518.313,293.97 520.377,292.687 522.49,291.48C523.363,290.98 524.063,290.987 524.59,291.5C524.627,291.536 524.661,291.574 524.693,291.614C525.119,292.145 525.028,292.934 524.493,293.363C524.454,293.394 524.413,293.423 524.37,293.45C522.057,294.863 519.82,296.18 517.66,297.4C517.033,297.753 516.43,297.633 515.85,297.04C515.617,296.8 515.337,296.723 515.01,296.81L514.54,296.94C514.167,297.047 513.9,296.92 513.74,296.56L509.97,287.97C509.807,287.589 509.954,287.141 510.31,286.93L520.87,280.69C520.964,280.634 521.072,280.604 521.182,280.604C521.516,280.604 521.792,280.88 521.792,281.214C521.792,281.23 521.791,281.245 521.79,281.26C521.55,284.38 516.04,286.48 513.65,287.98C513.51,288.065 513.331,288.061 513.19,287.97C512.637,287.603 512.203,287.36 511.89,287.24C511.843,287.221 511.793,287.223 511.753,287.246C511.669,287.291 511.644,287.409 511.698,287.508C511.723,287.555 511.764,287.592 511.81,287.61C512.303,287.797 512.617,288 512.75,288.22C514.07,290.4 515.093,292.713 515.82,295.16C515.9,295.433 516.06,295.49 516.3,295.33Z" style="fill:rgb(174,140,69);fill-rule:nonzero;"/>
            </g>
            <g transform="matrix(0.391526,0,0,0.391526,0,-93.56)">
                <path d="M537.08,296.13C537.053,295.377 537.297,294.847 537.81,294.54C539.9,293.27 544.73,289.52 547.2,290.91C547.252,290.94 547.3,290.977 547.342,291.02C547.61,291.288 547.612,291.725 547.348,291.989C547.304,292.032 547.254,292.07 547.2,292.1L536.31,298.27C536.216,298.322 536.111,298.35 536.004,298.35C535.757,298.35 535.532,298.205 535.43,297.98L531.59,289.41C531.389,288.96 531.578,288.422 532.02,288.19C532.6,287.883 533.15,288.08 533.67,288.78C535.317,291.007 536.437,293.46 537.03,296.14C537.07,296.327 537.087,296.323 537.08,296.13Z" style="fill:rgb(174,140,69);fill-rule:nonzero;"/>
            </g>
            <g transform="matrix(0.391526,0,0,0.391526,0,-93.56)">
                <path d="M509.1,300.32C509.128,300.389 509.097,300.468 509.03,300.5L508.98,300.52C508.979,300.52 508.978,300.521 508.978,300.521C507.761,301.038 506.272,300.316 505.681,298.922L503.58,293.97C502.99,292.577 503.504,291.007 504.72,290.49L504.77,290.47C504.839,290.442 504.918,290.473 504.95,290.54L509.1,300.32Z" style="fill:rgb(174,140,69);fill-rule:nonzero;"/>
            </g>
            <g transform="matrix(0.391526,0,0,0.391526,0,-93.56)">
                <path d="M496.49,299.3L498.5,303.87C498.651,304.211 498.709,304.583 498.67,304.95C498.483,306.59 497.987,307.177 497.18,306.71C496.967,306.583 496.783,306.363 496.63,306.05C495.383,303.483 494.19,300.763 493.05,297.89C493.019,297.81 493.004,297.725 493.004,297.639C493.004,297.255 493.32,296.939 493.704,296.939C493.81,296.939 493.915,296.964 494.01,297.01C496.897,298.437 499.417,300.317 501.57,302.65C501.85,302.943 501.9,303.273 501.72,303.64L501.42,304.26C501.186,304.734 500.702,305.035 500.173,305.035C499.571,305.035 499.034,304.643 498.85,304.07C498.217,302.043 497.487,300.423 496.66,299.21C496.641,299.19 496.615,299.179 496.588,299.179C496.533,299.179 496.488,299.224 496.488,299.279C496.488,299.286 496.489,299.293 496.49,299.3Z" style="fill:rgb(174,140,69);fill-rule:nonzero;"/>
            </g>
            <g transform="matrix(0.391526,0,0,0.391526,0,-93.56)">
                <path d="M520.16,305.63C520.207,305.383 520.29,305.14 520.41,304.9C520.51,304.7 520.677,304.523 520.91,304.37C523.063,302.997 525.29,301.75 527.59,300.63C528.677,300.097 529.51,300.053 530.09,300.5C530.837,301.073 530.8,301.593 529.98,302.06L519.84,307.77C519.709,307.842 519.563,307.88 519.413,307.88C519.067,307.88 518.751,307.676 518.61,307.36L514.92,299.12C514.85,298.969 514.814,298.805 514.814,298.639C514.814,298.008 515.334,297.489 515.964,297.489C516.335,297.489 516.684,297.668 516.9,297.97C518.633,300.317 519.69,302.87 520.07,305.63C520.097,305.837 520.127,305.837 520.16,305.63Z" style="fill:rgb(174,140,69);fill-rule:nonzero;"/>
            </g>
            <g transform="matrix(0.391526,0,0,0.391526,0,-93.56)">
                <path d="M483.55,304.53C484.983,306.837 486.14,309.337 487.02,312.03C487.077,312.175 487.106,312.329 487.106,312.485C487.106,313.166 486.546,313.726 485.865,313.726C485.356,313.726 484.897,313.413 484.71,312.94L481.82,306.61C481.673,306.297 481.477,306.26 481.23,306.5C480.043,307.667 478.617,308.173 476.95,308.02C476.496,307.983 476.142,307.598 476.142,307.143C476.142,306.873 476.267,306.617 476.48,306.45C478.253,305.057 480.24,304.093 482.44,303.56C482.487,303.547 482.5,303.52 482.48,303.48C482.427,303.373 482.397,303.27 482.39,303.17C482.377,302.983 482.447,302.847 482.6,302.76L487.03,300.3C487.127,300.245 487.237,300.217 487.348,300.217C487.705,300.217 487.998,300.51 487.998,300.867C487.998,300.918 487.992,300.97 487.98,301.02C487.4,303.393 485.923,304.56 483.55,304.52C483.543,304.52 483.543,304.523 483.55,304.53Z" style="fill:rgb(174,140,69);fill-rule:nonzero;"/>
            </g>
            <g transform="matrix(0.391526,0,0,0.391526,0,-93.56)">
                <path d="M504.82,304.24C504.4,305.427 503.543,305.843 502.25,305.49C501.955,305.411 501.754,305.13 501.77,304.82C501.843,303.593 502.5,302.903 503.74,302.75C504.42,302.67 505.67,303.09 507.49,304.01C507.69,304.11 507.823,304.05 507.89,303.83L508.33,302.27C508.44,301.861 508.814,301.574 509.238,301.574C509.611,301.574 509.951,301.797 510.1,302.14L513.62,310.21C513.658,310.301 513.678,310.399 513.678,310.497C513.678,310.903 513.344,311.237 512.938,311.237C512.832,311.237 512.727,311.214 512.63,311.17C510.023,309.977 507.593,308.227 505.34,305.92C505.06,305.633 505.003,305.107 505.17,304.34C505.175,304.324 505.177,304.307 505.177,304.29C505.177,304.19 505.095,304.108 504.995,304.108C504.914,304.108 504.842,304.162 504.82,304.24Z" style="fill:rgb(174,140,69);fill-rule:nonzero;"/>
            </g>
            <g transform="matrix(0.391526,0,0,0.391526,0,-93.56)">
                <path d="M497.67,308.2C497.629,308.099 497.679,307.981 497.78,307.94L497.94,307.88C497.941,307.88 497.942,307.879 497.943,307.879C499.111,307.39 500.581,308.203 501.2,309.68L503.06,314.13C503.675,315.608 503.219,317.223 502.05,317.71L501.9,317.78C501.874,317.792 501.845,317.798 501.817,317.798C501.734,317.798 501.66,317.747 501.63,317.67L497.67,308.2Z" style="fill:rgb(174,140,69);fill-rule:nonzero;"/>
            </g>
            <g transform="matrix(0.391526,0,0,0.391526,0,-93.56)">
                <path d="M460.96,316.67C463.007,318.897 464.34,321.503 464.96,324.49C465.019,324.776 464.987,325.073 464.87,325.34C464.523,326.167 464.037,326.427 463.41,326.12C463.13,325.98 462.893,325.703 462.7,325.29C461.687,323.07 460.613,320.633 459.48,317.98C459.139,317.176 459.449,316.234 460.2,315.79L469.57,310.31C470.863,309.55 471.33,309.893 470.97,311.34C470.917,311.547 470.747,311.907 470.46,312.42C470.267,312.753 469.997,313.03 469.65,313.25C467.47,314.61 465.247,315.903 462.98,317.13C462.687,317.29 462.4,317.28 462.12,317.1L461.13,316.46C461.103,316.435 461.068,316.422 461.032,316.425C460.961,316.432 460.908,316.5 460.915,316.577C460.919,316.613 460.935,316.646 460.96,316.67Z" style="fill:rgb(174,140,69);fill-rule:nonzero;"/>
            </g>
            <g transform="matrix(0.391526,0,0,0.391526,0,-93.56)">
                <path d="M490.39,323.65C487.93,321.277 486.56,318.47 486.28,315.23C486.278,315.203 486.277,315.176 486.277,315.15C486.277,314.552 486.769,314.06 487.367,314.06C487.794,314.06 488.184,314.311 488.36,314.7L491.11,320.99C491.186,321.166 491.36,321.28 491.551,321.28C491.683,321.28 491.809,321.226 491.9,321.13C493.08,319.897 494.513,319.493 496.2,319.92C496.555,320.004 496.808,320.324 496.808,320.689C496.808,320.976 496.651,321.241 496.4,321.38L485.78,327.5C485.709,327.542 485.63,327.568 485.548,327.579C485.211,327.621 484.898,327.374 484.854,327.031C484.844,326.95 484.85,326.869 484.87,326.79C485.69,323.77 487.513,322.747 490.34,323.72C490.467,323.767 490.483,323.743 490.39,323.65Z" style="fill:rgb(174,140,69);fill-rule:nonzero;"/>
            </g>
            <g transform="matrix(0.391526,0,0,0.391526,0,-93.56)">
                <path d="M454.19,320.15L458.04,328.67C458.268,329.169 458.054,329.769 457.56,330.02C456.867,330.367 456.27,330.127 455.77,329.3C453.92,326.23 451.92,323.12 453.09,320.18C453.181,319.953 453.402,319.804 453.647,319.804C453.879,319.804 454.091,319.939 454.19,320.15Z" style="fill:rgb(174,140,69);fill-rule:nonzero;"/>
            </g>
            <g transform="matrix(0.391526,0,0,0.391526,0,-93.56)">
                <path d="M479.54,328.68C479.638,328.894 479.544,329.151 479.33,329.25L479.217,329.301C478.112,329.8 476.751,329.211 476.203,327.996C476.202,327.994 476.201,327.992 476.2,327.99L474.46,324.13C474.459,324.128 474.458,324.126 474.457,324.124C473.909,322.909 474.366,321.499 475.47,321L475.58,320.95C475.635,320.925 475.695,320.912 475.756,320.912C475.927,320.912 476.082,321.014 476.15,321.17L479.54,328.68Z" style="fill:rgb(174,140,69);fill-rule:nonzero;"/>
            </g>
            <g transform="matrix(0.391526,0,0,0.391526,0,-93.56)">
                <path d="M445.94,329.19L447.94,333.77C448.103,334.152 448.074,334.591 447.86,334.95C446.947,336.457 446.163,336.52 445.51,335.14C444.21,332.367 443.14,329.603 442.3,326.85C442.286,326.803 442.279,326.754 442.279,326.705C442.279,326.425 442.509,326.195 442.789,326.195C442.869,326.195 442.948,326.214 443.02,326.25C445.7,327.597 448.057,329.243 450.09,331.19C451.15,332.21 451.22,333.6 449.99,334.4C449.846,334.493 449.678,334.543 449.506,334.543C449.161,334.543 448.846,334.342 448.7,334.03C447.953,332.403 447.133,330.743 446.24,329.05C446.22,329.013 446.185,328.983 446.144,328.969C446.056,328.937 445.959,328.979 445.929,329.062C445.914,329.104 445.918,329.15 445.94,329.19Z" style="fill:rgb(174,140,69);fill-rule:nonzero;"/>
            </g>
            <g transform="matrix(0.391526,0,0,0.391526,0,-93.56)">
                <path d="M469.9,333.79C472.1,332.27 476.53,329.16 479.26,329.77C479.616,329.854 479.869,330.174 479.869,330.539C479.869,330.819 479.721,331.078 479.48,331.22L469.34,336.96C469.161,337.059 468.96,337.112 468.756,337.112C468.283,337.112 467.852,336.832 467.66,336.4L464.09,328.32C464.084,328.305 464.078,328.29 464.072,328.275C463.937,327.898 464.132,327.478 464.504,327.345C464.519,327.339 464.534,327.334 464.55,327.33C465.65,327.023 466.397,327.317 466.79,328.21C467.603,330.03 468.44,331.837 469.3,333.63C469.433,333.917 469.633,333.97 469.9,333.79Z" style="fill:rgb(174,140,69);fill-rule:nonzero;"/>
            </g>
            <g transform="matrix(0.391526,0,0,0.391526,0,-93.56)">
                <path d="M427.82,336.48C429.293,338.76 430.443,341.21 431.27,343.83C431.35,344.09 431.51,344.15 431.75,344.01L438.65,340.01C439.099,339.749 439.675,339.819 440.06,340.18C440.76,340.84 440.633,341.497 439.68,342.15C437.58,343.577 435.417,344.907 433.19,346.14C432.643,346.447 432.073,346.27 431.48,345.61C431.293,345.398 430.976,345.355 430.74,345.51C430.02,345.963 429.49,345.823 429.15,345.09C427.957,342.51 426.87,340.047 425.89,337.7C425.483,336.74 425.858,335.614 426.76,335.09L436.36,329.54C436.463,329.48 436.58,329.448 436.699,329.448C437.067,329.448 437.369,329.75 437.369,330.118C437.369,330.155 437.366,330.193 437.36,330.23C436.91,333.13 431.94,335.01 429.66,336.43C429.187,336.73 428.62,336.697 427.96,336.33C427.707,336.19 427.66,336.24 427.82,336.48Z" style="fill:rgb(174,140,69);fill-rule:nonzero;"/>
            </g>
            <g transform="matrix(0.391526,0,0,0.391526,0,-93.56)">
                <path d="M457.3,333.33C457.013,332.243 457.34,331.467 458.28,331C458.288,330.996 458.296,330.992 458.304,330.988C458.652,330.826 459.07,330.975 459.23,331.318C459.234,331.325 459.237,331.333 459.24,331.34L462.73,339.26C463.403,340.78 463,341.16 461.52,340.4C458.84,339.02 456.467,337.263 454.4,335.13C454.227,334.95 454.101,334.731 454.034,334.492C453.807,333.684 454.298,332.828 455.121,332.597C455.366,332.528 455.623,332.519 455.87,332.57C456.097,332.617 456.333,332.947 456.58,333.56C456.641,333.698 456.777,333.787 456.928,333.787C457.136,333.787 457.308,333.616 457.308,333.407C457.308,333.381 457.305,333.355 457.3,333.33Z" style="fill:rgb(174,140,69);fill-rule:nonzero;"/>
            </g>
            <g transform="matrix(0.321111,-0.22401,0.22401,0.321111,177.197,37.0022)">
                <ellipse cx="0" cy="0" rx="1.86" ry="1.25" style="fill:rgb(174,140,69);"/>
            </g>
            <g transform="matrix(0.391526,0,0,0.391526,0,-93.56)">
                <path d="M451.41,341.22C452.21,342.86 452.473,344.573 452.2,346.36C452.141,346.71 451.835,346.968 451.48,346.968C451.198,346.968 450.94,346.805 450.82,346.55L447.12,338.32C447.059,338.183 447.027,338.035 447.027,337.885C447.027,337.298 447.51,336.815 448.097,336.815C448.273,336.815 448.445,336.858 448.6,336.94C450.12,337.75 450.83,340.04 451.41,341.22Z" style="fill:rgb(174,140,69);fill-rule:nonzero;"/>
            </g>
            <g transform="matrix(0.391526,0,0,0.391526,0,-93.56)">
                <path d="M436.46,353.37C439.673,350.73 442.107,349.26 443.76,348.96C444.667,348.8 445.417,348.953 446.01,349.42C446.177,349.551 446.274,349.751 446.274,349.963C446.274,350.209 446.143,350.437 445.93,350.56L435.56,356.46C435.542,356.47 435.524,356.48 435.506,356.489C434.943,356.772 434.248,356.546 433.967,355.987C433.957,355.968 433.948,355.949 433.94,355.93L430.47,348.01C430.435,347.931 430.409,347.848 430.394,347.762C430.294,347.189 430.688,346.635 431.266,346.534C431.35,346.519 431.435,346.515 431.52,346.52C431.987,346.553 432.407,346.763 432.78,347.15C433.93,348.34 434.83,351.63 435.71,353.22C435.903,353.573 436.153,353.623 436.46,353.37Z" style="fill:rgb(174,140,69);fill-rule:nonzero;"/>
            </g>
            <g transform="matrix(0.391526,0,0,0.391526,0,-93.56)">
                <path d="M414.44,356.47C412.227,358.557 409.637,360.13 406.67,361.19C406.357,361.303 406.283,361.503 406.45,361.79C407.98,364.41 410.26,368.1 409.27,371.21C409.187,371.471 408.943,371.65 408.669,371.65C408.426,371.65 408.204,371.51 408.1,371.29C406.86,368.657 405.717,366.147 404.67,363.76C404.197,362.667 404.377,361.93 405.21,361.55C405.543,361.39 405.58,361.18 405.32,360.92C404.973,360.56 404.55,360.503 404.05,360.75C404.044,360.753 404.037,360.756 404.031,360.759C403.734,360.901 403.371,360.768 403.227,360.466C403.225,360.461 403.222,360.455 403.22,360.45L399.69,352.48C399.277,351.553 399.577,351.113 400.59,351.16C401.163,351.18 401.797,351.623 402.49,352.49C403.25,353.437 404.143,355.557 405.17,358.85C405.277,359.177 405.48,359.253 405.78,359.08L411.57,355.6C412.17,355.238 412.857,355.047 413.557,355.047C415.098,355.047 416.497,355.972 417.1,357.39L420.1,364.45C420.129,364.516 420.147,364.587 420.153,364.659C420.185,365.026 419.905,365.353 419.533,365.385C419.462,365.391 419.39,365.386 419.32,365.37C416.52,364.73 414.67,358.88 414.5,356.49C414.493,356.443 414.473,356.437 414.44,356.47Z" style="fill:rgb(174,140,69);fill-rule:nonzero;"/>
            </g>
            <g transform="matrix(0.391526,0,0,0.391526,0,-93.56)">
                <path d="M383.76,360.51C386.46,361.95 387.89,366.23 388.71,368.84C388.75,368.965 388.77,369.096 388.77,369.227C388.77,369.924 388.197,370.497 387.5,370.497C386.991,370.497 386.528,370.19 386.33,369.72L382.76,361.42C382.715,361.32 382.695,361.211 382.7,361.102C382.717,360.713 383.057,360.408 383.451,360.426C383.559,360.431 383.665,360.459 383.76,360.51Z" style="fill:rgb(174,140,69);fill-rule:nonzero;"/>
            </g>
            <g transform="matrix(0.391526,0,0,0.391526,0,-93.56)">
                <path d="M393.11,379L393.5,378.01C393.526,377.945 393.572,377.889 393.63,377.85C395.803,376.397 398.047,375.09 400.36,373.93C401.18,373.52 402.16,373.7 402.97,373.88C403.306,373.956 403.546,374.257 403.546,374.602C403.546,374.864 403.406,375.107 403.18,375.24L392.97,381.06C392.778,381.17 392.56,381.228 392.338,381.228C391.839,381.228 391.385,380.935 391.18,380.48L387.67,372.59C387.548,372.308 387.594,371.982 387.79,371.75C388.257,371.197 388.827,371.093 389.5,371.44C389.787,371.587 390.047,371.843 390.28,372.21C391.587,374.303 392.463,376.56 392.91,378.98C392.914,378.996 392.922,379.011 392.933,379.024C392.972,379.071 393.038,379.08 393.08,379.045C393.094,379.034 393.105,379.018 393.11,379Z" style="fill:rgb(174,140,69);fill-rule:nonzero;"/>
            </g>
            <g transform="matrix(0.391526,0,0,0.391526,0,-93.56)">
                <path d="M370.91,392.93C370.76,392.905 370.656,392.761 370.68,392.61L372.03,384.55C373.222,377.428 374.394,371.594 374.63,371.61L375.54,371.76L375.543,371.76C375.775,371.799 374.984,377.704 373.79,384.84L372.44,392.9C372.415,393.05 372.271,393.154 372.12,393.13L370.91,392.93Z" style="fill:rgb(174,140,69);fill-rule:nonzero;"/>
            </g>
            <g transform="matrix(0.391526,0,0,0.391526,0,-93.56)">
                <path d="M367.42,375.33L364.28,395.1C364.256,395.244 364.13,395.352 363.984,395.352C363.937,395.352 363.892,395.341 363.85,395.32L345.95,386.37C345.847,386.32 345.781,386.215 345.781,386.1C345.781,385.985 345.847,385.88 345.95,385.83L366.99,375.02C367.031,375 367.077,374.989 367.123,374.989C367.287,374.989 367.423,375.124 367.423,375.289C367.423,375.303 367.422,375.316 367.42,375.33Z" style="fill:rgb(174,140,69);fill-rule:nonzero;"/>
            </g>
        </g>
    </g>
</svg>
