%TF.GenerationSoftware,KiCad,Pcbnew,7.0.6*%
%TF.CreationDate,2023-11-21T01:28:58+00:00*%
%TF.ProjectId,HeatedBedFoil,48656174-6564-4426-9564-466f696c2e6b,rev?*%
%TF.SameCoordinates,Original*%
%TF.FileFunction,Other,User*%
%FSLAX46Y46*%
G04 Gerber Fmt 4.6, Leading zero omitted, Abs format (unit mm)*
G04 Created by KiCad (PCBNEW 7.0.6) date 2023-11-21 01:28:58*
%MOMM*%
%LPD*%
G01*
G04 APERTURE LIST*
%ADD10C,0.150000*%
%ADD11C,0.600000*%
%ADD12C,0.500000*%
%ADD13C,0.100000*%
G04 APERTURE END LIST*
D10*
X193500000Y-44510000D02*
X193500000Y-58100000D01*
X166830000Y-58100000D02*
G75*
G03*
X170830000Y-62100000I4000000J0D01*
G01*
X166830000Y-58100000D02*
X166830000Y-44510000D01*
X189500000Y-62100000D02*
G75*
G03*
X193500000Y-58100000I0J4000000D01*
G01*
X170830000Y-40510000D02*
X189500000Y-40510000D01*
X193500000Y-44510000D02*
G75*
G03*
X189500000Y-40510000I-4000000J0D01*
G01*
X170830000Y-40510000D02*
G75*
G03*
X166830000Y-44510000I0J-4000000D01*
G01*
X189500000Y-62100000D02*
X170830000Y-62100000D01*
D11*
X181666164Y-75587371D02*
X181809021Y-75444514D01*
X181809021Y-75444514D02*
X182094736Y-75301657D01*
X182094736Y-75301657D02*
X182809021Y-75301657D01*
X182809021Y-75301657D02*
X183094736Y-75444514D01*
X183094736Y-75444514D02*
X183237593Y-75587371D01*
X183237593Y-75587371D02*
X183380450Y-75873085D01*
X183380450Y-75873085D02*
X183380450Y-76158800D01*
X183380450Y-76158800D02*
X183237593Y-76587371D01*
X183237593Y-76587371D02*
X181523307Y-78301657D01*
X181523307Y-78301657D02*
X183380450Y-78301657D01*
X184380450Y-75301657D02*
X186380450Y-75301657D01*
X186380450Y-75301657D02*
X185094736Y-78301657D01*
X189523307Y-78301657D02*
X191094736Y-76301657D01*
X189523307Y-76301657D02*
X191094736Y-78301657D01*
X194380449Y-75587371D02*
X194523306Y-75444514D01*
X194523306Y-75444514D02*
X194809021Y-75301657D01*
X194809021Y-75301657D02*
X195523306Y-75301657D01*
X195523306Y-75301657D02*
X195809021Y-75444514D01*
X195809021Y-75444514D02*
X195951878Y-75587371D01*
X195951878Y-75587371D02*
X196094735Y-75873085D01*
X196094735Y-75873085D02*
X196094735Y-76158800D01*
X196094735Y-76158800D02*
X195951878Y-76587371D01*
X195951878Y-76587371D02*
X194237592Y-78301657D01*
X194237592Y-78301657D02*
X196094735Y-78301657D01*
X197237592Y-75587371D02*
X197380449Y-75444514D01*
X197380449Y-75444514D02*
X197666164Y-75301657D01*
X197666164Y-75301657D02*
X198380449Y-75301657D01*
X198380449Y-75301657D02*
X198666164Y-75444514D01*
X198666164Y-75444514D02*
X198809021Y-75587371D01*
X198809021Y-75587371D02*
X198951878Y-75873085D01*
X198951878Y-75873085D02*
X198951878Y-76158800D01*
X198951878Y-76158800D02*
X198809021Y-76587371D01*
X198809021Y-76587371D02*
X197094735Y-78301657D01*
X197094735Y-78301657D02*
X198951878Y-78301657D01*
X202237592Y-78301657D02*
X203809021Y-76301657D01*
X202237592Y-76301657D02*
X203809021Y-78301657D01*
X207809020Y-75301657D02*
X208094734Y-75301657D01*
X208094734Y-75301657D02*
X208380448Y-75444514D01*
X208380448Y-75444514D02*
X208523306Y-75587371D01*
X208523306Y-75587371D02*
X208666163Y-75873085D01*
X208666163Y-75873085D02*
X208809020Y-76444514D01*
X208809020Y-76444514D02*
X208809020Y-77158800D01*
X208809020Y-77158800D02*
X208666163Y-77730228D01*
X208666163Y-77730228D02*
X208523306Y-78015942D01*
X208523306Y-78015942D02*
X208380448Y-78158800D01*
X208380448Y-78158800D02*
X208094734Y-78301657D01*
X208094734Y-78301657D02*
X207809020Y-78301657D01*
X207809020Y-78301657D02*
X207523306Y-78158800D01*
X207523306Y-78158800D02*
X207380448Y-78015942D01*
X207380448Y-78015942D02*
X207237591Y-77730228D01*
X207237591Y-77730228D02*
X207094734Y-77158800D01*
X207094734Y-77158800D02*
X207094734Y-76444514D01*
X207094734Y-76444514D02*
X207237591Y-75873085D01*
X207237591Y-75873085D02*
X207380448Y-75587371D01*
X207380448Y-75587371D02*
X207523306Y-75444514D01*
X207523306Y-75444514D02*
X207809020Y-75301657D01*
X210094734Y-78015942D02*
X210237591Y-78158800D01*
X210237591Y-78158800D02*
X210094734Y-78301657D01*
X210094734Y-78301657D02*
X209951877Y-78158800D01*
X209951877Y-78158800D02*
X210094734Y-78015942D01*
X210094734Y-78015942D02*
X210094734Y-78301657D01*
X211380448Y-75587371D02*
X211523305Y-75444514D01*
X211523305Y-75444514D02*
X211809020Y-75301657D01*
X211809020Y-75301657D02*
X212523305Y-75301657D01*
X212523305Y-75301657D02*
X212809020Y-75444514D01*
X212809020Y-75444514D02*
X212951877Y-75587371D01*
X212951877Y-75587371D02*
X213094734Y-75873085D01*
X213094734Y-75873085D02*
X213094734Y-76158800D01*
X213094734Y-76158800D02*
X212951877Y-76587371D01*
X212951877Y-76587371D02*
X211237591Y-78301657D01*
X211237591Y-78301657D02*
X213094734Y-78301657D01*
X216666162Y-78301657D02*
X216666162Y-76301657D01*
X216666162Y-76587371D02*
X216809019Y-76444514D01*
X216809019Y-76444514D02*
X217094734Y-76301657D01*
X217094734Y-76301657D02*
X217523305Y-76301657D01*
X217523305Y-76301657D02*
X217809019Y-76444514D01*
X217809019Y-76444514D02*
X217951877Y-76730228D01*
X217951877Y-76730228D02*
X217951877Y-78301657D01*
X217951877Y-76730228D02*
X218094734Y-76444514D01*
X218094734Y-76444514D02*
X218380448Y-76301657D01*
X218380448Y-76301657D02*
X218809019Y-76301657D01*
X218809019Y-76301657D02*
X219094734Y-76444514D01*
X219094734Y-76444514D02*
X219237591Y-76730228D01*
X219237591Y-76730228D02*
X219237591Y-78301657D01*
X220666162Y-78301657D02*
X220666162Y-76301657D01*
X220666162Y-76587371D02*
X220809019Y-76444514D01*
X220809019Y-76444514D02*
X221094734Y-76301657D01*
X221094734Y-76301657D02*
X221523305Y-76301657D01*
X221523305Y-76301657D02*
X221809019Y-76444514D01*
X221809019Y-76444514D02*
X221951877Y-76730228D01*
X221951877Y-76730228D02*
X221951877Y-78301657D01*
X221951877Y-76730228D02*
X222094734Y-76444514D01*
X222094734Y-76444514D02*
X222380448Y-76301657D01*
X222380448Y-76301657D02*
X222809019Y-76301657D01*
X222809019Y-76301657D02*
X223094734Y-76444514D01*
X223094734Y-76444514D02*
X223237591Y-76730228D01*
X223237591Y-76730228D02*
X223237591Y-78301657D01*
D12*
X163043232Y-97135428D02*
X163471804Y-97278285D01*
X163471804Y-97278285D02*
X163614661Y-97421142D01*
X163614661Y-97421142D02*
X163757518Y-97706857D01*
X163757518Y-97706857D02*
X163757518Y-98135428D01*
X163757518Y-98135428D02*
X163614661Y-98421142D01*
X163614661Y-98421142D02*
X163471804Y-98564000D01*
X163471804Y-98564000D02*
X163186089Y-98706857D01*
X163186089Y-98706857D02*
X162043232Y-98706857D01*
X162043232Y-98706857D02*
X162043232Y-95706857D01*
X162043232Y-95706857D02*
X163043232Y-95706857D01*
X163043232Y-95706857D02*
X163328947Y-95849714D01*
X163328947Y-95849714D02*
X163471804Y-95992571D01*
X163471804Y-95992571D02*
X163614661Y-96278285D01*
X163614661Y-96278285D02*
X163614661Y-96564000D01*
X163614661Y-96564000D02*
X163471804Y-96849714D01*
X163471804Y-96849714D02*
X163328947Y-96992571D01*
X163328947Y-96992571D02*
X163043232Y-97135428D01*
X163043232Y-97135428D02*
X162043232Y-97135428D01*
X166328947Y-98706857D02*
X166328947Y-97135428D01*
X166328947Y-97135428D02*
X166186089Y-96849714D01*
X166186089Y-96849714D02*
X165900375Y-96706857D01*
X165900375Y-96706857D02*
X165328947Y-96706857D01*
X165328947Y-96706857D02*
X165043232Y-96849714D01*
X166328947Y-98564000D02*
X166043232Y-98706857D01*
X166043232Y-98706857D02*
X165328947Y-98706857D01*
X165328947Y-98706857D02*
X165043232Y-98564000D01*
X165043232Y-98564000D02*
X164900375Y-98278285D01*
X164900375Y-98278285D02*
X164900375Y-97992571D01*
X164900375Y-97992571D02*
X165043232Y-97706857D01*
X165043232Y-97706857D02*
X165328947Y-97564000D01*
X165328947Y-97564000D02*
X166043232Y-97564000D01*
X166043232Y-97564000D02*
X166328947Y-97421142D01*
X169043233Y-98564000D02*
X168757518Y-98706857D01*
X168757518Y-98706857D02*
X168186090Y-98706857D01*
X168186090Y-98706857D02*
X167900375Y-98564000D01*
X167900375Y-98564000D02*
X167757518Y-98421142D01*
X167757518Y-98421142D02*
X167614661Y-98135428D01*
X167614661Y-98135428D02*
X167614661Y-97278285D01*
X167614661Y-97278285D02*
X167757518Y-96992571D01*
X167757518Y-96992571D02*
X167900375Y-96849714D01*
X167900375Y-96849714D02*
X168186090Y-96706857D01*
X168186090Y-96706857D02*
X168757518Y-96706857D01*
X168757518Y-96706857D02*
X169043233Y-96849714D01*
X170328947Y-98706857D02*
X170328947Y-95706857D01*
X170614662Y-97564000D02*
X171471804Y-98706857D01*
X171471804Y-96706857D02*
X170328947Y-97849714D01*
X172614661Y-98564000D02*
X172900375Y-98706857D01*
X172900375Y-98706857D02*
X173471804Y-98706857D01*
X173471804Y-98706857D02*
X173757518Y-98564000D01*
X173757518Y-98564000D02*
X173900375Y-98278285D01*
X173900375Y-98278285D02*
X173900375Y-98135428D01*
X173900375Y-98135428D02*
X173757518Y-97849714D01*
X173757518Y-97849714D02*
X173471804Y-97706857D01*
X173471804Y-97706857D02*
X173043233Y-97706857D01*
X173043233Y-97706857D02*
X172757518Y-97564000D01*
X172757518Y-97564000D02*
X172614661Y-97278285D01*
X172614661Y-97278285D02*
X172614661Y-97135428D01*
X172614661Y-97135428D02*
X172757518Y-96849714D01*
X172757518Y-96849714D02*
X173043233Y-96706857D01*
X173043233Y-96706857D02*
X173471804Y-96706857D01*
X173471804Y-96706857D02*
X173757518Y-96849714D01*
X175186089Y-98706857D02*
X175186089Y-96706857D01*
X175186089Y-95706857D02*
X175043232Y-95849714D01*
X175043232Y-95849714D02*
X175186089Y-95992571D01*
X175186089Y-95992571D02*
X175328946Y-95849714D01*
X175328946Y-95849714D02*
X175186089Y-95706857D01*
X175186089Y-95706857D02*
X175186089Y-95992571D01*
X177900375Y-98706857D02*
X177900375Y-95706857D01*
X177900375Y-98564000D02*
X177614660Y-98706857D01*
X177614660Y-98706857D02*
X177043232Y-98706857D01*
X177043232Y-98706857D02*
X176757517Y-98564000D01*
X176757517Y-98564000D02*
X176614660Y-98421142D01*
X176614660Y-98421142D02*
X176471803Y-98135428D01*
X176471803Y-98135428D02*
X176471803Y-97278285D01*
X176471803Y-97278285D02*
X176614660Y-96992571D01*
X176614660Y-96992571D02*
X176757517Y-96849714D01*
X176757517Y-96849714D02*
X177043232Y-96706857D01*
X177043232Y-96706857D02*
X177614660Y-96706857D01*
X177614660Y-96706857D02*
X177900375Y-96849714D01*
X180471803Y-98564000D02*
X180186089Y-98706857D01*
X180186089Y-98706857D02*
X179614661Y-98706857D01*
X179614661Y-98706857D02*
X179328946Y-98564000D01*
X179328946Y-98564000D02*
X179186089Y-98278285D01*
X179186089Y-98278285D02*
X179186089Y-97135428D01*
X179186089Y-97135428D02*
X179328946Y-96849714D01*
X179328946Y-96849714D02*
X179614661Y-96706857D01*
X179614661Y-96706857D02*
X180186089Y-96706857D01*
X180186089Y-96706857D02*
X180471803Y-96849714D01*
X180471803Y-96849714D02*
X180614661Y-97135428D01*
X180614661Y-97135428D02*
X180614661Y-97421142D01*
X180614661Y-97421142D02*
X179186089Y-97706857D01*
X186328946Y-95564000D02*
X183757518Y-99421142D01*
X190614660Y-97135428D02*
X191043232Y-97278285D01*
X191043232Y-97278285D02*
X191186089Y-97421142D01*
X191186089Y-97421142D02*
X191328946Y-97706857D01*
X191328946Y-97706857D02*
X191328946Y-98135428D01*
X191328946Y-98135428D02*
X191186089Y-98421142D01*
X191186089Y-98421142D02*
X191043232Y-98564000D01*
X191043232Y-98564000D02*
X190757517Y-98706857D01*
X190757517Y-98706857D02*
X189614660Y-98706857D01*
X189614660Y-98706857D02*
X189614660Y-95706857D01*
X189614660Y-95706857D02*
X190614660Y-95706857D01*
X190614660Y-95706857D02*
X190900375Y-95849714D01*
X190900375Y-95849714D02*
X191043232Y-95992571D01*
X191043232Y-95992571D02*
X191186089Y-96278285D01*
X191186089Y-96278285D02*
X191186089Y-96564000D01*
X191186089Y-96564000D02*
X191043232Y-96849714D01*
X191043232Y-96849714D02*
X190900375Y-96992571D01*
X190900375Y-96992571D02*
X190614660Y-97135428D01*
X190614660Y-97135428D02*
X189614660Y-97135428D01*
X193043232Y-98706857D02*
X192757517Y-98564000D01*
X192757517Y-98564000D02*
X192614660Y-98421142D01*
X192614660Y-98421142D02*
X192471803Y-98135428D01*
X192471803Y-98135428D02*
X192471803Y-97278285D01*
X192471803Y-97278285D02*
X192614660Y-96992571D01*
X192614660Y-96992571D02*
X192757517Y-96849714D01*
X192757517Y-96849714D02*
X193043232Y-96706857D01*
X193043232Y-96706857D02*
X193471803Y-96706857D01*
X193471803Y-96706857D02*
X193757517Y-96849714D01*
X193757517Y-96849714D02*
X193900375Y-96992571D01*
X193900375Y-96992571D02*
X194043232Y-97278285D01*
X194043232Y-97278285D02*
X194043232Y-98135428D01*
X194043232Y-98135428D02*
X193900375Y-98421142D01*
X193900375Y-98421142D02*
X193757517Y-98564000D01*
X193757517Y-98564000D02*
X193471803Y-98706857D01*
X193471803Y-98706857D02*
X193043232Y-98706857D01*
X194900375Y-96706857D02*
X196043232Y-96706857D01*
X195328946Y-95706857D02*
X195328946Y-98278285D01*
X195328946Y-98278285D02*
X195471803Y-98564000D01*
X195471803Y-98564000D02*
X195757518Y-98706857D01*
X195757518Y-98706857D02*
X196043232Y-98706857D01*
X196614661Y-96706857D02*
X197757518Y-96706857D01*
X197043232Y-95706857D02*
X197043232Y-98278285D01*
X197043232Y-98278285D02*
X197186089Y-98564000D01*
X197186089Y-98564000D02*
X197471804Y-98706857D01*
X197471804Y-98706857D02*
X197757518Y-98706857D01*
X199186090Y-98706857D02*
X198900375Y-98564000D01*
X198900375Y-98564000D02*
X198757518Y-98421142D01*
X198757518Y-98421142D02*
X198614661Y-98135428D01*
X198614661Y-98135428D02*
X198614661Y-97278285D01*
X198614661Y-97278285D02*
X198757518Y-96992571D01*
X198757518Y-96992571D02*
X198900375Y-96849714D01*
X198900375Y-96849714D02*
X199186090Y-96706857D01*
X199186090Y-96706857D02*
X199614661Y-96706857D01*
X199614661Y-96706857D02*
X199900375Y-96849714D01*
X199900375Y-96849714D02*
X200043233Y-96992571D01*
X200043233Y-96992571D02*
X200186090Y-97278285D01*
X200186090Y-97278285D02*
X200186090Y-98135428D01*
X200186090Y-98135428D02*
X200043233Y-98421142D01*
X200043233Y-98421142D02*
X199900375Y-98564000D01*
X199900375Y-98564000D02*
X199614661Y-98706857D01*
X199614661Y-98706857D02*
X199186090Y-98706857D01*
X201471804Y-98706857D02*
X201471804Y-96706857D01*
X201471804Y-96992571D02*
X201614661Y-96849714D01*
X201614661Y-96849714D02*
X201900376Y-96706857D01*
X201900376Y-96706857D02*
X202328947Y-96706857D01*
X202328947Y-96706857D02*
X202614661Y-96849714D01*
X202614661Y-96849714D02*
X202757519Y-97135428D01*
X202757519Y-97135428D02*
X202757519Y-98706857D01*
X202757519Y-97135428D02*
X202900376Y-96849714D01*
X202900376Y-96849714D02*
X203186090Y-96706857D01*
X203186090Y-96706857D02*
X203614661Y-96706857D01*
X203614661Y-96706857D02*
X203900376Y-96849714D01*
X203900376Y-96849714D02*
X204043233Y-97135428D01*
X204043233Y-97135428D02*
X204043233Y-98706857D01*
X209186090Y-98706857D02*
X207757518Y-98706857D01*
X207757518Y-98706857D02*
X207757518Y-95706857D01*
X211471804Y-98706857D02*
X211471804Y-97135428D01*
X211471804Y-97135428D02*
X211328946Y-96849714D01*
X211328946Y-96849714D02*
X211043232Y-96706857D01*
X211043232Y-96706857D02*
X210471804Y-96706857D01*
X210471804Y-96706857D02*
X210186089Y-96849714D01*
X211471804Y-98564000D02*
X211186089Y-98706857D01*
X211186089Y-98706857D02*
X210471804Y-98706857D01*
X210471804Y-98706857D02*
X210186089Y-98564000D01*
X210186089Y-98564000D02*
X210043232Y-98278285D01*
X210043232Y-98278285D02*
X210043232Y-97992571D01*
X210043232Y-97992571D02*
X210186089Y-97706857D01*
X210186089Y-97706857D02*
X210471804Y-97564000D01*
X210471804Y-97564000D02*
X211186089Y-97564000D01*
X211186089Y-97564000D02*
X211471804Y-97421142D01*
X212614661Y-96706857D02*
X213328947Y-98706857D01*
X214043232Y-96706857D02*
X213328947Y-98706857D01*
X213328947Y-98706857D02*
X213043232Y-99421142D01*
X213043232Y-99421142D02*
X212900375Y-99564000D01*
X212900375Y-99564000D02*
X212614661Y-99706857D01*
X216328946Y-98564000D02*
X216043232Y-98706857D01*
X216043232Y-98706857D02*
X215471804Y-98706857D01*
X215471804Y-98706857D02*
X215186089Y-98564000D01*
X215186089Y-98564000D02*
X215043232Y-98278285D01*
X215043232Y-98278285D02*
X215043232Y-97135428D01*
X215043232Y-97135428D02*
X215186089Y-96849714D01*
X215186089Y-96849714D02*
X215471804Y-96706857D01*
X215471804Y-96706857D02*
X216043232Y-96706857D01*
X216043232Y-96706857D02*
X216328946Y-96849714D01*
X216328946Y-96849714D02*
X216471804Y-97135428D01*
X216471804Y-97135428D02*
X216471804Y-97421142D01*
X216471804Y-97421142D02*
X215043232Y-97706857D01*
X217757518Y-98706857D02*
X217757518Y-96706857D01*
X217757518Y-97278285D02*
X217900375Y-96992571D01*
X217900375Y-96992571D02*
X218043233Y-96849714D01*
X218043233Y-96849714D02*
X218328947Y-96706857D01*
X218328947Y-96706857D02*
X218614661Y-96706857D01*
D10*
X200457914Y-56257381D02*
X200362676Y-56162143D01*
X200362676Y-56162143D02*
X200267438Y-55971667D01*
X200267438Y-55971667D02*
X200267438Y-55495476D01*
X200267438Y-55495476D02*
X200362676Y-55305000D01*
X200362676Y-55305000D02*
X200457914Y-55209762D01*
X200457914Y-55209762D02*
X200648390Y-55114524D01*
X200648390Y-55114524D02*
X200838866Y-55114524D01*
X200838866Y-55114524D02*
X201124580Y-55209762D01*
X201124580Y-55209762D02*
X202267438Y-56352619D01*
X202267438Y-56352619D02*
X202267438Y-55114524D01*
X200457914Y-54352619D02*
X200362676Y-54257381D01*
X200362676Y-54257381D02*
X200267438Y-54066905D01*
X200267438Y-54066905D02*
X200267438Y-53590714D01*
X200267438Y-53590714D02*
X200362676Y-53400238D01*
X200362676Y-53400238D02*
X200457914Y-53305000D01*
X200457914Y-53305000D02*
X200648390Y-53209762D01*
X200648390Y-53209762D02*
X200838866Y-53209762D01*
X200838866Y-53209762D02*
X201124580Y-53305000D01*
X201124580Y-53305000D02*
X202267438Y-54447857D01*
X202267438Y-54447857D02*
X202267438Y-53209762D01*
X202267438Y-50828809D02*
X200934104Y-50828809D01*
X201124580Y-50828809D02*
X201029342Y-50733571D01*
X201029342Y-50733571D02*
X200934104Y-50543095D01*
X200934104Y-50543095D02*
X200934104Y-50257380D01*
X200934104Y-50257380D02*
X201029342Y-50066904D01*
X201029342Y-50066904D02*
X201219819Y-49971666D01*
X201219819Y-49971666D02*
X202267438Y-49971666D01*
X201219819Y-49971666D02*
X201029342Y-49876428D01*
X201029342Y-49876428D02*
X200934104Y-49685952D01*
X200934104Y-49685952D02*
X200934104Y-49400238D01*
X200934104Y-49400238D02*
X201029342Y-49209761D01*
X201029342Y-49209761D02*
X201219819Y-49114523D01*
X201219819Y-49114523D02*
X202267438Y-49114523D01*
X202267438Y-48162142D02*
X200934104Y-48162142D01*
X201124580Y-48162142D02*
X201029342Y-48066904D01*
X201029342Y-48066904D02*
X200934104Y-47876428D01*
X200934104Y-47876428D02*
X200934104Y-47590713D01*
X200934104Y-47590713D02*
X201029342Y-47400237D01*
X201029342Y-47400237D02*
X201219819Y-47304999D01*
X201219819Y-47304999D02*
X202267438Y-47304999D01*
X201219819Y-47304999D02*
X201029342Y-47209761D01*
X201029342Y-47209761D02*
X200934104Y-47019285D01*
X200934104Y-47019285D02*
X200934104Y-46733571D01*
X200934104Y-46733571D02*
X201029342Y-46543094D01*
X201029342Y-46543094D02*
X201219819Y-46447856D01*
X201219819Y-46447856D02*
X202267438Y-46447856D01*
X180665000Y-40510000D02*
X204086420Y-40510000D01*
X180665000Y-62100000D02*
X204086420Y-62100000D01*
X203500000Y-40510000D02*
X203500000Y-62100000D01*
X203500000Y-40510000D02*
X203500000Y-62100000D01*
X203500000Y-40510000D02*
X204086421Y-41636504D01*
X203500000Y-40510000D02*
X202913579Y-41636504D01*
X203500000Y-62100000D02*
X202913579Y-60973496D01*
X203500000Y-62100000D02*
X204086421Y-60973496D01*
X175212618Y-29457914D02*
X175307856Y-29362676D01*
X175307856Y-29362676D02*
X175498332Y-29267438D01*
X175498332Y-29267438D02*
X175974523Y-29267438D01*
X175974523Y-29267438D02*
X176164999Y-29362676D01*
X176164999Y-29362676D02*
X176260237Y-29457914D01*
X176260237Y-29457914D02*
X176355475Y-29648390D01*
X176355475Y-29648390D02*
X176355475Y-29838866D01*
X176355475Y-29838866D02*
X176260237Y-30124580D01*
X176260237Y-30124580D02*
X175117380Y-31267438D01*
X175117380Y-31267438D02*
X176355475Y-31267438D01*
X177022142Y-29267438D02*
X178355475Y-29267438D01*
X178355475Y-29267438D02*
X177498332Y-31267438D01*
X180641190Y-31267438D02*
X180641190Y-29934104D01*
X180641190Y-30124580D02*
X180736428Y-30029342D01*
X180736428Y-30029342D02*
X180926904Y-29934104D01*
X180926904Y-29934104D02*
X181212619Y-29934104D01*
X181212619Y-29934104D02*
X181403095Y-30029342D01*
X181403095Y-30029342D02*
X181498333Y-30219819D01*
X181498333Y-30219819D02*
X181498333Y-31267438D01*
X181498333Y-30219819D02*
X181593571Y-30029342D01*
X181593571Y-30029342D02*
X181784047Y-29934104D01*
X181784047Y-29934104D02*
X182069761Y-29934104D01*
X182069761Y-29934104D02*
X182260238Y-30029342D01*
X182260238Y-30029342D02*
X182355476Y-30219819D01*
X182355476Y-30219819D02*
X182355476Y-31267438D01*
X183307857Y-31267438D02*
X183307857Y-29934104D01*
X183307857Y-30124580D02*
X183403095Y-30029342D01*
X183403095Y-30029342D02*
X183593571Y-29934104D01*
X183593571Y-29934104D02*
X183879286Y-29934104D01*
X183879286Y-29934104D02*
X184069762Y-30029342D01*
X184069762Y-30029342D02*
X184165000Y-30219819D01*
X184165000Y-30219819D02*
X184165000Y-31267438D01*
X184165000Y-30219819D02*
X184260238Y-30029342D01*
X184260238Y-30029342D02*
X184450714Y-29934104D01*
X184450714Y-29934104D02*
X184736428Y-29934104D01*
X184736428Y-29934104D02*
X184926905Y-30029342D01*
X184926905Y-30029342D02*
X185022143Y-30219819D01*
X185022143Y-30219819D02*
X185022143Y-31267438D01*
X166830000Y-50805000D02*
X166830000Y-31913580D01*
X193500000Y-50805000D02*
X193500000Y-31913580D01*
X166830000Y-32500000D02*
X193500000Y-32500000D01*
X166830000Y-32500000D02*
X193500000Y-32500000D01*
X166830000Y-32500000D02*
X167956504Y-31913579D01*
X166830000Y-32500000D02*
X167956504Y-33086421D01*
X193500000Y-32500000D02*
X192373496Y-33086421D01*
X193500000Y-32500000D02*
X192373496Y-31913579D01*
D12*
X180842856Y-72296857D02*
X180842856Y-69296857D01*
X180842856Y-69296857D02*
X181985713Y-69296857D01*
X181985713Y-69296857D02*
X182271428Y-69439714D01*
X182271428Y-69439714D02*
X182414285Y-69582571D01*
X182414285Y-69582571D02*
X182557142Y-69868285D01*
X182557142Y-69868285D02*
X182557142Y-70296857D01*
X182557142Y-70296857D02*
X182414285Y-70582571D01*
X182414285Y-70582571D02*
X182271428Y-70725428D01*
X182271428Y-70725428D02*
X181985713Y-70868285D01*
X181985713Y-70868285D02*
X180842856Y-70868285D01*
X184271428Y-72296857D02*
X183985713Y-72154000D01*
X183985713Y-72154000D02*
X183842856Y-72011142D01*
X183842856Y-72011142D02*
X183699999Y-71725428D01*
X183699999Y-71725428D02*
X183699999Y-70868285D01*
X183699999Y-70868285D02*
X183842856Y-70582571D01*
X183842856Y-70582571D02*
X183985713Y-70439714D01*
X183985713Y-70439714D02*
X184271428Y-70296857D01*
X184271428Y-70296857D02*
X184699999Y-70296857D01*
X184699999Y-70296857D02*
X184985713Y-70439714D01*
X184985713Y-70439714D02*
X185128571Y-70582571D01*
X185128571Y-70582571D02*
X185271428Y-70868285D01*
X185271428Y-70868285D02*
X185271428Y-71725428D01*
X185271428Y-71725428D02*
X185128571Y-72011142D01*
X185128571Y-72011142D02*
X184985713Y-72154000D01*
X184985713Y-72154000D02*
X184699999Y-72296857D01*
X184699999Y-72296857D02*
X184271428Y-72296857D01*
X186985714Y-72296857D02*
X186699999Y-72154000D01*
X186699999Y-72154000D02*
X186557142Y-71868285D01*
X186557142Y-71868285D02*
X186557142Y-69296857D01*
X187842857Y-70296857D02*
X188557143Y-72296857D01*
X189271428Y-70296857D02*
X188557143Y-72296857D01*
X188557143Y-72296857D02*
X188271428Y-73011142D01*
X188271428Y-73011142D02*
X188128571Y-73154000D01*
X188128571Y-73154000D02*
X187842857Y-73296857D01*
X190414285Y-72296857D02*
X190414285Y-70296857D01*
X190414285Y-69296857D02*
X190271428Y-69439714D01*
X190271428Y-69439714D02*
X190414285Y-69582571D01*
X190414285Y-69582571D02*
X190557142Y-69439714D01*
X190557142Y-69439714D02*
X190414285Y-69296857D01*
X190414285Y-69296857D02*
X190414285Y-69582571D01*
X191842856Y-72296857D02*
X191842856Y-70296857D01*
X191842856Y-70582571D02*
X191985713Y-70439714D01*
X191985713Y-70439714D02*
X192271428Y-70296857D01*
X192271428Y-70296857D02*
X192699999Y-70296857D01*
X192699999Y-70296857D02*
X192985713Y-70439714D01*
X192985713Y-70439714D02*
X193128571Y-70725428D01*
X193128571Y-70725428D02*
X193128571Y-72296857D01*
X193128571Y-70725428D02*
X193271428Y-70439714D01*
X193271428Y-70439714D02*
X193557142Y-70296857D01*
X193557142Y-70296857D02*
X193985713Y-70296857D01*
X193985713Y-70296857D02*
X194271428Y-70439714D01*
X194271428Y-70439714D02*
X194414285Y-70725428D01*
X194414285Y-70725428D02*
X194414285Y-72296857D01*
X195842856Y-72296857D02*
X195842856Y-70296857D01*
X195842856Y-69296857D02*
X195699999Y-69439714D01*
X195699999Y-69439714D02*
X195842856Y-69582571D01*
X195842856Y-69582571D02*
X195985713Y-69439714D01*
X195985713Y-69439714D02*
X195842856Y-69296857D01*
X195842856Y-69296857D02*
X195842856Y-69582571D01*
X198557142Y-72296857D02*
X198557142Y-69296857D01*
X198557142Y-72154000D02*
X198271427Y-72296857D01*
X198271427Y-72296857D02*
X197699999Y-72296857D01*
X197699999Y-72296857D02*
X197414284Y-72154000D01*
X197414284Y-72154000D02*
X197271427Y-72011142D01*
X197271427Y-72011142D02*
X197128570Y-71725428D01*
X197128570Y-71725428D02*
X197128570Y-70868285D01*
X197128570Y-70868285D02*
X197271427Y-70582571D01*
X197271427Y-70582571D02*
X197414284Y-70439714D01*
X197414284Y-70439714D02*
X197699999Y-70296857D01*
X197699999Y-70296857D02*
X198271427Y-70296857D01*
X198271427Y-70296857D02*
X198557142Y-70439714D01*
X201128570Y-72154000D02*
X200842856Y-72296857D01*
X200842856Y-72296857D02*
X200271428Y-72296857D01*
X200271428Y-72296857D02*
X199985713Y-72154000D01*
X199985713Y-72154000D02*
X199842856Y-71868285D01*
X199842856Y-71868285D02*
X199842856Y-70725428D01*
X199842856Y-70725428D02*
X199985713Y-70439714D01*
X199985713Y-70439714D02*
X200271428Y-70296857D01*
X200271428Y-70296857D02*
X200842856Y-70296857D01*
X200842856Y-70296857D02*
X201128570Y-70439714D01*
X201128570Y-70439714D02*
X201271428Y-70725428D01*
X201271428Y-70725428D02*
X201271428Y-71011142D01*
X201271428Y-71011142D02*
X199842856Y-71296857D01*
X204699999Y-72154000D02*
X205128571Y-72296857D01*
X205128571Y-72296857D02*
X205842856Y-72296857D01*
X205842856Y-72296857D02*
X206128571Y-72154000D01*
X206128571Y-72154000D02*
X206271428Y-72011142D01*
X206271428Y-72011142D02*
X206414285Y-71725428D01*
X206414285Y-71725428D02*
X206414285Y-71439714D01*
X206414285Y-71439714D02*
X206271428Y-71154000D01*
X206271428Y-71154000D02*
X206128571Y-71011142D01*
X206128571Y-71011142D02*
X205842856Y-70868285D01*
X205842856Y-70868285D02*
X205271428Y-70725428D01*
X205271428Y-70725428D02*
X204985713Y-70582571D01*
X204985713Y-70582571D02*
X204842856Y-70439714D01*
X204842856Y-70439714D02*
X204699999Y-70154000D01*
X204699999Y-70154000D02*
X204699999Y-69868285D01*
X204699999Y-69868285D02*
X204842856Y-69582571D01*
X204842856Y-69582571D02*
X204985713Y-69439714D01*
X204985713Y-69439714D02*
X205271428Y-69296857D01*
X205271428Y-69296857D02*
X205985713Y-69296857D01*
X205985713Y-69296857D02*
X206414285Y-69439714D01*
X207271428Y-70296857D02*
X208414285Y-70296857D01*
X207699999Y-69296857D02*
X207699999Y-71868285D01*
X207699999Y-71868285D02*
X207842856Y-72154000D01*
X207842856Y-72154000D02*
X208128571Y-72296857D01*
X208128571Y-72296857D02*
X208414285Y-72296857D01*
X209414285Y-72296857D02*
X209414285Y-70296857D01*
X209414285Y-69296857D02*
X209271428Y-69439714D01*
X209271428Y-69439714D02*
X209414285Y-69582571D01*
X209414285Y-69582571D02*
X209557142Y-69439714D01*
X209557142Y-69439714D02*
X209414285Y-69296857D01*
X209414285Y-69296857D02*
X209414285Y-69582571D01*
X210414285Y-70296857D02*
X211557142Y-70296857D01*
X210842856Y-72296857D02*
X210842856Y-69725428D01*
X210842856Y-69725428D02*
X210985713Y-69439714D01*
X210985713Y-69439714D02*
X211271428Y-69296857D01*
X211271428Y-69296857D02*
X211557142Y-69296857D01*
X212128571Y-70296857D02*
X213271428Y-70296857D01*
X212557142Y-72296857D02*
X212557142Y-69725428D01*
X212557142Y-69725428D02*
X212699999Y-69439714D01*
X212699999Y-69439714D02*
X212985714Y-69296857D01*
X212985714Y-69296857D02*
X213271428Y-69296857D01*
X215414285Y-72154000D02*
X215128571Y-72296857D01*
X215128571Y-72296857D02*
X214557143Y-72296857D01*
X214557143Y-72296857D02*
X214271428Y-72154000D01*
X214271428Y-72154000D02*
X214128571Y-71868285D01*
X214128571Y-71868285D02*
X214128571Y-70725428D01*
X214128571Y-70725428D02*
X214271428Y-70439714D01*
X214271428Y-70439714D02*
X214557143Y-70296857D01*
X214557143Y-70296857D02*
X215128571Y-70296857D01*
X215128571Y-70296857D02*
X215414285Y-70439714D01*
X215414285Y-70439714D02*
X215557143Y-70725428D01*
X215557143Y-70725428D02*
X215557143Y-71011142D01*
X215557143Y-71011142D02*
X214128571Y-71296857D01*
X216842857Y-70296857D02*
X216842857Y-72296857D01*
X216842857Y-70582571D02*
X216985714Y-70439714D01*
X216985714Y-70439714D02*
X217271429Y-70296857D01*
X217271429Y-70296857D02*
X217700000Y-70296857D01*
X217700000Y-70296857D02*
X217985714Y-70439714D01*
X217985714Y-70439714D02*
X218128572Y-70725428D01*
X218128572Y-70725428D02*
X218128572Y-72296857D01*
X220700000Y-72154000D02*
X220414286Y-72296857D01*
X220414286Y-72296857D02*
X219842858Y-72296857D01*
X219842858Y-72296857D02*
X219557143Y-72154000D01*
X219557143Y-72154000D02*
X219414286Y-71868285D01*
X219414286Y-71868285D02*
X219414286Y-70725428D01*
X219414286Y-70725428D02*
X219557143Y-70439714D01*
X219557143Y-70439714D02*
X219842858Y-70296857D01*
X219842858Y-70296857D02*
X220414286Y-70296857D01*
X220414286Y-70296857D02*
X220700000Y-70439714D01*
X220700000Y-70439714D02*
X220842858Y-70725428D01*
X220842858Y-70725428D02*
X220842858Y-71011142D01*
X220842858Y-71011142D02*
X219414286Y-71296857D01*
X222128572Y-72296857D02*
X222128572Y-70296857D01*
X222128572Y-70868285D02*
X222271429Y-70582571D01*
X222271429Y-70582571D02*
X222414287Y-70439714D01*
X222414287Y-70439714D02*
X222700001Y-70296857D01*
X222700001Y-70296857D02*
X222985715Y-70296857D01*
D13*
X180518553Y-62453553D02*
X185367500Y-67302500D01*
X180518553Y-62453553D02*
X181729774Y-62835449D01*
X180518553Y-62453553D02*
X180900449Y-63664774D01*
X180518553Y-62453553D02*
X185367500Y-67302500D01*
X180518553Y-62453553D02*
X181729774Y-62835449D01*
X180518553Y-62453553D02*
X180900449Y-63664774D01*
M02*
