%TF.GenerationSoftware,KiCad,Pcbnew,7.0.6*%
%TF.CreationDate,2023-10-24T13:48:36+00:00*%
%TF.ProjectId,HeatedBedFoil,48656174-6564-4426-9564-466f696c2e6b,rev?*%
%TF.SameCoordinates,Original*%
%TF.FileFunction,Other,User*%
%FSLAX46Y46*%
G04 Gerber Fmt 4.6, Leading zero omitted, Abs format (unit mm)*
G04 Created by KiCad (PCBNEW 7.0.6) date 2023-10-24 13:48:36*
%MOMM*%
%LPD*%
G01*
G04 APERTURE LIST*
%ADD10C,0.150000*%
%ADD11C,0.500000*%
%ADD12C,0.100000*%
G04 APERTURE END LIST*
D10*
X181370112Y-75610771D02*
X181512969Y-75467914D01*
X181512969Y-75467914D02*
X181798684Y-75325057D01*
X181798684Y-75325057D02*
X182512969Y-75325057D01*
X182512969Y-75325057D02*
X182798684Y-75467914D01*
X182798684Y-75467914D02*
X182941541Y-75610771D01*
X182941541Y-75610771D02*
X183084398Y-75896485D01*
X183084398Y-75896485D02*
X183084398Y-76182200D01*
X183084398Y-76182200D02*
X182941541Y-76610771D01*
X182941541Y-76610771D02*
X181227255Y-78325057D01*
X181227255Y-78325057D02*
X183084398Y-78325057D01*
X184084398Y-75325057D02*
X186084398Y-75325057D01*
X186084398Y-75325057D02*
X184798684Y-78325057D01*
X189227255Y-78325057D02*
X190798684Y-76325057D01*
X189227255Y-76325057D02*
X190798684Y-78325057D01*
X194084397Y-75610771D02*
X194227254Y-75467914D01*
X194227254Y-75467914D02*
X194512969Y-75325057D01*
X194512969Y-75325057D02*
X195227254Y-75325057D01*
X195227254Y-75325057D02*
X195512969Y-75467914D01*
X195512969Y-75467914D02*
X195655826Y-75610771D01*
X195655826Y-75610771D02*
X195798683Y-75896485D01*
X195798683Y-75896485D02*
X195798683Y-76182200D01*
X195798683Y-76182200D02*
X195655826Y-76610771D01*
X195655826Y-76610771D02*
X193941540Y-78325057D01*
X193941540Y-78325057D02*
X195798683Y-78325057D01*
X196941540Y-75610771D02*
X197084397Y-75467914D01*
X197084397Y-75467914D02*
X197370112Y-75325057D01*
X197370112Y-75325057D02*
X198084397Y-75325057D01*
X198084397Y-75325057D02*
X198370112Y-75467914D01*
X198370112Y-75467914D02*
X198512969Y-75610771D01*
X198512969Y-75610771D02*
X198655826Y-75896485D01*
X198655826Y-75896485D02*
X198655826Y-76182200D01*
X198655826Y-76182200D02*
X198512969Y-76610771D01*
X198512969Y-76610771D02*
X196798683Y-78325057D01*
X196798683Y-78325057D02*
X198655826Y-78325057D01*
X201941540Y-78325057D02*
X203512969Y-76325057D01*
X201941540Y-76325057D02*
X203512969Y-78325057D01*
X207512968Y-75325057D02*
X207798682Y-75325057D01*
X207798682Y-75325057D02*
X208084396Y-75467914D01*
X208084396Y-75467914D02*
X208227254Y-75610771D01*
X208227254Y-75610771D02*
X208370111Y-75896485D01*
X208370111Y-75896485D02*
X208512968Y-76467914D01*
X208512968Y-76467914D02*
X208512968Y-77182200D01*
X208512968Y-77182200D02*
X208370111Y-77753628D01*
X208370111Y-77753628D02*
X208227254Y-78039342D01*
X208227254Y-78039342D02*
X208084396Y-78182200D01*
X208084396Y-78182200D02*
X207798682Y-78325057D01*
X207798682Y-78325057D02*
X207512968Y-78325057D01*
X207512968Y-78325057D02*
X207227254Y-78182200D01*
X207227254Y-78182200D02*
X207084396Y-78039342D01*
X207084396Y-78039342D02*
X206941539Y-77753628D01*
X206941539Y-77753628D02*
X206798682Y-77182200D01*
X206798682Y-77182200D02*
X206798682Y-76467914D01*
X206798682Y-76467914D02*
X206941539Y-75896485D01*
X206941539Y-75896485D02*
X207084396Y-75610771D01*
X207084396Y-75610771D02*
X207227254Y-75467914D01*
X207227254Y-75467914D02*
X207512968Y-75325057D01*
X209798682Y-78039342D02*
X209941539Y-78182200D01*
X209941539Y-78182200D02*
X209798682Y-78325057D01*
X209798682Y-78325057D02*
X209655825Y-78182200D01*
X209655825Y-78182200D02*
X209798682Y-78039342D01*
X209798682Y-78039342D02*
X209798682Y-78325057D01*
X211084396Y-75610771D02*
X211227253Y-75467914D01*
X211227253Y-75467914D02*
X211512968Y-75325057D01*
X211512968Y-75325057D02*
X212227253Y-75325057D01*
X212227253Y-75325057D02*
X212512968Y-75467914D01*
X212512968Y-75467914D02*
X212655825Y-75610771D01*
X212655825Y-75610771D02*
X212798682Y-75896485D01*
X212798682Y-75896485D02*
X212798682Y-76182200D01*
X212798682Y-76182200D02*
X212655825Y-76610771D01*
X212655825Y-76610771D02*
X210941539Y-78325057D01*
X210941539Y-78325057D02*
X212798682Y-78325057D01*
X216370110Y-78325057D02*
X216370110Y-76325057D01*
X216370110Y-76610771D02*
X216512967Y-76467914D01*
X216512967Y-76467914D02*
X216798682Y-76325057D01*
X216798682Y-76325057D02*
X217227253Y-76325057D01*
X217227253Y-76325057D02*
X217512967Y-76467914D01*
X217512967Y-76467914D02*
X217655825Y-76753628D01*
X217655825Y-76753628D02*
X217655825Y-78325057D01*
X217655825Y-76753628D02*
X217798682Y-76467914D01*
X217798682Y-76467914D02*
X218084396Y-76325057D01*
X218084396Y-76325057D02*
X218512967Y-76325057D01*
X218512967Y-76325057D02*
X218798682Y-76467914D01*
X218798682Y-76467914D02*
X218941539Y-76753628D01*
X218941539Y-76753628D02*
X218941539Y-78325057D01*
X220370110Y-78325057D02*
X220370110Y-76325057D01*
X220370110Y-76610771D02*
X220512967Y-76467914D01*
X220512967Y-76467914D02*
X220798682Y-76325057D01*
X220798682Y-76325057D02*
X221227253Y-76325057D01*
X221227253Y-76325057D02*
X221512967Y-76467914D01*
X221512967Y-76467914D02*
X221655825Y-76753628D01*
X221655825Y-76753628D02*
X221655825Y-78325057D01*
X221655825Y-76753628D02*
X221798682Y-76467914D01*
X221798682Y-76467914D02*
X222084396Y-76325057D01*
X222084396Y-76325057D02*
X222512967Y-76325057D01*
X222512967Y-76325057D02*
X222798682Y-76467914D01*
X222798682Y-76467914D02*
X222941539Y-76753628D01*
X222941539Y-76753628D02*
X222941539Y-78325057D01*
X200457914Y-56257381D02*
X200362676Y-56162143D01*
X200362676Y-56162143D02*
X200267438Y-55971667D01*
X200267438Y-55971667D02*
X200267438Y-55495476D01*
X200267438Y-55495476D02*
X200362676Y-55305000D01*
X200362676Y-55305000D02*
X200457914Y-55209762D01*
X200457914Y-55209762D02*
X200648390Y-55114524D01*
X200648390Y-55114524D02*
X200838866Y-55114524D01*
X200838866Y-55114524D02*
X201124580Y-55209762D01*
X201124580Y-55209762D02*
X202267438Y-56352619D01*
X202267438Y-56352619D02*
X202267438Y-55114524D01*
X200457914Y-54352619D02*
X200362676Y-54257381D01*
X200362676Y-54257381D02*
X200267438Y-54066905D01*
X200267438Y-54066905D02*
X200267438Y-53590714D01*
X200267438Y-53590714D02*
X200362676Y-53400238D01*
X200362676Y-53400238D02*
X200457914Y-53305000D01*
X200457914Y-53305000D02*
X200648390Y-53209762D01*
X200648390Y-53209762D02*
X200838866Y-53209762D01*
X200838866Y-53209762D02*
X201124580Y-53305000D01*
X201124580Y-53305000D02*
X202267438Y-54447857D01*
X202267438Y-54447857D02*
X202267438Y-53209762D01*
X202267438Y-50828809D02*
X200934104Y-50828809D01*
X201124580Y-50828809D02*
X201029342Y-50733571D01*
X201029342Y-50733571D02*
X200934104Y-50543095D01*
X200934104Y-50543095D02*
X200934104Y-50257380D01*
X200934104Y-50257380D02*
X201029342Y-50066904D01*
X201029342Y-50066904D02*
X201219819Y-49971666D01*
X201219819Y-49971666D02*
X202267438Y-49971666D01*
X201219819Y-49971666D02*
X201029342Y-49876428D01*
X201029342Y-49876428D02*
X200934104Y-49685952D01*
X200934104Y-49685952D02*
X200934104Y-49400238D01*
X200934104Y-49400238D02*
X201029342Y-49209761D01*
X201029342Y-49209761D02*
X201219819Y-49114523D01*
X201219819Y-49114523D02*
X202267438Y-49114523D01*
X202267438Y-48162142D02*
X200934104Y-48162142D01*
X201124580Y-48162142D02*
X201029342Y-48066904D01*
X201029342Y-48066904D02*
X200934104Y-47876428D01*
X200934104Y-47876428D02*
X200934104Y-47590713D01*
X200934104Y-47590713D02*
X201029342Y-47400237D01*
X201029342Y-47400237D02*
X201219819Y-47304999D01*
X201219819Y-47304999D02*
X202267438Y-47304999D01*
X201219819Y-47304999D02*
X201029342Y-47209761D01*
X201029342Y-47209761D02*
X200934104Y-47019285D01*
X200934104Y-47019285D02*
X200934104Y-46733571D01*
X200934104Y-46733571D02*
X201029342Y-46543094D01*
X201029342Y-46543094D02*
X201219819Y-46447856D01*
X201219819Y-46447856D02*
X202267438Y-46447856D01*
X180665000Y-40510000D02*
X204086420Y-40510000D01*
X180665000Y-62100000D02*
X204086420Y-62100000D01*
X203500000Y-40510000D02*
X203500000Y-62100000D01*
X203500000Y-40510000D02*
X203500000Y-62100000D01*
X203500000Y-40510000D02*
X204086421Y-41636504D01*
X203500000Y-40510000D02*
X202913579Y-41636504D01*
X203500000Y-62100000D02*
X202913579Y-60973496D01*
X203500000Y-62100000D02*
X204086421Y-60973496D01*
X175212618Y-29457914D02*
X175307856Y-29362676D01*
X175307856Y-29362676D02*
X175498332Y-29267438D01*
X175498332Y-29267438D02*
X175974523Y-29267438D01*
X175974523Y-29267438D02*
X176164999Y-29362676D01*
X176164999Y-29362676D02*
X176260237Y-29457914D01*
X176260237Y-29457914D02*
X176355475Y-29648390D01*
X176355475Y-29648390D02*
X176355475Y-29838866D01*
X176355475Y-29838866D02*
X176260237Y-30124580D01*
X176260237Y-30124580D02*
X175117380Y-31267438D01*
X175117380Y-31267438D02*
X176355475Y-31267438D01*
X177022142Y-29267438D02*
X178355475Y-29267438D01*
X178355475Y-29267438D02*
X177498332Y-31267438D01*
X180641190Y-31267438D02*
X180641190Y-29934104D01*
X180641190Y-30124580D02*
X180736428Y-30029342D01*
X180736428Y-30029342D02*
X180926904Y-29934104D01*
X180926904Y-29934104D02*
X181212619Y-29934104D01*
X181212619Y-29934104D02*
X181403095Y-30029342D01*
X181403095Y-30029342D02*
X181498333Y-30219819D01*
X181498333Y-30219819D02*
X181498333Y-31267438D01*
X181498333Y-30219819D02*
X181593571Y-30029342D01*
X181593571Y-30029342D02*
X181784047Y-29934104D01*
X181784047Y-29934104D02*
X182069761Y-29934104D01*
X182069761Y-29934104D02*
X182260238Y-30029342D01*
X182260238Y-30029342D02*
X182355476Y-30219819D01*
X182355476Y-30219819D02*
X182355476Y-31267438D01*
X183307857Y-31267438D02*
X183307857Y-29934104D01*
X183307857Y-30124580D02*
X183403095Y-30029342D01*
X183403095Y-30029342D02*
X183593571Y-29934104D01*
X183593571Y-29934104D02*
X183879286Y-29934104D01*
X183879286Y-29934104D02*
X184069762Y-30029342D01*
X184069762Y-30029342D02*
X184165000Y-30219819D01*
X184165000Y-30219819D02*
X184165000Y-31267438D01*
X184165000Y-30219819D02*
X184260238Y-30029342D01*
X184260238Y-30029342D02*
X184450714Y-29934104D01*
X184450714Y-29934104D02*
X184736428Y-29934104D01*
X184736428Y-29934104D02*
X184926905Y-30029342D01*
X184926905Y-30029342D02*
X185022143Y-30219819D01*
X185022143Y-30219819D02*
X185022143Y-31267438D01*
X166830000Y-50805000D02*
X166830000Y-31913580D01*
X193500000Y-50805000D02*
X193500000Y-31913580D01*
X166830000Y-32500000D02*
X193500000Y-32500000D01*
X166830000Y-32500000D02*
X193500000Y-32500000D01*
X166830000Y-32500000D02*
X167956504Y-31913579D01*
X166830000Y-32500000D02*
X167956504Y-33086421D01*
X193500000Y-32500000D02*
X192373496Y-33086421D01*
X193500000Y-32500000D02*
X192373496Y-31913579D01*
X193500000Y-44510000D02*
X193500000Y-58100000D01*
X166830000Y-58100000D02*
G75*
G03*
X170830000Y-62100000I4000000J0D01*
G01*
X166830000Y-58100000D02*
X166830000Y-44510000D01*
X189500000Y-62100000D02*
G75*
G03*
X193500000Y-58100000I0J4000000D01*
G01*
X170830000Y-40510000D02*
X189500000Y-40510000D01*
X193500000Y-44510000D02*
G75*
G03*
X189500000Y-40510000I-4000000J0D01*
G01*
X170830000Y-40510000D02*
G75*
G03*
X166830000Y-44510000I0J-4000000D01*
G01*
X189500000Y-62100000D02*
X170830000Y-62100000D01*
D11*
X180842856Y-72296857D02*
X180842856Y-69296857D01*
X180842856Y-69296857D02*
X181985713Y-69296857D01*
X181985713Y-69296857D02*
X182271428Y-69439714D01*
X182271428Y-69439714D02*
X182414285Y-69582571D01*
X182414285Y-69582571D02*
X182557142Y-69868285D01*
X182557142Y-69868285D02*
X182557142Y-70296857D01*
X182557142Y-70296857D02*
X182414285Y-70582571D01*
X182414285Y-70582571D02*
X182271428Y-70725428D01*
X182271428Y-70725428D02*
X181985713Y-70868285D01*
X181985713Y-70868285D02*
X180842856Y-70868285D01*
X184271428Y-72296857D02*
X183985713Y-72154000D01*
X183985713Y-72154000D02*
X183842856Y-72011142D01*
X183842856Y-72011142D02*
X183699999Y-71725428D01*
X183699999Y-71725428D02*
X183699999Y-70868285D01*
X183699999Y-70868285D02*
X183842856Y-70582571D01*
X183842856Y-70582571D02*
X183985713Y-70439714D01*
X183985713Y-70439714D02*
X184271428Y-70296857D01*
X184271428Y-70296857D02*
X184699999Y-70296857D01*
X184699999Y-70296857D02*
X184985713Y-70439714D01*
X184985713Y-70439714D02*
X185128571Y-70582571D01*
X185128571Y-70582571D02*
X185271428Y-70868285D01*
X185271428Y-70868285D02*
X185271428Y-71725428D01*
X185271428Y-71725428D02*
X185128571Y-72011142D01*
X185128571Y-72011142D02*
X184985713Y-72154000D01*
X184985713Y-72154000D02*
X184699999Y-72296857D01*
X184699999Y-72296857D02*
X184271428Y-72296857D01*
X186985714Y-72296857D02*
X186699999Y-72154000D01*
X186699999Y-72154000D02*
X186557142Y-71868285D01*
X186557142Y-71868285D02*
X186557142Y-69296857D01*
X187842857Y-70296857D02*
X188557143Y-72296857D01*
X189271428Y-70296857D02*
X188557143Y-72296857D01*
X188557143Y-72296857D02*
X188271428Y-73011142D01*
X188271428Y-73011142D02*
X188128571Y-73154000D01*
X188128571Y-73154000D02*
X187842857Y-73296857D01*
X190414285Y-72296857D02*
X190414285Y-70296857D01*
X190414285Y-69296857D02*
X190271428Y-69439714D01*
X190271428Y-69439714D02*
X190414285Y-69582571D01*
X190414285Y-69582571D02*
X190557142Y-69439714D01*
X190557142Y-69439714D02*
X190414285Y-69296857D01*
X190414285Y-69296857D02*
X190414285Y-69582571D01*
X191842856Y-72296857D02*
X191842856Y-70296857D01*
X191842856Y-70582571D02*
X191985713Y-70439714D01*
X191985713Y-70439714D02*
X192271428Y-70296857D01*
X192271428Y-70296857D02*
X192699999Y-70296857D01*
X192699999Y-70296857D02*
X192985713Y-70439714D01*
X192985713Y-70439714D02*
X193128571Y-70725428D01*
X193128571Y-70725428D02*
X193128571Y-72296857D01*
X193128571Y-70725428D02*
X193271428Y-70439714D01*
X193271428Y-70439714D02*
X193557142Y-70296857D01*
X193557142Y-70296857D02*
X193985713Y-70296857D01*
X193985713Y-70296857D02*
X194271428Y-70439714D01*
X194271428Y-70439714D02*
X194414285Y-70725428D01*
X194414285Y-70725428D02*
X194414285Y-72296857D01*
X195842856Y-72296857D02*
X195842856Y-70296857D01*
X195842856Y-69296857D02*
X195699999Y-69439714D01*
X195699999Y-69439714D02*
X195842856Y-69582571D01*
X195842856Y-69582571D02*
X195985713Y-69439714D01*
X195985713Y-69439714D02*
X195842856Y-69296857D01*
X195842856Y-69296857D02*
X195842856Y-69582571D01*
X198557142Y-72296857D02*
X198557142Y-69296857D01*
X198557142Y-72154000D02*
X198271427Y-72296857D01*
X198271427Y-72296857D02*
X197699999Y-72296857D01*
X197699999Y-72296857D02*
X197414284Y-72154000D01*
X197414284Y-72154000D02*
X197271427Y-72011142D01*
X197271427Y-72011142D02*
X197128570Y-71725428D01*
X197128570Y-71725428D02*
X197128570Y-70868285D01*
X197128570Y-70868285D02*
X197271427Y-70582571D01*
X197271427Y-70582571D02*
X197414284Y-70439714D01*
X197414284Y-70439714D02*
X197699999Y-70296857D01*
X197699999Y-70296857D02*
X198271427Y-70296857D01*
X198271427Y-70296857D02*
X198557142Y-70439714D01*
X201128570Y-72154000D02*
X200842856Y-72296857D01*
X200842856Y-72296857D02*
X200271428Y-72296857D01*
X200271428Y-72296857D02*
X199985713Y-72154000D01*
X199985713Y-72154000D02*
X199842856Y-71868285D01*
X199842856Y-71868285D02*
X199842856Y-70725428D01*
X199842856Y-70725428D02*
X199985713Y-70439714D01*
X199985713Y-70439714D02*
X200271428Y-70296857D01*
X200271428Y-70296857D02*
X200842856Y-70296857D01*
X200842856Y-70296857D02*
X201128570Y-70439714D01*
X201128570Y-70439714D02*
X201271428Y-70725428D01*
X201271428Y-70725428D02*
X201271428Y-71011142D01*
X201271428Y-71011142D02*
X199842856Y-71296857D01*
X204699999Y-72154000D02*
X205128571Y-72296857D01*
X205128571Y-72296857D02*
X205842856Y-72296857D01*
X205842856Y-72296857D02*
X206128571Y-72154000D01*
X206128571Y-72154000D02*
X206271428Y-72011142D01*
X206271428Y-72011142D02*
X206414285Y-71725428D01*
X206414285Y-71725428D02*
X206414285Y-71439714D01*
X206414285Y-71439714D02*
X206271428Y-71154000D01*
X206271428Y-71154000D02*
X206128571Y-71011142D01*
X206128571Y-71011142D02*
X205842856Y-70868285D01*
X205842856Y-70868285D02*
X205271428Y-70725428D01*
X205271428Y-70725428D02*
X204985713Y-70582571D01*
X204985713Y-70582571D02*
X204842856Y-70439714D01*
X204842856Y-70439714D02*
X204699999Y-70154000D01*
X204699999Y-70154000D02*
X204699999Y-69868285D01*
X204699999Y-69868285D02*
X204842856Y-69582571D01*
X204842856Y-69582571D02*
X204985713Y-69439714D01*
X204985713Y-69439714D02*
X205271428Y-69296857D01*
X205271428Y-69296857D02*
X205985713Y-69296857D01*
X205985713Y-69296857D02*
X206414285Y-69439714D01*
X207271428Y-70296857D02*
X208414285Y-70296857D01*
X207699999Y-69296857D02*
X207699999Y-71868285D01*
X207699999Y-71868285D02*
X207842856Y-72154000D01*
X207842856Y-72154000D02*
X208128571Y-72296857D01*
X208128571Y-72296857D02*
X208414285Y-72296857D01*
X209414285Y-72296857D02*
X209414285Y-70296857D01*
X209414285Y-69296857D02*
X209271428Y-69439714D01*
X209271428Y-69439714D02*
X209414285Y-69582571D01*
X209414285Y-69582571D02*
X209557142Y-69439714D01*
X209557142Y-69439714D02*
X209414285Y-69296857D01*
X209414285Y-69296857D02*
X209414285Y-69582571D01*
X210414285Y-70296857D02*
X211557142Y-70296857D01*
X210842856Y-72296857D02*
X210842856Y-69725428D01*
X210842856Y-69725428D02*
X210985713Y-69439714D01*
X210985713Y-69439714D02*
X211271428Y-69296857D01*
X211271428Y-69296857D02*
X211557142Y-69296857D01*
X212128571Y-70296857D02*
X213271428Y-70296857D01*
X212557142Y-72296857D02*
X212557142Y-69725428D01*
X212557142Y-69725428D02*
X212699999Y-69439714D01*
X212699999Y-69439714D02*
X212985714Y-69296857D01*
X212985714Y-69296857D02*
X213271428Y-69296857D01*
X215414285Y-72154000D02*
X215128571Y-72296857D01*
X215128571Y-72296857D02*
X214557143Y-72296857D01*
X214557143Y-72296857D02*
X214271428Y-72154000D01*
X214271428Y-72154000D02*
X214128571Y-71868285D01*
X214128571Y-71868285D02*
X214128571Y-70725428D01*
X214128571Y-70725428D02*
X214271428Y-70439714D01*
X214271428Y-70439714D02*
X214557143Y-70296857D01*
X214557143Y-70296857D02*
X215128571Y-70296857D01*
X215128571Y-70296857D02*
X215414285Y-70439714D01*
X215414285Y-70439714D02*
X215557143Y-70725428D01*
X215557143Y-70725428D02*
X215557143Y-71011142D01*
X215557143Y-71011142D02*
X214128571Y-71296857D01*
X216842857Y-70296857D02*
X216842857Y-72296857D01*
X216842857Y-70582571D02*
X216985714Y-70439714D01*
X216985714Y-70439714D02*
X217271429Y-70296857D01*
X217271429Y-70296857D02*
X217700000Y-70296857D01*
X217700000Y-70296857D02*
X217985714Y-70439714D01*
X217985714Y-70439714D02*
X218128572Y-70725428D01*
X218128572Y-70725428D02*
X218128572Y-72296857D01*
X220700000Y-72154000D02*
X220414286Y-72296857D01*
X220414286Y-72296857D02*
X219842858Y-72296857D01*
X219842858Y-72296857D02*
X219557143Y-72154000D01*
X219557143Y-72154000D02*
X219414286Y-71868285D01*
X219414286Y-71868285D02*
X219414286Y-70725428D01*
X219414286Y-70725428D02*
X219557143Y-70439714D01*
X219557143Y-70439714D02*
X219842858Y-70296857D01*
X219842858Y-70296857D02*
X220414286Y-70296857D01*
X220414286Y-70296857D02*
X220700000Y-70439714D01*
X220700000Y-70439714D02*
X220842858Y-70725428D01*
X220842858Y-70725428D02*
X220842858Y-71011142D01*
X220842858Y-71011142D02*
X219414286Y-71296857D01*
X222128572Y-72296857D02*
X222128572Y-70296857D01*
X222128572Y-70868285D02*
X222271429Y-70582571D01*
X222271429Y-70582571D02*
X222414287Y-70439714D01*
X222414287Y-70439714D02*
X222700001Y-70296857D01*
X222700001Y-70296857D02*
X222985715Y-70296857D01*
D12*
X180518553Y-62453553D02*
X185367500Y-67302500D01*
X180518553Y-62453553D02*
X181729774Y-62835449D01*
X180518553Y-62453553D02*
X180900449Y-63664774D01*
X180518553Y-62453553D02*
X185367500Y-67302500D01*
X180518553Y-62453553D02*
X181729774Y-62835449D01*
X180518553Y-62453553D02*
X180900449Y-63664774D01*
M02*
