%TF.GenerationSoftware,KiCad,Pcbnew,7.0.6*%
%TF.CreationDate,2023-10-25T13:59:20+00:00*%
%TF.ProjectId,HeatedBedFoil,48656174-6564-4426-9564-466f696c2e6b,rev?*%
%TF.SameCoordinates,Original*%
%TF.FileFunction,Other,User*%
%FSLAX46Y46*%
G04 Gerber Fmt 4.6, Leading zero omitted, Abs format (unit mm)*
G04 Created by KiCad (PCBNEW 7.0.6) date 2023-10-25 13:59:20*
%MOMM*%
%LPD*%
G01*
G04 APERTURE LIST*
%ADD10C,0.500000*%
%ADD11C,1.000000*%
%ADD12C,0.150000*%
G04 APERTURE END LIST*
D10*
X269000375Y-94492571D02*
X269143232Y-94349714D01*
X269143232Y-94349714D02*
X269428947Y-94206857D01*
X269428947Y-94206857D02*
X270143232Y-94206857D01*
X270143232Y-94206857D02*
X270428947Y-94349714D01*
X270428947Y-94349714D02*
X270571804Y-94492571D01*
X270571804Y-94492571D02*
X270714661Y-94778285D01*
X270714661Y-94778285D02*
X270714661Y-95064000D01*
X270714661Y-95064000D02*
X270571804Y-95492571D01*
X270571804Y-95492571D02*
X268857518Y-97206857D01*
X268857518Y-97206857D02*
X270714661Y-97206857D01*
X272571804Y-94206857D02*
X272857518Y-94206857D01*
X272857518Y-94206857D02*
X273143232Y-94349714D01*
X273143232Y-94349714D02*
X273286090Y-94492571D01*
X273286090Y-94492571D02*
X273428947Y-94778285D01*
X273428947Y-94778285D02*
X273571804Y-95349714D01*
X273571804Y-95349714D02*
X273571804Y-96064000D01*
X273571804Y-96064000D02*
X273428947Y-96635428D01*
X273428947Y-96635428D02*
X273286090Y-96921142D01*
X273286090Y-96921142D02*
X273143232Y-97064000D01*
X273143232Y-97064000D02*
X272857518Y-97206857D01*
X272857518Y-97206857D02*
X272571804Y-97206857D01*
X272571804Y-97206857D02*
X272286090Y-97064000D01*
X272286090Y-97064000D02*
X272143232Y-96921142D01*
X272143232Y-96921142D02*
X272000375Y-96635428D01*
X272000375Y-96635428D02*
X271857518Y-96064000D01*
X271857518Y-96064000D02*
X271857518Y-95349714D01*
X271857518Y-95349714D02*
X272000375Y-94778285D01*
X272000375Y-94778285D02*
X272143232Y-94492571D01*
X272143232Y-94492571D02*
X272286090Y-94349714D01*
X272286090Y-94349714D02*
X272571804Y-94206857D01*
X275428947Y-94206857D02*
X275714661Y-94206857D01*
X275714661Y-94206857D02*
X276000375Y-94349714D01*
X276000375Y-94349714D02*
X276143233Y-94492571D01*
X276143233Y-94492571D02*
X276286090Y-94778285D01*
X276286090Y-94778285D02*
X276428947Y-95349714D01*
X276428947Y-95349714D02*
X276428947Y-96064000D01*
X276428947Y-96064000D02*
X276286090Y-96635428D01*
X276286090Y-96635428D02*
X276143233Y-96921142D01*
X276143233Y-96921142D02*
X276000375Y-97064000D01*
X276000375Y-97064000D02*
X275714661Y-97206857D01*
X275714661Y-97206857D02*
X275428947Y-97206857D01*
X275428947Y-97206857D02*
X275143233Y-97064000D01*
X275143233Y-97064000D02*
X275000375Y-96921142D01*
X275000375Y-96921142D02*
X274857518Y-96635428D01*
X274857518Y-96635428D02*
X274714661Y-96064000D01*
X274714661Y-96064000D02*
X274714661Y-95349714D01*
X274714661Y-95349714D02*
X274857518Y-94778285D01*
X274857518Y-94778285D02*
X275000375Y-94492571D01*
X275000375Y-94492571D02*
X275143233Y-94349714D01*
X275143233Y-94349714D02*
X275428947Y-94206857D01*
X279714661Y-97206857D02*
X281286090Y-95206857D01*
X279714661Y-95206857D02*
X281286090Y-97206857D01*
X284571803Y-94492571D02*
X284714660Y-94349714D01*
X284714660Y-94349714D02*
X285000375Y-94206857D01*
X285000375Y-94206857D02*
X285714660Y-94206857D01*
X285714660Y-94206857D02*
X286000375Y-94349714D01*
X286000375Y-94349714D02*
X286143232Y-94492571D01*
X286143232Y-94492571D02*
X286286089Y-94778285D01*
X286286089Y-94778285D02*
X286286089Y-95064000D01*
X286286089Y-95064000D02*
X286143232Y-95492571D01*
X286143232Y-95492571D02*
X284428946Y-97206857D01*
X284428946Y-97206857D02*
X286286089Y-97206857D01*
X288143232Y-94206857D02*
X288428946Y-94206857D01*
X288428946Y-94206857D02*
X288714660Y-94349714D01*
X288714660Y-94349714D02*
X288857518Y-94492571D01*
X288857518Y-94492571D02*
X289000375Y-94778285D01*
X289000375Y-94778285D02*
X289143232Y-95349714D01*
X289143232Y-95349714D02*
X289143232Y-96064000D01*
X289143232Y-96064000D02*
X289000375Y-96635428D01*
X289000375Y-96635428D02*
X288857518Y-96921142D01*
X288857518Y-96921142D02*
X288714660Y-97064000D01*
X288714660Y-97064000D02*
X288428946Y-97206857D01*
X288428946Y-97206857D02*
X288143232Y-97206857D01*
X288143232Y-97206857D02*
X287857518Y-97064000D01*
X287857518Y-97064000D02*
X287714660Y-96921142D01*
X287714660Y-96921142D02*
X287571803Y-96635428D01*
X287571803Y-96635428D02*
X287428946Y-96064000D01*
X287428946Y-96064000D02*
X287428946Y-95349714D01*
X287428946Y-95349714D02*
X287571803Y-94778285D01*
X287571803Y-94778285D02*
X287714660Y-94492571D01*
X287714660Y-94492571D02*
X287857518Y-94349714D01*
X287857518Y-94349714D02*
X288143232Y-94206857D01*
X291000375Y-94206857D02*
X291286089Y-94206857D01*
X291286089Y-94206857D02*
X291571803Y-94349714D01*
X291571803Y-94349714D02*
X291714661Y-94492571D01*
X291714661Y-94492571D02*
X291857518Y-94778285D01*
X291857518Y-94778285D02*
X292000375Y-95349714D01*
X292000375Y-95349714D02*
X292000375Y-96064000D01*
X292000375Y-96064000D02*
X291857518Y-96635428D01*
X291857518Y-96635428D02*
X291714661Y-96921142D01*
X291714661Y-96921142D02*
X291571803Y-97064000D01*
X291571803Y-97064000D02*
X291286089Y-97206857D01*
X291286089Y-97206857D02*
X291000375Y-97206857D01*
X291000375Y-97206857D02*
X290714661Y-97064000D01*
X290714661Y-97064000D02*
X290571803Y-96921142D01*
X290571803Y-96921142D02*
X290428946Y-96635428D01*
X290428946Y-96635428D02*
X290286089Y-96064000D01*
X290286089Y-96064000D02*
X290286089Y-95349714D01*
X290286089Y-95349714D02*
X290428946Y-94778285D01*
X290428946Y-94778285D02*
X290571803Y-94492571D01*
X290571803Y-94492571D02*
X290714661Y-94349714D01*
X290714661Y-94349714D02*
X291000375Y-94206857D01*
X295286089Y-97206857D02*
X296857518Y-95206857D01*
X295286089Y-95206857D02*
X296857518Y-97206857D01*
X300857517Y-94206857D02*
X301143231Y-94206857D01*
X301143231Y-94206857D02*
X301428945Y-94349714D01*
X301428945Y-94349714D02*
X301571803Y-94492571D01*
X301571803Y-94492571D02*
X301714660Y-94778285D01*
X301714660Y-94778285D02*
X301857517Y-95349714D01*
X301857517Y-95349714D02*
X301857517Y-96064000D01*
X301857517Y-96064000D02*
X301714660Y-96635428D01*
X301714660Y-96635428D02*
X301571803Y-96921142D01*
X301571803Y-96921142D02*
X301428945Y-97064000D01*
X301428945Y-97064000D02*
X301143231Y-97206857D01*
X301143231Y-97206857D02*
X300857517Y-97206857D01*
X300857517Y-97206857D02*
X300571803Y-97064000D01*
X300571803Y-97064000D02*
X300428945Y-96921142D01*
X300428945Y-96921142D02*
X300286088Y-96635428D01*
X300286088Y-96635428D02*
X300143231Y-96064000D01*
X300143231Y-96064000D02*
X300143231Y-95349714D01*
X300143231Y-95349714D02*
X300286088Y-94778285D01*
X300286088Y-94778285D02*
X300428945Y-94492571D01*
X300428945Y-94492571D02*
X300571803Y-94349714D01*
X300571803Y-94349714D02*
X300857517Y-94206857D01*
X303143231Y-96921142D02*
X303286088Y-97064000D01*
X303286088Y-97064000D02*
X303143231Y-97206857D01*
X303143231Y-97206857D02*
X303000374Y-97064000D01*
X303000374Y-97064000D02*
X303143231Y-96921142D01*
X303143231Y-96921142D02*
X303143231Y-97206857D01*
X306143231Y-97206857D02*
X304428945Y-97206857D01*
X305286088Y-97206857D02*
X305286088Y-94206857D01*
X305286088Y-94206857D02*
X305000374Y-94635428D01*
X305000374Y-94635428D02*
X304714659Y-94921142D01*
X304714659Y-94921142D02*
X304428945Y-95064000D01*
X307143231Y-94206857D02*
X309000374Y-94206857D01*
X309000374Y-94206857D02*
X308000374Y-95349714D01*
X308000374Y-95349714D02*
X308428945Y-95349714D01*
X308428945Y-95349714D02*
X308714660Y-95492571D01*
X308714660Y-95492571D02*
X308857517Y-95635428D01*
X308857517Y-95635428D02*
X309000374Y-95921142D01*
X309000374Y-95921142D02*
X309000374Y-96635428D01*
X309000374Y-96635428D02*
X308857517Y-96921142D01*
X308857517Y-96921142D02*
X308714660Y-97064000D01*
X308714660Y-97064000D02*
X308428945Y-97206857D01*
X308428945Y-97206857D02*
X307571802Y-97206857D01*
X307571802Y-97206857D02*
X307286088Y-97064000D01*
X307286088Y-97064000D02*
X307143231Y-96921142D01*
X312571802Y-97206857D02*
X312571802Y-95206857D01*
X312571802Y-95492571D02*
X312714659Y-95349714D01*
X312714659Y-95349714D02*
X313000374Y-95206857D01*
X313000374Y-95206857D02*
X313428945Y-95206857D01*
X313428945Y-95206857D02*
X313714659Y-95349714D01*
X313714659Y-95349714D02*
X313857517Y-95635428D01*
X313857517Y-95635428D02*
X313857517Y-97206857D01*
X313857517Y-95635428D02*
X314000374Y-95349714D01*
X314000374Y-95349714D02*
X314286088Y-95206857D01*
X314286088Y-95206857D02*
X314714659Y-95206857D01*
X314714659Y-95206857D02*
X315000374Y-95349714D01*
X315000374Y-95349714D02*
X315143231Y-95635428D01*
X315143231Y-95635428D02*
X315143231Y-97206857D01*
X316571802Y-97206857D02*
X316571802Y-95206857D01*
X316571802Y-95492571D02*
X316714659Y-95349714D01*
X316714659Y-95349714D02*
X317000374Y-95206857D01*
X317000374Y-95206857D02*
X317428945Y-95206857D01*
X317428945Y-95206857D02*
X317714659Y-95349714D01*
X317714659Y-95349714D02*
X317857517Y-95635428D01*
X317857517Y-95635428D02*
X317857517Y-97206857D01*
X317857517Y-95635428D02*
X318000374Y-95349714D01*
X318000374Y-95349714D02*
X318286088Y-95206857D01*
X318286088Y-95206857D02*
X318714659Y-95206857D01*
X318714659Y-95206857D02*
X319000374Y-95349714D01*
X319000374Y-95349714D02*
X319143231Y-95635428D01*
X319143231Y-95635428D02*
X319143231Y-97206857D01*
X256343232Y-112235428D02*
X256771804Y-112378285D01*
X256771804Y-112378285D02*
X256914661Y-112521142D01*
X256914661Y-112521142D02*
X257057518Y-112806857D01*
X257057518Y-112806857D02*
X257057518Y-113235428D01*
X257057518Y-113235428D02*
X256914661Y-113521142D01*
X256914661Y-113521142D02*
X256771804Y-113664000D01*
X256771804Y-113664000D02*
X256486089Y-113806857D01*
X256486089Y-113806857D02*
X255343232Y-113806857D01*
X255343232Y-113806857D02*
X255343232Y-110806857D01*
X255343232Y-110806857D02*
X256343232Y-110806857D01*
X256343232Y-110806857D02*
X256628947Y-110949714D01*
X256628947Y-110949714D02*
X256771804Y-111092571D01*
X256771804Y-111092571D02*
X256914661Y-111378285D01*
X256914661Y-111378285D02*
X256914661Y-111664000D01*
X256914661Y-111664000D02*
X256771804Y-111949714D01*
X256771804Y-111949714D02*
X256628947Y-112092571D01*
X256628947Y-112092571D02*
X256343232Y-112235428D01*
X256343232Y-112235428D02*
X255343232Y-112235428D01*
X259628947Y-113806857D02*
X259628947Y-112235428D01*
X259628947Y-112235428D02*
X259486089Y-111949714D01*
X259486089Y-111949714D02*
X259200375Y-111806857D01*
X259200375Y-111806857D02*
X258628947Y-111806857D01*
X258628947Y-111806857D02*
X258343232Y-111949714D01*
X259628947Y-113664000D02*
X259343232Y-113806857D01*
X259343232Y-113806857D02*
X258628947Y-113806857D01*
X258628947Y-113806857D02*
X258343232Y-113664000D01*
X258343232Y-113664000D02*
X258200375Y-113378285D01*
X258200375Y-113378285D02*
X258200375Y-113092571D01*
X258200375Y-113092571D02*
X258343232Y-112806857D01*
X258343232Y-112806857D02*
X258628947Y-112664000D01*
X258628947Y-112664000D02*
X259343232Y-112664000D01*
X259343232Y-112664000D02*
X259628947Y-112521142D01*
X262343233Y-113664000D02*
X262057518Y-113806857D01*
X262057518Y-113806857D02*
X261486090Y-113806857D01*
X261486090Y-113806857D02*
X261200375Y-113664000D01*
X261200375Y-113664000D02*
X261057518Y-113521142D01*
X261057518Y-113521142D02*
X260914661Y-113235428D01*
X260914661Y-113235428D02*
X260914661Y-112378285D01*
X260914661Y-112378285D02*
X261057518Y-112092571D01*
X261057518Y-112092571D02*
X261200375Y-111949714D01*
X261200375Y-111949714D02*
X261486090Y-111806857D01*
X261486090Y-111806857D02*
X262057518Y-111806857D01*
X262057518Y-111806857D02*
X262343233Y-111949714D01*
X263628947Y-113806857D02*
X263628947Y-110806857D01*
X263914662Y-112664000D02*
X264771804Y-113806857D01*
X264771804Y-111806857D02*
X263628947Y-112949714D01*
X265914661Y-113664000D02*
X266200375Y-113806857D01*
X266200375Y-113806857D02*
X266771804Y-113806857D01*
X266771804Y-113806857D02*
X267057518Y-113664000D01*
X267057518Y-113664000D02*
X267200375Y-113378285D01*
X267200375Y-113378285D02*
X267200375Y-113235428D01*
X267200375Y-113235428D02*
X267057518Y-112949714D01*
X267057518Y-112949714D02*
X266771804Y-112806857D01*
X266771804Y-112806857D02*
X266343233Y-112806857D01*
X266343233Y-112806857D02*
X266057518Y-112664000D01*
X266057518Y-112664000D02*
X265914661Y-112378285D01*
X265914661Y-112378285D02*
X265914661Y-112235428D01*
X265914661Y-112235428D02*
X266057518Y-111949714D01*
X266057518Y-111949714D02*
X266343233Y-111806857D01*
X266343233Y-111806857D02*
X266771804Y-111806857D01*
X266771804Y-111806857D02*
X267057518Y-111949714D01*
X268486089Y-113806857D02*
X268486089Y-111806857D01*
X268486089Y-110806857D02*
X268343232Y-110949714D01*
X268343232Y-110949714D02*
X268486089Y-111092571D01*
X268486089Y-111092571D02*
X268628946Y-110949714D01*
X268628946Y-110949714D02*
X268486089Y-110806857D01*
X268486089Y-110806857D02*
X268486089Y-111092571D01*
X271200375Y-113806857D02*
X271200375Y-110806857D01*
X271200375Y-113664000D02*
X270914660Y-113806857D01*
X270914660Y-113806857D02*
X270343232Y-113806857D01*
X270343232Y-113806857D02*
X270057517Y-113664000D01*
X270057517Y-113664000D02*
X269914660Y-113521142D01*
X269914660Y-113521142D02*
X269771803Y-113235428D01*
X269771803Y-113235428D02*
X269771803Y-112378285D01*
X269771803Y-112378285D02*
X269914660Y-112092571D01*
X269914660Y-112092571D02*
X270057517Y-111949714D01*
X270057517Y-111949714D02*
X270343232Y-111806857D01*
X270343232Y-111806857D02*
X270914660Y-111806857D01*
X270914660Y-111806857D02*
X271200375Y-111949714D01*
X273771803Y-113664000D02*
X273486089Y-113806857D01*
X273486089Y-113806857D02*
X272914661Y-113806857D01*
X272914661Y-113806857D02*
X272628946Y-113664000D01*
X272628946Y-113664000D02*
X272486089Y-113378285D01*
X272486089Y-113378285D02*
X272486089Y-112235428D01*
X272486089Y-112235428D02*
X272628946Y-111949714D01*
X272628946Y-111949714D02*
X272914661Y-111806857D01*
X272914661Y-111806857D02*
X273486089Y-111806857D01*
X273486089Y-111806857D02*
X273771803Y-111949714D01*
X273771803Y-111949714D02*
X273914661Y-112235428D01*
X273914661Y-112235428D02*
X273914661Y-112521142D01*
X273914661Y-112521142D02*
X272486089Y-112806857D01*
X279628946Y-110664000D02*
X277057518Y-114521142D01*
X283914660Y-112235428D02*
X284343232Y-112378285D01*
X284343232Y-112378285D02*
X284486089Y-112521142D01*
X284486089Y-112521142D02*
X284628946Y-112806857D01*
X284628946Y-112806857D02*
X284628946Y-113235428D01*
X284628946Y-113235428D02*
X284486089Y-113521142D01*
X284486089Y-113521142D02*
X284343232Y-113664000D01*
X284343232Y-113664000D02*
X284057517Y-113806857D01*
X284057517Y-113806857D02*
X282914660Y-113806857D01*
X282914660Y-113806857D02*
X282914660Y-110806857D01*
X282914660Y-110806857D02*
X283914660Y-110806857D01*
X283914660Y-110806857D02*
X284200375Y-110949714D01*
X284200375Y-110949714D02*
X284343232Y-111092571D01*
X284343232Y-111092571D02*
X284486089Y-111378285D01*
X284486089Y-111378285D02*
X284486089Y-111664000D01*
X284486089Y-111664000D02*
X284343232Y-111949714D01*
X284343232Y-111949714D02*
X284200375Y-112092571D01*
X284200375Y-112092571D02*
X283914660Y-112235428D01*
X283914660Y-112235428D02*
X282914660Y-112235428D01*
X286343232Y-113806857D02*
X286057517Y-113664000D01*
X286057517Y-113664000D02*
X285914660Y-113521142D01*
X285914660Y-113521142D02*
X285771803Y-113235428D01*
X285771803Y-113235428D02*
X285771803Y-112378285D01*
X285771803Y-112378285D02*
X285914660Y-112092571D01*
X285914660Y-112092571D02*
X286057517Y-111949714D01*
X286057517Y-111949714D02*
X286343232Y-111806857D01*
X286343232Y-111806857D02*
X286771803Y-111806857D01*
X286771803Y-111806857D02*
X287057517Y-111949714D01*
X287057517Y-111949714D02*
X287200375Y-112092571D01*
X287200375Y-112092571D02*
X287343232Y-112378285D01*
X287343232Y-112378285D02*
X287343232Y-113235428D01*
X287343232Y-113235428D02*
X287200375Y-113521142D01*
X287200375Y-113521142D02*
X287057517Y-113664000D01*
X287057517Y-113664000D02*
X286771803Y-113806857D01*
X286771803Y-113806857D02*
X286343232Y-113806857D01*
X288200375Y-111806857D02*
X289343232Y-111806857D01*
X288628946Y-110806857D02*
X288628946Y-113378285D01*
X288628946Y-113378285D02*
X288771803Y-113664000D01*
X288771803Y-113664000D02*
X289057518Y-113806857D01*
X289057518Y-113806857D02*
X289343232Y-113806857D01*
X289914661Y-111806857D02*
X291057518Y-111806857D01*
X290343232Y-110806857D02*
X290343232Y-113378285D01*
X290343232Y-113378285D02*
X290486089Y-113664000D01*
X290486089Y-113664000D02*
X290771804Y-113806857D01*
X290771804Y-113806857D02*
X291057518Y-113806857D01*
X292486090Y-113806857D02*
X292200375Y-113664000D01*
X292200375Y-113664000D02*
X292057518Y-113521142D01*
X292057518Y-113521142D02*
X291914661Y-113235428D01*
X291914661Y-113235428D02*
X291914661Y-112378285D01*
X291914661Y-112378285D02*
X292057518Y-112092571D01*
X292057518Y-112092571D02*
X292200375Y-111949714D01*
X292200375Y-111949714D02*
X292486090Y-111806857D01*
X292486090Y-111806857D02*
X292914661Y-111806857D01*
X292914661Y-111806857D02*
X293200375Y-111949714D01*
X293200375Y-111949714D02*
X293343233Y-112092571D01*
X293343233Y-112092571D02*
X293486090Y-112378285D01*
X293486090Y-112378285D02*
X293486090Y-113235428D01*
X293486090Y-113235428D02*
X293343233Y-113521142D01*
X293343233Y-113521142D02*
X293200375Y-113664000D01*
X293200375Y-113664000D02*
X292914661Y-113806857D01*
X292914661Y-113806857D02*
X292486090Y-113806857D01*
X294771804Y-113806857D02*
X294771804Y-111806857D01*
X294771804Y-112092571D02*
X294914661Y-111949714D01*
X294914661Y-111949714D02*
X295200376Y-111806857D01*
X295200376Y-111806857D02*
X295628947Y-111806857D01*
X295628947Y-111806857D02*
X295914661Y-111949714D01*
X295914661Y-111949714D02*
X296057519Y-112235428D01*
X296057519Y-112235428D02*
X296057519Y-113806857D01*
X296057519Y-112235428D02*
X296200376Y-111949714D01*
X296200376Y-111949714D02*
X296486090Y-111806857D01*
X296486090Y-111806857D02*
X296914661Y-111806857D01*
X296914661Y-111806857D02*
X297200376Y-111949714D01*
X297200376Y-111949714D02*
X297343233Y-112235428D01*
X297343233Y-112235428D02*
X297343233Y-113806857D01*
X302486090Y-113806857D02*
X301057518Y-113806857D01*
X301057518Y-113806857D02*
X301057518Y-110806857D01*
X304771804Y-113806857D02*
X304771804Y-112235428D01*
X304771804Y-112235428D02*
X304628946Y-111949714D01*
X304628946Y-111949714D02*
X304343232Y-111806857D01*
X304343232Y-111806857D02*
X303771804Y-111806857D01*
X303771804Y-111806857D02*
X303486089Y-111949714D01*
X304771804Y-113664000D02*
X304486089Y-113806857D01*
X304486089Y-113806857D02*
X303771804Y-113806857D01*
X303771804Y-113806857D02*
X303486089Y-113664000D01*
X303486089Y-113664000D02*
X303343232Y-113378285D01*
X303343232Y-113378285D02*
X303343232Y-113092571D01*
X303343232Y-113092571D02*
X303486089Y-112806857D01*
X303486089Y-112806857D02*
X303771804Y-112664000D01*
X303771804Y-112664000D02*
X304486089Y-112664000D01*
X304486089Y-112664000D02*
X304771804Y-112521142D01*
X305914661Y-111806857D02*
X306628947Y-113806857D01*
X307343232Y-111806857D02*
X306628947Y-113806857D01*
X306628947Y-113806857D02*
X306343232Y-114521142D01*
X306343232Y-114521142D02*
X306200375Y-114664000D01*
X306200375Y-114664000D02*
X305914661Y-114806857D01*
X309628946Y-113664000D02*
X309343232Y-113806857D01*
X309343232Y-113806857D02*
X308771804Y-113806857D01*
X308771804Y-113806857D02*
X308486089Y-113664000D01*
X308486089Y-113664000D02*
X308343232Y-113378285D01*
X308343232Y-113378285D02*
X308343232Y-112235428D01*
X308343232Y-112235428D02*
X308486089Y-111949714D01*
X308486089Y-111949714D02*
X308771804Y-111806857D01*
X308771804Y-111806857D02*
X309343232Y-111806857D01*
X309343232Y-111806857D02*
X309628946Y-111949714D01*
X309628946Y-111949714D02*
X309771804Y-112235428D01*
X309771804Y-112235428D02*
X309771804Y-112521142D01*
X309771804Y-112521142D02*
X308343232Y-112806857D01*
X311057518Y-113806857D02*
X311057518Y-111806857D01*
X311057518Y-112378285D02*
X311200375Y-112092571D01*
X311200375Y-112092571D02*
X311343233Y-111949714D01*
X311343233Y-111949714D02*
X311628947Y-111806857D01*
X311628947Y-111806857D02*
X311914661Y-111806857D01*
D11*
X237000000Y-240000000D02*
X43000000Y-240000000D01*
X43000000Y-40000000D02*
G75*
G03*
X40000000Y-43000000I0J-3000000D01*
G01*
X40000000Y-237000000D02*
G75*
G03*
X43000000Y-240000000I3000000J0D01*
G01*
X237000000Y-240000000D02*
G75*
G03*
X240000000Y-237000000I0J3000000D01*
G01*
X43000000Y-40000000D02*
X237000000Y-40000000D01*
X40000000Y-237000000D02*
X40000000Y-43000000D01*
X240000000Y-43000000D02*
G75*
G03*
X237000000Y-40000000I-3000000J0D01*
G01*
X240000000Y-43000000D02*
X240000000Y-237000000D01*
D12*
X131292857Y-19915771D02*
X131435714Y-19772914D01*
X131435714Y-19772914D02*
X131721429Y-19630057D01*
X131721429Y-19630057D02*
X132435714Y-19630057D01*
X132435714Y-19630057D02*
X132721429Y-19772914D01*
X132721429Y-19772914D02*
X132864286Y-19915771D01*
X132864286Y-19915771D02*
X133007143Y-20201485D01*
X133007143Y-20201485D02*
X133007143Y-20487200D01*
X133007143Y-20487200D02*
X132864286Y-20915771D01*
X132864286Y-20915771D02*
X131150000Y-22630057D01*
X131150000Y-22630057D02*
X133007143Y-22630057D01*
X134864286Y-19630057D02*
X135150000Y-19630057D01*
X135150000Y-19630057D02*
X135435714Y-19772914D01*
X135435714Y-19772914D02*
X135578572Y-19915771D01*
X135578572Y-19915771D02*
X135721429Y-20201485D01*
X135721429Y-20201485D02*
X135864286Y-20772914D01*
X135864286Y-20772914D02*
X135864286Y-21487200D01*
X135864286Y-21487200D02*
X135721429Y-22058628D01*
X135721429Y-22058628D02*
X135578572Y-22344342D01*
X135578572Y-22344342D02*
X135435714Y-22487200D01*
X135435714Y-22487200D02*
X135150000Y-22630057D01*
X135150000Y-22630057D02*
X134864286Y-22630057D01*
X134864286Y-22630057D02*
X134578572Y-22487200D01*
X134578572Y-22487200D02*
X134435714Y-22344342D01*
X134435714Y-22344342D02*
X134292857Y-22058628D01*
X134292857Y-22058628D02*
X134150000Y-21487200D01*
X134150000Y-21487200D02*
X134150000Y-20772914D01*
X134150000Y-20772914D02*
X134292857Y-20201485D01*
X134292857Y-20201485D02*
X134435714Y-19915771D01*
X134435714Y-19915771D02*
X134578572Y-19772914D01*
X134578572Y-19772914D02*
X134864286Y-19630057D01*
X137721429Y-19630057D02*
X138007143Y-19630057D01*
X138007143Y-19630057D02*
X138292857Y-19772914D01*
X138292857Y-19772914D02*
X138435715Y-19915771D01*
X138435715Y-19915771D02*
X138578572Y-20201485D01*
X138578572Y-20201485D02*
X138721429Y-20772914D01*
X138721429Y-20772914D02*
X138721429Y-21487200D01*
X138721429Y-21487200D02*
X138578572Y-22058628D01*
X138578572Y-22058628D02*
X138435715Y-22344342D01*
X138435715Y-22344342D02*
X138292857Y-22487200D01*
X138292857Y-22487200D02*
X138007143Y-22630057D01*
X138007143Y-22630057D02*
X137721429Y-22630057D01*
X137721429Y-22630057D02*
X137435715Y-22487200D01*
X137435715Y-22487200D02*
X137292857Y-22344342D01*
X137292857Y-22344342D02*
X137150000Y-22058628D01*
X137150000Y-22058628D02*
X137007143Y-21487200D01*
X137007143Y-21487200D02*
X137007143Y-20772914D01*
X137007143Y-20772914D02*
X137150000Y-20201485D01*
X137150000Y-20201485D02*
X137292857Y-19915771D01*
X137292857Y-19915771D02*
X137435715Y-19772914D01*
X137435715Y-19772914D02*
X137721429Y-19630057D01*
X142292857Y-22630057D02*
X142292857Y-20630057D01*
X142292857Y-20915771D02*
X142435714Y-20772914D01*
X142435714Y-20772914D02*
X142721429Y-20630057D01*
X142721429Y-20630057D02*
X143150000Y-20630057D01*
X143150000Y-20630057D02*
X143435714Y-20772914D01*
X143435714Y-20772914D02*
X143578572Y-21058628D01*
X143578572Y-21058628D02*
X143578572Y-22630057D01*
X143578572Y-21058628D02*
X143721429Y-20772914D01*
X143721429Y-20772914D02*
X144007143Y-20630057D01*
X144007143Y-20630057D02*
X144435714Y-20630057D01*
X144435714Y-20630057D02*
X144721429Y-20772914D01*
X144721429Y-20772914D02*
X144864286Y-21058628D01*
X144864286Y-21058628D02*
X144864286Y-22630057D01*
X146292857Y-22630057D02*
X146292857Y-20630057D01*
X146292857Y-20915771D02*
X146435714Y-20772914D01*
X146435714Y-20772914D02*
X146721429Y-20630057D01*
X146721429Y-20630057D02*
X147150000Y-20630057D01*
X147150000Y-20630057D02*
X147435714Y-20772914D01*
X147435714Y-20772914D02*
X147578572Y-21058628D01*
X147578572Y-21058628D02*
X147578572Y-22630057D01*
X147578572Y-21058628D02*
X147721429Y-20772914D01*
X147721429Y-20772914D02*
X148007143Y-20630057D01*
X148007143Y-20630057D02*
X148435714Y-20630057D01*
X148435714Y-20630057D02*
X148721429Y-20772914D01*
X148721429Y-20772914D02*
X148864286Y-21058628D01*
X148864286Y-21058628D02*
X148864286Y-22630057D01*
X240000000Y-149600000D02*
X240000000Y-23813580D01*
X40300000Y-149600000D02*
X40300000Y-23813580D01*
X240000000Y-24400000D02*
X40300000Y-24400000D01*
X240000000Y-24400000D02*
X40300000Y-24400000D01*
X240000000Y-24400000D02*
X238873496Y-24986421D01*
X240000000Y-24400000D02*
X238873496Y-23813579D01*
X40300000Y-24400000D02*
X41426504Y-23813579D01*
X40300000Y-24400000D02*
X41426504Y-24986421D01*
X320615771Y-148857142D02*
X320472914Y-148714285D01*
X320472914Y-148714285D02*
X320330057Y-148428571D01*
X320330057Y-148428571D02*
X320330057Y-147714285D01*
X320330057Y-147714285D02*
X320472914Y-147428571D01*
X320472914Y-147428571D02*
X320615771Y-147285713D01*
X320615771Y-147285713D02*
X320901485Y-147142856D01*
X320901485Y-147142856D02*
X321187200Y-147142856D01*
X321187200Y-147142856D02*
X321615771Y-147285713D01*
X321615771Y-147285713D02*
X323330057Y-148999999D01*
X323330057Y-148999999D02*
X323330057Y-147142856D01*
X320330057Y-145285713D02*
X320330057Y-144999999D01*
X320330057Y-144999999D02*
X320472914Y-144714285D01*
X320472914Y-144714285D02*
X320615771Y-144571428D01*
X320615771Y-144571428D02*
X320901485Y-144428570D01*
X320901485Y-144428570D02*
X321472914Y-144285713D01*
X321472914Y-144285713D02*
X322187200Y-144285713D01*
X322187200Y-144285713D02*
X322758628Y-144428570D01*
X322758628Y-144428570D02*
X323044342Y-144571428D01*
X323044342Y-144571428D02*
X323187200Y-144714285D01*
X323187200Y-144714285D02*
X323330057Y-144999999D01*
X323330057Y-144999999D02*
X323330057Y-145285713D01*
X323330057Y-145285713D02*
X323187200Y-145571428D01*
X323187200Y-145571428D02*
X323044342Y-145714285D01*
X323044342Y-145714285D02*
X322758628Y-145857142D01*
X322758628Y-145857142D02*
X322187200Y-145999999D01*
X322187200Y-145999999D02*
X321472914Y-145999999D01*
X321472914Y-145999999D02*
X320901485Y-145857142D01*
X320901485Y-145857142D02*
X320615771Y-145714285D01*
X320615771Y-145714285D02*
X320472914Y-145571428D01*
X320472914Y-145571428D02*
X320330057Y-145285713D01*
X320330057Y-142428570D02*
X320330057Y-142142856D01*
X320330057Y-142142856D02*
X320472914Y-141857142D01*
X320472914Y-141857142D02*
X320615771Y-141714285D01*
X320615771Y-141714285D02*
X320901485Y-141571427D01*
X320901485Y-141571427D02*
X321472914Y-141428570D01*
X321472914Y-141428570D02*
X322187200Y-141428570D01*
X322187200Y-141428570D02*
X322758628Y-141571427D01*
X322758628Y-141571427D02*
X323044342Y-141714285D01*
X323044342Y-141714285D02*
X323187200Y-141857142D01*
X323187200Y-141857142D02*
X323330057Y-142142856D01*
X323330057Y-142142856D02*
X323330057Y-142428570D01*
X323330057Y-142428570D02*
X323187200Y-142714285D01*
X323187200Y-142714285D02*
X323044342Y-142857142D01*
X323044342Y-142857142D02*
X322758628Y-142999999D01*
X322758628Y-142999999D02*
X322187200Y-143142856D01*
X322187200Y-143142856D02*
X321472914Y-143142856D01*
X321472914Y-143142856D02*
X320901485Y-142999999D01*
X320901485Y-142999999D02*
X320615771Y-142857142D01*
X320615771Y-142857142D02*
X320472914Y-142714285D01*
X320472914Y-142714285D02*
X320330057Y-142428570D01*
X323330057Y-137857142D02*
X321330057Y-137857142D01*
X321615771Y-137857142D02*
X321472914Y-137714285D01*
X321472914Y-137714285D02*
X321330057Y-137428570D01*
X321330057Y-137428570D02*
X321330057Y-136999999D01*
X321330057Y-136999999D02*
X321472914Y-136714285D01*
X321472914Y-136714285D02*
X321758628Y-136571428D01*
X321758628Y-136571428D02*
X323330057Y-136571428D01*
X321758628Y-136571428D02*
X321472914Y-136428570D01*
X321472914Y-136428570D02*
X321330057Y-136142856D01*
X321330057Y-136142856D02*
X321330057Y-135714285D01*
X321330057Y-135714285D02*
X321472914Y-135428570D01*
X321472914Y-135428570D02*
X321758628Y-135285713D01*
X321758628Y-135285713D02*
X323330057Y-135285713D01*
X323330057Y-133857142D02*
X321330057Y-133857142D01*
X321615771Y-133857142D02*
X321472914Y-133714285D01*
X321472914Y-133714285D02*
X321330057Y-133428570D01*
X321330057Y-133428570D02*
X321330057Y-132999999D01*
X321330057Y-132999999D02*
X321472914Y-132714285D01*
X321472914Y-132714285D02*
X321758628Y-132571428D01*
X321758628Y-132571428D02*
X323330057Y-132571428D01*
X321758628Y-132571428D02*
X321472914Y-132428570D01*
X321472914Y-132428570D02*
X321330057Y-132142856D01*
X321330057Y-132142856D02*
X321330057Y-131714285D01*
X321330057Y-131714285D02*
X321472914Y-131428570D01*
X321472914Y-131428570D02*
X321758628Y-131285713D01*
X321758628Y-131285713D02*
X323330057Y-131285713D01*
X140500000Y-40000000D02*
X325686420Y-40000000D01*
X140500000Y-240000000D02*
X325686420Y-240000000D01*
X325100000Y-40000000D02*
X325100000Y-240000000D01*
X325100000Y-40000000D02*
X325100000Y-240000000D01*
X325100000Y-40000000D02*
X325686421Y-41126504D01*
X325100000Y-40000000D02*
X324513579Y-41126504D01*
X325100000Y-240000000D02*
X324513579Y-238873496D01*
X325100000Y-240000000D02*
X325686421Y-238873496D01*
D10*
X267014285Y-85861857D02*
X268871428Y-85861857D01*
X268871428Y-85861857D02*
X267871428Y-87004714D01*
X267871428Y-87004714D02*
X268299999Y-87004714D01*
X268299999Y-87004714D02*
X268585714Y-87147571D01*
X268585714Y-87147571D02*
X268728571Y-87290428D01*
X268728571Y-87290428D02*
X268871428Y-87576142D01*
X268871428Y-87576142D02*
X268871428Y-88290428D01*
X268871428Y-88290428D02*
X268728571Y-88576142D01*
X268728571Y-88576142D02*
X268585714Y-88719000D01*
X268585714Y-88719000D02*
X268299999Y-88861857D01*
X268299999Y-88861857D02*
X267442856Y-88861857D01*
X267442856Y-88861857D02*
X267157142Y-88719000D01*
X267157142Y-88719000D02*
X267014285Y-88576142D01*
X270157142Y-88861857D02*
X270157142Y-85861857D01*
X270157142Y-85861857D02*
X271157142Y-88004714D01*
X271157142Y-88004714D02*
X272157142Y-85861857D01*
X272157142Y-85861857D02*
X272157142Y-88861857D01*
X274871428Y-86861857D02*
X274871428Y-88861857D01*
X274157142Y-85719000D02*
X273442856Y-87861857D01*
X273442856Y-87861857D02*
X275299999Y-87861857D01*
X277728571Y-85861857D02*
X277157142Y-85861857D01*
X277157142Y-85861857D02*
X276871428Y-86004714D01*
X276871428Y-86004714D02*
X276728571Y-86147571D01*
X276728571Y-86147571D02*
X276442856Y-86576142D01*
X276442856Y-86576142D02*
X276299999Y-87147571D01*
X276299999Y-87147571D02*
X276299999Y-88290428D01*
X276299999Y-88290428D02*
X276442856Y-88576142D01*
X276442856Y-88576142D02*
X276585713Y-88719000D01*
X276585713Y-88719000D02*
X276871428Y-88861857D01*
X276871428Y-88861857D02*
X277442856Y-88861857D01*
X277442856Y-88861857D02*
X277728571Y-88719000D01*
X277728571Y-88719000D02*
X277871428Y-88576142D01*
X277871428Y-88576142D02*
X278014285Y-88290428D01*
X278014285Y-88290428D02*
X278014285Y-87576142D01*
X278014285Y-87576142D02*
X277871428Y-87290428D01*
X277871428Y-87290428D02*
X277728571Y-87147571D01*
X277728571Y-87147571D02*
X277442856Y-87004714D01*
X277442856Y-87004714D02*
X276871428Y-87004714D01*
X276871428Y-87004714D02*
X276585713Y-87147571D01*
X276585713Y-87147571D02*
X276442856Y-87290428D01*
X276442856Y-87290428D02*
X276299999Y-87576142D01*
X279728571Y-87147571D02*
X279442856Y-87004714D01*
X279442856Y-87004714D02*
X279299999Y-86861857D01*
X279299999Y-86861857D02*
X279157142Y-86576142D01*
X279157142Y-86576142D02*
X279157142Y-86433285D01*
X279157142Y-86433285D02*
X279299999Y-86147571D01*
X279299999Y-86147571D02*
X279442856Y-86004714D01*
X279442856Y-86004714D02*
X279728571Y-85861857D01*
X279728571Y-85861857D02*
X280299999Y-85861857D01*
X280299999Y-85861857D02*
X280585714Y-86004714D01*
X280585714Y-86004714D02*
X280728571Y-86147571D01*
X280728571Y-86147571D02*
X280871428Y-86433285D01*
X280871428Y-86433285D02*
X280871428Y-86576142D01*
X280871428Y-86576142D02*
X280728571Y-86861857D01*
X280728571Y-86861857D02*
X280585714Y-87004714D01*
X280585714Y-87004714D02*
X280299999Y-87147571D01*
X280299999Y-87147571D02*
X279728571Y-87147571D01*
X279728571Y-87147571D02*
X279442856Y-87290428D01*
X279442856Y-87290428D02*
X279299999Y-87433285D01*
X279299999Y-87433285D02*
X279157142Y-87719000D01*
X279157142Y-87719000D02*
X279157142Y-88290428D01*
X279157142Y-88290428D02*
X279299999Y-88576142D01*
X279299999Y-88576142D02*
X279442856Y-88719000D01*
X279442856Y-88719000D02*
X279728571Y-88861857D01*
X279728571Y-88861857D02*
X280299999Y-88861857D01*
X280299999Y-88861857D02*
X280585714Y-88719000D01*
X280585714Y-88719000D02*
X280728571Y-88576142D01*
X280728571Y-88576142D02*
X280871428Y-88290428D01*
X280871428Y-88290428D02*
X280871428Y-87719000D01*
X280871428Y-87719000D02*
X280728571Y-87433285D01*
X280728571Y-87433285D02*
X280585714Y-87290428D01*
X280585714Y-87290428D02*
X280299999Y-87147571D01*
X284299999Y-88004714D02*
X285728571Y-88004714D01*
X284014285Y-88861857D02*
X285014285Y-85861857D01*
X285014285Y-85861857D02*
X286014285Y-88861857D01*
X288300000Y-88861857D02*
X288300000Y-85861857D01*
X288300000Y-88719000D02*
X288014285Y-88861857D01*
X288014285Y-88861857D02*
X287442857Y-88861857D01*
X287442857Y-88861857D02*
X287157142Y-88719000D01*
X287157142Y-88719000D02*
X287014285Y-88576142D01*
X287014285Y-88576142D02*
X286871428Y-88290428D01*
X286871428Y-88290428D02*
X286871428Y-87433285D01*
X286871428Y-87433285D02*
X287014285Y-87147571D01*
X287014285Y-87147571D02*
X287157142Y-87004714D01*
X287157142Y-87004714D02*
X287442857Y-86861857D01*
X287442857Y-86861857D02*
X288014285Y-86861857D01*
X288014285Y-86861857D02*
X288300000Y-87004714D01*
X289728571Y-88861857D02*
X289728571Y-85861857D01*
X291014286Y-88861857D02*
X291014286Y-87290428D01*
X291014286Y-87290428D02*
X290871428Y-87004714D01*
X290871428Y-87004714D02*
X290585714Y-86861857D01*
X290585714Y-86861857D02*
X290157143Y-86861857D01*
X290157143Y-86861857D02*
X289871428Y-87004714D01*
X289871428Y-87004714D02*
X289728571Y-87147571D01*
X293585714Y-88719000D02*
X293300000Y-88861857D01*
X293300000Y-88861857D02*
X292728572Y-88861857D01*
X292728572Y-88861857D02*
X292442857Y-88719000D01*
X292442857Y-88719000D02*
X292300000Y-88433285D01*
X292300000Y-88433285D02*
X292300000Y-87290428D01*
X292300000Y-87290428D02*
X292442857Y-87004714D01*
X292442857Y-87004714D02*
X292728572Y-86861857D01*
X292728572Y-86861857D02*
X293300000Y-86861857D01*
X293300000Y-86861857D02*
X293585714Y-87004714D01*
X293585714Y-87004714D02*
X293728572Y-87290428D01*
X293728572Y-87290428D02*
X293728572Y-87576142D01*
X293728572Y-87576142D02*
X292300000Y-87861857D01*
X294871429Y-88719000D02*
X295157143Y-88861857D01*
X295157143Y-88861857D02*
X295728572Y-88861857D01*
X295728572Y-88861857D02*
X296014286Y-88719000D01*
X296014286Y-88719000D02*
X296157143Y-88433285D01*
X296157143Y-88433285D02*
X296157143Y-88290428D01*
X296157143Y-88290428D02*
X296014286Y-88004714D01*
X296014286Y-88004714D02*
X295728572Y-87861857D01*
X295728572Y-87861857D02*
X295300001Y-87861857D01*
X295300001Y-87861857D02*
X295014286Y-87719000D01*
X295014286Y-87719000D02*
X294871429Y-87433285D01*
X294871429Y-87433285D02*
X294871429Y-87290428D01*
X294871429Y-87290428D02*
X295014286Y-87004714D01*
X295014286Y-87004714D02*
X295300001Y-86861857D01*
X295300001Y-86861857D02*
X295728572Y-86861857D01*
X295728572Y-86861857D02*
X296014286Y-87004714D01*
X297442857Y-88861857D02*
X297442857Y-86861857D01*
X297442857Y-85861857D02*
X297300000Y-86004714D01*
X297300000Y-86004714D02*
X297442857Y-86147571D01*
X297442857Y-86147571D02*
X297585714Y-86004714D01*
X297585714Y-86004714D02*
X297442857Y-85861857D01*
X297442857Y-85861857D02*
X297442857Y-86147571D01*
X298585714Y-86861857D02*
X299300000Y-88861857D01*
X299300000Y-88861857D02*
X300014285Y-86861857D01*
X302299999Y-88719000D02*
X302014285Y-88861857D01*
X302014285Y-88861857D02*
X301442857Y-88861857D01*
X301442857Y-88861857D02*
X301157142Y-88719000D01*
X301157142Y-88719000D02*
X301014285Y-88433285D01*
X301014285Y-88433285D02*
X301014285Y-87290428D01*
X301014285Y-87290428D02*
X301157142Y-87004714D01*
X301157142Y-87004714D02*
X301442857Y-86861857D01*
X301442857Y-86861857D02*
X302014285Y-86861857D01*
X302014285Y-86861857D02*
X302299999Y-87004714D01*
X302299999Y-87004714D02*
X302442857Y-87290428D01*
X302442857Y-87290428D02*
X302442857Y-87576142D01*
X302442857Y-87576142D02*
X301014285Y-87861857D01*
X245300000Y-87500000D02*
X264635714Y-87500000D01*
X245300000Y-87500000D02*
X246426504Y-86913579D01*
X245300000Y-87500000D02*
X246426504Y-88086421D01*
X245300000Y-87500000D02*
X264635714Y-87500000D01*
X245300000Y-87500000D02*
X246426504Y-86913579D01*
X245300000Y-87500000D02*
X246426504Y-88086421D01*
M02*
