%TF.GenerationSoftware,KiCad,Pcbnew,7.0.6*%
%TF.CreationDate,2023-10-22T02:20:42+00:00*%
%TF.ProjectId,HeatedBedFoil,48656174-6564-4426-9564-466f696c2e6b,rev?*%
%TF.SameCoordinates,Original*%
%TF.FileFunction,Other,User*%
%FSLAX46Y46*%
G04 Gerber Fmt 4.6, Leading zero omitted, Abs format (unit mm)*
G04 Created by KiCad (PCBNEW 7.0.6) date 2023-10-22 02:20:42*
%MOMM*%
%LPD*%
G01*
G04 APERTURE LIST*
%ADD10C,1.000000*%
%ADD11C,0.500000*%
G04 APERTURE END LIST*
D10*
X237000000Y-240000000D02*
X43000000Y-240000000D01*
X43000000Y-40000000D02*
G75*
G03*
X40000000Y-43000000I0J-3000000D01*
G01*
X40000000Y-237000000D02*
G75*
G03*
X43000000Y-240000000I3000000J0D01*
G01*
X237000000Y-240000000D02*
G75*
G03*
X240000000Y-237000000I0J3000000D01*
G01*
X43000000Y-40000000D02*
X237000000Y-40000000D01*
X40000000Y-237000000D02*
X40000000Y-43000000D01*
X240000000Y-43000000D02*
G75*
G03*
X237000000Y-40000000I-3000000J0D01*
G01*
X240000000Y-43000000D02*
X240000000Y-237000000D01*
D11*
X279200000Y-86361857D02*
X281057143Y-86361857D01*
X281057143Y-86361857D02*
X280057143Y-87504714D01*
X280057143Y-87504714D02*
X280485714Y-87504714D01*
X280485714Y-87504714D02*
X280771429Y-87647571D01*
X280771429Y-87647571D02*
X280914286Y-87790428D01*
X280914286Y-87790428D02*
X281057143Y-88076142D01*
X281057143Y-88076142D02*
X281057143Y-88790428D01*
X281057143Y-88790428D02*
X280914286Y-89076142D01*
X280914286Y-89076142D02*
X280771429Y-89219000D01*
X280771429Y-89219000D02*
X280485714Y-89361857D01*
X280485714Y-89361857D02*
X279628571Y-89361857D01*
X279628571Y-89361857D02*
X279342857Y-89219000D01*
X279342857Y-89219000D02*
X279200000Y-89076142D01*
X282342857Y-89361857D02*
X282342857Y-86361857D01*
X282342857Y-86361857D02*
X283342857Y-88504714D01*
X283342857Y-88504714D02*
X284342857Y-86361857D01*
X284342857Y-86361857D02*
X284342857Y-89361857D01*
X287914285Y-88504714D02*
X289342857Y-88504714D01*
X287628571Y-89361857D02*
X288628571Y-86361857D01*
X288628571Y-86361857D02*
X289628571Y-89361857D01*
X291914286Y-89361857D02*
X291914286Y-86361857D01*
X291914286Y-89219000D02*
X291628571Y-89361857D01*
X291628571Y-89361857D02*
X291057143Y-89361857D01*
X291057143Y-89361857D02*
X290771428Y-89219000D01*
X290771428Y-89219000D02*
X290628571Y-89076142D01*
X290628571Y-89076142D02*
X290485714Y-88790428D01*
X290485714Y-88790428D02*
X290485714Y-87933285D01*
X290485714Y-87933285D02*
X290628571Y-87647571D01*
X290628571Y-87647571D02*
X290771428Y-87504714D01*
X290771428Y-87504714D02*
X291057143Y-87361857D01*
X291057143Y-87361857D02*
X291628571Y-87361857D01*
X291628571Y-87361857D02*
X291914286Y-87504714D01*
X293342857Y-89361857D02*
X293342857Y-86361857D01*
X294628572Y-89361857D02*
X294628572Y-87790428D01*
X294628572Y-87790428D02*
X294485714Y-87504714D01*
X294485714Y-87504714D02*
X294200000Y-87361857D01*
X294200000Y-87361857D02*
X293771429Y-87361857D01*
X293771429Y-87361857D02*
X293485714Y-87504714D01*
X293485714Y-87504714D02*
X293342857Y-87647571D01*
X297200000Y-89219000D02*
X296914286Y-89361857D01*
X296914286Y-89361857D02*
X296342858Y-89361857D01*
X296342858Y-89361857D02*
X296057143Y-89219000D01*
X296057143Y-89219000D02*
X295914286Y-88933285D01*
X295914286Y-88933285D02*
X295914286Y-87790428D01*
X295914286Y-87790428D02*
X296057143Y-87504714D01*
X296057143Y-87504714D02*
X296342858Y-87361857D01*
X296342858Y-87361857D02*
X296914286Y-87361857D01*
X296914286Y-87361857D02*
X297200000Y-87504714D01*
X297200000Y-87504714D02*
X297342858Y-87790428D01*
X297342858Y-87790428D02*
X297342858Y-88076142D01*
X297342858Y-88076142D02*
X295914286Y-88361857D01*
X298485715Y-89219000D02*
X298771429Y-89361857D01*
X298771429Y-89361857D02*
X299342858Y-89361857D01*
X299342858Y-89361857D02*
X299628572Y-89219000D01*
X299628572Y-89219000D02*
X299771429Y-88933285D01*
X299771429Y-88933285D02*
X299771429Y-88790428D01*
X299771429Y-88790428D02*
X299628572Y-88504714D01*
X299628572Y-88504714D02*
X299342858Y-88361857D01*
X299342858Y-88361857D02*
X298914287Y-88361857D01*
X298914287Y-88361857D02*
X298628572Y-88219000D01*
X298628572Y-88219000D02*
X298485715Y-87933285D01*
X298485715Y-87933285D02*
X298485715Y-87790428D01*
X298485715Y-87790428D02*
X298628572Y-87504714D01*
X298628572Y-87504714D02*
X298914287Y-87361857D01*
X298914287Y-87361857D02*
X299342858Y-87361857D01*
X299342858Y-87361857D02*
X299628572Y-87504714D01*
X301057143Y-89361857D02*
X301057143Y-87361857D01*
X301057143Y-86361857D02*
X300914286Y-86504714D01*
X300914286Y-86504714D02*
X301057143Y-86647571D01*
X301057143Y-86647571D02*
X301200000Y-86504714D01*
X301200000Y-86504714D02*
X301057143Y-86361857D01*
X301057143Y-86361857D02*
X301057143Y-86647571D01*
X302200000Y-87361857D02*
X302914286Y-89361857D01*
X302914286Y-89361857D02*
X303628571Y-87361857D01*
X305914285Y-89219000D02*
X305628571Y-89361857D01*
X305628571Y-89361857D02*
X305057143Y-89361857D01*
X305057143Y-89361857D02*
X304771428Y-89219000D01*
X304771428Y-89219000D02*
X304628571Y-88933285D01*
X304628571Y-88933285D02*
X304628571Y-87790428D01*
X304628571Y-87790428D02*
X304771428Y-87504714D01*
X304771428Y-87504714D02*
X305057143Y-87361857D01*
X305057143Y-87361857D02*
X305628571Y-87361857D01*
X305628571Y-87361857D02*
X305914285Y-87504714D01*
X305914285Y-87504714D02*
X306057143Y-87790428D01*
X306057143Y-87790428D02*
X306057143Y-88076142D01*
X306057143Y-88076142D02*
X304628571Y-88361857D01*
X253200000Y-88000000D02*
X276821429Y-88000000D01*
X253200000Y-88000000D02*
X254326504Y-87413579D01*
X253200000Y-88000000D02*
X254326504Y-88586421D01*
X253200000Y-88000000D02*
X276821429Y-88000000D01*
X253200000Y-88000000D02*
X254326504Y-87413579D01*
X253200000Y-88000000D02*
X254326504Y-88586421D01*
M02*
