%TF.GenerationSoftware,KiCad,Pcbnew,7.0.6*%
%TF.CreationDate,2023-10-21T01:19:05+00:00*%
%TF.ProjectId,HeatedBedFoil,48656174-6564-4426-9564-466f696c2e6b,rev?*%
%TF.SameCoordinates,Original*%
%TF.FileFunction,Drillmap*%
%TF.FilePolarity,Positive*%
%FSLAX45Y45*%
G04 Gerber Fmt 4.5, Leading zero omitted, Abs format (unit mm)*
G04 Created by KiCad (PCBNEW 7.0.6) date 2023-10-21 01:19:05*
%MOMM*%
%LPD*%
G01*
G04 APERTURE LIST*
%ADD10C,0.050000*%
%ADD11C,0.200000*%
G04 APERTURE END LIST*
D10*
X4300000Y-4000000D02*
G75*
G03*
X4000000Y-4300000I0J-300000D01*
G01*
X23700000Y-24000000D02*
X4300000Y-24000000D01*
X24000000Y-4300000D02*
X24000000Y-23700000D01*
X24000000Y-4300000D02*
G75*
G03*
X23700000Y-4000000I-300000J0D01*
G01*
X4000000Y-23700000D02*
G75*
G03*
X4300000Y-24000000I300000J0D01*
G01*
X4000000Y-23700000D02*
X4000000Y-4300000D01*
X23700000Y-24000000D02*
G75*
G03*
X24000000Y-23700000I0J300000D01*
G01*
X4300000Y-4000000D02*
X23700000Y-4000000D01*
D11*
X4258277Y-24313984D02*
X4258277Y-24113984D01*
X4258277Y-24113984D02*
X4305896Y-24113984D01*
X4305896Y-24113984D02*
X4334467Y-24123508D01*
X4334467Y-24123508D02*
X4353515Y-24142555D01*
X4353515Y-24142555D02*
X4363039Y-24161603D01*
X4363039Y-24161603D02*
X4372563Y-24199698D01*
X4372563Y-24199698D02*
X4372563Y-24228269D01*
X4372563Y-24228269D02*
X4363039Y-24266365D01*
X4363039Y-24266365D02*
X4353515Y-24285412D01*
X4353515Y-24285412D02*
X4334467Y-24304460D01*
X4334467Y-24304460D02*
X4305896Y-24313984D01*
X4305896Y-24313984D02*
X4258277Y-24313984D01*
X4458277Y-24313984D02*
X4458277Y-24180650D01*
X4458277Y-24218746D02*
X4467801Y-24199698D01*
X4467801Y-24199698D02*
X4477324Y-24190174D01*
X4477324Y-24190174D02*
X4496372Y-24180650D01*
X4496372Y-24180650D02*
X4515420Y-24180650D01*
X4582086Y-24313984D02*
X4582086Y-24180650D01*
X4582086Y-24113984D02*
X4572563Y-24123508D01*
X4572563Y-24123508D02*
X4582086Y-24133031D01*
X4582086Y-24133031D02*
X4591610Y-24123508D01*
X4591610Y-24123508D02*
X4582086Y-24113984D01*
X4582086Y-24113984D02*
X4582086Y-24133031D01*
X4705896Y-24313984D02*
X4686848Y-24304460D01*
X4686848Y-24304460D02*
X4677324Y-24285412D01*
X4677324Y-24285412D02*
X4677324Y-24113984D01*
X4810658Y-24313984D02*
X4791610Y-24304460D01*
X4791610Y-24304460D02*
X4782086Y-24285412D01*
X4782086Y-24285412D02*
X4782086Y-24113984D01*
X5039229Y-24313984D02*
X5039229Y-24113984D01*
X5039229Y-24113984D02*
X5105896Y-24256841D01*
X5105896Y-24256841D02*
X5172563Y-24113984D01*
X5172563Y-24113984D02*
X5172563Y-24313984D01*
X5353515Y-24313984D02*
X5353515Y-24209222D01*
X5353515Y-24209222D02*
X5343991Y-24190174D01*
X5343991Y-24190174D02*
X5324944Y-24180650D01*
X5324944Y-24180650D02*
X5286848Y-24180650D01*
X5286848Y-24180650D02*
X5267801Y-24190174D01*
X5353515Y-24304460D02*
X5334467Y-24313984D01*
X5334467Y-24313984D02*
X5286848Y-24313984D01*
X5286848Y-24313984D02*
X5267801Y-24304460D01*
X5267801Y-24304460D02*
X5258277Y-24285412D01*
X5258277Y-24285412D02*
X5258277Y-24266365D01*
X5258277Y-24266365D02*
X5267801Y-24247317D01*
X5267801Y-24247317D02*
X5286848Y-24237793D01*
X5286848Y-24237793D02*
X5334467Y-24237793D01*
X5334467Y-24237793D02*
X5353515Y-24228269D01*
X5448753Y-24180650D02*
X5448753Y-24380650D01*
X5448753Y-24190174D02*
X5467801Y-24180650D01*
X5467801Y-24180650D02*
X5505896Y-24180650D01*
X5505896Y-24180650D02*
X5524944Y-24190174D01*
X5524944Y-24190174D02*
X5534467Y-24199698D01*
X5534467Y-24199698D02*
X5543991Y-24218746D01*
X5543991Y-24218746D02*
X5543991Y-24275888D01*
X5543991Y-24275888D02*
X5534467Y-24294936D01*
X5534467Y-24294936D02*
X5524944Y-24304460D01*
X5524944Y-24304460D02*
X5505896Y-24313984D01*
X5505896Y-24313984D02*
X5467801Y-24313984D01*
X5467801Y-24313984D02*
X5448753Y-24304460D01*
X5629705Y-24294936D02*
X5639229Y-24304460D01*
X5639229Y-24304460D02*
X5629705Y-24313984D01*
X5629705Y-24313984D02*
X5620182Y-24304460D01*
X5620182Y-24304460D02*
X5629705Y-24294936D01*
X5629705Y-24294936D02*
X5629705Y-24313984D01*
X5629705Y-24190174D02*
X5639229Y-24199698D01*
X5639229Y-24199698D02*
X5629705Y-24209222D01*
X5629705Y-24209222D02*
X5620182Y-24199698D01*
X5620182Y-24199698D02*
X5629705Y-24190174D01*
X5629705Y-24190174D02*
X5629705Y-24209222D01*
M02*
