%TF.GenerationSoftware,KiCad,Pcbnew,7.0.6*%
%TF.CreationDate,2023-10-21T01:19:05+00:00*%
%TF.ProjectId,HeatedBedFoil,48656174-6564-4426-9564-466f696c2e6b,rev?*%
%TF.SameCoordinates,Original*%
%TF.FileFunction,Drillmap*%
%TF.FilePolarity,Positive*%
%FSLAX45Y45*%
G04 Gerber Fmt 4.5, Leading zero omitted, Abs format (unit mm)*
G04 Created by KiCad (PCBNEW 7.0.6) date 2023-10-21 01:19:05*
%MOMM*%
%LPD*%
G01*
G04 APERTURE LIST*
%ADD10C,0.050000*%
%ADD11C,0.200000*%
%ADD12C,0.600000*%
%ADD13C,1.200000*%
G04 APERTURE END LIST*
D10*
X4300000Y-4000000D02*
G75*
G03*
X4000000Y-4300000I0J-300000D01*
G01*
X23700000Y-24000000D02*
X4300000Y-24000000D01*
X24000000Y-4300000D02*
X24000000Y-23700000D01*
X24000000Y-4300000D02*
G75*
G03*
X23700000Y-4000000I-300000J0D01*
G01*
X4000000Y-23700000D02*
G75*
G03*
X4300000Y-24000000I300000J0D01*
G01*
X4000000Y-23700000D02*
X4000000Y-4300000D01*
X23700000Y-24000000D02*
G75*
G03*
X24000000Y-23700000I0J300000D01*
G01*
X4300000Y-4000000D02*
X23700000Y-4000000D01*
D11*
D12*
X13700000Y-8200000D02*
X14300000Y-8800000D01*
X14300000Y-8200000D02*
X13700000Y-8800000D01*
D13*
X6100000Y-5500000D02*
G75*
G03*
X6100000Y-5500000I-600000J0D01*
G01*
X6100000Y-22500000D02*
G75*
G03*
X6100000Y-22500000I-600000J0D01*
G01*
X23100000Y-5500000D02*
G75*
G03*
X23100000Y-5500000I-600000J0D01*
G01*
X23100000Y-22500000D02*
G75*
G03*
X23100000Y-22500000I-600000J0D01*
G01*
D11*
X4258277Y-24313984D02*
X4258277Y-24113984D01*
X4258277Y-24113984D02*
X4305896Y-24113984D01*
X4305896Y-24113984D02*
X4334467Y-24123508D01*
X4334467Y-24123508D02*
X4353515Y-24142555D01*
X4353515Y-24142555D02*
X4363039Y-24161603D01*
X4363039Y-24161603D02*
X4372563Y-24199698D01*
X4372563Y-24199698D02*
X4372563Y-24228269D01*
X4372563Y-24228269D02*
X4363039Y-24266365D01*
X4363039Y-24266365D02*
X4353515Y-24285412D01*
X4353515Y-24285412D02*
X4334467Y-24304460D01*
X4334467Y-24304460D02*
X4305896Y-24313984D01*
X4305896Y-24313984D02*
X4258277Y-24313984D01*
X4458277Y-24313984D02*
X4458277Y-24180650D01*
X4458277Y-24218746D02*
X4467801Y-24199698D01*
X4467801Y-24199698D02*
X4477324Y-24190174D01*
X4477324Y-24190174D02*
X4496372Y-24180650D01*
X4496372Y-24180650D02*
X4515420Y-24180650D01*
X4582086Y-24313984D02*
X4582086Y-24180650D01*
X4582086Y-24113984D02*
X4572563Y-24123508D01*
X4572563Y-24123508D02*
X4582086Y-24133031D01*
X4582086Y-24133031D02*
X4591610Y-24123508D01*
X4591610Y-24123508D02*
X4582086Y-24113984D01*
X4582086Y-24113984D02*
X4582086Y-24133031D01*
X4705896Y-24313984D02*
X4686848Y-24304460D01*
X4686848Y-24304460D02*
X4677324Y-24285412D01*
X4677324Y-24285412D02*
X4677324Y-24113984D01*
X4810658Y-24313984D02*
X4791610Y-24304460D01*
X4791610Y-24304460D02*
X4782086Y-24285412D01*
X4782086Y-24285412D02*
X4782086Y-24113984D01*
X5039229Y-24313984D02*
X5039229Y-24113984D01*
X5039229Y-24113984D02*
X5105896Y-24256841D01*
X5105896Y-24256841D02*
X5172563Y-24113984D01*
X5172563Y-24113984D02*
X5172563Y-24313984D01*
X5353515Y-24313984D02*
X5353515Y-24209222D01*
X5353515Y-24209222D02*
X5343991Y-24190174D01*
X5343991Y-24190174D02*
X5324944Y-24180650D01*
X5324944Y-24180650D02*
X5286848Y-24180650D01*
X5286848Y-24180650D02*
X5267801Y-24190174D01*
X5353515Y-24304460D02*
X5334467Y-24313984D01*
X5334467Y-24313984D02*
X5286848Y-24313984D01*
X5286848Y-24313984D02*
X5267801Y-24304460D01*
X5267801Y-24304460D02*
X5258277Y-24285412D01*
X5258277Y-24285412D02*
X5258277Y-24266365D01*
X5258277Y-24266365D02*
X5267801Y-24247317D01*
X5267801Y-24247317D02*
X5286848Y-24237793D01*
X5286848Y-24237793D02*
X5334467Y-24237793D01*
X5334467Y-24237793D02*
X5353515Y-24228269D01*
X5448753Y-24180650D02*
X5448753Y-24380650D01*
X5448753Y-24190174D02*
X5467801Y-24180650D01*
X5467801Y-24180650D02*
X5505896Y-24180650D01*
X5505896Y-24180650D02*
X5524944Y-24190174D01*
X5524944Y-24190174D02*
X5534467Y-24199698D01*
X5534467Y-24199698D02*
X5543991Y-24218746D01*
X5543991Y-24218746D02*
X5543991Y-24275888D01*
X5543991Y-24275888D02*
X5534467Y-24294936D01*
X5534467Y-24294936D02*
X5524944Y-24304460D01*
X5524944Y-24304460D02*
X5505896Y-24313984D01*
X5505896Y-24313984D02*
X5467801Y-24313984D01*
X5467801Y-24313984D02*
X5448753Y-24304460D01*
X5629705Y-24294936D02*
X5639229Y-24304460D01*
X5639229Y-24304460D02*
X5629705Y-24313984D01*
X5629705Y-24313984D02*
X5620182Y-24304460D01*
X5620182Y-24304460D02*
X5629705Y-24294936D01*
X5629705Y-24294936D02*
X5629705Y-24313984D01*
X5629705Y-24190174D02*
X5639229Y-24199698D01*
X5639229Y-24199698D02*
X5629705Y-24209222D01*
X5629705Y-24209222D02*
X5620182Y-24199698D01*
X5620182Y-24199698D02*
X5629705Y-24190174D01*
X5629705Y-24190174D02*
X5629705Y-24209222D01*
X3797500Y-24542500D02*
X3997500Y-24742500D01*
X3997500Y-24542500D02*
X3797500Y-24742500D01*
X4343991Y-24533984D02*
X4305896Y-24533984D01*
X4305896Y-24533984D02*
X4286848Y-24543508D01*
X4286848Y-24543508D02*
X4277324Y-24553031D01*
X4277324Y-24553031D02*
X4258277Y-24581603D01*
X4258277Y-24581603D02*
X4248753Y-24619698D01*
X4248753Y-24619698D02*
X4248753Y-24695888D01*
X4248753Y-24695888D02*
X4258277Y-24714936D01*
X4258277Y-24714936D02*
X4267801Y-24724460D01*
X4267801Y-24724460D02*
X4286848Y-24733984D01*
X4286848Y-24733984D02*
X4324944Y-24733984D01*
X4324944Y-24733984D02*
X4343991Y-24724460D01*
X4343991Y-24724460D02*
X4353515Y-24714936D01*
X4353515Y-24714936D02*
X4363039Y-24695888D01*
X4363039Y-24695888D02*
X4363039Y-24648269D01*
X4363039Y-24648269D02*
X4353515Y-24629222D01*
X4353515Y-24629222D02*
X4343991Y-24619698D01*
X4343991Y-24619698D02*
X4324944Y-24610174D01*
X4324944Y-24610174D02*
X4286848Y-24610174D01*
X4286848Y-24610174D02*
X4267801Y-24619698D01*
X4267801Y-24619698D02*
X4258277Y-24629222D01*
X4258277Y-24629222D02*
X4248753Y-24648269D01*
X4448753Y-24714936D02*
X4458277Y-24724460D01*
X4458277Y-24724460D02*
X4448753Y-24733984D01*
X4448753Y-24733984D02*
X4439229Y-24724460D01*
X4439229Y-24724460D02*
X4448753Y-24714936D01*
X4448753Y-24714936D02*
X4448753Y-24733984D01*
X4582086Y-24533984D02*
X4601134Y-24533984D01*
X4601134Y-24533984D02*
X4620182Y-24543508D01*
X4620182Y-24543508D02*
X4629705Y-24553031D01*
X4629705Y-24553031D02*
X4639229Y-24572079D01*
X4639229Y-24572079D02*
X4648753Y-24610174D01*
X4648753Y-24610174D02*
X4648753Y-24657793D01*
X4648753Y-24657793D02*
X4639229Y-24695888D01*
X4639229Y-24695888D02*
X4629705Y-24714936D01*
X4629705Y-24714936D02*
X4620182Y-24724460D01*
X4620182Y-24724460D02*
X4601134Y-24733984D01*
X4601134Y-24733984D02*
X4582086Y-24733984D01*
X4582086Y-24733984D02*
X4563039Y-24724460D01*
X4563039Y-24724460D02*
X4553515Y-24714936D01*
X4553515Y-24714936D02*
X4543991Y-24695888D01*
X4543991Y-24695888D02*
X4534467Y-24657793D01*
X4534467Y-24657793D02*
X4534467Y-24610174D01*
X4534467Y-24610174D02*
X4543991Y-24572079D01*
X4543991Y-24572079D02*
X4553515Y-24553031D01*
X4553515Y-24553031D02*
X4563039Y-24543508D01*
X4563039Y-24543508D02*
X4582086Y-24533984D01*
X4772563Y-24533984D02*
X4791610Y-24533984D01*
X4791610Y-24533984D02*
X4810658Y-24543508D01*
X4810658Y-24543508D02*
X4820182Y-24553031D01*
X4820182Y-24553031D02*
X4829705Y-24572079D01*
X4829705Y-24572079D02*
X4839229Y-24610174D01*
X4839229Y-24610174D02*
X4839229Y-24657793D01*
X4839229Y-24657793D02*
X4829705Y-24695888D01*
X4829705Y-24695888D02*
X4820182Y-24714936D01*
X4820182Y-24714936D02*
X4810658Y-24724460D01*
X4810658Y-24724460D02*
X4791610Y-24733984D01*
X4791610Y-24733984D02*
X4772563Y-24733984D01*
X4772563Y-24733984D02*
X4753515Y-24724460D01*
X4753515Y-24724460D02*
X4743991Y-24714936D01*
X4743991Y-24714936D02*
X4734467Y-24695888D01*
X4734467Y-24695888D02*
X4724944Y-24657793D01*
X4724944Y-24657793D02*
X4724944Y-24610174D01*
X4724944Y-24610174D02*
X4734467Y-24572079D01*
X4734467Y-24572079D02*
X4743991Y-24553031D01*
X4743991Y-24553031D02*
X4753515Y-24543508D01*
X4753515Y-24543508D02*
X4772563Y-24533984D01*
X4963039Y-24533984D02*
X4982086Y-24533984D01*
X4982086Y-24533984D02*
X5001134Y-24543508D01*
X5001134Y-24543508D02*
X5010658Y-24553031D01*
X5010658Y-24553031D02*
X5020182Y-24572079D01*
X5020182Y-24572079D02*
X5029705Y-24610174D01*
X5029705Y-24610174D02*
X5029705Y-24657793D01*
X5029705Y-24657793D02*
X5020182Y-24695888D01*
X5020182Y-24695888D02*
X5010658Y-24714936D01*
X5010658Y-24714936D02*
X5001134Y-24724460D01*
X5001134Y-24724460D02*
X4982086Y-24733984D01*
X4982086Y-24733984D02*
X4963039Y-24733984D01*
X4963039Y-24733984D02*
X4943991Y-24724460D01*
X4943991Y-24724460D02*
X4934467Y-24714936D01*
X4934467Y-24714936D02*
X4924944Y-24695888D01*
X4924944Y-24695888D02*
X4915420Y-24657793D01*
X4915420Y-24657793D02*
X4915420Y-24610174D01*
X4915420Y-24610174D02*
X4924944Y-24572079D01*
X4924944Y-24572079D02*
X4934467Y-24553031D01*
X4934467Y-24553031D02*
X4943991Y-24543508D01*
X4943991Y-24543508D02*
X4963039Y-24533984D01*
X5115420Y-24733984D02*
X5115420Y-24600650D01*
X5115420Y-24619698D02*
X5124944Y-24610174D01*
X5124944Y-24610174D02*
X5143991Y-24600650D01*
X5143991Y-24600650D02*
X5172563Y-24600650D01*
X5172563Y-24600650D02*
X5191610Y-24610174D01*
X5191610Y-24610174D02*
X5201134Y-24629222D01*
X5201134Y-24629222D02*
X5201134Y-24733984D01*
X5201134Y-24629222D02*
X5210658Y-24610174D01*
X5210658Y-24610174D02*
X5229705Y-24600650D01*
X5229705Y-24600650D02*
X5258277Y-24600650D01*
X5258277Y-24600650D02*
X5277325Y-24610174D01*
X5277325Y-24610174D02*
X5286848Y-24629222D01*
X5286848Y-24629222D02*
X5286848Y-24733984D01*
X5382086Y-24733984D02*
X5382086Y-24600650D01*
X5382086Y-24619698D02*
X5391610Y-24610174D01*
X5391610Y-24610174D02*
X5410658Y-24600650D01*
X5410658Y-24600650D02*
X5439229Y-24600650D01*
X5439229Y-24600650D02*
X5458277Y-24610174D01*
X5458277Y-24610174D02*
X5467801Y-24629222D01*
X5467801Y-24629222D02*
X5467801Y-24733984D01*
X5467801Y-24629222D02*
X5477325Y-24610174D01*
X5477325Y-24610174D02*
X5496372Y-24600650D01*
X5496372Y-24600650D02*
X5524944Y-24600650D01*
X5524944Y-24600650D02*
X5543991Y-24610174D01*
X5543991Y-24610174D02*
X5553515Y-24629222D01*
X5553515Y-24629222D02*
X5553515Y-24733984D01*
X5943991Y-24524460D02*
X5772563Y-24781603D01*
X6201134Y-24533984D02*
X6220182Y-24533984D01*
X6220182Y-24533984D02*
X6239229Y-24543508D01*
X6239229Y-24543508D02*
X6248753Y-24553031D01*
X6248753Y-24553031D02*
X6258277Y-24572079D01*
X6258277Y-24572079D02*
X6267801Y-24610174D01*
X6267801Y-24610174D02*
X6267801Y-24657793D01*
X6267801Y-24657793D02*
X6258277Y-24695888D01*
X6258277Y-24695888D02*
X6248753Y-24714936D01*
X6248753Y-24714936D02*
X6239229Y-24724460D01*
X6239229Y-24724460D02*
X6220182Y-24733984D01*
X6220182Y-24733984D02*
X6201134Y-24733984D01*
X6201134Y-24733984D02*
X6182086Y-24724460D01*
X6182086Y-24724460D02*
X6172563Y-24714936D01*
X6172563Y-24714936D02*
X6163039Y-24695888D01*
X6163039Y-24695888D02*
X6153515Y-24657793D01*
X6153515Y-24657793D02*
X6153515Y-24610174D01*
X6153515Y-24610174D02*
X6163039Y-24572079D01*
X6163039Y-24572079D02*
X6172563Y-24553031D01*
X6172563Y-24553031D02*
X6182086Y-24543508D01*
X6182086Y-24543508D02*
X6201134Y-24533984D01*
X6353515Y-24714936D02*
X6363039Y-24724460D01*
X6363039Y-24724460D02*
X6353515Y-24733984D01*
X6353515Y-24733984D02*
X6343991Y-24724460D01*
X6343991Y-24724460D02*
X6353515Y-24714936D01*
X6353515Y-24714936D02*
X6353515Y-24733984D01*
X6439229Y-24553031D02*
X6448753Y-24543508D01*
X6448753Y-24543508D02*
X6467801Y-24533984D01*
X6467801Y-24533984D02*
X6515420Y-24533984D01*
X6515420Y-24533984D02*
X6534467Y-24543508D01*
X6534467Y-24543508D02*
X6543991Y-24553031D01*
X6543991Y-24553031D02*
X6553515Y-24572079D01*
X6553515Y-24572079D02*
X6553515Y-24591127D01*
X6553515Y-24591127D02*
X6543991Y-24619698D01*
X6543991Y-24619698D02*
X6429706Y-24733984D01*
X6429706Y-24733984D02*
X6553515Y-24733984D01*
X6620182Y-24533984D02*
X6743991Y-24533984D01*
X6743991Y-24533984D02*
X6677325Y-24610174D01*
X6677325Y-24610174D02*
X6705896Y-24610174D01*
X6705896Y-24610174D02*
X6724944Y-24619698D01*
X6724944Y-24619698D02*
X6734467Y-24629222D01*
X6734467Y-24629222D02*
X6743991Y-24648269D01*
X6743991Y-24648269D02*
X6743991Y-24695888D01*
X6743991Y-24695888D02*
X6734467Y-24714936D01*
X6734467Y-24714936D02*
X6724944Y-24724460D01*
X6724944Y-24724460D02*
X6705896Y-24733984D01*
X6705896Y-24733984D02*
X6648753Y-24733984D01*
X6648753Y-24733984D02*
X6629706Y-24724460D01*
X6629706Y-24724460D02*
X6620182Y-24714936D01*
X6915420Y-24533984D02*
X6877325Y-24533984D01*
X6877325Y-24533984D02*
X6858277Y-24543508D01*
X6858277Y-24543508D02*
X6848753Y-24553031D01*
X6848753Y-24553031D02*
X6829706Y-24581603D01*
X6829706Y-24581603D02*
X6820182Y-24619698D01*
X6820182Y-24619698D02*
X6820182Y-24695888D01*
X6820182Y-24695888D02*
X6829706Y-24714936D01*
X6829706Y-24714936D02*
X6839229Y-24724460D01*
X6839229Y-24724460D02*
X6858277Y-24733984D01*
X6858277Y-24733984D02*
X6896372Y-24733984D01*
X6896372Y-24733984D02*
X6915420Y-24724460D01*
X6915420Y-24724460D02*
X6924944Y-24714936D01*
X6924944Y-24714936D02*
X6934467Y-24695888D01*
X6934467Y-24695888D02*
X6934467Y-24648269D01*
X6934467Y-24648269D02*
X6924944Y-24629222D01*
X6924944Y-24629222D02*
X6915420Y-24619698D01*
X6915420Y-24619698D02*
X6896372Y-24610174D01*
X6896372Y-24610174D02*
X6858277Y-24610174D01*
X6858277Y-24610174D02*
X6839229Y-24619698D01*
X6839229Y-24619698D02*
X6829706Y-24629222D01*
X6829706Y-24629222D02*
X6820182Y-24648269D01*
X7010658Y-24553031D02*
X7020182Y-24543508D01*
X7020182Y-24543508D02*
X7039229Y-24533984D01*
X7039229Y-24533984D02*
X7086848Y-24533984D01*
X7086848Y-24533984D02*
X7105896Y-24543508D01*
X7105896Y-24543508D02*
X7115420Y-24553031D01*
X7115420Y-24553031D02*
X7124944Y-24572079D01*
X7124944Y-24572079D02*
X7124944Y-24591127D01*
X7124944Y-24591127D02*
X7115420Y-24619698D01*
X7115420Y-24619698D02*
X7001134Y-24733984D01*
X7001134Y-24733984D02*
X7124944Y-24733984D01*
X7201134Y-24533984D02*
X7201134Y-24572079D01*
X7277325Y-24533984D02*
X7277325Y-24572079D01*
X7572563Y-24810174D02*
X7563039Y-24800650D01*
X7563039Y-24800650D02*
X7543991Y-24772079D01*
X7543991Y-24772079D02*
X7534468Y-24753031D01*
X7534468Y-24753031D02*
X7524944Y-24724460D01*
X7524944Y-24724460D02*
X7515420Y-24676841D01*
X7515420Y-24676841D02*
X7515420Y-24638746D01*
X7515420Y-24638746D02*
X7524944Y-24591127D01*
X7524944Y-24591127D02*
X7534468Y-24562555D01*
X7534468Y-24562555D02*
X7543991Y-24543508D01*
X7543991Y-24543508D02*
X7563039Y-24514936D01*
X7563039Y-24514936D02*
X7572563Y-24505412D01*
X7753515Y-24733984D02*
X7639229Y-24733984D01*
X7696372Y-24733984D02*
X7696372Y-24533984D01*
X7696372Y-24533984D02*
X7677325Y-24562555D01*
X7677325Y-24562555D02*
X7658277Y-24581603D01*
X7658277Y-24581603D02*
X7639229Y-24591127D01*
X7991610Y-24733984D02*
X7991610Y-24533984D01*
X8077325Y-24733984D02*
X8077325Y-24629222D01*
X8077325Y-24629222D02*
X8067801Y-24610174D01*
X8067801Y-24610174D02*
X8048753Y-24600650D01*
X8048753Y-24600650D02*
X8020182Y-24600650D01*
X8020182Y-24600650D02*
X8001134Y-24610174D01*
X8001134Y-24610174D02*
X7991610Y-24619698D01*
X8201134Y-24733984D02*
X8182087Y-24724460D01*
X8182087Y-24724460D02*
X8172563Y-24714936D01*
X8172563Y-24714936D02*
X8163039Y-24695888D01*
X8163039Y-24695888D02*
X8163039Y-24638746D01*
X8163039Y-24638746D02*
X8172563Y-24619698D01*
X8172563Y-24619698D02*
X8182087Y-24610174D01*
X8182087Y-24610174D02*
X8201134Y-24600650D01*
X8201134Y-24600650D02*
X8229706Y-24600650D01*
X8229706Y-24600650D02*
X8248753Y-24610174D01*
X8248753Y-24610174D02*
X8258277Y-24619698D01*
X8258277Y-24619698D02*
X8267801Y-24638746D01*
X8267801Y-24638746D02*
X8267801Y-24695888D01*
X8267801Y-24695888D02*
X8258277Y-24714936D01*
X8258277Y-24714936D02*
X8248753Y-24724460D01*
X8248753Y-24724460D02*
X8229706Y-24733984D01*
X8229706Y-24733984D02*
X8201134Y-24733984D01*
X8382087Y-24733984D02*
X8363039Y-24724460D01*
X8363039Y-24724460D02*
X8353515Y-24705412D01*
X8353515Y-24705412D02*
X8353515Y-24533984D01*
X8534468Y-24724460D02*
X8515420Y-24733984D01*
X8515420Y-24733984D02*
X8477325Y-24733984D01*
X8477325Y-24733984D02*
X8458277Y-24724460D01*
X8458277Y-24724460D02*
X8448753Y-24705412D01*
X8448753Y-24705412D02*
X8448753Y-24629222D01*
X8448753Y-24629222D02*
X8458277Y-24610174D01*
X8458277Y-24610174D02*
X8477325Y-24600650D01*
X8477325Y-24600650D02*
X8515420Y-24600650D01*
X8515420Y-24600650D02*
X8534468Y-24610174D01*
X8534468Y-24610174D02*
X8543992Y-24629222D01*
X8543992Y-24629222D02*
X8543992Y-24648269D01*
X8543992Y-24648269D02*
X8448753Y-24667317D01*
X8610658Y-24810174D02*
X8620182Y-24800650D01*
X8620182Y-24800650D02*
X8639230Y-24772079D01*
X8639230Y-24772079D02*
X8648753Y-24753031D01*
X8648753Y-24753031D02*
X8658277Y-24724460D01*
X8658277Y-24724460D02*
X8667801Y-24676841D01*
X8667801Y-24676841D02*
X8667801Y-24638746D01*
X8667801Y-24638746D02*
X8658277Y-24591127D01*
X8658277Y-24591127D02*
X8648753Y-24562555D01*
X8648753Y-24562555D02*
X8639230Y-24543508D01*
X8639230Y-24543508D02*
X8620182Y-24514936D01*
X8620182Y-24514936D02*
X8610658Y-24505412D01*
X8972563Y-24810174D02*
X8963039Y-24800650D01*
X8963039Y-24800650D02*
X8943992Y-24772079D01*
X8943992Y-24772079D02*
X8934468Y-24753031D01*
X8934468Y-24753031D02*
X8924944Y-24724460D01*
X8924944Y-24724460D02*
X8915420Y-24676841D01*
X8915420Y-24676841D02*
X8915420Y-24638746D01*
X8915420Y-24638746D02*
X8924944Y-24591127D01*
X8924944Y-24591127D02*
X8934468Y-24562555D01*
X8934468Y-24562555D02*
X8943992Y-24543508D01*
X8943992Y-24543508D02*
X8963039Y-24514936D01*
X8963039Y-24514936D02*
X8972563Y-24505412D01*
X9048753Y-24600650D02*
X9048753Y-24733984D01*
X9048753Y-24619698D02*
X9058277Y-24610174D01*
X9058277Y-24610174D02*
X9077325Y-24600650D01*
X9077325Y-24600650D02*
X9105896Y-24600650D01*
X9105896Y-24600650D02*
X9124944Y-24610174D01*
X9124944Y-24610174D02*
X9134468Y-24629222D01*
X9134468Y-24629222D02*
X9134468Y-24733984D01*
X9258277Y-24733984D02*
X9239230Y-24724460D01*
X9239230Y-24724460D02*
X9229706Y-24714936D01*
X9229706Y-24714936D02*
X9220182Y-24695888D01*
X9220182Y-24695888D02*
X9220182Y-24638746D01*
X9220182Y-24638746D02*
X9229706Y-24619698D01*
X9229706Y-24619698D02*
X9239230Y-24610174D01*
X9239230Y-24610174D02*
X9258277Y-24600650D01*
X9258277Y-24600650D02*
X9286849Y-24600650D01*
X9286849Y-24600650D02*
X9305896Y-24610174D01*
X9305896Y-24610174D02*
X9315420Y-24619698D01*
X9315420Y-24619698D02*
X9324944Y-24638746D01*
X9324944Y-24638746D02*
X9324944Y-24695888D01*
X9324944Y-24695888D02*
X9315420Y-24714936D01*
X9315420Y-24714936D02*
X9305896Y-24724460D01*
X9305896Y-24724460D02*
X9286849Y-24733984D01*
X9286849Y-24733984D02*
X9258277Y-24733984D01*
X9382087Y-24600650D02*
X9458277Y-24600650D01*
X9410658Y-24533984D02*
X9410658Y-24705412D01*
X9410658Y-24705412D02*
X9420182Y-24724460D01*
X9420182Y-24724460D02*
X9439230Y-24733984D01*
X9439230Y-24733984D02*
X9458277Y-24733984D01*
X9677325Y-24600650D02*
X9677325Y-24800650D01*
X9677325Y-24610174D02*
X9696373Y-24600650D01*
X9696373Y-24600650D02*
X9734468Y-24600650D01*
X9734468Y-24600650D02*
X9753515Y-24610174D01*
X9753515Y-24610174D02*
X9763039Y-24619698D01*
X9763039Y-24619698D02*
X9772563Y-24638746D01*
X9772563Y-24638746D02*
X9772563Y-24695888D01*
X9772563Y-24695888D02*
X9763039Y-24714936D01*
X9763039Y-24714936D02*
X9753515Y-24724460D01*
X9753515Y-24724460D02*
X9734468Y-24733984D01*
X9734468Y-24733984D02*
X9696373Y-24733984D01*
X9696373Y-24733984D02*
X9677325Y-24724460D01*
X9886849Y-24733984D02*
X9867801Y-24724460D01*
X9867801Y-24724460D02*
X9858277Y-24705412D01*
X9858277Y-24705412D02*
X9858277Y-24533984D01*
X10048754Y-24733984D02*
X10048754Y-24629222D01*
X10048754Y-24629222D02*
X10039230Y-24610174D01*
X10039230Y-24610174D02*
X10020182Y-24600650D01*
X10020182Y-24600650D02*
X9982087Y-24600650D01*
X9982087Y-24600650D02*
X9963039Y-24610174D01*
X10048754Y-24724460D02*
X10029706Y-24733984D01*
X10029706Y-24733984D02*
X9982087Y-24733984D01*
X9982087Y-24733984D02*
X9963039Y-24724460D01*
X9963039Y-24724460D02*
X9953515Y-24705412D01*
X9953515Y-24705412D02*
X9953515Y-24686365D01*
X9953515Y-24686365D02*
X9963039Y-24667317D01*
X9963039Y-24667317D02*
X9982087Y-24657793D01*
X9982087Y-24657793D02*
X10029706Y-24657793D01*
X10029706Y-24657793D02*
X10048754Y-24648269D01*
X10115420Y-24600650D02*
X10191611Y-24600650D01*
X10143992Y-24533984D02*
X10143992Y-24705412D01*
X10143992Y-24705412D02*
X10153515Y-24724460D01*
X10153515Y-24724460D02*
X10172563Y-24733984D01*
X10172563Y-24733984D02*
X10191611Y-24733984D01*
X10334468Y-24724460D02*
X10315420Y-24733984D01*
X10315420Y-24733984D02*
X10277325Y-24733984D01*
X10277325Y-24733984D02*
X10258277Y-24724460D01*
X10258277Y-24724460D02*
X10248754Y-24705412D01*
X10248754Y-24705412D02*
X10248754Y-24629222D01*
X10248754Y-24629222D02*
X10258277Y-24610174D01*
X10258277Y-24610174D02*
X10277325Y-24600650D01*
X10277325Y-24600650D02*
X10315420Y-24600650D01*
X10315420Y-24600650D02*
X10334468Y-24610174D01*
X10334468Y-24610174D02*
X10343992Y-24629222D01*
X10343992Y-24629222D02*
X10343992Y-24648269D01*
X10343992Y-24648269D02*
X10248754Y-24667317D01*
X10515420Y-24733984D02*
X10515420Y-24533984D01*
X10515420Y-24724460D02*
X10496373Y-24733984D01*
X10496373Y-24733984D02*
X10458277Y-24733984D01*
X10458277Y-24733984D02*
X10439230Y-24724460D01*
X10439230Y-24724460D02*
X10429706Y-24714936D01*
X10429706Y-24714936D02*
X10420182Y-24695888D01*
X10420182Y-24695888D02*
X10420182Y-24638746D01*
X10420182Y-24638746D02*
X10429706Y-24619698D01*
X10429706Y-24619698D02*
X10439230Y-24610174D01*
X10439230Y-24610174D02*
X10458277Y-24600650D01*
X10458277Y-24600650D02*
X10496373Y-24600650D01*
X10496373Y-24600650D02*
X10515420Y-24610174D01*
X10591611Y-24810174D02*
X10601135Y-24800650D01*
X10601135Y-24800650D02*
X10620182Y-24772079D01*
X10620182Y-24772079D02*
X10629706Y-24753031D01*
X10629706Y-24753031D02*
X10639230Y-24724460D01*
X10639230Y-24724460D02*
X10648754Y-24676841D01*
X10648754Y-24676841D02*
X10648754Y-24638746D01*
X10648754Y-24638746D02*
X10639230Y-24591127D01*
X10639230Y-24591127D02*
X10629706Y-24562555D01*
X10629706Y-24562555D02*
X10620182Y-24543508D01*
X10620182Y-24543508D02*
X10601135Y-24514936D01*
X10601135Y-24514936D02*
X10591611Y-24505412D01*
X3997500Y-24962500D02*
G75*
G03*
X3997500Y-24962500I-100000J0D01*
G01*
X4363039Y-25053984D02*
X4248753Y-25053984D01*
X4305896Y-25053984D02*
X4305896Y-24853984D01*
X4305896Y-24853984D02*
X4286848Y-24882555D01*
X4286848Y-24882555D02*
X4267801Y-24901603D01*
X4267801Y-24901603D02*
X4248753Y-24911127D01*
X4439229Y-24873031D02*
X4448753Y-24863508D01*
X4448753Y-24863508D02*
X4467801Y-24853984D01*
X4467801Y-24853984D02*
X4515420Y-24853984D01*
X4515420Y-24853984D02*
X4534467Y-24863508D01*
X4534467Y-24863508D02*
X4543991Y-24873031D01*
X4543991Y-24873031D02*
X4553515Y-24892079D01*
X4553515Y-24892079D02*
X4553515Y-24911127D01*
X4553515Y-24911127D02*
X4543991Y-24939698D01*
X4543991Y-24939698D02*
X4429705Y-25053984D01*
X4429705Y-25053984D02*
X4553515Y-25053984D01*
X4639229Y-25034936D02*
X4648753Y-25044460D01*
X4648753Y-25044460D02*
X4639229Y-25053984D01*
X4639229Y-25053984D02*
X4629705Y-25044460D01*
X4629705Y-25044460D02*
X4639229Y-25034936D01*
X4639229Y-25034936D02*
X4639229Y-25053984D01*
X4772563Y-24853984D02*
X4791610Y-24853984D01*
X4791610Y-24853984D02*
X4810658Y-24863508D01*
X4810658Y-24863508D02*
X4820182Y-24873031D01*
X4820182Y-24873031D02*
X4829705Y-24892079D01*
X4829705Y-24892079D02*
X4839229Y-24930174D01*
X4839229Y-24930174D02*
X4839229Y-24977793D01*
X4839229Y-24977793D02*
X4829705Y-25015888D01*
X4829705Y-25015888D02*
X4820182Y-25034936D01*
X4820182Y-25034936D02*
X4810658Y-25044460D01*
X4810658Y-25044460D02*
X4791610Y-25053984D01*
X4791610Y-25053984D02*
X4772563Y-25053984D01*
X4772563Y-25053984D02*
X4753515Y-25044460D01*
X4753515Y-25044460D02*
X4743991Y-25034936D01*
X4743991Y-25034936D02*
X4734467Y-25015888D01*
X4734467Y-25015888D02*
X4724944Y-24977793D01*
X4724944Y-24977793D02*
X4724944Y-24930174D01*
X4724944Y-24930174D02*
X4734467Y-24892079D01*
X4734467Y-24892079D02*
X4743991Y-24873031D01*
X4743991Y-24873031D02*
X4753515Y-24863508D01*
X4753515Y-24863508D02*
X4772563Y-24853984D01*
X4963039Y-24853984D02*
X4982086Y-24853984D01*
X4982086Y-24853984D02*
X5001134Y-24863508D01*
X5001134Y-24863508D02*
X5010658Y-24873031D01*
X5010658Y-24873031D02*
X5020182Y-24892079D01*
X5020182Y-24892079D02*
X5029705Y-24930174D01*
X5029705Y-24930174D02*
X5029705Y-24977793D01*
X5029705Y-24977793D02*
X5020182Y-25015888D01*
X5020182Y-25015888D02*
X5010658Y-25034936D01*
X5010658Y-25034936D02*
X5001134Y-25044460D01*
X5001134Y-25044460D02*
X4982086Y-25053984D01*
X4982086Y-25053984D02*
X4963039Y-25053984D01*
X4963039Y-25053984D02*
X4943991Y-25044460D01*
X4943991Y-25044460D02*
X4934467Y-25034936D01*
X4934467Y-25034936D02*
X4924944Y-25015888D01*
X4924944Y-25015888D02*
X4915420Y-24977793D01*
X4915420Y-24977793D02*
X4915420Y-24930174D01*
X4915420Y-24930174D02*
X4924944Y-24892079D01*
X4924944Y-24892079D02*
X4934467Y-24873031D01*
X4934467Y-24873031D02*
X4943991Y-24863508D01*
X4943991Y-24863508D02*
X4963039Y-24853984D01*
X5153515Y-24853984D02*
X5172563Y-24853984D01*
X5172563Y-24853984D02*
X5191610Y-24863508D01*
X5191610Y-24863508D02*
X5201134Y-24873031D01*
X5201134Y-24873031D02*
X5210658Y-24892079D01*
X5210658Y-24892079D02*
X5220182Y-24930174D01*
X5220182Y-24930174D02*
X5220182Y-24977793D01*
X5220182Y-24977793D02*
X5210658Y-25015888D01*
X5210658Y-25015888D02*
X5201134Y-25034936D01*
X5201134Y-25034936D02*
X5191610Y-25044460D01*
X5191610Y-25044460D02*
X5172563Y-25053984D01*
X5172563Y-25053984D02*
X5153515Y-25053984D01*
X5153515Y-25053984D02*
X5134467Y-25044460D01*
X5134467Y-25044460D02*
X5124944Y-25034936D01*
X5124944Y-25034936D02*
X5115420Y-25015888D01*
X5115420Y-25015888D02*
X5105896Y-24977793D01*
X5105896Y-24977793D02*
X5105896Y-24930174D01*
X5105896Y-24930174D02*
X5115420Y-24892079D01*
X5115420Y-24892079D02*
X5124944Y-24873031D01*
X5124944Y-24873031D02*
X5134467Y-24863508D01*
X5134467Y-24863508D02*
X5153515Y-24853984D01*
X5305896Y-25053984D02*
X5305896Y-24920650D01*
X5305896Y-24939698D02*
X5315420Y-24930174D01*
X5315420Y-24930174D02*
X5334467Y-24920650D01*
X5334467Y-24920650D02*
X5363039Y-24920650D01*
X5363039Y-24920650D02*
X5382086Y-24930174D01*
X5382086Y-24930174D02*
X5391610Y-24949222D01*
X5391610Y-24949222D02*
X5391610Y-25053984D01*
X5391610Y-24949222D02*
X5401134Y-24930174D01*
X5401134Y-24930174D02*
X5420182Y-24920650D01*
X5420182Y-24920650D02*
X5448753Y-24920650D01*
X5448753Y-24920650D02*
X5467801Y-24930174D01*
X5467801Y-24930174D02*
X5477325Y-24949222D01*
X5477325Y-24949222D02*
X5477325Y-25053984D01*
X5572563Y-25053984D02*
X5572563Y-24920650D01*
X5572563Y-24939698D02*
X5582086Y-24930174D01*
X5582086Y-24930174D02*
X5601134Y-24920650D01*
X5601134Y-24920650D02*
X5629705Y-24920650D01*
X5629705Y-24920650D02*
X5648753Y-24930174D01*
X5648753Y-24930174D02*
X5658277Y-24949222D01*
X5658277Y-24949222D02*
X5658277Y-25053984D01*
X5658277Y-24949222D02*
X5667801Y-24930174D01*
X5667801Y-24930174D02*
X5686848Y-24920650D01*
X5686848Y-24920650D02*
X5715420Y-24920650D01*
X5715420Y-24920650D02*
X5734467Y-24930174D01*
X5734467Y-24930174D02*
X5743991Y-24949222D01*
X5743991Y-24949222D02*
X5743991Y-25053984D01*
X6134467Y-24844460D02*
X5963039Y-25101603D01*
X6391610Y-24853984D02*
X6410658Y-24853984D01*
X6410658Y-24853984D02*
X6429706Y-24863508D01*
X6429706Y-24863508D02*
X6439229Y-24873031D01*
X6439229Y-24873031D02*
X6448753Y-24892079D01*
X6448753Y-24892079D02*
X6458277Y-24930174D01*
X6458277Y-24930174D02*
X6458277Y-24977793D01*
X6458277Y-24977793D02*
X6448753Y-25015888D01*
X6448753Y-25015888D02*
X6439229Y-25034936D01*
X6439229Y-25034936D02*
X6429706Y-25044460D01*
X6429706Y-25044460D02*
X6410658Y-25053984D01*
X6410658Y-25053984D02*
X6391610Y-25053984D01*
X6391610Y-25053984D02*
X6372563Y-25044460D01*
X6372563Y-25044460D02*
X6363039Y-25034936D01*
X6363039Y-25034936D02*
X6353515Y-25015888D01*
X6353515Y-25015888D02*
X6343991Y-24977793D01*
X6343991Y-24977793D02*
X6343991Y-24930174D01*
X6343991Y-24930174D02*
X6353515Y-24892079D01*
X6353515Y-24892079D02*
X6363039Y-24873031D01*
X6363039Y-24873031D02*
X6372563Y-24863508D01*
X6372563Y-24863508D02*
X6391610Y-24853984D01*
X6543991Y-25034936D02*
X6553515Y-25044460D01*
X6553515Y-25044460D02*
X6543991Y-25053984D01*
X6543991Y-25053984D02*
X6534467Y-25044460D01*
X6534467Y-25044460D02*
X6543991Y-25034936D01*
X6543991Y-25034936D02*
X6543991Y-25053984D01*
X6724944Y-24920650D02*
X6724944Y-25053984D01*
X6677325Y-24844460D02*
X6629706Y-24987317D01*
X6629706Y-24987317D02*
X6753515Y-24987317D01*
X6810658Y-24853984D02*
X6943991Y-24853984D01*
X6943991Y-24853984D02*
X6858277Y-25053984D01*
X7010658Y-24873031D02*
X7020182Y-24863508D01*
X7020182Y-24863508D02*
X7039229Y-24853984D01*
X7039229Y-24853984D02*
X7086848Y-24853984D01*
X7086848Y-24853984D02*
X7105896Y-24863508D01*
X7105896Y-24863508D02*
X7115420Y-24873031D01*
X7115420Y-24873031D02*
X7124944Y-24892079D01*
X7124944Y-24892079D02*
X7124944Y-24911127D01*
X7124944Y-24911127D02*
X7115420Y-24939698D01*
X7115420Y-24939698D02*
X7001134Y-25053984D01*
X7001134Y-25053984D02*
X7124944Y-25053984D01*
X7296372Y-24920650D02*
X7296372Y-25053984D01*
X7248753Y-24844460D02*
X7201134Y-24987317D01*
X7201134Y-24987317D02*
X7324944Y-24987317D01*
X7391610Y-24853984D02*
X7391610Y-24892079D01*
X7467801Y-24853984D02*
X7467801Y-24892079D01*
X7763039Y-25130174D02*
X7753515Y-25120650D01*
X7753515Y-25120650D02*
X7734468Y-25092079D01*
X7734468Y-25092079D02*
X7724944Y-25073031D01*
X7724944Y-25073031D02*
X7715420Y-25044460D01*
X7715420Y-25044460D02*
X7705896Y-24996841D01*
X7705896Y-24996841D02*
X7705896Y-24958746D01*
X7705896Y-24958746D02*
X7715420Y-24911127D01*
X7715420Y-24911127D02*
X7724944Y-24882555D01*
X7724944Y-24882555D02*
X7734468Y-24863508D01*
X7734468Y-24863508D02*
X7753515Y-24834936D01*
X7753515Y-24834936D02*
X7763039Y-24825412D01*
X7924944Y-24920650D02*
X7924944Y-25053984D01*
X7877325Y-24844460D02*
X7829706Y-24987317D01*
X7829706Y-24987317D02*
X7953515Y-24987317D01*
X8182087Y-25053984D02*
X8182087Y-24853984D01*
X8267801Y-25053984D02*
X8267801Y-24949222D01*
X8267801Y-24949222D02*
X8258277Y-24930174D01*
X8258277Y-24930174D02*
X8239230Y-24920650D01*
X8239230Y-24920650D02*
X8210658Y-24920650D01*
X8210658Y-24920650D02*
X8191610Y-24930174D01*
X8191610Y-24930174D02*
X8182087Y-24939698D01*
X8391611Y-25053984D02*
X8372563Y-25044460D01*
X8372563Y-25044460D02*
X8363039Y-25034936D01*
X8363039Y-25034936D02*
X8353515Y-25015888D01*
X8353515Y-25015888D02*
X8353515Y-24958746D01*
X8353515Y-24958746D02*
X8363039Y-24939698D01*
X8363039Y-24939698D02*
X8372563Y-24930174D01*
X8372563Y-24930174D02*
X8391611Y-24920650D01*
X8391611Y-24920650D02*
X8420182Y-24920650D01*
X8420182Y-24920650D02*
X8439230Y-24930174D01*
X8439230Y-24930174D02*
X8448753Y-24939698D01*
X8448753Y-24939698D02*
X8458277Y-24958746D01*
X8458277Y-24958746D02*
X8458277Y-25015888D01*
X8458277Y-25015888D02*
X8448753Y-25034936D01*
X8448753Y-25034936D02*
X8439230Y-25044460D01*
X8439230Y-25044460D02*
X8420182Y-25053984D01*
X8420182Y-25053984D02*
X8391611Y-25053984D01*
X8572563Y-25053984D02*
X8553515Y-25044460D01*
X8553515Y-25044460D02*
X8543992Y-25025412D01*
X8543992Y-25025412D02*
X8543992Y-24853984D01*
X8724944Y-25044460D02*
X8705896Y-25053984D01*
X8705896Y-25053984D02*
X8667801Y-25053984D01*
X8667801Y-25053984D02*
X8648753Y-25044460D01*
X8648753Y-25044460D02*
X8639230Y-25025412D01*
X8639230Y-25025412D02*
X8639230Y-24949222D01*
X8639230Y-24949222D02*
X8648753Y-24930174D01*
X8648753Y-24930174D02*
X8667801Y-24920650D01*
X8667801Y-24920650D02*
X8705896Y-24920650D01*
X8705896Y-24920650D02*
X8724944Y-24930174D01*
X8724944Y-24930174D02*
X8734468Y-24949222D01*
X8734468Y-24949222D02*
X8734468Y-24968269D01*
X8734468Y-24968269D02*
X8639230Y-24987317D01*
X8810658Y-25044460D02*
X8829706Y-25053984D01*
X8829706Y-25053984D02*
X8867801Y-25053984D01*
X8867801Y-25053984D02*
X8886849Y-25044460D01*
X8886849Y-25044460D02*
X8896373Y-25025412D01*
X8896373Y-25025412D02*
X8896373Y-25015888D01*
X8896373Y-25015888D02*
X8886849Y-24996841D01*
X8886849Y-24996841D02*
X8867801Y-24987317D01*
X8867801Y-24987317D02*
X8839230Y-24987317D01*
X8839230Y-24987317D02*
X8820182Y-24977793D01*
X8820182Y-24977793D02*
X8810658Y-24958746D01*
X8810658Y-24958746D02*
X8810658Y-24949222D01*
X8810658Y-24949222D02*
X8820182Y-24930174D01*
X8820182Y-24930174D02*
X8839230Y-24920650D01*
X8839230Y-24920650D02*
X8867801Y-24920650D01*
X8867801Y-24920650D02*
X8886849Y-24930174D01*
X8963039Y-25130174D02*
X8972563Y-25120650D01*
X8972563Y-25120650D02*
X8991611Y-25092079D01*
X8991611Y-25092079D02*
X9001134Y-25073031D01*
X9001134Y-25073031D02*
X9010658Y-25044460D01*
X9010658Y-25044460D02*
X9020182Y-24996841D01*
X9020182Y-24996841D02*
X9020182Y-24958746D01*
X9020182Y-24958746D02*
X9010658Y-24911127D01*
X9010658Y-24911127D02*
X9001134Y-24882555D01*
X9001134Y-24882555D02*
X8991611Y-24863508D01*
X8991611Y-24863508D02*
X8972563Y-24834936D01*
X8972563Y-24834936D02*
X8963039Y-24825412D01*
X9324944Y-25130174D02*
X9315420Y-25120650D01*
X9315420Y-25120650D02*
X9296373Y-25092079D01*
X9296373Y-25092079D02*
X9286849Y-25073031D01*
X9286849Y-25073031D02*
X9277325Y-25044460D01*
X9277325Y-25044460D02*
X9267801Y-24996841D01*
X9267801Y-24996841D02*
X9267801Y-24958746D01*
X9267801Y-24958746D02*
X9277325Y-24911127D01*
X9277325Y-24911127D02*
X9286849Y-24882555D01*
X9286849Y-24882555D02*
X9296373Y-24863508D01*
X9296373Y-24863508D02*
X9315420Y-24834936D01*
X9315420Y-24834936D02*
X9324944Y-24825412D01*
X9401134Y-24920650D02*
X9401134Y-25053984D01*
X9401134Y-24939698D02*
X9410658Y-24930174D01*
X9410658Y-24930174D02*
X9429706Y-24920650D01*
X9429706Y-24920650D02*
X9458277Y-24920650D01*
X9458277Y-24920650D02*
X9477325Y-24930174D01*
X9477325Y-24930174D02*
X9486849Y-24949222D01*
X9486849Y-24949222D02*
X9486849Y-25053984D01*
X9610658Y-25053984D02*
X9591611Y-25044460D01*
X9591611Y-25044460D02*
X9582087Y-25034936D01*
X9582087Y-25034936D02*
X9572563Y-25015888D01*
X9572563Y-25015888D02*
X9572563Y-24958746D01*
X9572563Y-24958746D02*
X9582087Y-24939698D01*
X9582087Y-24939698D02*
X9591611Y-24930174D01*
X9591611Y-24930174D02*
X9610658Y-24920650D01*
X9610658Y-24920650D02*
X9639230Y-24920650D01*
X9639230Y-24920650D02*
X9658277Y-24930174D01*
X9658277Y-24930174D02*
X9667801Y-24939698D01*
X9667801Y-24939698D02*
X9677325Y-24958746D01*
X9677325Y-24958746D02*
X9677325Y-25015888D01*
X9677325Y-25015888D02*
X9667801Y-25034936D01*
X9667801Y-25034936D02*
X9658277Y-25044460D01*
X9658277Y-25044460D02*
X9639230Y-25053984D01*
X9639230Y-25053984D02*
X9610658Y-25053984D01*
X9734468Y-24920650D02*
X9810658Y-24920650D01*
X9763039Y-24853984D02*
X9763039Y-25025412D01*
X9763039Y-25025412D02*
X9772563Y-25044460D01*
X9772563Y-25044460D02*
X9791611Y-25053984D01*
X9791611Y-25053984D02*
X9810658Y-25053984D01*
X10029706Y-24920650D02*
X10029706Y-25120650D01*
X10029706Y-24930174D02*
X10048754Y-24920650D01*
X10048754Y-24920650D02*
X10086849Y-24920650D01*
X10086849Y-24920650D02*
X10105896Y-24930174D01*
X10105896Y-24930174D02*
X10115420Y-24939698D01*
X10115420Y-24939698D02*
X10124944Y-24958746D01*
X10124944Y-24958746D02*
X10124944Y-25015888D01*
X10124944Y-25015888D02*
X10115420Y-25034936D01*
X10115420Y-25034936D02*
X10105896Y-25044460D01*
X10105896Y-25044460D02*
X10086849Y-25053984D01*
X10086849Y-25053984D02*
X10048754Y-25053984D01*
X10048754Y-25053984D02*
X10029706Y-25044460D01*
X10239230Y-25053984D02*
X10220182Y-25044460D01*
X10220182Y-25044460D02*
X10210658Y-25025412D01*
X10210658Y-25025412D02*
X10210658Y-24853984D01*
X10401135Y-25053984D02*
X10401135Y-24949222D01*
X10401135Y-24949222D02*
X10391611Y-24930174D01*
X10391611Y-24930174D02*
X10372563Y-24920650D01*
X10372563Y-24920650D02*
X10334468Y-24920650D01*
X10334468Y-24920650D02*
X10315420Y-24930174D01*
X10401135Y-25044460D02*
X10382087Y-25053984D01*
X10382087Y-25053984D02*
X10334468Y-25053984D01*
X10334468Y-25053984D02*
X10315420Y-25044460D01*
X10315420Y-25044460D02*
X10305896Y-25025412D01*
X10305896Y-25025412D02*
X10305896Y-25006365D01*
X10305896Y-25006365D02*
X10315420Y-24987317D01*
X10315420Y-24987317D02*
X10334468Y-24977793D01*
X10334468Y-24977793D02*
X10382087Y-24977793D01*
X10382087Y-24977793D02*
X10401135Y-24968269D01*
X10467801Y-24920650D02*
X10543992Y-24920650D01*
X10496373Y-24853984D02*
X10496373Y-25025412D01*
X10496373Y-25025412D02*
X10505896Y-25044460D01*
X10505896Y-25044460D02*
X10524944Y-25053984D01*
X10524944Y-25053984D02*
X10543992Y-25053984D01*
X10686849Y-25044460D02*
X10667801Y-25053984D01*
X10667801Y-25053984D02*
X10629706Y-25053984D01*
X10629706Y-25053984D02*
X10610658Y-25044460D01*
X10610658Y-25044460D02*
X10601135Y-25025412D01*
X10601135Y-25025412D02*
X10601135Y-24949222D01*
X10601135Y-24949222D02*
X10610658Y-24930174D01*
X10610658Y-24930174D02*
X10629706Y-24920650D01*
X10629706Y-24920650D02*
X10667801Y-24920650D01*
X10667801Y-24920650D02*
X10686849Y-24930174D01*
X10686849Y-24930174D02*
X10696373Y-24949222D01*
X10696373Y-24949222D02*
X10696373Y-24968269D01*
X10696373Y-24968269D02*
X10601135Y-24987317D01*
X10867801Y-25053984D02*
X10867801Y-24853984D01*
X10867801Y-25044460D02*
X10848754Y-25053984D01*
X10848754Y-25053984D02*
X10810658Y-25053984D01*
X10810658Y-25053984D02*
X10791611Y-25044460D01*
X10791611Y-25044460D02*
X10782087Y-25034936D01*
X10782087Y-25034936D02*
X10772563Y-25015888D01*
X10772563Y-25015888D02*
X10772563Y-24958746D01*
X10772563Y-24958746D02*
X10782087Y-24939698D01*
X10782087Y-24939698D02*
X10791611Y-24930174D01*
X10791611Y-24930174D02*
X10810658Y-24920650D01*
X10810658Y-24920650D02*
X10848754Y-24920650D01*
X10848754Y-24920650D02*
X10867801Y-24930174D01*
X10943992Y-25130174D02*
X10953516Y-25120650D01*
X10953516Y-25120650D02*
X10972563Y-25092079D01*
X10972563Y-25092079D02*
X10982087Y-25073031D01*
X10982087Y-25073031D02*
X10991611Y-25044460D01*
X10991611Y-25044460D02*
X11001135Y-24996841D01*
X11001135Y-24996841D02*
X11001135Y-24958746D01*
X11001135Y-24958746D02*
X10991611Y-24911127D01*
X10991611Y-24911127D02*
X10982087Y-24882555D01*
X10982087Y-24882555D02*
X10972563Y-24863508D01*
X10972563Y-24863508D02*
X10953516Y-24834936D01*
X10953516Y-24834936D02*
X10943992Y-24825412D01*
M02*
