<?xml version="1.0" encoding="UTF-8" standalone="no"?>
<!DOCTYPE svg PUBLIC "-//W3C//DTD SVG 1.1//EN" "http://www.w3.org/Graphics/SVG/1.1/DTD/svg11.dtd">
<svg width="100%" height="100%" viewBox="0 0 2340 4679" version="1.1" xmlns="http://www.w3.org/2000/svg" xmlns:xlink="http://www.w3.org/1999/xlink" xml:space="preserve" xmlns:serif="http://www.serif.com/" style="fill-rule:evenodd;clip-rule:evenodd;stroke-linecap:round;stroke-linejoin:round;stroke-miterlimit:1.5;">
    <g transform="matrix(0.974956,0,0,0.974956,166.427,183.778)">
        <rect x="-741.385" y="-277.781" width="3498.79" height="5286.93" style="fill:rgb(12,12,12);"/>
    </g>
    <path d="M1026.02,-193.803L1394.53,1988.11L1190.03,2929.48L1530.66,3622.68L1170,5566.77L-210.14,5832.61L-985,2005.99L-281.665,-372.235L1026.02,-193.803Z" style="fill:rgb(5,29,31);stroke:black;stroke-width:1px;"/>
    <g transform="matrix(-1,0,0,1.20101,2462.08,-401.291)">
        <path d="M1933.67,-302.431L1510.48,2030.11L1600.85,2846.69L1272.06,3341.41L1838.3,5004.38L4764.89,4026.42L3310.54,-592.493L2094.6,-324.272" style="fill:rgb(7,38,41);stroke:black;stroke-width:0.9px;"/>
    </g>
    <g transform="matrix(0.724919,0,0,0.724919,294.849,1063.59)">
        <g transform="matrix(-1,1.22465e-16,-1.22465e-16,-1,2232.95,5743.89)">
            <path d="M1110.34,1732.67C1114.9,1726.22 1122.32,1722.37 1130.23,1722.37C1138.14,1722.37 1145.56,1726.22 1150.12,1732.67C1213.47,1822.31 1410.56,2101.2 1483.09,2203.84C1488.35,2211.27 1489.02,2221.01 1484.83,2229.09C1480.64,2237.18 1472.3,2242.25 1463.2,2242.25L797.262,2242.25C788.161,2242.25 779.818,2237.18 775.633,2229.09C771.448,2221.01 772.118,2211.27 777.371,2203.84C849.904,2101.2 1047,1822.31 1110.34,1732.67Z" style="fill:rgb(21,155,165);"/>
        </g>
        <g transform="matrix(1,0,0,1,-137.439,2005.36)">
            <path d="M1223.86,1753.92L1223.86,1753.92L1250.78,1753.92L1322.72,1612.74L1295.79,1612.74L1237.44,1727.26L1149.1,1727.26L1207.45,1612.74L1181.02,1612.74L1109.09,1753.92L1223.86,1753.92ZM1344.67,1693.9L1296.16,1693.9L1296.28,1717.84L1332.44,1717.91L1314.09,1753.92L1341.02,1753.92L1412.95,1612.74L1386.02,1612.74L1344.67,1693.9Z" style="fill:rgb(193,252,0);fill-rule:nonzero;"/>
        </g>
        <g transform="matrix(1.89096,0,0,1.55802,-669.672,626.483)">
            <text x="817.473px" y="2285.31px" style="font-family:'Bahnschrift', sans-serif;font-size:50px;fill:rgb(174,174,174);">S<tspan x="863.259px 903.308px 932.077px 982.087px 1028.92px 1073.81px " y="2285.31px 2285.31px 2285.31px 2285.31px 2285.31px 2285.31px ">TINGER</tspan></text>
        </g>
        <g transform="matrix(1,0,0,1,-137.439,2005.36)">
            <path d="M1388.72,2011.65C1384.54,2017.55 1377.76,2021.06 1370.53,2021.06C1365.74,2021.06 1359.85,2021.06 1353.65,2021.06C1345.32,2021.06 1337.69,2016.42 1333.87,2009.02C1330.04,2001.63 1330.66,1992.71 1335.46,1985.92C1410.78,1879.46 1633.81,1564.22 1675.23,1505.68C1679.4,1499.78 1686.18,1496.28 1693.41,1496.28C1698.21,1496.28 1704.1,1496.28 1710.29,1496.28C1718.62,1496.28 1726.25,1500.92 1730.08,1508.31C1733.91,1515.71 1733.29,1524.62 1728.48,1531.42C1653.16,1637.88 1430.13,1953.11 1388.72,2011.65Z" style="fill:rgb(21,155,165);"/>
        </g>
    </g>
</svg>
