0
SECTION
2
HEADER
9
$INSUNITS
70
4
9
$ACADVER
1
AC1014
9
$HANDSEED
5
FFFF
0
ENDSEC
0
SECTION
2
TABLES
0
TABLE
2
VPORT
5
8
100
AcDbSymbolTable
0
ENDTAB
0
TABLE
2
LTYPE
5
5
100
AcDbSymbolTable
0
LTYPE
5
14
100
AcDbSymbolTableRecord
100
AcDbLinetypeTableRecord
2
BYBLOCK
70
0
0
LTYPE
5
15
100
AcDbSymbolTableRecord
100
AcDbLinetypeTableRecord
2
BYLAYER
70
0
0
ENDTAB
0
TABLE
2
LAYER
5
2
100
AcDbSymbolTable
70
2
0
LAYER
5
50
100
AcDbSymbolTableRecord
100
AcDbLayerTableRecord
2
0
70
0
6
CONTINUOUS
0
ENDTAB
0
TABLE
2
STYLE
5
3
100
AcDbSymbolTable
70
1
0
STYLE
5
11
100
AcDbSymbolTableRecord
100
AcDbTextStyleTableRecord
2
STANDARD
70
0
0
ENDTAB
0
TABLE
2
VIEW
5
6
100
AcDbSymbolTable
70
0
0
ENDTAB
0
TABLE
2
UCS
5
7
100
AcDbSymbolTable
70
0
0
ENDTAB
0
TABLE
2
APPID
5
9
100
AcDbSymbolTable
70
2
0
APPID
5
12
100
AcDbSymbolTableRecord
100
AcDbRegAppTableRecord
2
ACAD
70
0
0
ENDTAB
0
TABLE
2
DIMSTYLE
5
A
100
AcDbSymbolTable
70
1
0
ENDTAB
0
TABLE
2
BLOCK_RECORD
5
1
100
AcDbSymbolTable
70
1
0
BLOCK_RECORD
5
1F
100
AcDbSymbolTableRecord
100
AcDbBlockTableRecord
2
*MODEL_SPACE
0
BLOCK_RECORD
5
1B
100
AcDbSymbolTableRecord
100
AcDbBlockTableRecord
2
*PAPER_SPACE
0
ENDTAB
0
ENDSEC
0
SECTION
2
BLOCKS
0
BLOCK
5
20
100
AcDbEntity
100
AcDbBlockBegin
2
*MODEL_SPACE
0
ENDBLK
5
21
100
AcDbEntity
100
AcDbBlockEnd
0
BLOCK
5
1C
100
AcDbEntity
100
AcDbBlockBegin
2
*PAPER_SPACE
0
ENDBLK
5
1D
100
AcDbEntity
100
AcDbBlockEnd
0
ENDSEC
0
SECTION
2
ENTITIES
0
LWPOLYLINE
5
100
100
AcDbEntity
8
0
100
AcDbPolyline
90
132
70
1
43
0.0
10
-46.373452231282926
20
-169.95572181245106
10
-46.21259934238153
20
-169.56925124227263
10
-47.05642708714084
20
-168.71966017118055
10
-45.766086887284352
20
-167.43807318437575
10
-20.360632203792495
20
-193.01704660659459
42
0.38215253836296947
10
-9.2259002701510511
20
-194.13183134204183
42
0.37754717320930187
10
-6.3147808131549068
20
-181.02285456410993
10
-24.487384250226331
20
-148.0314750658471
42
-0.12653880160610526
10
-28.022740719549873
20
-134.28569884595882
10
-28.022740719591653
20
-67.575159467096057
42
-0.12653880160642911
10
-24.487384250267844
20
-53.82938324717162
10
-6.3147808131762666
20
-20.838003748874499
42
0.37754717320930309
10
-9.2259002701721435
20
-7.729026970942444
42
0.38215253836296875
10
-20.36063220381337
20
-8.8438117063895092
10
-34.794587677370494
20
-23.376350802235191
10
-35.791021373181891
20
-22.386676561358403
10
-35.248331123124167
20
-21.840279747931433
10
-35.443371927797095
20
-21.352005330777388
10
-51.168470673779858
20
-20.899962422777936
10
-51.168470673779836
20
-21.917043998529483
10
-52.818425526101443
20
-21.917043998529483
10
-52.818425526101436
20
-20.852531853243235
10
-52.732562280844704
20
-19.29196962238575
42
0.4142135623730917
10
-54.167773620722919
20
-17.689630069259206
10
-54.780682737083559
20
-17.655907373209281
10
-54.83110340061701
20
-18.572301610694353
10
-57.576001538763713
20
-18.421275360423611
10
-57.525580875230276
20
-17.504881122938521
10
-62.578637854082295
20
-17.226858329555064
10
-62.629058517615746
20
-18.143252567040154
10
-65.37395665576247
20
-17.992226316769393
10
-65.323535992229012
20
-17.075832079284286
10
-66.705642452795374
20
-16.999787597591684
42
-0.19891236737965384
10
-67.755103509950416
20
-16.495859821953019
10
-71.374207465948643
20
-12.455316624973602
42
0.19891236737965615
10
-74.118227460809393
20
-11.137699470062918
10
-87.385497033572008
20
-10.407724850218321
42
0.13139267879904118
10
-92.508183787524544
20
-11.479911894909659
10
-133.72633280768684
20
-32.293643056070813
42
0.37663044804097412
10
-136.95008719496192
20
-40.300056292674554
10
-138.04218966791842
20
-40.765153931358107
10
-138.51217821878677
20
-39.661567036964527
10
-143.19382689266715
20
-41.655357727203537
10
-143.29000999388947
20
-42.147262828529833
10
-142.83619781916863
20
-42.604174531173207
10
-144.27394674165794
20
-44.032170271800311
10
-179.22359988713026
20
-8.8438117062419241
42
0.38215253836296764
10
-190.35833182077167
20
-7.7290269707950277
42
0.37754717320930253
10
-193.26945127776747
20
-20.838003748726983
10
-175.09684784067576
20
-53.829383247023998
42
-0.12653880160642855
10
-171.56149137135188
20
-67.575159466948648
10
-171.56149137135537
20
-75.340643246083232
10
-173.043754677728
20
-75.340643246083246
10
-173.043754677728
20
-74.509253480563586
10
-182.60266645954775
20
-74.509274999381987
10
-182.60266645954775
20
-75.340643246083246
10
-183.66588049420335
20
-75.340643246083246
42
13.879426543779603
10
-183.79165303451319
20
-76.768655337670026
10
-182.60266645954775
20
-76.768655337670026
10
-182.60266645954775
20
-77.509274999389547
10
-173.043754677728
20
-77.509253480571147
10
-173.043754677728
20
-76.768655337670026
10
-171.56149137135537
20
-76.768655337670026
10
-171.56149137135537
20
-90.686487112066487
10
-173.04375767090022
20
-90.686487112066473
10
-173.04375767090022
20
-89.864361252257666
10
-182.60265708831417
20
-89.864382771048227
10
-182.60265708831417
20
-90.686487112066473
10
-183.70051331507636
20
-90.686487112066473
42
13.932549212939357
10
-183.71889416059531
20
-92.114499203653267
10
-182.60265708831417
20
-92.114499203653267
10
-182.60265708831417
20
-92.864382771055773
10
-173.04375767090022
20
-92.864361252265212
10
-173.04375767090022
20
-92.114499203653267
10
-171.56149137135537
20
-92.114499203653281
10
-171.56149137135537
20
-106.11527658996704
10
-173.04375767090022
20
-106.11527658996701
10
-173.04375767090022
20
-105.28945726199758
10
-182.60265708831417
20
-105.28947878078816
10
-182.60265708831417
20
-106.11527658996701
10
-183.71110993305336
20
-106.11527658996701
42
13.933670126850751
10
-183.70749308064379
20
-107.54328868155382
10
-182.60265708831417
20
-107.54328868155382
10
-182.60265708831417
20
-108.28947878079569
10
-173.04375767090022
20
-108.28945726200514
10
-173.04375767090022
20
-107.54328868155382
10
-171.56149137135537
20
-107.54328868155383
10
-171.56149137135537
20
-121.15108059189529
10
-174.02509988648276
20
-121.15108059189529
10
-174.02509988648276
20
-120.3172455278868
10
-182.60265708831417
20
-120.31726483750069
10
-182.60265708831417
20
-121.15108059189527
10
-183.72241836573392
20
-121.15108059189527
42
13.931601464896998
10
-183.69766929405702
20
-122.57909268348209
10
-182.60265708831417
20
-122.57909268348209
10
-182.60265708831417
20
-123.31726483750825
10
-174.02509988648276
20
-123.31724552789436
10
-174.02509988648276
20
-122.57909268348209
10
-171.56149137135537
20
-122.57909268348209
10
-171.56149137139366
20
-134.2856988458114
42
-0.1265388016061082
10
-175.0968478407172
20
-148.03147506569962
10
-193.26945127778887
20
-181.02285456396231
42
0.37754717320930264
10
-190.35833182079247
20
-194.13183134189435
42
0.38215253836296886
10
-179.22359988715129
20
-193.01704660644691
10
-160.93403032387587
20
-174.60255965507491
10
-158.94781337450087
20
-176.57530280883648
10
-159.62900078976818
20
-177.26114272029434
10
-147.93369894647839
20
-182.2418633080629
10
-147.93369894647839
20
-181.69669814491084
10
-144.99862142727821
20
-181.69669814491084
42
0.2001701844610092
10
-144.63385548756619
20
-186.71958655900232
10
-144.04627375595186
20
-187.88319490907071
42
0.41421356237309348
10
-136.1809462252065
20
-190.47037151997012
10
-110.80931388522433
20
-177.65857993791974
42
-0.13139267879903693
10
-105.73385965361953
20
-176.59627874043753
10
-82.979346455290127
20
-177.84824826066188
42
0.19891236737965623
10
-80.107335283967572
20
-176.83962913982947
10
-75.990516255306531
20
-173.15220512122377
42
-0.19891236737965823
10
-74.892104477818663
20
-172.76645483850061
10
-73.896423293113543
20
-172.82123792633226
10
-73.84600273630069
20
-171.90484562849036
10
-71.101104598153995
20
-172.05587187876114
10
-71.151525154966833
20
-172.97226417660301
10
-66.098468176114864
20
-173.25028696998646
10
-66.048047619301954
20
-172.33389467214454
10
-63.303149481155252
20
-172.48492092241531
10
-63.353570037968154
20
-173.40131322025718
10
-62.740660921607514
20
-173.43503591630713
42
0.41421356237308982
10
-61.138321368480959
20
-171.99982457642892
10
-60.961586870819033
20
-168.78767971612439
10
-59.812289695736389
20
-168.85091486514042
10
-59.873075288654796
20
-169.95569142238554
0
LWPOLYLINE
5
101
100
AcDbEntity
8
0
100
AcDbPolyline
90
23
70
1
43
0.0
10
-136.10290870336641
20
-42.094893012795033
42
0.42262201863821575
10
-128.16419473969057
20
-44.832719533097062
10
-102.79256239970842
20
-32.020927951046751
42
-0.13139267879904068
10
-97.717108168103607
20
-30.95862675356447
10
-85.334037039966248
20
-31.63995214532617
10
-85.334037039966461
20
-33.438758073677121
10
-86.135005165240187
20
-33.438758073677029
10
-86.134958681433886
20
-54.087410593487995
10
-85.334037039966248
20
-54.087410593488073
10
-85.334037039966461
20
-55.93028658674185
10
-95.332567253557272
20
-55.930286586740799
10
-95.332567253556988
20
-46.905787839400588
42
0.41421356237312384
10
-95.693989068318501
20
-46.544366024638926
10
-103.89024302262555
20
-46.544366024491389
42
0.41421356237311663
10
-104.2516648373872
20
-46.905787839253072
10
-104.25166483738678
20
-55.93028658659329
10
-124.63035959413672
20
-55.930286586590029
42
-0.19979702020352483
10
-137.97162444971136
20
-50.377537296807873
10
-142.7640101767513
20
-45.552419672732249
10
-141.46379854263537
20
-44.26102821599833
10
-140.76219713928361
20
-44.967421542664113
10
-136.93280195721928
20
-43.336583136133768
10
-137.25301259270981
20
-42.584691924912043
0
LWPOLYLINE
5
102
100
AcDbEntity
8
0
100
AcDbPolyline
90
15
70
1
43
0.0
10
-156.85233262471422
20
-174.09602166386702
10
-157.5888025384437
20
-174.83752165212712
10
-159.39027961537636
20
-173.0482651606371
10
-137.97162444973341
20
-151.48332101588014
42
-0.19979702020352472
10
-124.6303595941589
20
-145.9305717260975
10
-119.45841267867807
20
-145.93057172609662
10
-119.45841267867829
20
-147.7734477193504
10
-120.38294473197453
20
-147.77344771935029
10
-120.38298083247886
20
-163.80971459318664
10
-119.54969537129745
20
-163.80971459318675
10
-119.54969537129777
20
-166.72440580709619
10
-141.7430842932028
20
-177.93129504294384
42
0.13889479520272613
10
-144.36748788010962
20
-180.34516459707024
10
-146.20559950342911
20
-179.56236133747453
10
-145.86955737470498
20
-178.77329596867187
0
LWPOLYLINE
5
103
100
AcDbEntity
8
0
100
AcDbPolyline
90
28
70
1
43
0.0
10
-38.819434647428452
20
-25.256607443638437
10
-37.795213808250629
20
-24.22539119696232
10
-36.7091989911684
20
-25.304038872361943
10
-61.612607641232422
20
-50.377537296955346
42
-0.1997970202035253
10
-74.953872496807037
20
-55.930286586737495
10
-83.057285780564229
20
-55.930286586741559
10
-83.057285780564015
20
-54.087410593487789
10
-82.134958681423754
20
-54.087410593487903
10
-82.135005165230055
20
-33.438758073676937
10
-83.057285780564229
20
-33.438758073676823
10
-83.057285780564015
20
-31.765220620949428
10
-74.962594969774187
20
-32.210596273788852
42
0.19891236737965307
10
-72.090583798451661
20
-31.201977152956442
10
-67.97376476979062
20
-27.514553134350695
42
-0.19891236737965662
10
-66.875352992302737
20
-27.128802851627526
10
-65.879671807597603
20
-27.183585939459213
10
-65.82925125078475
20
-26.267193641617339
10
-63.084353112638055
20
-26.4182198918881
10
-63.134773669450901
20
-27.334612189729974
10
-58.081716690598938
20
-27.612634983113438
10
-58.031296133786014
20
-26.696242685271542
10
-55.286397995639319
20
-26.847268935542303
10
-55.336818552452215
20
-27.76366123338418
10
-54.723909436091574
20
-27.797383929434105
42
0.41421356237308915
10
-53.121569882965019
20
-26.362172589555911
10
-52.986994525064446
20
-23.916268988829906
10
-51.147513749321888
20
-24.017478531051122
10
-51.196115832044939
20
-24.900820109997351
0
CIRCLE
5
104
100
AcDbEntity
8
0
100
AcDbCircle
10
-188.65804225497601
20
-91.336799967588732
30
0
40
2.1500000000000088
210
-1.7516230804058218e-46
220
-7.8886090522101198e-31
230
1
0
LWPOLYLINE
5
105
100
AcDbEntity
8
0
100
AcDbPolyline
90
8
70
1
43
0.0
10
-106.29211604549751
20
-135.80295177607022
10
-106.29211604549754
20
-134.33609251429891
42
-0.41421356237309503
10
-105.77554567638322
20
-133.81952214518455
10
-93.808686414560597
20
-133.81952214518424
42
-0.41421356237311519
10
-93.292116045446235
20
-134.3360925142986
10
-93.292116045446136
20
-135.80295177621772
42
-0.41421356237312529
10
-93.808686414560469
20
-136.31952214533209
10
-105.77554567638329
20
-136.31952214518446
42
-0.41421356237312529
0
CIRCLE
5
106
100
AcDbEntity
8
0
100
AcDbCircle
10
-87.659933347570728
20
-161.26506568770469
30
0
40
1.6500000000000155
210
-1.5970081870362519e-30
220
-3.0715849919897877e-31
230
1
0
CIRCLE
5
107
100
AcDbEntity
8
0
100
AcDbCircle
10
-14.79211604544988
20
-185.93042915633538
30
0
40
2.0250000000000057
210
0
220
-0
230
1
0
CIRCLE
5
108
100
AcDbEntity
8
0
100
AcDbCircle
10
-37.210610871111378
20
-128.45473604898629
30
0
40
1.6500000000000021
210
0
220
-0
230
1
0
CIRCLE
5
109
100
AcDbEntity
8
0
100
AcDbCircle
10
-14.792116045471197
20
-15.930429156648646
30
0
40
2.0250000000000057
210
7.8886090522105665e-31
220
-7.8886090522096705e-31
230
1
0
CIRCLE
5
110
100
AcDbEntity
8
0
100
AcDbCircle
10
-37.210610871134115
20
-73.406122263997219
30
0
40
1.6500000000000021
210
7.8886090522101181e-31
220
6.0759580983393017e-46
230
1
0
LWPOLYLINE
5
111
100
AcDbEntity
8
0
100
AcDbPolyline
90
2
70
1
43
0.0
10
-35.560610871195074
20
-100.93042915615544
42
0.99999138299696033
10
-38.860610871072538
20
-100.9304291561743
42
0.99999138339637161
0
CIRCLE
5
112
100
AcDbEntity
8
0
100
AcDbCircle
10
-59.7921308743541
20
-110.93044348281963
30
0
40
1.6499999999999999
210
-0
220
0
230
1
0
CIRCLE
5
113
100
AcDbEntity
8
0
100
AcDbCircle
10
-59.792130874354108
20
-90.930443482819513
30
0
40
1.6500000000000024
210
7.8886090522101198e-31
220
3.3937878090216278e-46
230
1
0
LWPOLYLINE
5
114
100
AcDbEntity
8
0
100
AcDbPolyline
90
8
70
1
43
0.0
10
-67.001748486646036
20
-97.667762912649607
42
0.41421356237308976
10
-63.559478176521075
20
-94.225492602524184
10
-63.559478176522475
20
-78.353466277061955
42
0.4142135623730957
10
-67.734216188604535
20
-74.17872826498045
10
-73.812204537187554
20
-74.178728264980862
42
0.41421356237307466
10
-76.241639296651726
20
-76.608163024445417
10
-76.241639296650504
20
-95.238328153185847
42
0.4142135623731068
10
-73.812204537185835
20
-97.667762912650062
0
CIRCLE
5
115
100
AcDbEntity
8
0
100
AcDbCircle
10
-80.282987107298283
20
-27.255857258524312
30
0
40
1.6499999999999939
210
2.1669070014137445e-32
220
3.9383477925552862e-31
230
1
0
CIRCLE
5
116
100
AcDbEntity
8
0
100
AcDbCircle
10
-79.643181862054803
20
-15.627413700831653
30
0
40
1.6500000000000155
210
-1.5970081870362519e-30
220
-3.0715849919897877e-31
230
1
0
CIRCLE
5
117
100
AcDbEntity
8
0
100
AcDbCircle
10
-128.8777824660028
20
-37.54264341287989
30
0
40
2.1500000000000172
210
7.0417455028676324e-31
220
3.5558364770409344e-31
230
1
0
CIRCLE
5
118
100
AcDbEntity
8
0
100
AcDbCircle
10
-79.792130874354157
20
-110.93044348281963
30
0
40
1.6650000000000011
210
-0
220
0
230
1
0
CIRCLE
5
119
100
AcDbEntity
8
0
100
AcDbCircle
10
-79.792130874354186
20
-90.930443482819626
30
0
40
1.6500000000000017
210
-0
220
0
230
1
0
LWPOLYLINE
5
120
100
AcDbEntity
8
0
100
AcDbPolyline
90
8
70
1
43
0.0
10
-76.241639296648231
20
-125.25269528853744
42
0.4142135623730383
10
-73.812204537184144
20
-127.68213004800165
10
-67.734216188601707
20
-127.68213004800228
42
0.41421356237313556
10
-63.559478176519519
20
-123.5073920359202
10
-63.55947817652023
20
-107.63536571045812
42
0.41421356237305046
10
-67.00174848664517
20
-104.19309540033311
10
-73.812204537184996
20
-104.19309540033247
42
0.41421356237314749
10
-76.241639296649737
20
-106.62253015979704
0
LWPOLYLINE
5
121
100
AcDbEntity
8
0
100
AcDbPolyline
90
8
70
1
43
0.0
10
-96.354409433312753
20
-125.25269528853551
42
0.41421356237303508
10
-93.924974673848567
20
-127.68213004799981
10
-85.863400281164402
20
-127.68213004800059
42
0.4142135623731486
10
-83.433965521699633
20
-125.25269528853602
10
-83.433965521701126
20
-106.62253015979553
42
0.41421356237304152
10
-85.863400281165241
20
-104.19309540033129
10
-93.92497467384915
20
-104.19309540033052
42
0.41421356237315282
10
-96.35440943331389
20
-106.62253015979516
0
LWPOLYLINE
5
122
100
AcDbEntity
8
0
100
AcDbPolyline
90
8
70
1
43
0.0
10
-93.924974673851708
20
-74.17872826498224
42
0.41421356237307794
10
-96.35440943331588
20
-76.608163024446895
10
-96.354409433314743
20
-95.238328153187211
42
0.41421356237310575
10
-93.924974673849988
20
-97.667762912651483
10
-85.536594958128674
20
-97.667762912650886
42
0.4142135623730715
10
-83.107160198664474
20
-95.238328153186302
10
-83.107160198665696
20
-76.608163024445844
42
0.41421356237311108
10
-85.536594958130365
20
-74.178728264981658
0
CIRCLE
5
123
100
AcDbEntity
8
0
100
AcDbCircle
10
-84.371072436081505
20
-59.806191191911864
30
0
40
1.6500000000000101
210
0
220
-0
230
1
0
CIRCLE
5
124
100
AcDbEntity
8
0
100
AcDbCircle
10
-90.866019046983695
20
-141.37067668914906
30
0
40
1.6499999999999915
210
-7.8886090522101181e-31
220
2.1448962901167694e-44
230
1
0
LWPOLYLINE
5
125
100
AcDbEntity
8
0
100
AcDbPolyline
90
8
70
1
43
0.0
10
-132.58248360429832
20
-104.19309540018563
10
-125.77202755375851
20
-104.193095400185
42
-0.41421356237314433
10
-123.34259279429382
20
-106.62253015964959
10
-123.34259279429526
20
-125.25269528838997
42
-0.41421356237304152
10
-125.77202755375937
20
-127.68213004785417
10
-131.8500159023418
20
-127.68213004785481
42
-0.41421356237312995
10
-136.02475391442385
20
-123.50739203577275
10
-136.02475391442326
20
-107.63536571031065
42
-0.41421356237305273
0
LWPOLYLINE
5
126
100
AcDbEntity
8
0
100
AcDbPolyline
90
8
70
1
43
0.0
10
-125.77202755375765
20
-97.667762912502596
10
-132.58248360429747
20
-97.667762912502113
42
-0.41421356237308898
10
-136.0247539144224
20
-94.225492602376718
10
-136.02475391442101
20
-78.353466276914475
42
-0.41421356237309254
10
-131.85001590233898
20
-74.178728264832998
10
-125.77202755375595
20
-74.178728264833381
42
-0.41421356237307899
10
-123.34259279429185
20
-76.608163024297951
10
-123.34259279429297
20
-95.238328153038367
42
-0.41421356237310358
0
CIRCLE
5
127
100
AcDbEntity
8
0
100
AcDbCircle
10
-139.79210121658937
20
-90.930443482672075
30
0
40
1.6500000000000024
210
-0
220
0
230
1
0
CIRCLE
5
128
100
AcDbEntity
8
0
100
AcDbCircle
10
-139.7921012165894
20
-110.93044348267215
30
0
40
1.6499999999999999
210
-7.8886090522101181e-31
220
-1.696865277041152e-46
230
1
0
CIRCLE
5
129
100
AcDbEntity
8
0
100
AcDbCircle
10
-119.79210121658934
20
-110.93044348267212
30
0
40
1.6650000000000011
210
-7.8886090522101163e-31
220
-7.8886090522101198e-31
230
1
0
CIRCLE
5
130
100
AcDbEntity
8
0
100
AcDbCircle
10
-119.7921012165893
20
-90.930443482672118
30
0
40
1.6500000000000017
210
-7.8886090522101198e-31
220
7.8886090522101163e-31
230
1
0
LWPOLYLINE
5
131
100
AcDbEntity
8
0
100
AcDbPolyline
90
8
70
1
43
0.0
10
-105.65925741709522
20
-127.68213004785227
42
0.41421356237304152
10
-103.22982265763102
20
-125.25269528838798
10
-103.22982265762988
20
-106.62253015964767
42
0.41421356237315282
10
-105.65925741709464
20
-104.19309540018301
10
-113.72083180977826
20
-104.19309540018378
42
0.41421356237303292
10
-116.15026656924243
20
-106.62253015964801
10
-116.15026656924377
20
-125.25269528838854
42
0.41421356237314005
10
-113.7208318097791
20
-127.68213004785306
0
LWPOLYLINE
5
132
100
AcDbEntity
8
0
100
AcDbPolyline
90
8
70
1
43
0.0
10
-103.22982265762789
20
-76.608163024299373
42
0.41421356237308327
10
-105.65925741709208
20
-74.178728264834717
10
-114.04763713281314
20
-74.178728264834135
42
0.41421356237310358
10
-116.47707189227788
20
-76.608163024298335
10
-116.47707189227894
20
-95.238328153038822
42
0.41421356237306933
10
-114.04763713281483
20
-97.667762912503406
10
-105.6592574170938
20
-97.667762912503974
42
0.41421356237311219
10
-103.22982265762903
20
-95.238328153039689
0
CIRCLE
5
133
100
AcDbEntity
8
0
100
AcDbCircle
10
-115.21315965486227
20
-59.806191191764356
30
0
40
1.6500000000000101
210
-7.8886090521301179e-31
220
-3.5527202117650742e-36
230
1
0
CIRCLE
5
134
100
AcDbEntity
8
0
100
AcDbCircle
10
-162.37362121980942
20
-73.406122263849781
30
0
40
1.6500000000000021
210
-7.8886090522101181e-31
220
9.8530501227660622e-47
230
1
0
CIRCLE
5
135
100
AcDbEntity
8
0
100
AcDbCircle
10
-184.79211604547262
20
-15.930429156501244
30
0
40
2.0250000000000057
210
7.8886090522096749e-31
220
-7.8886090522105612e-31
230
1
0
LWPOLYLINE
5
136
100
AcDbEntity
8
0
100
AcDbPolyline
90
8
70
1
43
0.0
10
-105.77554567636084
20
-65.541336167502436
10
-93.808686414583221
20
-65.541336167649959
42
-0.41421356237325618
10
-93.292116045468589
20
-66.057906536764307
10
-93.292116045468305
20
-67.524765798535611
42
-0.41421356237312018
10
-93.808686414582638
20
-68.041336167649959
10
-105.77554567636112
20
-68.04133616750245
42
-0.41421356237309503
10
-106.29211604547547
20
-67.524765798388103
10
-106.2921160454752
20
-66.057906536616798
42
-0.41421356237309503
0
LWPOLYLINE
5
137
100
AcDbEntity
8
0
100
AcDbPolyline
90
2
70
1
43
0.0
10
-164.02362121977205
20
-100.93042915600797
42
0.99999138340603488
10
-160.72362121989457
20
-100.93042915600577
42
0.99999138299373935
0
CIRCLE
5
138
100
AcDbEntity
8
0
100
AcDbCircle
10
-162.37362121983216
20
-128.45473604883881
30
0
40
1.6500000000000021
210
0
220
-0
230
1
0
CIRCLE
5
139
100
AcDbEntity
8
0
100
AcDbCircle
10
-108.71821304395979
20
-141.37067668900156
30
0
40
1.6499999999999915
210
-0
220
0
230
1
0
CIRCLE
5
140
100
AcDbEntity
8
0
100
AcDbCircle
10
-184.79211604549366
20
-185.93042915618796
30
0
40
2.0250000000000057
210
7.8886090522101181e-31
220
6.6147775955643881e-44
230
1
0
CIRCLE
5
141
100
AcDbEntity
8
0
100
AcDbCircle
10
-88.299738592814222
20
-172.89350924539735
30
0
40
1.6499999999999939
210
2.1669070014137445e-32
220
3.9383477925552862e-31
230
1
0
CIRCLE
5
142
100
AcDbEntity
8
0
100
AcDbCircle
10
-136.89453395151872
20
-183.18029539975294
30
0
40
2.1500000000000172
210
7.0417455028676324e-31
220
3.5558364770409344e-31
230
1
0
CIRCLE
5
143
100
AcDbEntity
8
0
100
AcDbCircle
10
-188.65804225497601
20
-75.620502057413702
30
0
40
2.1500000000000088
210
-1.7516230804058218e-46
220
-7.8886090522101198e-31
230
1
0
CIRCLE
5
144
100
AcDbEntity
8
0
100
AcDbCircle
10
-188.65804225497601
20
-106.84181674874486
30
0
40
2.1500000000000088
210
-1.7516230804058218e-46
220
-7.8886090522101198e-31
230
1
0
CIRCLE
5
145
100
AcDbEntity
8
0
100
AcDbCircle
10
-188.6580422549761
20
-121.95084107100251
30
0
40
2.1500000000000088
210
-1.7516230804058218e-46
220
-7.8886090522101198e-31
230
1
0
LWPOLYLINE
5
146
100
AcDbEntity
8
0
100
AcDbPolyline
90
30
70
1
43
0.0
10
-49.801623527458183
20
-165.95571409501432
10
-59.652992467414911
20
-165.95569191782118
10
-59.697258484923807
20
-166.76022562521018
10
-60.846555660006487
20
-166.6969904761942
10
-60.749313766360643
20
-164.92962160925879
42
0.41421356237309009
10
-62.184525106238844
20
-163.32728205613222
10
-62.797434222599492
20
-163.2935593600823
10
-62.84785488613295
20
-164.20995359756742
10
-65.592753024279645
20
-164.05892734729665
10
-65.542332360746215
20
-163.14253310981155
10
-70.595389339598228
20
-162.8645103164281
10
-70.645810003131686
20
-163.78090455391319
10
-73.390708141278395
20
-163.62987830364244
10
-73.340287477744951
20
-162.71348406615732
10
-74.722393938311313
20
-162.63743958446472
42
-0.198912367379667
10
-75.77185499546637
20
-162.133511808826
10
-79.390958951464583
20
-158.09296861184663
42
0.19891236737965692
10
-82.134978946325319
20
-156.77535145693591
10
-95.402248519087948
20
-156.04537683709134
42
0.13139267879904107
10
-100.52493527304048
20
-157.1175638817827
10
-117.30651306604786
20
-165.59167678949501
10
-117.30651306604757
20
-163.25079323350832
10
-116.3829795742368
20
-163.25079323350843
10
-116.3829447319644
20
-147.77344771935023
10
-117.18166141927605
20
-147.77344771935009
10
-117.18166141927584
20
-145.93057172609633
10
-74.953872496784584
20
-145.93057172624501
42
-0.19979702020352633
10
-61.612607641210097
20
-151.48332101602762
10
-47.589357551950698
20
-165.60234961815604
10
-48.879697751807285
20
-166.88393660496061
0
CIRCLE
5
147
100
AcDbEntity
8
0
100
AcDbCircle
10
-287.1115751656402
20
-93.396213121903685
30
0
40
2.1500000000000088
210
-4.4217183002083576e-75
220
-7.8886090522101198e-31
230
1
0
LWPOLYLINE
5
148
100
AcDbEntity
8
0
100
AcDbPolyline
90
22
70
1
43
0.0
10
-301.36768449726821
20
-135.04134403620196
10
-301.36768449726821
20
-134.36991279341092
42
-0.41421356237309503
10
-300.66246432694032
20
-133.66469262308297
10
-287.31849979337017
20
-133.66469262308232
42
-0.41421356237312457
10
-286.61327962304216
20
-134.36991279341026
10
-286.61327962304216
20
-135.04134403634939
42
0.41421356237309503
10
-285.8249310361611
20
-135.82969262323041
10
-280.67245553729958
20
-135.82969262323073
10
-280.53876734632138
20
-143.31295482069925
42
0.4089912183311501
10
-278.03160332139737
20
-145.77572851423591
10
-272.71844957147846
20
-145.77572851423605
42
-0.50208016640547259
10
-271.2016982166295
20
-147.81213708182872
10
-281.3751996746692
20
-181.84888356894729
42
-0.33148685718031196
10
-284.2495491831603
20
-183.98974743128474
10
-303.73141493714979
20
-183.98974743113723
42
-0.33148685718029741
10
-306.60576444564083
20
-181.84888356879978
10
-316.77926590368054
20
-147.81213708168127
42
-0.50208016640544406
10
-315.26251454883163
20
-145.7757285140886
10
-309.94936079891272
20
-145.77572851408848
42
0.40899121833115615
10
-307.44219677398877
20
-143.31295482055179
10
-307.30850858301051
20
-135.82969262308328
10
-302.15603308414904
20
-135.82969262308302
42
0.41421356237310825
0
CIRCLE
5
149
100
AcDbEntity
8
0
100
AcDbCircle
10
-208.99048206012208
20
-185.77558463953858
30
0
40
2.0250000000000057
210
-2.22809839376962e-44
220
-7.8886090522101181e-31
230
1
0
ARC
5
150
100
AcDbEntity
8
0
100
AcDbCircle
10
-175.80464536666395
20
-177.42267999844921
30
-6.8663624751916036e-43
40
26.720911340699374
210
7.6500035063013554e-31
220
1.925512693333328e-31
230
1
100
AcDbArc
50
180
51
194.12792795367133
0
LINE
5
151
100
AcDbEntity
8
0
100
AcDbLine
10
-202.52555670736331
20
-177.42267999844717
30
2.0441506544790708e-29
11
-202.52555670738485
21
-24.128489280953769
31
0
0
ARC
5
152
100
AcDbEntity
8
0
100
AcDbCircle
10
-175.80464536668785
20
-24.128489280952174
30
4.9465835790666043e-42
40
26.720911340697064
210
1.5777218104419623e-30
220
-7.8886090522091547e-31
230
1
100
AcDbArc
50
165.87207204632648
51
180
0
ARC
5
153
100
AcDbEntity
8
0
100
AcDbCircle
10
-208.99048206014339
20
-15.775584639862188
30
0
40
7.4999999999999059
210
-5.8551846118041616e-30
220
1.8804880179358429e-30
230
1
100
AcDbArc
50
-14.127927953668669
51
84.343378179473078
0
SPLINE
5
154
100
AcDbEntity
8
0
100
AcDbSpline
70
0
71
3
72
10
73
6
74
0
42
0.000000001
43
0.0000000001
44
0.0000000001
40
-0.59744698725624434
40
-0.59744698725624434
40
-0.59744698725624434
40
-0.59744698725624434
40
-0.20596726009885707
40
-0.20596726009885707
40
0
40
0
40
0
40
0
10
-208.25123426500949
20
-8.3121060475854289
30
0
10
-209.69701647858381
20
-8.1502194390244505
30
0
10
-211.09053874005917
20
-8.1200300408538446
30
0
10
-213.01025281847421
20
-8.6542918325487541
30
0
10
-213.6175147927425
20
-8.9392120744473047
30
0
10
-214.17005712909582
20
-9.3467144837241687
30
0
0
ARC
5
155
100
AcDbEntity
8
0
100
AcDbCircle
10
-216.43228037965832
20
-6.2793114653302151
30
-3.4244231221937717e-43
40
3.8113797124710813
210
6.190099070679322e-31
220
-1.5038644314041648e-30
230
1
100
AcDbArc
50
269.99999999999915
51
306.40893819330466
0
LINE
5
156
100
AcDbEntity
8
0
100
AcDbLine
10
-216.43228037965838
20
-10.090691177801297
30
-5.731798384161011e-30
11
-371.54868374065177
21
-10.090691177653824
31
0
0
ARC
5
157
100
AcDbEntity
8
0
100
AcDbCircle
10
-371.54868374065177
20
-6.279311465182797
30
-3.0407081911423277e-43
40
3.8113797124710413
210
-7.8886090522099096e-31
220
6.7787813211713026e-44
230
1
100
AcDbArc
50
233.59106180669548
51
270
0
SPLINE
5
158
100
AcDbEntity
8
0
100
AcDbSpline
70
0
71
3
72
12
73
8
74
0
42
0.000000001
43
0.0000000001
44
0.0000000001
40
-0.65998105801100015
40
-0.65998105801100015
40
-0.65998105801100015
40
-0.65998105801100015
40
-0.49519974178677673
40
-0.49519974178677673
40
-0.33211251303367195
40
-0.33211251303367195
40
0
40
0
40
0
40
0
10
-373.81090699121421
20
-9.3467144835767311
30
0
10
-374.21466734124965
20
-9.048939445204498
30
0
10
-374.65052971872552
20
-8.8145247681435759
30
0
10
-375.58476267550924
20
-8.4619829762725765
30
0
10
-376.06703554530247
20
-8.3485282093352904
30
0
10
-377.56054247544733
20
-8.1423542931628976
30
0
10
-378.6295634125413
20
-8.1889186042679878
30
0
10
-379.72972985530055
20
-8.3121060474379913
30
0
0
ARC
5
159
100
AcDbEntity
8
0
100
AcDbCircle
10
-378.99048206016664
20
-15.775584639714751
30
0
40
7.49999999999892
210
-7.8501953045359117e-31
220
-7.775515798027389e-32
230
1
100
AcDbArc
50
95.656621820527803
51
194.12792795366823
0
ARC
5
160
100
AcDbEntity
8
0
100
AcDbCircle
10
-412.17631875362713
20
-24.128489280805301
30
-5.4230250569370421e-42
40
26.720911340702003
210
-7.6500035063023004e-31
220
-1.9255126933336554e-31
230
1
100
AcDbArc
50
0
51
14.127927953672248
0
LINE
5
161
100
AcDbEntity
8
0
100
AcDbLine
10
-385.45540741292513
20
-24.128489280806292
30
2.0441506544790711e-29
11
-385.45540741294678
21
-177.42267999829971
31
0
0
ARC
5
162
100
AcDbEntity
8
0
100
AcDbCircle
10
-412.17631875364589
20
-177.42267999830193
30
6.4459729358941585e-43
40
26.720911340699157
210
7.8886090522101268e-31
220
6.7984870808258683e-44
230
1
100
AcDbArc
50
-14.127927953671062
51
0
0
ARC
5
163
100
AcDbEntity
8
0
100
AcDbCircle
10
-378.99048206018796
20
-185.77558463939113
30
0
40
7.4999999999999281
210
-2.7393710262921062e-30
220
2.8276928790436453e-31
230
1
100
AcDbArc
50
165.87207204633282
51
264.34337817947528
0
SPLINE
5
164
100
AcDbEntity
8
0
100
AcDbSpline
70
0
71
3
72
10
73
6
74
0
42
0.000000001
43
0.0000000001
44
0.0000000001
40
-0.59744698725621104
40
-0.59744698725621104
40
-0.59744698725621104
40
-0.59744698725621104
40
-0.20596726009878744
40
-0.20596726009878744
40
0
40
0
40
0
40
0
10
-379.72972985532158
20
-193.2390632316679
30
0
10
-378.2839476417472
20
-193.40094984022883
30
0
10
-376.89042538027161
20
-193.4311392383994
30
0
10
-374.97071130185657
20
-192.89687744670428
30
0
10
-374.36344932758863
20
-192.61195720480578
30
0
10
-373.81090699123553
20
-192.20445479552899
30
0
0
ARC
5
165
100
AcDbEntity
8
0
100
AcDbCircle
10
-371.54868374067263
20
-195.27185781392322
30
-4.1907582198714061e-43
40
3.811379712471421
210
4.6822400702076981e-31
220
-6.3487621394695597e-31
230
1
100
AcDbArc
50
90.000000000005116
51
126.40893819330684
0
LINE
5
166
100
AcDbEntity
8
0
100
AcDbLine
10
-371.54868374067297
20
-191.4604781014518
30
2.4197543217678404e-30
11
-216.43228037963701
21
-191.46047810159928
31
0
0
ARC
5
167
100
AcDbEntity
8
0
100
AcDbCircle
10
-216.43228037963735
20
-195.27185781407044
30
0
40
3.8113797124712043
210
0
220
-0
230
1
100
AcDbArc
50
53.591061806691542
51
89.999999999994884
0
SPLINE
5
168
100
AcDbEntity
8
0
100
AcDbSpline
70
0
71
3
72
12
73
8
74
0
42
0.000000001
43
0.0000000001
44
0.0000000001
40
-0.65998105801213236
40
-0.65998105801213236
40
-0.65998105801213236
40
-0.65998105801213236
40
-0.4951997417874604
40
-0.4951997417874604
40
-0.33211251303404371
40
-0.33211251303404371
40
0
40
0
40
0
40
0
10
-214.17005712907451
20
-192.20445479567644
30
0
10
-213.76629677903932
20
-192.50222983404859
30
0
10
-213.33043440156376
20
-192.73664451110949
30
0
10
-212.39620144477976
20
-193.08918630298066
30
0
10
-211.91392857498656
20
-193.20264106991797
30
0
10
-210.42042164484235
20
-193.40881498609033
30
0
10
-209.35140070774889
20
-193.36225067498546
30
0
10
-208.25123426498845
20
-193.23906323181535
30
0
0
ARC
5
169
100
AcDbEntity
8
0
100
AcDbCircle
10
-208.99048206012208
20
-185.77558463953858
30
0
40
7.4999999999989262
210
-0
220
0
230
1
100
AcDbArc
50
-84.343378179474399
51
14.12792795366709
0
CIRCLE
5
170
100
AcDbEntity
8
0
100
AcDbCircle
10
-208.99048206014339
20
-15.775584639862188
30
0
40
2.0250000000000057
210
7.8886090522101163e-31
220
-7.8886090522101198e-31
230
1
0
CIRCLE
5
171
100
AcDbEntity
8
0
100
AcDbCircle
10
-253.99049688903773
20
-90.775598824667853
30
0
40
1.6500000000000024
210
7.8886090522101198e-31
220
-1.861081432190902e-46
230
1
0
CIRCLE
5
172
100
AcDbEntity
8
0
100
AcDbCircle
10
-273.99049688903779
20
-90.775598824667838
30
0
40
1.6500000000000017
210
0
220
-0
230
1
0
CIRCLE
5
173
100
AcDbEntity
8
0
100
AcDbCircle
10
-273.99049688903779
20
-110.77559882466787
30
0
40
1.6650000000000011
210
0
220
-0
230
1
0
CIRCLE
5
174
100
AcDbEntity
8
0
100
AcDbCircle
10
-253.9904968890377
20
-110.77559882466787
30
0
40
1.6499999999999999
210
0
220
-0
230
1
0
LWPOLYLINE
5
175
100
AcDbEntity
8
0
100
AcDbPolyline
90
8
70
1
43
0.0
10
-270.4400053113315
20
-125.09785077174379
42
0.41421356237306717
10
-268.0105705518672
20
-127.52728553120797
10
-261.93257631025671
20
-127.52728553120811
42
0.41421356237308754
10
-257.75783829817482
20
-123.35254751912643
10
-257.75783829817317
20
-78.198621760273255
42
0.41421356237310686
10
-261.932576310255
20
-74.023883748191196
10
-268.01057055187056
20
-74.023883748191167
42
0.41421356237311752
10
-270.44000531133503
20
-76.453318507655723
0
CIRCLE
5
176
100
AcDbEntity
8
0
100
AcDbCircle
10
-278.56943845076415
20
-59.651346657875806
30
0
40
1.6500000000000101
210
0
220
-0
230
1
0
CIRCLE
5
177
100
AcDbEntity
8
0
100
AcDbCircle
10
-231.40897688578809
20
-128.29989139082966
30
0
40
1.6500000000000021
210
-7.8886090522098956e-31
220
7.8886090522103405e-31
230
1
0
LWPOLYLINE
5
178
100
AcDbEntity
8
0
100
AcDbPolyline
90
8
70
1
43
0.0
10
-211.07198219773051
20
-170.9919171970287
10
-219.1831505824571
20
-159.20318944894487
42
-0.1518146937661147
10
-223.5670107088726
20
-145.09776222815088
10
-223.56701070887158
20
-131.34805751963964
42
-0.33945425886335284
10
-222.08195645934478
20
-129.41269714161075
10
-210.31277967399785
20
-126.25915572639846
42
-0.49314542603134714
10
-207.64408329838034
20
-128.30691847813128
10
-207.64408329838236
20
-169.92655213810423
42
-0.73639042011223488
0
LWPOLYLINE
5
179
100
AcDbEntity
8
0
100
AcDbPolyline
90
8
70
1
43
0.0
10
-275.79019132065679
20
-182.25773506152564
10
-266.19138015886176
20
-150.14368824694009
42
-0.33461395355712747
10
-261.48858915719029
20
-146.68196168104177
10
-255.63370816044636
20
-146.74788722176902
42
-0.2206395690038393
10
-246.55935413525924
20
-151.08193711666249
10
-224.32746145027946
20
-177.96961262552821
42
-0.63453002596973407
10
-227.1612578757701
20
-183.98974743128636
10
-274.50015937409444
20
-183.98974743128494
42
-0.50208016640533737
0
LWPOLYLINE
5
180
100
AcDbEntity
8
0
100
AcDbPolyline
90
8
70
1
43
0.0
10
-223.56701070887152
20
-121.94716906699955
10
-223.56701070889432
20
-79.604000212400749
42
-0.49314542603130679
10
-221.04479995865557
20
-77.668639834371774
10
-209.21538692278642
20
-80.838321504267171
42
-0.33945425886336211
10
-207.64408329840376
20
-82.886084256000103
10
-207.64408329838039
20
-118.66508502340065
42
-0.3394542588633484
10
-209.21538692276312
20
-120.71284777513354
10
-221.04479995863247
20
-123.88252944502881
42
-0.49314542603131117
0
LWPOLYLINE
5
181
100
AcDbEntity
8
0
100
AcDbPolyline
90
8
70
1
43
0.0
10
-219.18315058247896
20
-42.34797983045582
10
-211.07198219775233
20
-30.559252082371874
42
-0.73639042011221123
10
-207.64408329840418
20
-31.624617141296554
10
-207.64408329840336
20
-73.244250801269473
42
-0.49314542603133393
10
-210.31277967402087
20
-75.292013553002263
10
-222.08195645936752
20
-72.138472137789591
42
-0.3394542588633907
10
-223.56701070889432
20
-70.203111759760688
10
-223.56701070889471
20
-56.453407051249457
42
-0.15181469376611176
0
CIRCLE
5
182
100
AcDbEntity
8
0
100
AcDbCircle
10
-231.40897688581111
20
-73.251277888570442
30
0
40
1.6500000000000021
210
7.8886090522101181e-31
220
-1.8063457634842145e-46
230
1
0
LWPOLYLINE
5
183
100
AcDbEntity
8
0
100
AcDbPolyline
90
2
70
1
43
0.0
10
-229.75897688587332
20
-100.77558463936013
42
0.99999129731321812
10
-233.05897688574831
20
-100.77558463935718
42
0.99999129772783291
0
LWPOLYLINE
5
184
100
AcDbEntity
8
0
100
AcDbPolyline
90
8
70
1
43
0.0
10
-266.19138015888421
20
-51.407481032459124
10
-275.7901913206785
20
-19.293434217873319
42
-0.50208016640538089
10
-274.50015937411575
20
-17.561421848113817
10
-227.16125787579142
20
-17.561421848113913
42
-0.63453002596971719
10
-224.32746145030109
20
-23.581556653872056
10
-246.55935413528155
20
-50.469232162737356
42
-0.22063956900383871
10
-255.63370816046853
20
-54.803282057630362
10
-261.48858915721274
20
-54.86920759835747
42
-0.33461395355712814
0
CIRCLE
5
185
100
AcDbEntity
8
0
100
AcDbCircle
10
-333.99046723127236
20
-90.775598824520415
30
0
40
1.6500000000000024
210
-7.8886090522101198e-31
220
9.3056934356746797e-47
230
1
0
CIRCLE
5
186
100
AcDbEntity
8
0
100
AcDbCircle
10
-313.99046723127231
20
-90.775598824520387
30
0
40
1.6500000000000017
210
-7.8886090522101181e-31
220
9.3056934356746778e-47
230
1
0
CIRCLE
5
187
100
AcDbEntity
8
0
100
AcDbCircle
10
-313.99046723127231
20
-110.77559882452043
30
0
40
1.6650000000000011
210
-1.5777218104420236e-30
220
-7.8886090522101163e-31
230
1
0
CIRCLE
5
188
100
AcDbEntity
8
0
100
AcDbCircle
10
-333.99046723127236
20
-110.77559882452043
30
0
40
1.6499999999999999
210
-7.8886090522101181e-31
220
9.3056934356738668e-47
230
1
0
LWPOLYLINE
5
189
100
AcDbEntity
8
0
100
AcDbPolyline
90
8
70
1
43
0.0
10
-319.97039356844294
20
-127.52728553106054
42
0.41421356237306717
10
-317.54095880897859
20
-125.09785077159634
10
-317.54095880897518
20
-76.4533185075083
42
0.41421356237311541
10
-319.97039356843948
20
-74.023883748043758
10
-326.04838781005503
20
-74.023883748043772
42
0.41421356237309936
10
-330.22312582213692
20
-78.198621760125803
10
-330.22312582213522
20
-123.35254751897901
42
0.41421356237307261
10
-326.04838781005344
20
-127.5272855310607
0
LWPOLYLINE
5
190
100
AcDbEntity
8
0
100
AcDbPolyline
90
14
70
1
43
0.0
10
-303.73141493712848
20
-17.561421847966557
10
-284.24954918318161
20
-17.561421848113955
42
-0.33148685718028825
10
-281.3751996746908
20
-19.702285710451452
10
-273.40017503583078
20
-46.38374764182317
42
-0.50208016640545572
10
-274.91692639067981
20
-48.420156209415708
10
-279.37096928871637
20
-48.420156209415708
42
0.40899121833114671
10
-281.44187600941586
20
-50.454396706968147
10
-281.44187600941603
20
-67.886482890310191
10
-306.53908811089406
20
-67.886482890162753
10
-306.53908811089434
20
-50.454396706820724
42
0.40899121833114888
10
-308.60999483159372
20
-48.420156209268264
10
-313.06403772963034
20
-48.420156209268271
42
-0.50208016640544695
10
-314.58078908447936
20
-46.383747641675733
10
-306.60576444561917
20
-19.702285710304036
42
-0.33148685718029258
0
CIRCLE
5
191
100
AcDbEntity
8
0
100
AcDbCircle
10
-309.41152566954594
20
-59.651346657728368
30
0
40
1.6500000000000101
210
-0
220
0
230
1
0
CIRCLE
5
192
100
AcDbEntity
8
0
100
AcDbCircle
10
-356.57198723452188
20
-128.29989139068223
30
0
40
1.6500000000000021
210
0
220
-0
230
1
0
CIRCLE
5
193
100
AcDbEntity
8
0
100
AcDbCircle
10
-378.99048206018796
20
-185.77558463939113
30
0
40
2.0250000000000057
210
0
220
-0
230
1
0
LWPOLYLINE
5
194
100
AcDbEntity
8
0
100
AcDbPolyline
90
8
70
1
43
0.0
10
-368.79781353785324
20
-159.20318944879716
10
-376.90898192257947
20
-170.99191719688127
42
-0.73639042011226741
10
-380.33688082192776
20
-169.92655213795678
10
-380.33688082192964
20
-128.30691847798386
42
-0.49314542603134282
10
-377.66818444631218
20
-126.25915572625101
10
-365.89900766096525
20
-129.4126971414633
42
-0.33945425886337577
10
-364.4139534114384
20
-131.34805751949222
10
-364.41395341143789
20
-145.0977622280034
42
-0.15181469376610995
0
LWPOLYLINE
5
195
100
AcDbEntity
8
0
100
AcDbPolyline
90
8
70
1
43
0.0
10
-321.78958396144799
20
-150.14368824679255
10
-312.19077279965319
20
-182.25773506137816
42
-0.50208016640535114
10
-313.48080474621565
20
-183.98974743113769
10
-360.81970624454004
20
-183.98974743113888
42
-0.63453002596972641
10
-363.6535026700306
20
-177.96961262538079
10
-341.42160998505085
20
-151.08193711651504
42
-0.22063956900384757
10
-332.34725595986367
20
-146.74788722162157
10
-326.49237496311974
20
-146.68196168089401
42
-0.3346139535571177
0
LWPOLYLINE
5
196
100
AcDbEntity
8
0
100
AcDbPolyline
90
8
70
1
43
0.0
10
-364.41395341141549
20
-79.604000212253339
10
-364.41395341143874
20
-121.94716906685213
42
-0.49314542603131117
10
-366.93616416167748
20
-123.88252944488113
10
-378.76557719754692
20
-120.71284777498606
42
-0.33945425886337216
10
-380.33688082192958
20
-118.66508502325323
10
-380.33688082190628
20
-82.886084255852666
42
-0.33945425886336728
10
-378.76557719752361
20
-80.838321504119733
10
-366.93616416165457
20
-77.668639834224138
42
-0.49314542603130507
0
LWPOLYLINE
5
197
100
AcDbEntity
8
0
100
AcDbPolyline
90
8
70
1
43
0.0
10
-376.90898192255793
20
-30.559252082224589
10
-368.79781353783079
20
-42.347979830308176
42
-0.15181469376611573
10
-364.41395341141504
20
-56.453407051102005
10
-364.41395341141566
20
-70.203111759613265
42
-0.33945425886338004
10
-365.89900766094252
20
-72.138472137642168
10
-377.66818444628916
20
-75.292013552854812
42
-0.49314542603132322
10
-380.33688082190673
20
-73.244250801122035
10
-380.33688082190559
20
-31.624617141149123
42
-0.73639042011221623
0
CIRCLE
5
198
100
AcDbEntity
8
0
100
AcDbCircle
10
-378.99048206016664
20
-15.775584639714751
30
0
40
2.0250000000000057
210
7.8886090522101163e-31
220
-7.8886090522101198e-31
230
1
0
CIRCLE
5
199
100
AcDbEntity
8
0
100
AcDbCircle
10
-356.57198723449886
20
-73.251277888423004
30
0
40
1.6500000000000021
210
-7.8886090522101181e-31
220
9.8530501227415513e-47
230
1
0
LWPOLYLINE
5
200
100
AcDbEntity
8
0
100
AcDbPolyline
90
2
70
1
43
0.0
10
-354.92198723456164
20
-100.77558463921251
42
0.99999129731640735
10
-358.22198723443677
20
-100.77558463920988
42
0.99999129772783291
0
LWPOLYLINE
5
201
100
AcDbEntity
8
0
100
AcDbPolyline
90
8
70
1
43
0.0
10
-312.1907727996317
20
-19.293434217725832
10
-321.78958396142593
20
-51.407481032311694
42
-0.33461395355713047
10
-326.49237496309729
20
-54.869207598210032
10
-332.3472559598415
20
-54.803282057482924
42
-0.22063956900383988
10
-341.42160998502851
20
-50.469232162589925
10
-363.653502670009
20
-23.58155665372464
42
-0.63453002596972796
10
-360.81970624451856
20
-17.561421847966468
10
-313.48080474619428
20
-17.56142184796655
42
-0.50208016640537023
0
CIRCLE
5
202
100
AcDbEntity
8
0
100
AcDbCircle
10
-300.00164765569514
20
-108.98287026229033
30
0
40
2.1500000000000088
210
-4.4217183002083576e-75
220
-7.8886090522101198e-31
230
1
0
CIRCLE
5
203
100
AcDbEntity
8
0
100
AcDbCircle
10
-300.53853701757822
20
-93.202584933528271
30
0
40
2.1500000000000088
210
-4.4217183002083576e-75
220
-7.8886090522101198e-31
230
1
0
LWPOLYLINE
5
204
100
AcDbEntity
8
0
100
AcDbPolyline
90
56
70
1
43
0.0
10
-282.10095101915914
20
-108.2060282474753
42
13.932580390414065
10
-282.08281759510868
20
-109.6340403390621
10
-281.02432351301582
20
-109.63404033906212
10
-281.02432351301582
20
-110.35367645492946
10
-279.06401756844048
20
-110.35367398609611
10
-279.06401756844048
20
-109.63404033906212
10
-277.63233153638561
20
-109.63404033906212
10
-277.63233153638305
20
-125.09785077174307
42
-0.41421356237311857
10
-280.06176629584741
20
-127.52728553120762
10
-307.91919782446263
20
-127.52728553106022
42
-0.41421356237311857
10
-310.34863258392704
20
-125.09785077159565
10
-310.34863258392471
20
-109.63404033906212
10
-308.88123878602585
20
-109.6340403390621
10
-308.88123878602585
20
-110.35367864889621
10
-306.54285023689363
20
-110.35367338476576
10
-306.54285023689363
20
-109.6340403390621
10
-304.95906407265232
20
-109.6340403390621
42
13.932580390414065
10
-304.94093064860186
20
-108.2060282474753
10
-306.54285023689363
20
-108.2060282474753
10
-306.54285023689363
20
-107.3536733847582
10
-308.88123878602585
20
-107.35367864888865
10
-308.88123878602585
20
-108.2060282474753
10
-310.34863258392471
20
-108.20602824747532
10
-310.34863258392471
20
-94.195393494089103
10
-308.88122985680349
20
-94.195393494089089
10
-308.88122985680349
20
-94.928582639136195
10
-306.54283080325109
20
-94.928577374982112
10
-306.54283080325109
20
-94.195393494089089
10
-305.438978952963
20
-94.195393494089089
42
13.911354376517943
10
-305.51956079653996
20
-92.767381402502295
10
-306.54283080325109
20
-92.767381402502295
10
-306.54283080325109
20
-91.928577374974552
10
-308.88122985680349
20
-91.928582639128649
10
-308.88122985680349
20
-92.767381402502295
10
-310.34863258392471
20
-92.767381402502309
10
-310.34863258392363
20
-76.45331850750793
42
-0.41421356237307261
10
-307.91919782445927
20
-74.02388374804373
10
-280.06176629585082
20
-74.023883748191196
42
-0.41421356237307261
10
-277.63233153638646
20
-76.453318507655382
10
-277.63233153638561
20
-92.767381402502309
10
-279.06401756844048
20
-92.767381402502309
10
-279.06401756844048
20
-91.928577976348663
10
-281.02432351301582
20
-91.928580445182007
10
-281.02432351301582
20
-92.767381402502309
10
-282.15127571211173
20
-92.767381402502295
42
13.931629969343062
10
-282.17585731180031
20
-94.195393494089089
10
-281.02432351301582
20
-94.195393494089103
10
-281.02432351301582
20
-94.928580445189553
10
-279.06401756844048
20
-94.928577976356223
10
-279.06401756844048
20
-94.195393494089103
10
-277.63233153638561
20
-94.195393494089103
10
-277.63233153638561
20
-108.20602824747532
10
-279.06401756844048
20
-108.20602824747532
10
-279.06401756844048
20
-107.35367398608857
10
-281.02432351301582
20
-107.3536764549219
10
-281.02432351301582
20
-108.20602824747532
0
CIRCLE
5
205
100
AcDbEntity
8
0
100
AcDbCircle
10
-287.04023401206592
20
-108.98287026229033
30
0
40
2.1500000000000088
210
-4.4217183002083576e-75
220
-7.8886090522101198e-31
230
1
0
ENDSEC
0
SECTION
2
OBJECTS
0
DICTIONARY
5
C
100
AcDbDictionary
3
ACAD_GROUP
350
D
3
ACAD_MLINESTYLE
350
17
0
DICTIONARY
5
D
100
AcDbDictionary
0
DICTIONARY
5
1A
330
C
100
AcDbDictionary
0
DICTIONARY
5
17
100
AcDbDictionary
0
ENDSEC
0
EOF
