%TF.GenerationSoftware,KiCad,Pcbnew,7.0.11*%
%TF.CreationDate,2024-05-26T12:32:00+00:00*%
%TF.ProjectId,LHS Breakbeat,4c485320-4272-4656-916b-626561742e6b,Vol 1*%
%TF.SameCoordinates,Original*%
%TF.FileFunction,Copper,L1,Top*%
%TF.FilePolarity,Positive*%
%FSLAX46Y46*%
G04 Gerber Fmt 4.6, Leading zero omitted, Abs format (unit mm)*
G04 Created by KiCad (PCBNEW 7.0.11) date 2024-05-26 12:32:00*
%MOMM*%
%LPD*%
G01*
G04 APERTURE LIST*
G04 Aperture macros list*
%AMRoundRect*
0 Rectangle with rounded corners*
0 $1 Rounding radius*
0 $2 $3 $4 $5 $6 $7 $8 $9 X,Y pos of 4 corners*
0 Add a 4 corners polygon primitive as box body*
4,1,4,$2,$3,$4,$5,$6,$7,$8,$9,$2,$3,0*
0 Add four circle primitives for the rounded corners*
1,1,$1+$1,$2,$3*
1,1,$1+$1,$4,$5*
1,1,$1+$1,$6,$7*
1,1,$1+$1,$8,$9*
0 Add four rect primitives between the rounded corners*
20,1,$1+$1,$2,$3,$4,$5,0*
20,1,$1+$1,$4,$5,$6,$7,0*
20,1,$1+$1,$6,$7,$8,$9,0*
20,1,$1+$1,$8,$9,$2,$3,0*%
%AMHorizOval*
0 Thick line with rounded ends*
0 $1 width*
0 $2 $3 position (X,Y) of the first rounded end (center of the circle)*
0 $4 $5 position (X,Y) of the second rounded end (center of the circle)*
0 Add line between two ends*
20,1,$1,$2,$3,$4,$5,0*
0 Add two circle primitives to create the rounded ends*
1,1,$1,$2,$3*
1,1,$1,$4,$5*%
%AMRotRect*
0 Rectangle, with rotation*
0 The origin of the aperture is its center*
0 $1 length*
0 $2 width*
0 $3 Rotation angle, in degrees counterclockwise*
0 Add horizontal line*
21,1,$1,$2,0,0,$3*%
G04 Aperture macros list end*
%TA.AperFunction,ComponentPad*%
%ADD10C,3.000000*%
%TD*%
%TA.AperFunction,ComponentPad*%
%ADD11RoundRect,0.300000X1.100000X-1.100000X1.100000X1.100000X-1.100000X1.100000X-1.100000X-1.100000X0*%
%TD*%
%TA.AperFunction,ComponentPad*%
%ADD12RoundRect,0.250000X0.600000X0.725000X-0.600000X0.725000X-0.600000X-0.725000X0.600000X-0.725000X0*%
%TD*%
%TA.AperFunction,ComponentPad*%
%ADD13O,1.700000X1.950000*%
%TD*%
%TA.AperFunction,ComponentPad*%
%ADD14R,1.700000X1.700000*%
%TD*%
%TA.AperFunction,ComponentPad*%
%ADD15O,1.700000X1.700000*%
%TD*%
%TA.AperFunction,SMDPad,CuDef*%
%ADD16RoundRect,0.250000X0.548008X0.088388X0.088388X0.548008X-0.548008X-0.088388X-0.088388X-0.548008X0*%
%TD*%
%TA.AperFunction,SMDPad,CuDef*%
%ADD17C,2.000000*%
%TD*%
%TA.AperFunction,ComponentPad*%
%ADD18RoundRect,0.250000X-0.750000X0.600000X-0.750000X-0.600000X0.750000X-0.600000X0.750000X0.600000X0*%
%TD*%
%TA.AperFunction,ComponentPad*%
%ADD19O,2.000000X1.700000*%
%TD*%
%TA.AperFunction,ComponentPad*%
%ADD20RoundRect,0.250000X0.600000X0.750000X-0.600000X0.750000X-0.600000X-0.750000X0.600000X-0.750000X0*%
%TD*%
%TA.AperFunction,ComponentPad*%
%ADD21O,1.700000X2.000000*%
%TD*%
%TA.AperFunction,SMDPad,CuDef*%
%ADD22C,1.500000*%
%TD*%
%TA.AperFunction,ComponentPad*%
%ADD23RoundRect,0.250000X-0.725000X0.600000X-0.725000X-0.600000X0.725000X-0.600000X0.725000X0.600000X0*%
%TD*%
%TA.AperFunction,ComponentPad*%
%ADD24O,1.950000X1.700000*%
%TD*%
%TA.AperFunction,ComponentPad*%
%ADD25C,5.600000*%
%TD*%
%TA.AperFunction,ComponentPad*%
%ADD26RoundRect,0.250000X-0.106066X0.954594X-0.954594X0.106066X0.106066X-0.954594X0.954594X-0.106066X0*%
%TD*%
%TA.AperFunction,ComponentPad*%
%ADD27HorizOval,1.700000X-0.106066X0.106066X0.106066X-0.106066X0*%
%TD*%
%TA.AperFunction,SMDPad,CuDef*%
%ADD28RoundRect,0.250000X0.450000X-0.325000X0.450000X0.325000X-0.450000X0.325000X-0.450000X-0.325000X0*%
%TD*%
%TA.AperFunction,SMDPad,CuDef*%
%ADD29RoundRect,0.250000X0.450000X-0.350000X0.450000X0.350000X-0.450000X0.350000X-0.450000X-0.350000X0*%
%TD*%
%TA.AperFunction,SMDPad,CuDef*%
%ADD30RoundRect,0.200000X-0.353553X0.070711X0.070711X-0.353553X0.353553X-0.070711X-0.070711X0.353553X0*%
%TD*%
%TA.AperFunction,ComponentPad*%
%ADD31C,1.605000*%
%TD*%
%TA.AperFunction,ComponentPad*%
%ADD32C,2.780000*%
%TD*%
%TA.AperFunction,ComponentPad*%
%ADD33R,1.520000X1.520000*%
%TD*%
%TA.AperFunction,ComponentPad*%
%ADD34C,1.520000*%
%TD*%
%TA.AperFunction,ComponentPad*%
%ADD35RotRect,0.900000X2.000000X135.000000*%
%TD*%
%TA.AperFunction,ComponentPad*%
%ADD36RoundRect,1.025000X1.449569X0.000000X0.000000X1.449569X-1.449569X0.000000X0.000000X-1.449569X0*%
%TD*%
%TA.AperFunction,ComponentPad*%
%ADD37C,4.100000*%
%TD*%
%TA.AperFunction,ComponentPad*%
%ADD38C,2.550000*%
%TD*%
%TA.AperFunction,ComponentPad*%
%ADD39C,1.500000*%
%TD*%
%TA.AperFunction,SMDPad,CuDef*%
%ADD40RoundRect,0.250000X0.565685X0.070711X0.070711X0.565685X-0.565685X-0.070711X-0.070711X-0.565685X0*%
%TD*%
%TA.AperFunction,ViaPad*%
%ADD41C,0.800000*%
%TD*%
%TA.AperFunction,Conductor*%
%ADD42C,2.000000*%
%TD*%
%TA.AperFunction,Conductor*%
%ADD43C,0.250000*%
%TD*%
%TA.AperFunction,Conductor*%
%ADD44C,0.500000*%
%TD*%
%TA.AperFunction,Conductor*%
%ADD45C,0.900000*%
%TD*%
%TA.AperFunction,Conductor*%
%ADD46C,4.000000*%
%TD*%
%TA.AperFunction,Conductor*%
%ADD47C,1.500000*%
%TD*%
%TA.AperFunction,Conductor*%
%ADD48C,1.000000*%
%TD*%
%TA.AperFunction,Conductor*%
%ADD49C,1.200000*%
%TD*%
%TA.AperFunction,Conductor*%
%ADD50C,1.050000*%
%TD*%
%TA.AperFunction,Conductor*%
%ADD51C,1.100000*%
%TD*%
%TA.AperFunction,Conductor*%
%ADD52C,3.000000*%
%TD*%
G04 APERTURE END LIST*
D10*
%TO.P,J3,5,Pin_5*%
%TO.N,/HB+*%
X187600000Y-109600000D03*
%TO.P,J3,4,Pin_4*%
%TO.N,/PWM_HB*%
X187600000Y-105400000D03*
%TO.P,J3,3,Pin_3*%
%TO.N,GND*%
X187600000Y-101200000D03*
%TO.P,J3,2,Pin_2*%
%TO.N,/PWM_HE{slash}CAN_Gnd*%
X187600000Y-97000000D03*
D11*
%TO.P,J3,1,Pin_1*%
%TO.N,/HE+{slash}CAN_V*%
X187600000Y-92800000D03*
%TD*%
D12*
%TO.P,J14,1,Pin_1*%
%TO.N,PWM_FAN_A*%
X110600000Y-84900000D03*
D13*
%TO.P,J14,2,Pin_2*%
%TO.N,V_Fan_A*%
X108100000Y-84900000D03*
%TO.P,J14,3,Pin_3*%
%TO.N,F_Sens*%
X105600000Y-84900000D03*
%TO.P,J14,4,Pin_4*%
%TO.N,PWM*%
X103100000Y-84900000D03*
%TD*%
D14*
%TO.P,J27,1*%
%TO.N,GND*%
X140200000Y-83780000D03*
D15*
%TO.P,J27,2*%
%TO.N,+5V*%
X140200000Y-86320000D03*
%TO.P,J27,3*%
%TO.N,OP1*%
X140200000Y-88860000D03*
%TO.P,J27,4*%
%TO.N,GND*%
X140200000Y-91400000D03*
%TO.P,J27,5*%
%TO.N,+5V*%
X140200000Y-93940000D03*
%TD*%
D16*
%TO.P,D2,1,K*%
%TO.N,Net-(D2-K)*%
X102600000Y-95400000D03*
%TO.P,D2,2,A*%
%TO.N,/Fused HB*%
X101150432Y-93950432D03*
%TD*%
D17*
%TO.P,TP2,1,1*%
%TO.N,/AGND*%
X160600000Y-94900000D03*
%TD*%
D18*
%TO.P,J13,1,Pin_1*%
%TO.N,Y_Stop*%
X91000000Y-77500000D03*
D19*
%TO.P,J13,2,Pin_2*%
%TO.N,GND*%
X91000000Y-80000000D03*
%TD*%
D20*
%TO.P,J9,1,Pin_1*%
%TO.N,/AGND*%
X119100000Y-95200000D03*
D21*
%TO.P,J9,2,Pin_2*%
%TO.N,TA*%
X116600000Y-95200000D03*
%TD*%
D12*
%TO.P,J22,1,Pin_1*%
%TO.N,/Y1-A2*%
X104950000Y-70725000D03*
D13*
%TO.P,J22,2,Pin_2*%
%TO.N,/Y1-A1*%
X102450000Y-70725000D03*
%TO.P,J22,3,Pin_3*%
%TO.N,/Y1-B1*%
X99950000Y-70725000D03*
%TO.P,J22,4,Pin_4*%
%TO.N,/Y1-B2*%
X97450000Y-70725000D03*
%TD*%
D22*
%TO.P,FID1,*%
%TO.N,*%
X99200000Y-78700000D03*
%TD*%
D20*
%TO.P,J16,1,Pin_1*%
%TO.N,V_Fan_H*%
X167500000Y-83000000D03*
D21*
%TO.P,J16,2,Pin_2*%
%TO.N,PWM_FAN_H*%
X165000000Y-83000000D03*
%TD*%
D12*
%TO.P,J21,1,Pin_1*%
%TO.N,/Z1-A2*%
X119533333Y-70725000D03*
D13*
%TO.P,J21,2,Pin_2*%
%TO.N,/Z1-A1*%
X117033333Y-70725000D03*
%TO.P,J21,3,Pin_3*%
%TO.N,/Z1-B1*%
X114533333Y-70725000D03*
%TO.P,J21,4,Pin_4*%
%TO.N,/Z1-B2*%
X112033333Y-70725000D03*
%TD*%
D17*
%TO.P,TP5,1,1*%
%TO.N,TB*%
X95000000Y-98000000D03*
%TD*%
D20*
%TO.P,J8,1,Pin_1*%
%TO.N,/AGND*%
X167500000Y-93800000D03*
D21*
%TO.P,J8,2,Pin_2*%
%TO.N,TH*%
X165000000Y-93800000D03*
%TD*%
D17*
%TO.P,TP4,1,1*%
%TO.N,/AGND*%
X112000000Y-93100000D03*
%TD*%
%TO.P,TP1,1,1*%
%TO.N,TH*%
X160500000Y-91500000D03*
%TD*%
D12*
%TO.P,J20,1,Pin_1*%
%TO.N,/Z-A2*%
X143699999Y-70725000D03*
D13*
%TO.P,J20,2,Pin_2*%
%TO.N,/Z-A1*%
X141199999Y-70725000D03*
%TO.P,J20,3,Pin_3*%
%TO.N,/Z-B1*%
X138699999Y-70725000D03*
%TO.P,J20,4,Pin_4*%
%TO.N,/Z-B2*%
X136199999Y-70725000D03*
%TD*%
D14*
%TO.P,JP1,1,Pin_1*%
%TO.N,GND*%
X197725000Y-115925000D03*
D15*
%TO.P,JP1,2,Pin_2*%
%TO.N,/AGND*%
X195185000Y-115925000D03*
%TD*%
D12*
%TO.P,J24,1,Pin_1*%
%TO.N,/E-A2*%
X169900000Y-104000000D03*
D13*
%TO.P,J24,2,Pin_2*%
%TO.N,/E-A1*%
X167400000Y-104000000D03*
%TO.P,J24,3,Pin_3*%
%TO.N,/E-B1*%
X164900000Y-104000000D03*
%TO.P,J24,4,Pin_4*%
%TO.N,/E-B2*%
X162400000Y-104000000D03*
%TD*%
D23*
%TO.P,J23,1,Pin_1*%
%TO.N,/Y-A2*%
X91000000Y-86500000D03*
D24*
%TO.P,J23,2,Pin_2*%
%TO.N,/Y-A1*%
X91000000Y-89000000D03*
%TO.P,J23,3,Pin_3*%
%TO.N,/Y-B1*%
X91000000Y-91500000D03*
%TO.P,J23,4,Pin_4*%
%TO.N,/Y-B2*%
X91000000Y-94000000D03*
%TD*%
D12*
%TO.P,J10,1,Pin_1*%
%TO.N,GND*%
X125900000Y-84900000D03*
D13*
%TO.P,J10,2,Pin_2*%
%TO.N,RGB*%
X123400000Y-84900000D03*
%TO.P,J10,3,Pin_3*%
%TO.N,+5V*%
X120900000Y-84900000D03*
%TD*%
D20*
%TO.P,J15,1,Pin_1*%
%TO.N,V_Fan_P*%
X152000000Y-83000000D03*
D21*
%TO.P,J15,2,Pin_2*%
%TO.N,PWM_FAN_P*%
X149500000Y-83000000D03*
%TD*%
D22*
%TO.P,FID3,*%
%TO.N,*%
X126275000Y-97275000D03*
%TD*%
D25*
%TO.P,H2,1*%
%TO.N,N/C*%
X197100000Y-123000000D03*
%TD*%
%TO.P,H3,1*%
%TO.N,N/C*%
X141800000Y-104400000D03*
%TD*%
D22*
%TO.P,FID2,*%
%TO.N,*%
X158700000Y-79100000D03*
%TD*%
D12*
%TO.P,J19,1,Pin_1*%
%TO.N,/X1-A2*%
X158283332Y-70725000D03*
D13*
%TO.P,J19,2,Pin_2*%
%TO.N,/X1-A1*%
X155783332Y-70725000D03*
%TO.P,J19,3,Pin_3*%
%TO.N,/X1-B1*%
X153283332Y-70725000D03*
%TO.P,J19,4,Pin_4*%
%TO.N,/X1-B2*%
X150783332Y-70725000D03*
%TD*%
D26*
%TO.P,J7,1,Pin_1*%
%TO.N,/AGND*%
X93000000Y-102800000D03*
D27*
%TO.P,J7,2,Pin_2*%
%TO.N,TB*%
X91232233Y-104567767D03*
%TD*%
D28*
%TO.P,D1,1,K*%
%TO.N,Net-(D1-K)*%
X190500000Y-71400000D03*
%TO.P,D1,2,A*%
%TO.N,/Fused HE*%
X190500000Y-69350000D03*
%TD*%
D12*
%TO.P,J17,1,Pin_1*%
%TO.N,/X-A2*%
X182450000Y-70725000D03*
D13*
%TO.P,J17,2,Pin_2*%
%TO.N,/X-A1*%
X179950000Y-70725000D03*
%TO.P,J17,3,Pin_3*%
%TO.N,/X-B1*%
X177450000Y-70725000D03*
%TO.P,J17,4,Pin_4*%
%TO.N,/X-B2*%
X174950000Y-70725000D03*
%TD*%
D29*
%TO.P,R1,1*%
%TO.N,Net-(D1-K)*%
X188100000Y-71375000D03*
%TO.P,R1,2*%
%TO.N,/PWM_HE{slash}CAN_Gnd*%
X188100000Y-69375000D03*
%TD*%
D25*
%TO.P,H5,1*%
%TO.N,N/C*%
X91000000Y-69800000D03*
%TD*%
D30*
%TO.P,D3,1,K*%
%TO.N,F_Sens*%
X160362527Y-108273038D03*
%TO.P,D3,2,A*%
%TO.N,Net-(D3-A)*%
X161918161Y-109828672D03*
%TD*%
D31*
%TO.P,J1,1,Pin_1*%
%TO.N,/X-A1*%
X146840000Y-117940000D03*
%TO.P,J1,2,Pin_2*%
%TO.N,/X-B2*%
X143840000Y-117940000D03*
%TO.P,J1,3,Pin_3*%
%TO.N,/X1-A1*%
X140840000Y-117940000D03*
%TO.P,J1,4,Pin_4*%
%TO.N,/X1-B2*%
X137840000Y-117940000D03*
%TO.P,J1,5,Pin_5*%
%TO.N,/Z-A1*%
X134840000Y-117940000D03*
%TO.P,J1,6,Pin_6*%
%TO.N,/Z-B2*%
X131840000Y-117940000D03*
%TO.P,J1,7,Pin_7*%
%TO.N,/Z1-A1*%
X128840000Y-117940000D03*
%TO.P,J1,8,Pin_8*%
%TO.N,/Z1-B2*%
X125840000Y-117940000D03*
%TO.P,J1,9,Pin_9*%
%TO.N,/Y1-A1*%
X122840000Y-117940000D03*
%TO.P,J1,10,Pin_10*%
%TO.N,/Y1-B2*%
X119840000Y-117940000D03*
%TO.P,J1,11,Pin_11*%
%TO.N,/Y-A1*%
X116840000Y-117940000D03*
%TO.P,J1,12,Pin_12*%
%TO.N,/Y-B2*%
X113840000Y-117940000D03*
%TO.P,J1,13,Pin_13*%
%TO.N,/X-A2*%
X146840000Y-114940000D03*
%TO.P,J1,14,Pin_14*%
%TO.N,/X-B1*%
X143840000Y-114940000D03*
%TO.P,J1,15,Pin_15*%
%TO.N,/X1-A2*%
X140840000Y-114940000D03*
%TO.P,J1,16,Pin_16*%
%TO.N,/X1-B1*%
X137840000Y-114940000D03*
%TO.P,J1,17,Pin_17*%
%TO.N,/Z-A2*%
X134840000Y-114940000D03*
%TO.P,J1,18,Pin_18*%
%TO.N,/Z-B1*%
X131840000Y-114940000D03*
%TO.P,J1,19,Pin_19*%
%TO.N,/Z1-A2*%
X128840000Y-114940000D03*
%TO.P,J1,20,Pin_20*%
%TO.N,/Z1-B1*%
X125840000Y-114940000D03*
%TO.P,J1,21,Pin_21*%
%TO.N,/Y1-A2*%
X122840000Y-114940000D03*
%TO.P,J1,22,Pin_22*%
%TO.N,/Y1-B1*%
X119840000Y-114940000D03*
%TO.P,J1,23,Pin_23*%
%TO.N,/Y-A2*%
X116840000Y-114940000D03*
%TO.P,J1,24,Pin_24*%
%TO.N,/Y-B1*%
X113840000Y-114940000D03*
%TD*%
D25*
%TO.P,H4,1*%
%TO.N,N/C*%
X197100000Y-69800000D03*
%TD*%
D32*
%TO.P,F1,1*%
%TO.N,/HE+{slash}CAN_V*%
X178500000Y-89960000D03*
X181900000Y-89960000D03*
%TO.P,F1,2*%
%TO.N,/Fused HE*%
X178500000Y-80040000D03*
X181900000Y-80040000D03*
%TD*%
D25*
%TO.P,H1,1*%
%TO.N,N/C*%
X106075000Y-123250000D03*
%TD*%
D20*
%TO.P,J11,1,Pin_1*%
%TO.N,F_Sens*%
X152000000Y-104000000D03*
D21*
%TO.P,J11,2,Pin_2*%
%TO.N,GND*%
X149500000Y-104000000D03*
%TD*%
D32*
%TO.P,F2,1*%
%TO.N,/Fused HB*%
X104794832Y-99990669D03*
X102390669Y-102394832D03*
%TO.P,F2,2*%
%TO.N,/HB+*%
X111809331Y-107005168D03*
X109405168Y-109409331D03*
%TD*%
D20*
%TO.P,J12,1,Pin_1*%
%TO.N,X_Stop*%
X167866665Y-70725000D03*
D21*
%TO.P,J12,2,Pin_2*%
%TO.N,GND*%
X165366665Y-70725000D03*
%TD*%
D20*
%TO.P,J25,1,Pin_1*%
%TO.N,Q_Stop*%
X152000000Y-93800000D03*
D21*
%TO.P,J25,2,Pin_2*%
%TO.N,GND*%
X149500000Y-93800000D03*
%TD*%
D17*
%TO.P,TP6,1,1*%
%TO.N,/AGND*%
X97200000Y-100100000D03*
%TD*%
D20*
%TO.P,J26,1,Pin_1*%
%TO.N,Z_Stop*%
X129116666Y-70725000D03*
D21*
%TO.P,J26,2,Pin_2*%
%TO.N,GND*%
X126616666Y-70725000D03*
%TD*%
D33*
%TO.P,J2,1,Pin_1*%
%TO.N,V_Fan_H*%
X187578250Y-118000000D03*
D34*
%TO.P,J2,2,Pin_2*%
%TO.N,Z_Stop*%
X184578250Y-118000000D03*
%TO.P,J2,3,Pin_3*%
%TO.N,V_Fan_P*%
X181578250Y-118000000D03*
%TO.P,J2,4,Pin_4*%
%TO.N,PWM_FAN_P*%
X178578250Y-118000000D03*
%TO.P,J2,5,Pin_5*%
%TO.N,Q_Stop*%
X175578250Y-118000000D03*
%TO.P,J2,6,Pin_6*%
%TO.N,PWM*%
X172578250Y-118000000D03*
%TO.P,J2,7,Pin_7*%
%TO.N,V_Fan_A*%
X169578250Y-118000000D03*
%TO.P,J2,8,Pin_8*%
%TO.N,Net-(D3-A)*%
X166578250Y-118000000D03*
%TO.P,J2,9,Pin_9*%
%TO.N,OP1*%
X163578250Y-118000000D03*
%TO.P,J2,10,Pin_10*%
%TO.N,TB*%
X160578250Y-118000000D03*
%TO.P,J2,11,Pin_11*%
%TO.N,TA*%
X157578250Y-118000000D03*
%TO.P,J2,12,Pin_12*%
%TO.N,X_Stop*%
X187578250Y-115000000D03*
%TO.P,J2,13,Pin_13*%
%TO.N,PWM_FAN_H*%
X184578250Y-115000000D03*
%TO.P,J2,14,Pin_14*%
%TO.N,TH*%
X181578250Y-115000000D03*
%TO.P,J2,15,Pin_15*%
%TO.N,/E-A2*%
X178578250Y-115000000D03*
%TO.P,J2,16,Pin_16*%
%TO.N,/E-A1*%
X175578250Y-115000000D03*
%TO.P,J2,17,Pin_17*%
%TO.N,/E-B1*%
X172578250Y-115000000D03*
%TO.P,J2,18,Pin_18*%
%TO.N,/E-B2*%
X169578250Y-115000000D03*
%TO.P,J2,19,Pin_19*%
%TO.N,PWM_FAN_A*%
X166578250Y-115000000D03*
%TO.P,J2,20,Pin_20*%
%TO.N,RGB*%
X163578250Y-115000000D03*
%TO.P,J2,21,Pin_21*%
%TO.N,+5V*%
X160578250Y-115000000D03*
%TO.P,J2,22,Pin_22*%
%TO.N,Y_Stop*%
X157578250Y-115000000D03*
%TD*%
D35*
%TO.P,J5,*%
%TO.N,*%
X102000000Y-120000000D03*
X92454059Y-110454058D03*
D36*
%TO.P,J5,1,Pin_1*%
%TO.N,/Fused HB*%
X98924086Y-108438804D03*
D37*
%TO.P,J5,2,Pin_2*%
%TO.N,/PWM_HB*%
X104015255Y-113529973D03*
%TD*%
D17*
%TO.P,TP3,1,1*%
%TO.N,TA*%
X112000000Y-96300000D03*
%TD*%
D38*
%TO.P,J4,1,Pin_1*%
%TO.N,/Fused HE*%
X187746545Y-78117214D03*
%TO.P,J4,2,Pin_2*%
%TO.N,/PWM_HE{slash}CAN_Gnd*%
X187746545Y-83117214D03*
D39*
%TO.P,J4,3*%
%TO.N,N/C*%
X192746545Y-75117214D03*
%TO.P,J4,4*%
X192746545Y-86117214D03*
%TD*%
D40*
%TO.P,R2,1*%
%TO.N,Net-(D2-K)*%
X100907107Y-97100000D03*
%TO.P,R2,2*%
%TO.N,/PWM_HB*%
X99492893Y-95685786D03*
%TD*%
D41*
%TO.N,F_Sens*%
X157450000Y-112900000D03*
X159429609Y-107354609D03*
%TD*%
D42*
%TO.N,GND*%
X194800000Y-101200000D02*
X199175000Y-105575000D01*
X199175000Y-114475000D02*
X197725000Y-115925000D01*
X199175000Y-105575000D02*
X199175000Y-114475000D01*
X187600000Y-101200000D02*
X194800000Y-101200000D01*
D43*
%TO.N,Net-(D1-K)*%
X190475000Y-71375000D02*
X190500000Y-71400000D01*
D44*
X188100000Y-71375000D02*
X190475000Y-71375000D01*
%TO.N,Net-(D2-K)*%
X102600000Y-95407107D02*
X100907107Y-97100000D01*
X102600000Y-95400000D02*
X102600000Y-95407107D01*
D45*
%TO.N,RGB*%
X142300000Y-82880000D02*
X142300000Y-87500000D01*
X156311990Y-105800000D02*
X163578250Y-113066260D01*
X123400000Y-83275000D02*
X124575000Y-82100000D01*
X147600000Y-104371320D02*
X149028680Y-105800000D01*
X143700000Y-96700000D02*
X147600000Y-100600000D01*
X123400000Y-84900000D02*
X123400000Y-83275000D01*
X147600000Y-100600000D02*
X147600000Y-104371320D01*
X149028680Y-105800000D02*
X156311990Y-105800000D01*
X142300000Y-87500000D02*
X143700000Y-88900000D01*
X163578250Y-113066260D02*
X163578250Y-115000000D01*
X143700000Y-88900000D02*
X143700000Y-96700000D01*
X141520000Y-82100000D02*
X142300000Y-82880000D01*
X124575000Y-82100000D02*
X141520000Y-82100000D01*
%TO.N,OP1*%
X163578250Y-118000000D02*
X163578250Y-117368250D01*
X141160000Y-88860000D02*
X140200000Y-88860000D01*
X146400000Y-104900000D02*
X146400000Y-101100000D01*
X163578250Y-117368250D02*
X162168250Y-115958250D01*
X162168250Y-115958250D02*
X162168250Y-113211894D01*
X162168250Y-113211894D02*
X155956356Y-107000000D01*
X148500000Y-107000000D02*
X146400000Y-104900000D01*
X155956356Y-107000000D02*
X148500000Y-107000000D01*
X142200000Y-96900000D02*
X142200000Y-89900000D01*
X142200000Y-89900000D02*
X141160000Y-88860000D01*
X146400000Y-101100000D02*
X142200000Y-96900000D01*
D46*
%TO.N,/Fused HE*%
X185551169Y-80080000D02*
X187513955Y-78117214D01*
D44*
X187746545Y-77753455D02*
X187746545Y-78117214D01*
X190500000Y-69350000D02*
X190500000Y-69489950D01*
D46*
X187513955Y-78117214D02*
X187746545Y-78117214D01*
X178500000Y-80040000D02*
X178540000Y-80080000D01*
D44*
X190500000Y-69489950D02*
X191800000Y-70789950D01*
D46*
X178540000Y-80080000D02*
X185551169Y-80080000D01*
D44*
X191800000Y-70789950D02*
X191800000Y-73700000D01*
X191800000Y-73700000D02*
X187746545Y-77753455D01*
%TO.N,/Fused HB*%
X104794832Y-95694832D02*
X104794832Y-99990669D01*
X103050432Y-93950432D02*
X104794832Y-95694832D01*
X101150432Y-93950432D02*
X103050432Y-93950432D01*
D47*
%TO.N,/AGND*%
X119100000Y-92100000D02*
X119100000Y-95200000D01*
D48*
X167500000Y-93800000D02*
X167500000Y-95700000D01*
X112000000Y-93100000D02*
X118100000Y-93100000D01*
D47*
X97200000Y-94100000D02*
X101100000Y-90200000D01*
D48*
X119100000Y-94100000D02*
X119100000Y-95200000D01*
X161400000Y-95700000D02*
X160600000Y-94900000D01*
D47*
X97200000Y-100100000D02*
X97200000Y-94100000D01*
X101100000Y-90200000D02*
X117200000Y-90200000D01*
D48*
X167500000Y-95700000D02*
X161400000Y-95700000D01*
D47*
X95700000Y-100100000D02*
X93000000Y-102800000D01*
D48*
X118100000Y-93100000D02*
X119100000Y-94100000D01*
D47*
X117200000Y-90200000D02*
X119100000Y-92100000D01*
X97200000Y-100100000D02*
X95700000Y-100100000D01*
D45*
%TO.N,X_Stop*%
X184750000Y-101350000D02*
X184750000Y-109914466D01*
X167866665Y-70725000D02*
X169000000Y-71858335D01*
X169000000Y-85600000D02*
X184750000Y-101350000D01*
X187578250Y-112742716D02*
X187578250Y-115000000D01*
X169000000Y-71858335D02*
X169000000Y-85600000D01*
X184750000Y-109914466D02*
X187578250Y-112742716D01*
%TO.N,Y_Stop*%
X98700000Y-82000000D02*
X98700000Y-84300000D01*
X101200000Y-86800000D02*
X105944365Y-86800000D01*
X118425000Y-87625000D02*
X123200000Y-92400000D01*
X105944365Y-86800000D02*
X106769365Y-87625000D01*
X123200000Y-92400000D02*
X123200000Y-97825000D01*
X153828250Y-111250000D02*
X157578250Y-115000000D01*
X136625000Y-111250000D02*
X153828250Y-111250000D01*
X91000000Y-77500000D02*
X94200000Y-77500000D01*
X94200000Y-77500000D02*
X98700000Y-82000000D01*
X123200000Y-97825000D02*
X136625000Y-111250000D01*
X106769365Y-87625000D02*
X118425000Y-87625000D01*
X98700000Y-84300000D02*
X101200000Y-86800000D01*
D48*
%TO.N,Q_Stop*%
X160044112Y-100750000D02*
X156644112Y-97350000D01*
X155550000Y-97350000D02*
X152000000Y-93800000D01*
X156644112Y-97350000D02*
X155550000Y-97350000D01*
X174118250Y-116540000D02*
X174118250Y-103591904D01*
X171276346Y-100750000D02*
X160044112Y-100750000D01*
X174118250Y-103591904D02*
X171276346Y-100750000D01*
X175578250Y-118000000D02*
X174118250Y-116540000D01*
D45*
%TO.N,Z_Stop*%
X181050000Y-111566926D02*
X182988250Y-113505176D01*
X129116666Y-70725000D02*
X129116666Y-72316666D01*
X168026346Y-90000000D02*
X181050000Y-103023654D01*
X129116666Y-72316666D02*
X131075000Y-74275000D01*
X131075000Y-74275000D02*
X149075000Y-74275000D01*
X181050000Y-103023654D02*
X181050000Y-111566926D01*
X164800000Y-90000000D02*
X168026346Y-90000000D01*
X149075000Y-74275000D02*
X164800000Y-90000000D01*
X182988250Y-116410000D02*
X184578250Y-118000000D01*
X182988250Y-113505176D02*
X182988250Y-116410000D01*
%TO.N,PWM*%
X159567766Y-101900000D02*
X170800000Y-101900000D01*
X103100000Y-84900000D02*
X111900000Y-76100000D01*
X172600000Y-111536500D02*
X171168250Y-112968250D01*
X170800000Y-101900000D02*
X172600000Y-103700000D01*
X148000000Y-94800000D02*
X151800000Y-98600000D01*
X171100000Y-116521750D02*
X172578250Y-118000000D01*
X171100000Y-113036500D02*
X171100000Y-116521750D01*
X141500000Y-76100000D02*
X148000000Y-82600000D01*
X151800000Y-98600000D02*
X156267766Y-98600000D01*
X148000000Y-82600000D02*
X148000000Y-94800000D01*
X111900000Y-76100000D02*
X141500000Y-76100000D01*
X172600000Y-103700000D02*
X172600000Y-111536500D01*
X156267766Y-98600000D02*
X159567766Y-101900000D01*
%TO.N,TB*%
X99900000Y-88000000D02*
X95000000Y-92900000D01*
X135850000Y-112350000D02*
X121900000Y-98400000D01*
X117869366Y-88725000D02*
X106313730Y-88725000D01*
X95000000Y-92900000D02*
X95000000Y-98000000D01*
X121900000Y-98400000D02*
X121900000Y-92755634D01*
X157090000Y-116590000D02*
X152850000Y-112350000D01*
X106313730Y-88725000D02*
X105588730Y-88000000D01*
X160578250Y-118000000D02*
X159744366Y-118000000D01*
X152850000Y-112350000D02*
X135850000Y-112350000D01*
X159744366Y-118000000D02*
X158334366Y-116590000D01*
X158334366Y-116590000D02*
X157090000Y-116590000D01*
D47*
X90600000Y-103935534D02*
X91232233Y-104567767D01*
D45*
X121900000Y-92755634D02*
X117869366Y-88725000D01*
X105588730Y-88000000D02*
X99900000Y-88000000D01*
D47*
X95000000Y-98000000D02*
X90600000Y-102400000D01*
X90600000Y-102400000D02*
X90600000Y-103935534D01*
D48*
%TO.N,TH*%
X165000000Y-93800000D02*
X162800000Y-93800000D01*
X165700000Y-91400000D02*
X167800000Y-91400000D01*
X179900000Y-103500000D02*
X179900000Y-112043272D01*
X165000000Y-92100000D02*
X165700000Y-91400000D01*
X181578250Y-113721522D02*
X181578250Y-115000000D01*
X162800000Y-93800000D02*
X160500000Y-91500000D01*
X179900000Y-112043272D02*
X181578250Y-113721522D01*
X165000000Y-93800000D02*
X165000000Y-92100000D01*
X167800000Y-91400000D02*
X179900000Y-103500000D01*
D45*
%TO.N,TA*%
X134087500Y-113487500D02*
X116600000Y-96000000D01*
X152431866Y-113487500D02*
X156944366Y-118000000D01*
X156944366Y-118000000D02*
X157578250Y-118000000D01*
D48*
X115500000Y-96300000D02*
X116600000Y-95200000D01*
D45*
X116600000Y-96000000D02*
X116600000Y-95200000D01*
X134087500Y-113487500D02*
X152431866Y-113487500D01*
D48*
X112000000Y-96300000D02*
X115500000Y-96300000D01*
D45*
%TO.N,F_Sens*%
X159429609Y-107354609D02*
X159429609Y-107361985D01*
X107225000Y-86525000D02*
X119125000Y-86525000D01*
X131400000Y-102600000D02*
X138950000Y-110150000D01*
X156100000Y-104000000D02*
X152000000Y-104000000D01*
X154722292Y-110150000D02*
X157450000Y-112877708D01*
X156100000Y-104000000D02*
X159429609Y-107329609D01*
X159429609Y-107361985D02*
X160346312Y-108278688D01*
X138950000Y-110150000D02*
X154722292Y-110150000D01*
X105600000Y-84900000D02*
X107225000Y-86525000D01*
X119125000Y-86525000D02*
X131400000Y-98800000D01*
X159429609Y-107329609D02*
X159429609Y-107354609D01*
X131400000Y-98800000D02*
X131400000Y-102600000D01*
D49*
%TO.N,V_Fan_A*%
X141600000Y-78100000D02*
X146600000Y-83100000D01*
X168075159Y-112152495D02*
X159072664Y-103150000D01*
X151200000Y-100000000D02*
X155900000Y-100000000D01*
X108100000Y-83900000D02*
X108100000Y-84900000D01*
D50*
X168070000Y-116521750D02*
X168077000Y-113100000D01*
D49*
X146600000Y-95400000D02*
X151200000Y-100000000D01*
X168075159Y-114000000D02*
X168075159Y-112152495D01*
X108100000Y-83900000D02*
X113900000Y-78100000D01*
X159050000Y-103150000D02*
X155900000Y-100000000D01*
X169578250Y-118000000D02*
X168100000Y-116521750D01*
X159072664Y-103150000D02*
X159050000Y-103150000D01*
X113900000Y-78100000D02*
X141600000Y-78100000D01*
X146600000Y-83100000D02*
X146600000Y-95400000D01*
%TO.N,PWM_FAN_A*%
X145000000Y-83800000D02*
X145000000Y-96000000D01*
X110600000Y-84900000D02*
X115300000Y-80200000D01*
X115300000Y-80200000D02*
X141400000Y-80200000D01*
X141400000Y-80200000D02*
X145000000Y-83800000D01*
X155400000Y-101500000D02*
X166578250Y-112678250D01*
X145000000Y-96000000D02*
X150500000Y-101500000D01*
X150500000Y-101500000D02*
X155400000Y-101500000D01*
X166578250Y-112678250D02*
X166578250Y-115000000D01*
%TO.N,V_Fan_P*%
X152000000Y-88845585D02*
X161204415Y-98050000D01*
X152000000Y-83000000D02*
X152000000Y-88845585D01*
X172472361Y-98050000D02*
X178600000Y-104177639D01*
X178600000Y-104177639D02*
X178600000Y-112581750D01*
D48*
X181578250Y-118000000D02*
X180118250Y-116540000D01*
D49*
X178600000Y-112581750D02*
X180118250Y-114100000D01*
D48*
X180118250Y-116540000D02*
X180118250Y-114100000D01*
D49*
X161204415Y-98050000D02*
X172472361Y-98050000D01*
%TO.N,PWM_FAN_P*%
X149500000Y-83000000D02*
X149500000Y-88367410D01*
X160582590Y-99450000D02*
X171814824Y-99450000D01*
D48*
X177118250Y-114318250D02*
X177100000Y-114300000D01*
X178578250Y-118000000D02*
X177118250Y-116540000D01*
D49*
X149500000Y-88367410D02*
X160582590Y-99450000D01*
X177100000Y-104735176D02*
X177100000Y-114300000D01*
X171814824Y-99450000D02*
X177100000Y-104735176D01*
D48*
X177118250Y-116540000D02*
X177118250Y-114318250D01*
D51*
%TO.N,V_Fan_H*%
X167500000Y-85867766D02*
X183550000Y-101917766D01*
D48*
X186118250Y-113311774D02*
X186118250Y-116540000D01*
D51*
X183550000Y-110411522D02*
X186118250Y-112979772D01*
X183550000Y-101917766D02*
X183550000Y-110411522D01*
D48*
X186118250Y-116540000D02*
X187578250Y-118000000D01*
D51*
X167500000Y-83000000D02*
X167500000Y-85867766D01*
%TO.N,PWM_FAN_H*%
X184578250Y-113278250D02*
X182250000Y-110950000D01*
X182250000Y-102456244D02*
X165000000Y-85206244D01*
X182250000Y-110950000D02*
X182250000Y-102456244D01*
X184578250Y-115000000D02*
X184578250Y-113278250D01*
X165000000Y-85206244D02*
X165000000Y-83000000D01*
D44*
%TO.N,/PWM_HB*%
X99492893Y-95685786D02*
X99492893Y-100232107D01*
X101945228Y-115600000D02*
X104015255Y-113529973D01*
X93750000Y-109500000D02*
X99850000Y-115600000D01*
X99850000Y-115600000D02*
X101945228Y-115600000D01*
X99492893Y-100232107D02*
X93750000Y-105975000D01*
X93750000Y-105975000D02*
X93750000Y-109500000D01*
D45*
%TO.N,Net-(D3-A)*%
X165067625Y-113000000D02*
X161901946Y-109834322D01*
X166578250Y-118000000D02*
X165100000Y-116521750D01*
X165100000Y-113000000D02*
X165067625Y-113000000D01*
X165100000Y-116521750D02*
X165100000Y-113000000D01*
D46*
%TO.N,/HE+{slash}CAN_V*%
X178540000Y-90000000D02*
X178500000Y-89960000D01*
X187357253Y-92800000D02*
X184557253Y-90000000D01*
X184557253Y-90000000D02*
X178540000Y-90000000D01*
D44*
%TO.N,/PWM_HE{slash}CAN_Gnd*%
X191114949Y-68200000D02*
X192875000Y-69960051D01*
D52*
X191557253Y-94563026D02*
X191557253Y-88392746D01*
X189120279Y-97000000D02*
X191557253Y-94563026D01*
X191557253Y-88392746D02*
X187746545Y-84582038D01*
D44*
X194300000Y-73200000D02*
X194300000Y-76563759D01*
X189275000Y-68200000D02*
X191114949Y-68200000D01*
X188100000Y-69375000D02*
X189275000Y-68200000D01*
D52*
X187746545Y-84582038D02*
X187746545Y-83117214D01*
D44*
X192875000Y-71775000D02*
X194300000Y-73200000D01*
X194300000Y-76563759D02*
X187746545Y-83117214D01*
D52*
X187600000Y-97000000D02*
X189120279Y-97000000D01*
D44*
X192875000Y-69960051D02*
X192875000Y-71775000D01*
%TD*%
%TA.AperFunction,Conductor*%
%TO.N,+5V*%
G36*
X141084099Y-81020185D02*
G01*
X141104741Y-81036819D01*
X141305741Y-81237819D01*
X141339226Y-81299142D01*
X141334242Y-81368834D01*
X141292370Y-81424767D01*
X141226906Y-81449184D01*
X141218060Y-81449500D01*
X124660505Y-81449500D01*
X124644494Y-81447732D01*
X124644472Y-81447974D01*
X124636705Y-81447240D01*
X124636704Y-81447240D01*
X124574851Y-81449184D01*
X124566738Y-81449439D01*
X124562843Y-81449500D01*
X124534075Y-81449500D01*
X124534072Y-81449500D01*
X124534057Y-81449501D01*
X124529687Y-81450053D01*
X124518059Y-81450968D01*
X124472435Y-81452402D01*
X124472425Y-81452404D01*
X124452049Y-81458323D01*
X124433008Y-81462266D01*
X124411953Y-81464926D01*
X124411937Y-81464930D01*
X124369486Y-81481737D01*
X124358440Y-81485519D01*
X124314599Y-81498256D01*
X124296327Y-81509062D01*
X124278861Y-81517619D01*
X124259128Y-81525432D01*
X124222193Y-81552266D01*
X124212434Y-81558676D01*
X124173132Y-81581920D01*
X124158126Y-81596926D01*
X124143336Y-81609558D01*
X124126167Y-81622032D01*
X124126165Y-81622034D01*
X124097056Y-81657219D01*
X124089196Y-81665856D01*
X123000483Y-82754569D01*
X122987910Y-82764643D01*
X122988065Y-82764830D01*
X122982058Y-82769799D01*
X122934133Y-82820833D01*
X122931427Y-82823625D01*
X122911090Y-82843963D01*
X122911077Y-82843978D01*
X122908373Y-82847463D01*
X122900806Y-82856322D01*
X122869552Y-82889607D01*
X122859322Y-82908213D01*
X122848646Y-82924464D01*
X122835640Y-82941232D01*
X122835636Y-82941238D01*
X122817508Y-82983130D01*
X122812369Y-82993619D01*
X122790372Y-83033630D01*
X122790372Y-83033631D01*
X122785091Y-83054199D01*
X122778791Y-83072601D01*
X122770364Y-83092073D01*
X122763223Y-83137162D01*
X122760854Y-83148600D01*
X122749500Y-83192817D01*
X122749500Y-83214044D01*
X122747973Y-83233443D01*
X122744653Y-83254405D01*
X122748950Y-83299858D01*
X122749500Y-83311528D01*
X122749500Y-83891231D01*
X122729815Y-83958270D01*
X122704164Y-83987085D01*
X122653589Y-84028589D01*
X122522317Y-84188547D01*
X122424769Y-84371043D01*
X122364699Y-84569067D01*
X122356753Y-84649748D01*
X122350123Y-84717074D01*
X122349500Y-84723395D01*
X122349500Y-85076604D01*
X122364699Y-85230932D01*
X122364700Y-85230934D01*
X122424768Y-85428954D01*
X122522315Y-85611450D01*
X122522317Y-85611452D01*
X122653589Y-85771410D01*
X122734584Y-85837880D01*
X122813550Y-85902685D01*
X122996046Y-86000232D01*
X123194066Y-86060300D01*
X123194065Y-86060300D01*
X123212529Y-86062118D01*
X123400000Y-86080583D01*
X123605934Y-86060300D01*
X123803954Y-86000232D01*
X123986450Y-85902685D01*
X124146410Y-85771410D01*
X124222028Y-85679269D01*
X124849500Y-85679269D01*
X124852353Y-85709699D01*
X124852353Y-85709701D01*
X124884655Y-85802011D01*
X124897207Y-85837882D01*
X124977850Y-85947150D01*
X125087118Y-86027793D01*
X125110827Y-86036089D01*
X125215299Y-86072646D01*
X125245730Y-86075500D01*
X125245734Y-86075500D01*
X126554270Y-86075500D01*
X126584699Y-86072646D01*
X126584701Y-86072646D01*
X126648790Y-86050219D01*
X126712882Y-86027793D01*
X126822150Y-85947150D01*
X126902793Y-85837882D01*
X126926052Y-85771410D01*
X126947646Y-85709701D01*
X126947646Y-85709699D01*
X126950500Y-85679269D01*
X126950500Y-84120730D01*
X126947646Y-84090300D01*
X126947646Y-84090298D01*
X126902793Y-83962119D01*
X126902792Y-83962117D01*
X126850476Y-83891231D01*
X126822150Y-83852850D01*
X126712882Y-83772207D01*
X126712880Y-83772206D01*
X126584700Y-83727353D01*
X126554270Y-83724500D01*
X126554266Y-83724500D01*
X125245734Y-83724500D01*
X125245730Y-83724500D01*
X125215300Y-83727353D01*
X125215298Y-83727353D01*
X125087119Y-83772206D01*
X125087117Y-83772207D01*
X124977850Y-83852850D01*
X124897207Y-83962117D01*
X124897206Y-83962119D01*
X124852353Y-84090298D01*
X124852353Y-84090300D01*
X124849500Y-84120730D01*
X124849500Y-85679269D01*
X124222028Y-85679269D01*
X124277685Y-85611450D01*
X124375232Y-85428954D01*
X124435300Y-85230934D01*
X124450500Y-85076608D01*
X124450500Y-84723392D01*
X124435300Y-84569066D01*
X124375232Y-84371046D01*
X124277685Y-84188550D01*
X124182159Y-84072150D01*
X124146410Y-84028589D01*
X124095836Y-83987085D01*
X124056501Y-83929339D01*
X124050500Y-83891231D01*
X124050500Y-83595808D01*
X124070185Y-83528769D01*
X124086819Y-83508127D01*
X124808127Y-82786819D01*
X124869450Y-82753334D01*
X124895808Y-82750500D01*
X139030182Y-82750500D01*
X139097221Y-82770185D01*
X139142976Y-82822989D01*
X139152920Y-82892147D01*
X139151799Y-82898692D01*
X139149500Y-82910249D01*
X139149500Y-84649752D01*
X139161131Y-84708229D01*
X139161132Y-84708230D01*
X139205447Y-84774552D01*
X139271769Y-84818867D01*
X139271770Y-84818868D01*
X139330247Y-84830499D01*
X139330250Y-84830500D01*
X139330252Y-84830500D01*
X141069750Y-84830500D01*
X141069751Y-84830499D01*
X141084568Y-84827552D01*
X141128229Y-84818868D01*
X141128229Y-84818867D01*
X141128231Y-84818867D01*
X141194552Y-84774552D01*
X141238867Y-84708231D01*
X141238867Y-84708229D01*
X141238868Y-84708229D01*
X141250499Y-84649752D01*
X141250500Y-84649750D01*
X141250500Y-83049808D01*
X141270185Y-82982769D01*
X141322989Y-82937014D01*
X141392147Y-82927070D01*
X141455703Y-82956095D01*
X141462181Y-82962127D01*
X141613181Y-83113127D01*
X141646666Y-83174450D01*
X141649500Y-83200808D01*
X141649500Y-87414494D01*
X141647732Y-87430505D01*
X141647974Y-87430528D01*
X141647240Y-87438294D01*
X141649439Y-87508262D01*
X141649500Y-87512157D01*
X141649500Y-87540920D01*
X141649501Y-87540938D01*
X141650053Y-87545311D01*
X141650968Y-87556941D01*
X141652402Y-87602567D01*
X141652403Y-87602570D01*
X141658323Y-87622948D01*
X141662268Y-87641996D01*
X141664928Y-87663054D01*
X141664931Y-87663065D01*
X141681737Y-87705514D01*
X141685520Y-87716563D01*
X141698254Y-87760395D01*
X141698255Y-87760397D01*
X141709060Y-87778666D01*
X141717617Y-87796134D01*
X141720897Y-87804417D01*
X141725432Y-87815872D01*
X141752266Y-87852806D01*
X141758678Y-87862568D01*
X141771807Y-87884768D01*
X141781919Y-87901865D01*
X141781923Y-87901869D01*
X141796925Y-87916871D01*
X141809563Y-87931669D01*
X141822033Y-87948833D01*
X141822036Y-87948837D01*
X141857213Y-87977937D01*
X141865854Y-87985800D01*
X143013181Y-89133127D01*
X143046666Y-89194450D01*
X143049500Y-89220808D01*
X143049500Y-89621113D01*
X143029815Y-89688152D01*
X142977011Y-89733907D01*
X142907853Y-89743851D01*
X142844297Y-89714826D01*
X142806523Y-89656048D01*
X142806424Y-89655709D01*
X142801744Y-89639601D01*
X142790941Y-89621335D01*
X142782379Y-89603858D01*
X142774679Y-89584410D01*
X142774568Y-89584129D01*
X142747737Y-89547199D01*
X142741323Y-89537435D01*
X142718082Y-89498137D01*
X142718081Y-89498135D01*
X142703075Y-89483129D01*
X142690435Y-89468330D01*
X142677961Y-89451160D01*
X142642780Y-89422056D01*
X142634140Y-89414194D01*
X141680434Y-88460488D01*
X141670361Y-88447914D01*
X141670174Y-88448070D01*
X141665198Y-88442054D01*
X141614167Y-88394134D01*
X141611369Y-88391423D01*
X141591035Y-88371089D01*
X141587548Y-88368384D01*
X141578669Y-88360800D01*
X141545396Y-88329554D01*
X141545388Y-88329548D01*
X141526792Y-88319325D01*
X141510531Y-88308644D01*
X141493763Y-88295637D01*
X141477409Y-88288560D01*
X141451853Y-88277501D01*
X141441394Y-88272377D01*
X141401368Y-88250373D01*
X141401365Y-88250372D01*
X141380801Y-88245092D01*
X141362396Y-88238790D01*
X141342927Y-88230365D01*
X141342921Y-88230363D01*
X141297837Y-88223223D01*
X141286398Y-88220854D01*
X141242180Y-88209500D01*
X141242177Y-88209500D01*
X141220955Y-88209500D01*
X141201555Y-88207973D01*
X141180596Y-88204653D01*
X141180595Y-88204653D01*
X141145475Y-88207973D01*
X141135140Y-88208950D01*
X141123470Y-88209500D01*
X141083769Y-88209500D01*
X141016730Y-88189815D01*
X140987915Y-88164164D01*
X140946410Y-88113589D01*
X140828677Y-88016969D01*
X140786450Y-87982315D01*
X140603954Y-87884768D01*
X140405934Y-87824700D01*
X140405932Y-87824699D01*
X140405934Y-87824699D01*
X140200000Y-87804417D01*
X139994067Y-87824699D01*
X139796043Y-87884769D01*
X139735986Y-87916871D01*
X139613550Y-87982315D01*
X139613548Y-87982316D01*
X139613547Y-87982317D01*
X139453589Y-88113589D01*
X139323284Y-88272369D01*
X139322315Y-88273550D01*
X139320199Y-88277509D01*
X139224769Y-88456043D01*
X139164699Y-88654067D01*
X139144417Y-88860000D01*
X139164699Y-89065932D01*
X139188059Y-89142940D01*
X139224768Y-89263954D01*
X139322315Y-89446450D01*
X139356969Y-89488677D01*
X139453589Y-89606410D01*
X139550209Y-89685702D01*
X139613550Y-89737685D01*
X139796046Y-89835232D01*
X139994066Y-89895300D01*
X139994065Y-89895300D01*
X140012529Y-89897118D01*
X140200000Y-89915583D01*
X140405934Y-89895300D01*
X140603954Y-89835232D01*
X140786450Y-89737685D01*
X140881537Y-89659649D01*
X140945841Y-89632339D01*
X141014709Y-89644130D01*
X141047878Y-89667824D01*
X141513181Y-90133127D01*
X141546666Y-90194450D01*
X141549500Y-90220808D01*
X141549500Y-96814496D01*
X141547732Y-96830510D01*
X141547974Y-96830533D01*
X141547240Y-96838297D01*
X141549439Y-96908262D01*
X141549500Y-96912157D01*
X141549500Y-96940920D01*
X141549501Y-96940938D01*
X141550053Y-96945311D01*
X141550968Y-96956941D01*
X141552402Y-97002567D01*
X141552403Y-97002570D01*
X141558323Y-97022948D01*
X141562268Y-97041996D01*
X141564928Y-97063054D01*
X141564931Y-97063065D01*
X141581737Y-97105514D01*
X141585520Y-97116563D01*
X141598254Y-97160395D01*
X141598255Y-97160397D01*
X141609060Y-97178666D01*
X141617617Y-97196134D01*
X141623226Y-97210300D01*
X141625432Y-97215872D01*
X141652266Y-97252806D01*
X141658678Y-97262568D01*
X141666033Y-97275005D01*
X141681919Y-97301865D01*
X141681923Y-97301869D01*
X141696925Y-97316871D01*
X141709563Y-97331669D01*
X141722033Y-97348833D01*
X141722036Y-97348837D01*
X141757213Y-97377937D01*
X141765854Y-97385800D01*
X145713181Y-101333127D01*
X145746666Y-101394450D01*
X145749500Y-101420808D01*
X145749500Y-104814494D01*
X145747732Y-104830505D01*
X145747974Y-104830528D01*
X145747240Y-104838294D01*
X145747240Y-104838296D01*
X145749439Y-104908262D01*
X145749500Y-104912157D01*
X145749500Y-104940920D01*
X145749501Y-104940938D01*
X145750053Y-104945311D01*
X145750968Y-104956941D01*
X145752402Y-105002567D01*
X145752403Y-105002570D01*
X145758323Y-105022948D01*
X145762268Y-105041996D01*
X145764928Y-105063054D01*
X145764931Y-105063065D01*
X145781737Y-105105514D01*
X145785520Y-105116563D01*
X145798254Y-105160395D01*
X145798255Y-105160397D01*
X145809060Y-105178666D01*
X145817617Y-105196134D01*
X145823226Y-105210300D01*
X145825432Y-105215872D01*
X145852266Y-105252806D01*
X145858678Y-105262568D01*
X145881919Y-105301865D01*
X145881923Y-105301869D01*
X145896925Y-105316871D01*
X145909563Y-105331669D01*
X145922033Y-105348833D01*
X145922036Y-105348837D01*
X145957213Y-105377937D01*
X145965854Y-105385800D01*
X147979564Y-107399510D01*
X147989635Y-107412080D01*
X147989822Y-107411926D01*
X147994795Y-107417937D01*
X148045832Y-107465864D01*
X148048629Y-107468575D01*
X148068967Y-107488913D01*
X148072450Y-107491615D01*
X148081326Y-107499196D01*
X148107145Y-107523441D01*
X148114607Y-107530448D01*
X148114609Y-107530449D01*
X148133205Y-107540672D01*
X148149470Y-107551357D01*
X148166232Y-107564360D01*
X148166235Y-107564361D01*
X148166236Y-107564362D01*
X148208140Y-107582495D01*
X148218612Y-107587625D01*
X148258632Y-107609627D01*
X148274340Y-107613659D01*
X148279186Y-107614904D01*
X148297598Y-107621207D01*
X148317073Y-107629635D01*
X148362174Y-107636777D01*
X148373589Y-107639142D01*
X148417823Y-107650500D01*
X148439050Y-107650500D01*
X148458447Y-107652026D01*
X148479404Y-107655346D01*
X148524852Y-107651049D01*
X148536520Y-107650500D01*
X155635548Y-107650500D01*
X155702587Y-107670185D01*
X155723229Y-107686819D01*
X161481431Y-113445020D01*
X161514916Y-113506343D01*
X161517750Y-113532701D01*
X161517750Y-115872744D01*
X161515982Y-115888755D01*
X161516224Y-115888778D01*
X161515490Y-115896544D01*
X161517689Y-115966512D01*
X161517750Y-115970407D01*
X161517750Y-115999170D01*
X161517751Y-115999188D01*
X161518303Y-116003561D01*
X161519218Y-116015189D01*
X161520222Y-116047101D01*
X161502655Y-116114726D01*
X161451316Y-116162119D01*
X161396283Y-116175000D01*
X158932929Y-116175000D01*
X158871408Y-116158662D01*
X158766333Y-116098619D01*
X158742973Y-116081351D01*
X158719759Y-116059552D01*
X158719754Y-116059549D01*
X158701157Y-116049325D01*
X158684898Y-116038644D01*
X158668131Y-116025639D01*
X158668130Y-116025638D01*
X158626228Y-116007505D01*
X158615751Y-116002372D01*
X158575734Y-115980373D01*
X158568238Y-115978448D01*
X158562252Y-115976911D01*
X158531573Y-115964470D01*
X158317100Y-115841914D01*
X158268659Y-115791562D01*
X158255131Y-115723015D01*
X158280810Y-115658035D01*
X158282768Y-115655587D01*
X158319783Y-115610483D01*
X158380740Y-115536207D01*
X158469930Y-115369346D01*
X158524852Y-115188291D01*
X158543397Y-115000000D01*
X158524852Y-114811709D01*
X158469930Y-114630654D01*
X158380740Y-114463793D01*
X158260712Y-114317538D01*
X158245336Y-114304919D01*
X158206001Y-114247173D01*
X158200000Y-114209065D01*
X158200000Y-112774999D01*
X158071573Y-112643813D01*
X158053449Y-112620191D01*
X158030320Y-112581082D01*
X157968081Y-112475843D01*
X157968078Y-112475840D01*
X157968076Y-112475837D01*
X155242726Y-109750488D01*
X155232653Y-109737914D01*
X155232466Y-109738070D01*
X155227490Y-109732054D01*
X155176459Y-109684134D01*
X155173661Y-109681423D01*
X155153327Y-109661089D01*
X155149840Y-109658384D01*
X155140961Y-109650800D01*
X155107688Y-109619554D01*
X155107680Y-109619548D01*
X155089084Y-109609325D01*
X155072823Y-109598644D01*
X155056055Y-109585637D01*
X155039701Y-109578560D01*
X155014145Y-109567501D01*
X155003686Y-109562377D01*
X154963660Y-109540373D01*
X154963657Y-109540372D01*
X154943093Y-109535092D01*
X154924688Y-109528790D01*
X154905219Y-109520365D01*
X154905213Y-109520363D01*
X154860129Y-109513223D01*
X154848690Y-109510854D01*
X154804472Y-109499500D01*
X154804469Y-109499500D01*
X154783247Y-109499500D01*
X154763847Y-109497973D01*
X154742888Y-109494653D01*
X154742887Y-109494653D01*
X154717510Y-109497052D01*
X154697432Y-109498950D01*
X154685762Y-109499500D01*
X139270808Y-109499500D01*
X139203769Y-109479815D01*
X139183127Y-109463181D01*
X134119949Y-104400003D01*
X138794415Y-104400003D01*
X138814738Y-104748927D01*
X138814739Y-104748938D01*
X138875428Y-105093127D01*
X138875430Y-105093134D01*
X138975674Y-105427972D01*
X139114107Y-105748895D01*
X139114113Y-105748908D01*
X139288870Y-106051597D01*
X139497584Y-106331949D01*
X139497589Y-106331955D01*
X139621463Y-106463253D01*
X139737442Y-106586183D01*
X139913903Y-106734251D01*
X140005186Y-106810847D01*
X140005194Y-106810853D01*
X140297203Y-107002911D01*
X140297207Y-107002913D01*
X140609549Y-107159777D01*
X140937989Y-107279319D01*
X141278086Y-107359923D01*
X141625241Y-107400500D01*
X141625248Y-107400500D01*
X141974752Y-107400500D01*
X141974759Y-107400500D01*
X142321914Y-107359923D01*
X142662011Y-107279319D01*
X142990451Y-107159777D01*
X143302793Y-107002913D01*
X143594811Y-106810849D01*
X143862558Y-106586183D01*
X144102412Y-106331953D01*
X144311130Y-106051596D01*
X144485889Y-105748904D01*
X144624326Y-105427971D01*
X144724569Y-105093136D01*
X144728270Y-105072150D01*
X144785260Y-104748938D01*
X144785259Y-104748938D01*
X144785262Y-104748927D01*
X144805585Y-104400000D01*
X144785262Y-104051073D01*
X144740708Y-103798392D01*
X144724571Y-103706872D01*
X144724569Y-103706865D01*
X144713253Y-103669066D01*
X144624326Y-103372029D01*
X144485889Y-103051096D01*
X144349406Y-102814700D01*
X144311129Y-102748402D01*
X144102415Y-102468050D01*
X144102410Y-102468044D01*
X143972694Y-102330554D01*
X143862558Y-102213817D01*
X143714488Y-102089572D01*
X143594813Y-101989152D01*
X143594805Y-101989146D01*
X143302796Y-101797088D01*
X142990458Y-101640226D01*
X142990452Y-101640223D01*
X142662012Y-101520681D01*
X142662009Y-101520680D01*
X142321915Y-101440077D01*
X142278519Y-101435004D01*
X141974759Y-101399500D01*
X141625241Y-101399500D01*
X141321480Y-101435004D01*
X141278085Y-101440077D01*
X141278083Y-101440077D01*
X140937990Y-101520680D01*
X140937987Y-101520681D01*
X140609547Y-101640223D01*
X140609541Y-101640226D01*
X140297203Y-101797088D01*
X140005194Y-101989146D01*
X140005186Y-101989152D01*
X139737442Y-102213817D01*
X139737440Y-102213819D01*
X139497589Y-102468044D01*
X139497584Y-102468050D01*
X139288870Y-102748402D01*
X139114113Y-103051091D01*
X139114107Y-103051104D01*
X138975674Y-103372027D01*
X138875430Y-103706865D01*
X138875428Y-103706872D01*
X138814739Y-104051061D01*
X138814738Y-104051072D01*
X138794415Y-104399996D01*
X138794415Y-104400003D01*
X134119949Y-104400003D01*
X132086819Y-102366873D01*
X132053334Y-102305550D01*
X132050500Y-102279192D01*
X132050500Y-98885501D01*
X132052268Y-98869488D01*
X132052026Y-98869466D01*
X132052758Y-98861710D01*
X132052760Y-98861703D01*
X132050561Y-98791735D01*
X132050500Y-98787840D01*
X132050500Y-98759077D01*
X132050499Y-98759070D01*
X132049949Y-98754716D01*
X132049030Y-98743054D01*
X132047597Y-98697430D01*
X132041676Y-98677052D01*
X132037731Y-98658003D01*
X132035071Y-98636942D01*
X132018261Y-98594487D01*
X132014481Y-98583445D01*
X132001744Y-98539601D01*
X131990939Y-98521332D01*
X131982379Y-98503858D01*
X131981351Y-98501262D01*
X131974568Y-98484129D01*
X131947737Y-98447199D01*
X131941323Y-98437435D01*
X131918082Y-98398137D01*
X131918081Y-98398135D01*
X131903075Y-98383129D01*
X131890435Y-98368330D01*
X131877961Y-98351160D01*
X131842780Y-98322056D01*
X131834140Y-98314194D01*
X124919946Y-91400000D01*
X139144417Y-91400000D01*
X139164699Y-91605932D01*
X139164700Y-91605934D01*
X139224768Y-91803954D01*
X139322315Y-91986450D01*
X139322317Y-91986452D01*
X139453589Y-92146410D01*
X139550209Y-92225702D01*
X139613550Y-92277685D01*
X139796046Y-92375232D01*
X139994066Y-92435300D01*
X139994065Y-92435300D01*
X140012529Y-92437118D01*
X140200000Y-92455583D01*
X140405934Y-92435300D01*
X140603954Y-92375232D01*
X140786450Y-92277685D01*
X140946410Y-92146410D01*
X141077685Y-91986450D01*
X141175232Y-91803954D01*
X141235300Y-91605934D01*
X141255583Y-91400000D01*
X141235300Y-91194066D01*
X141175232Y-90996046D01*
X141077685Y-90813550D01*
X140974456Y-90687764D01*
X140946410Y-90653589D01*
X140786452Y-90522317D01*
X140786453Y-90522317D01*
X140786450Y-90522315D01*
X140603954Y-90424768D01*
X140405934Y-90364700D01*
X140405932Y-90364699D01*
X140405934Y-90364699D01*
X140200000Y-90344417D01*
X139994067Y-90364699D01*
X139796043Y-90424769D01*
X139685898Y-90483643D01*
X139613550Y-90522315D01*
X139613548Y-90522316D01*
X139613547Y-90522317D01*
X139453589Y-90653589D01*
X139322317Y-90813547D01*
X139224769Y-90996043D01*
X139164699Y-91194067D01*
X139144417Y-91400000D01*
X124919946Y-91400000D01*
X119645434Y-86125488D01*
X119635361Y-86112914D01*
X119635174Y-86113070D01*
X119630198Y-86107054D01*
X119579167Y-86059134D01*
X119576369Y-86056423D01*
X119556035Y-86036089D01*
X119552548Y-86033384D01*
X119543669Y-86025800D01*
X119510396Y-85994554D01*
X119510388Y-85994548D01*
X119491792Y-85984325D01*
X119475531Y-85973644D01*
X119458763Y-85960637D01*
X119442409Y-85953560D01*
X119416853Y-85942501D01*
X119406394Y-85937377D01*
X119366368Y-85915373D01*
X119366365Y-85915372D01*
X119345801Y-85910092D01*
X119327396Y-85903790D01*
X119307927Y-85895365D01*
X119307921Y-85895363D01*
X119262837Y-85888223D01*
X119251398Y-85885854D01*
X119207180Y-85874500D01*
X119207177Y-85874500D01*
X119185955Y-85874500D01*
X119166555Y-85872973D01*
X119145596Y-85869653D01*
X119145595Y-85869653D01*
X119110475Y-85872973D01*
X119100140Y-85873950D01*
X119088470Y-85874500D01*
X111764742Y-85874500D01*
X111697703Y-85854815D01*
X111651948Y-85802011D01*
X111642004Y-85732853D01*
X111647513Y-85710307D01*
X111647646Y-85709699D01*
X111650500Y-85679269D01*
X111650500Y-85032940D01*
X111670185Y-84965901D01*
X111686819Y-84945259D01*
X115595259Y-81036819D01*
X115656582Y-81003334D01*
X115682940Y-81000500D01*
X141017060Y-81000500D01*
X141084099Y-81020185D01*
G37*
%TD.AperFunction*%
%TD*%
%TA.AperFunction,Conductor*%
%TO.N,/HB+*%
G36*
X116300364Y-98777088D02*
G01*
X116312177Y-98787177D01*
X129500000Y-111975000D01*
X130400000Y-111975000D01*
X131472625Y-111975000D01*
X131530816Y-111993907D01*
X131542629Y-112003996D01*
X133513059Y-113974426D01*
X133522465Y-113985311D01*
X133537890Y-114006030D01*
X133576679Y-114038578D01*
X133583034Y-114044401D01*
X133587729Y-114049096D01*
X133612314Y-114068534D01*
X133614496Y-114070310D01*
X133672286Y-114118802D01*
X133673120Y-114119220D01*
X133690094Y-114130035D01*
X133690823Y-114130611D01*
X133759182Y-114162487D01*
X133761706Y-114163709D01*
X133829067Y-114197540D01*
X133829969Y-114197753D01*
X133848981Y-114204362D01*
X133855052Y-114207193D01*
X133854489Y-114208398D01*
X133898589Y-114240830D01*
X133917160Y-114299128D01*
X133899540Y-114352309D01*
X133900603Y-114352967D01*
X133898189Y-114356865D01*
X133807078Y-114539841D01*
X133807077Y-114539844D01*
X133751136Y-114736456D01*
X133732275Y-114940000D01*
X133751136Y-115143544D01*
X133807077Y-115340156D01*
X133898193Y-115523142D01*
X134021381Y-115686270D01*
X134172447Y-115823984D01*
X134346244Y-115931595D01*
X134536857Y-116005438D01*
X134737792Y-116043000D01*
X134737793Y-116043000D01*
X134942207Y-116043000D01*
X134942208Y-116043000D01*
X135143143Y-116005438D01*
X135333756Y-115931595D01*
X135507553Y-115823984D01*
X135658619Y-115686270D01*
X135781807Y-115523142D01*
X135872923Y-115340156D01*
X135928864Y-115143544D01*
X135947725Y-114940000D01*
X135928864Y-114736456D01*
X135872923Y-114539844D01*
X135793892Y-114381128D01*
X135784879Y-114320610D01*
X135813159Y-114266353D01*
X135867930Y-114239080D01*
X135882513Y-114238000D01*
X136797487Y-114238000D01*
X136855678Y-114256907D01*
X136891642Y-114306407D01*
X136891642Y-114367593D01*
X136886108Y-114381128D01*
X136859855Y-114433852D01*
X136807077Y-114539844D01*
X136751136Y-114736456D01*
X136732275Y-114940000D01*
X136751136Y-115143544D01*
X136807077Y-115340156D01*
X136898193Y-115523142D01*
X137021381Y-115686270D01*
X137172447Y-115823984D01*
X137346244Y-115931595D01*
X137536857Y-116005438D01*
X137737792Y-116043000D01*
X137737793Y-116043000D01*
X137942207Y-116043000D01*
X137942208Y-116043000D01*
X138143143Y-116005438D01*
X138333756Y-115931595D01*
X138507553Y-115823984D01*
X138658619Y-115686270D01*
X138781807Y-115523142D01*
X138872923Y-115340156D01*
X138928864Y-115143544D01*
X138947725Y-114940000D01*
X138928864Y-114736456D01*
X138872923Y-114539844D01*
X138793892Y-114381128D01*
X138784879Y-114320610D01*
X138813159Y-114266353D01*
X138867930Y-114239080D01*
X138882513Y-114238000D01*
X139797487Y-114238000D01*
X139855678Y-114256907D01*
X139891642Y-114306407D01*
X139891642Y-114367593D01*
X139886108Y-114381128D01*
X139859855Y-114433852D01*
X139807077Y-114539844D01*
X139751136Y-114736456D01*
X139732275Y-114940000D01*
X139751136Y-115143544D01*
X139807077Y-115340156D01*
X139898193Y-115523142D01*
X140021381Y-115686270D01*
X140172447Y-115823984D01*
X140346244Y-115931595D01*
X140536857Y-116005438D01*
X140737792Y-116043000D01*
X140737793Y-116043000D01*
X140942207Y-116043000D01*
X140942208Y-116043000D01*
X141143143Y-116005438D01*
X141333756Y-115931595D01*
X141507553Y-115823984D01*
X141658619Y-115686270D01*
X141781807Y-115523142D01*
X141872923Y-115340156D01*
X141928864Y-115143544D01*
X141947725Y-114940000D01*
X141928864Y-114736456D01*
X141872923Y-114539844D01*
X141793892Y-114381128D01*
X141784879Y-114320610D01*
X141813159Y-114266353D01*
X141867930Y-114239080D01*
X141882513Y-114238000D01*
X142797487Y-114238000D01*
X142855678Y-114256907D01*
X142891642Y-114306407D01*
X142891642Y-114367593D01*
X142886108Y-114381128D01*
X142859855Y-114433852D01*
X142807077Y-114539844D01*
X142751136Y-114736456D01*
X142732275Y-114940000D01*
X142751136Y-115143544D01*
X142807077Y-115340156D01*
X142898193Y-115523142D01*
X143021381Y-115686270D01*
X143172447Y-115823984D01*
X143346244Y-115931595D01*
X143536857Y-116005438D01*
X143737792Y-116043000D01*
X143737793Y-116043000D01*
X143942207Y-116043000D01*
X143942208Y-116043000D01*
X144143143Y-116005438D01*
X144333756Y-115931595D01*
X144507553Y-115823984D01*
X144658619Y-115686270D01*
X144781807Y-115523142D01*
X144872923Y-115340156D01*
X144928864Y-115143544D01*
X144947725Y-114940000D01*
X144928864Y-114736456D01*
X144872923Y-114539844D01*
X144793892Y-114381128D01*
X144784879Y-114320610D01*
X144813159Y-114266353D01*
X144867930Y-114239080D01*
X144882513Y-114238000D01*
X145797487Y-114238000D01*
X145855678Y-114256907D01*
X145891642Y-114306407D01*
X145891642Y-114367593D01*
X145886108Y-114381128D01*
X145859855Y-114433852D01*
X145807077Y-114539844D01*
X145751136Y-114736456D01*
X145732275Y-114940000D01*
X145751136Y-115143544D01*
X145807077Y-115340156D01*
X145898193Y-115523142D01*
X146021381Y-115686270D01*
X146172447Y-115823984D01*
X146346244Y-115931595D01*
X146536857Y-116005438D01*
X146737792Y-116043000D01*
X146737793Y-116043000D01*
X146942207Y-116043000D01*
X146942208Y-116043000D01*
X147143143Y-116005438D01*
X147333756Y-115931595D01*
X147507553Y-115823984D01*
X147658619Y-115686270D01*
X147781807Y-115523142D01*
X147872923Y-115340156D01*
X147928864Y-115143544D01*
X147947725Y-114940000D01*
X147928864Y-114736456D01*
X147872923Y-114539844D01*
X147793892Y-114381128D01*
X147784879Y-114320610D01*
X147813159Y-114266353D01*
X147867930Y-114239080D01*
X147882513Y-114238000D01*
X152079990Y-114238000D01*
X152138181Y-114256907D01*
X152149994Y-114266996D01*
X154244531Y-116361533D01*
X156019930Y-118136931D01*
X156047707Y-118191448D01*
X156048923Y-118207696D01*
X156046863Y-118475733D01*
X156588861Y-119005582D01*
X157230145Y-119007008D01*
X157258651Y-119011269D01*
X157370356Y-119045155D01*
X157370358Y-119045155D01*
X157370360Y-119045156D01*
X157578247Y-119065631D01*
X157578250Y-119065631D01*
X157578253Y-119065631D01*
X157786139Y-119045156D01*
X157786139Y-119045155D01*
X157786144Y-119045155D01*
X157892781Y-119012807D01*
X157921715Y-119008547D01*
X160252313Y-119013733D01*
X160280821Y-119017995D01*
X160370356Y-119045155D01*
X160370358Y-119045155D01*
X160370360Y-119045156D01*
X160578247Y-119065631D01*
X160578250Y-119065631D01*
X160578253Y-119065631D01*
X160786144Y-119045155D01*
X160786145Y-119045155D01*
X160809167Y-119038171D01*
X160870929Y-119019435D01*
X160899868Y-119015174D01*
X163274482Y-119020458D01*
X163302991Y-119024720D01*
X163370356Y-119045155D01*
X163370359Y-119045155D01*
X163370360Y-119045156D01*
X163578247Y-119065631D01*
X163578250Y-119065631D01*
X163578253Y-119065631D01*
X163702986Y-119053345D01*
X163786144Y-119045155D01*
X163849083Y-119026062D01*
X163878022Y-119021801D01*
X166296650Y-119027183D01*
X166325161Y-119031445D01*
X166370356Y-119045155D01*
X166370359Y-119045155D01*
X166370360Y-119045156D01*
X166578247Y-119065631D01*
X166578250Y-119065631D01*
X166578253Y-119065631D01*
X166683689Y-119055246D01*
X166786144Y-119045155D01*
X166827237Y-119032689D01*
X166856176Y-119028428D01*
X169318820Y-119033908D01*
X169347329Y-119038170D01*
X169370356Y-119045155D01*
X169370360Y-119045155D01*
X169370362Y-119045156D01*
X169370360Y-119045156D01*
X169578247Y-119065631D01*
X169578250Y-119065631D01*
X169578253Y-119065631D01*
X169786137Y-119045156D01*
X169786138Y-119045155D01*
X169786144Y-119045155D01*
X169805389Y-119039317D01*
X169834329Y-119035055D01*
X172340991Y-119040633D01*
X172365559Y-119044306D01*
X172365580Y-119044205D01*
X172367703Y-119044627D01*
X172369504Y-119044896D01*
X172370356Y-119045155D01*
X172526145Y-119060499D01*
X172578247Y-119065631D01*
X172578250Y-119065631D01*
X172578253Y-119065631D01*
X172630355Y-119060499D01*
X172786144Y-119045155D01*
X172786151Y-119045152D01*
X172790921Y-119044205D01*
X172791048Y-119044845D01*
X172812487Y-119041682D01*
X175388687Y-119047415D01*
X175398121Y-119047889D01*
X175552944Y-119063138D01*
X175578248Y-119065631D01*
X175578250Y-119065631D01*
X175578253Y-119065631D01*
X175659941Y-119057585D01*
X175749972Y-119048717D01*
X175759883Y-119048241D01*
X178458028Y-119054245D01*
X178467468Y-119054719D01*
X178568905Y-119064710D01*
X178578249Y-119065631D01*
X178578250Y-119065631D01*
X178578253Y-119065631D01*
X178630355Y-119060499D01*
X178683692Y-119055245D01*
X178693602Y-119054769D01*
X181527369Y-119061075D01*
X181536815Y-119061550D01*
X181578250Y-119065631D01*
X181578251Y-119065631D01*
X181584424Y-119065022D01*
X181617415Y-119061773D01*
X181627320Y-119061297D01*
X188600000Y-119076813D01*
X189000000Y-118575000D01*
X189000000Y-114300000D01*
X188999999Y-114299998D01*
X188361384Y-113723067D01*
X188330879Y-113670029D01*
X188328750Y-113649606D01*
X188328750Y-112804600D01*
X188329795Y-112790253D01*
X188333539Y-112764693D01*
X188329127Y-112714260D01*
X188328750Y-112705631D01*
X188328750Y-112699014D01*
X188328750Y-112699007D01*
X188325106Y-112667838D01*
X188324817Y-112665002D01*
X188318250Y-112589923D01*
X188318249Y-112589919D01*
X188317955Y-112589032D01*
X188313599Y-112569388D01*
X188313491Y-112568461D01*
X188287696Y-112497588D01*
X188286781Y-112494956D01*
X188263064Y-112423382D01*
X188262577Y-112422592D01*
X188253804Y-112404470D01*
X188253487Y-112403599D01*
X188212068Y-112340625D01*
X188210520Y-112338195D01*
X188170964Y-112274064D01*
X188170963Y-112274063D01*
X188170962Y-112274061D01*
X188170295Y-112273394D01*
X188157585Y-112257788D01*
X188157080Y-112257020D01*
X188157079Y-112257019D01*
X188102275Y-112205314D01*
X188100209Y-112203308D01*
X185634082Y-109737180D01*
X193069500Y-109737180D01*
X193110389Y-110008461D01*
X193110391Y-110008471D01*
X193191257Y-110270634D01*
X193301474Y-110499500D01*
X193310295Y-110517816D01*
X193464844Y-110744498D01*
X193464847Y-110744501D01*
X193464849Y-110744504D01*
X193651449Y-110945612D01*
X193651455Y-110945618D01*
X193819306Y-111079473D01*
X193865951Y-111116671D01*
X193865955Y-111116673D01*
X193865956Y-111116674D01*
X194103536Y-111253841D01*
X194103540Y-111253843D01*
X194103549Y-111253848D01*
X194358938Y-111354081D01*
X194626413Y-111415130D01*
X194694777Y-111420253D01*
X194831499Y-111430500D01*
X194831507Y-111430500D01*
X194968501Y-111430500D01*
X195094704Y-111421041D01*
X195173587Y-111415130D01*
X195441062Y-111354081D01*
X195696451Y-111253848D01*
X195934049Y-111116671D01*
X196027063Y-111042494D01*
X196148544Y-110945618D01*
X196148550Y-110945612D01*
X196284306Y-110799301D01*
X196335156Y-110744498D01*
X196489705Y-110517817D01*
X196608743Y-110270632D01*
X196689610Y-110008467D01*
X196730500Y-109737177D01*
X196730500Y-109462823D01*
X196689610Y-109191533D01*
X196608743Y-108929368D01*
X196489705Y-108682184D01*
X196335156Y-108455502D01*
X196335150Y-108455495D01*
X196148550Y-108254387D01*
X196148544Y-108254381D01*
X195934057Y-108083335D01*
X195934043Y-108083325D01*
X195696463Y-107946158D01*
X195696454Y-107946153D01*
X195696451Y-107946152D01*
X195696447Y-107946150D01*
X195696444Y-107946149D01*
X195441064Y-107845919D01*
X195173591Y-107784871D01*
X195173582Y-107784869D01*
X194968501Y-107769500D01*
X194968493Y-107769500D01*
X194831507Y-107769500D01*
X194831499Y-107769500D01*
X194626417Y-107784869D01*
X194626408Y-107784871D01*
X194358935Y-107845919D01*
X194103555Y-107946149D01*
X194103536Y-107946158D01*
X193865956Y-108083325D01*
X193865942Y-108083335D01*
X193651455Y-108254381D01*
X193651449Y-108254387D01*
X193464849Y-108455495D01*
X193464844Y-108455501D01*
X193464844Y-108455502D01*
X193310295Y-108682183D01*
X193310295Y-108682184D01*
X193310291Y-108682190D01*
X193191257Y-108929365D01*
X193110391Y-109191528D01*
X193110389Y-109191538D01*
X193069500Y-109462819D01*
X193069500Y-109737180D01*
X185634082Y-109737180D01*
X185529496Y-109632594D01*
X185501719Y-109578077D01*
X185500500Y-109562590D01*
X185500500Y-105457436D01*
X185519407Y-105399245D01*
X185520064Y-105398767D01*
X185519641Y-105398411D01*
X185678446Y-105398411D01*
X185679593Y-105399245D01*
X185698248Y-105450374D01*
X185714038Y-105671154D01*
X185714038Y-105671157D01*
X185714039Y-105671160D01*
X185741914Y-105799302D01*
X185771826Y-105936805D01*
X185866828Y-106191514D01*
X185866832Y-106191522D01*
X185997106Y-106430102D01*
X185997109Y-106430106D01*
X185997113Y-106430113D01*
X186160029Y-106647742D01*
X186352258Y-106839971D01*
X186569887Y-107002887D01*
X186569894Y-107002891D01*
X186569897Y-107002893D01*
X186808477Y-107133167D01*
X186808485Y-107133171D01*
X186808487Y-107133172D01*
X187063199Y-107228175D01*
X187328840Y-107285961D01*
X187600000Y-107305355D01*
X187871160Y-107285961D01*
X188136801Y-107228175D01*
X188391513Y-107133172D01*
X188630113Y-107002887D01*
X188847742Y-106839971D01*
X189039971Y-106647742D01*
X189202887Y-106430113D01*
X189333172Y-106191513D01*
X189428175Y-105936801D01*
X189485961Y-105671160D01*
X189505355Y-105400000D01*
X189485961Y-105128840D01*
X189428175Y-104863199D01*
X189333172Y-104608487D01*
X189333167Y-104608477D01*
X189202893Y-104369897D01*
X189202891Y-104369894D01*
X189202887Y-104369887D01*
X189039971Y-104152258D01*
X188847742Y-103960029D01*
X188630113Y-103797113D01*
X188630106Y-103797109D01*
X188630102Y-103797106D01*
X188391522Y-103666832D01*
X188391514Y-103666828D01*
X188136805Y-103571826D01*
X188136801Y-103571825D01*
X187871160Y-103514039D01*
X187871157Y-103514038D01*
X187871154Y-103514038D01*
X187600000Y-103494645D01*
X187328845Y-103514038D01*
X187063194Y-103571826D01*
X186808485Y-103666828D01*
X186808477Y-103666832D01*
X186569897Y-103797106D01*
X186569889Y-103797111D01*
X186569887Y-103797113D01*
X186462933Y-103877177D01*
X186352260Y-103960027D01*
X186160027Y-104152260D01*
X186077177Y-104262933D01*
X186002786Y-104362310D01*
X185997106Y-104369897D01*
X185866832Y-104608477D01*
X185866828Y-104608485D01*
X185771826Y-104863194D01*
X185714038Y-105128845D01*
X185698248Y-105349626D01*
X185678446Y-105398411D01*
X185519641Y-105398411D01*
X185515460Y-105394892D01*
X185500500Y-105342563D01*
X185500500Y-103415507D01*
X185519407Y-103357316D01*
X185529490Y-103345509D01*
X186224560Y-102650439D01*
X186279073Y-102622665D01*
X186339505Y-102632236D01*
X186353888Y-102641192D01*
X186465175Y-102724500D01*
X186569887Y-102802887D01*
X186569889Y-102802888D01*
X186569893Y-102802891D01*
X186808477Y-102933167D01*
X186808485Y-102933171D01*
X186808487Y-102933172D01*
X187063199Y-103028175D01*
X187328840Y-103085961D01*
X187600000Y-103105355D01*
X187871160Y-103085961D01*
X188136801Y-103028175D01*
X188391513Y-102933172D01*
X188630113Y-102802887D01*
X188847742Y-102639971D01*
X188881779Y-102605934D01*
X188958218Y-102529496D01*
X189012734Y-102501719D01*
X189028221Y-102500500D01*
X194220307Y-102500500D01*
X194278498Y-102519407D01*
X194290311Y-102529496D01*
X197845504Y-106084688D01*
X197873281Y-106139205D01*
X197874500Y-106154692D01*
X197874500Y-113895306D01*
X197855593Y-113953497D01*
X197845504Y-113965310D01*
X197065309Y-114745504D01*
X197010792Y-114773281D01*
X196995306Y-114774500D01*
X196830138Y-114774500D01*
X196830135Y-114774501D01*
X196805009Y-114777414D01*
X196702235Y-114822794D01*
X196622794Y-114902235D01*
X196577414Y-115005011D01*
X196574500Y-115030130D01*
X196574500Y-115290195D01*
X196561237Y-115339694D01*
X196541846Y-115373280D01*
X196541842Y-115373289D01*
X196468132Y-115575805D01*
X196430463Y-115624020D01*
X196371648Y-115640885D01*
X196314152Y-115619958D01*
X196279938Y-115569233D01*
X196262405Y-115507611D01*
X196167366Y-115316745D01*
X196038872Y-115146593D01*
X195900559Y-115020503D01*
X195881307Y-115002952D01*
X195881300Y-115002946D01*
X195700024Y-114890705D01*
X195700019Y-114890702D01*
X195668289Y-114878410D01*
X195501198Y-114813679D01*
X195501197Y-114813678D01*
X195501195Y-114813678D01*
X195291610Y-114774500D01*
X195078390Y-114774500D01*
X194868804Y-114813678D01*
X194669980Y-114890702D01*
X194669975Y-114890705D01*
X194488699Y-115002946D01*
X194488692Y-115002952D01*
X194331135Y-115146586D01*
X194331131Y-115146589D01*
X194331128Y-115146593D01*
X194331125Y-115146597D01*
X194202635Y-115316743D01*
X194202630Y-115316752D01*
X194107596Y-115507608D01*
X194049244Y-115712688D01*
X194029571Y-115925000D01*
X194049244Y-116137311D01*
X194054377Y-116155351D01*
X194107595Y-116342389D01*
X194202634Y-116533255D01*
X194331128Y-116703407D01*
X194401734Y-116767773D01*
X194488692Y-116847047D01*
X194488699Y-116847053D01*
X194573556Y-116899594D01*
X194669981Y-116959298D01*
X194868802Y-117036321D01*
X195078390Y-117075500D01*
X195291610Y-117075500D01*
X195501198Y-117036321D01*
X195700019Y-116959298D01*
X195881302Y-116847052D01*
X196038872Y-116703407D01*
X196167366Y-116533255D01*
X196262405Y-116342389D01*
X196279883Y-116280959D01*
X196313992Y-116230166D01*
X196371444Y-116209122D01*
X196430294Y-116225866D01*
X196468063Y-116274003D01*
X196541844Y-116476715D01*
X196561237Y-116510306D01*
X196574500Y-116559804D01*
X196574500Y-116819859D01*
X196574501Y-116819864D01*
X196577414Y-116844990D01*
X196595729Y-116886469D01*
X196622794Y-116947765D01*
X196702235Y-117027206D01*
X196805009Y-117072585D01*
X196830135Y-117075500D01*
X197090195Y-117075499D01*
X197139695Y-117088762D01*
X197173285Y-117108156D01*
X197387120Y-117185985D01*
X197611221Y-117225501D01*
X197838779Y-117225501D01*
X198062880Y-117185985D01*
X198276715Y-117108156D01*
X198310304Y-117088762D01*
X198359805Y-117075499D01*
X198619861Y-117075499D01*
X198619864Y-117075499D01*
X198644991Y-117072585D01*
X198747765Y-117027206D01*
X198827206Y-116947765D01*
X198837974Y-116923375D01*
X198878771Y-116877782D01*
X198938580Y-116864875D01*
X198985532Y-116882416D01*
X199377255Y-117158220D01*
X199614130Y-117325000D01*
X200757495Y-118130022D01*
X200794190Y-118178980D01*
X200799500Y-118210968D01*
X200799500Y-125396759D01*
X200799288Y-125403234D01*
X200784529Y-125628405D01*
X200782839Y-125641244D01*
X200739449Y-125859382D01*
X200736097Y-125871891D01*
X200664604Y-126082500D01*
X200659648Y-126094463D01*
X200561284Y-126293926D01*
X200554809Y-126305142D01*
X200431242Y-126490072D01*
X200423359Y-126500345D01*
X200276717Y-126667560D01*
X200267560Y-126676717D01*
X200100345Y-126823359D01*
X200090072Y-126831242D01*
X199905142Y-126954809D01*
X199893926Y-126961284D01*
X199694463Y-127059648D01*
X199682500Y-127064604D01*
X199471891Y-127136097D01*
X199459382Y-127139449D01*
X199241244Y-127182839D01*
X199228405Y-127184529D01*
X199003234Y-127199288D01*
X198996759Y-127199500D01*
X106279835Y-127199500D01*
X106279827Y-127199499D01*
X106231661Y-127199499D01*
X106225188Y-127199287D01*
X106000017Y-127184532D01*
X105987177Y-127182842D01*
X105769036Y-127139453D01*
X105756528Y-127136101D01*
X105545928Y-127064615D01*
X105533964Y-127059660D01*
X105334489Y-126961294D01*
X105323273Y-126954819D01*
X105282820Y-126927790D01*
X105138346Y-126831257D01*
X105128073Y-126823374D01*
X104958621Y-126674772D01*
X104953921Y-126670371D01*
X104927786Y-126644237D01*
X104337720Y-126054171D01*
X104309943Y-125999654D01*
X104319514Y-125939222D01*
X104362779Y-125895957D01*
X104423211Y-125886386D01*
X104455612Y-125897520D01*
X104727620Y-126047853D01*
X104727619Y-126047853D01*
X104727624Y-126047855D01*
X105049356Y-126181121D01*
X105383987Y-126277527D01*
X105727307Y-126335859D01*
X105727310Y-126335859D01*
X105727316Y-126335860D01*
X106074995Y-126355385D01*
X106075000Y-126355385D01*
X106075005Y-126355385D01*
X106422683Y-126335860D01*
X106422687Y-126335859D01*
X106422693Y-126335859D01*
X106766013Y-126277527D01*
X107100644Y-126181121D01*
X107422376Y-126047855D01*
X107727164Y-125879405D01*
X108011176Y-125677888D01*
X108270839Y-125445839D01*
X108502888Y-125186176D01*
X108704405Y-124902164D01*
X108872855Y-124597376D01*
X109006121Y-124275644D01*
X109102527Y-123941013D01*
X109160859Y-123597693D01*
X109163465Y-123551299D01*
X109180385Y-123250004D01*
X109180385Y-123249995D01*
X109160860Y-122902316D01*
X109160857Y-122902296D01*
X109131323Y-122728471D01*
X109102527Y-122558987D01*
X109035965Y-122327948D01*
X114140778Y-122327948D01*
X114170485Y-122597930D01*
X114239183Y-122860704D01*
X114239184Y-122860707D01*
X114256862Y-122902307D01*
X114345412Y-123110683D01*
X114417733Y-123229185D01*
X114486905Y-123342527D01*
X114486907Y-123342529D01*
X114486908Y-123342531D01*
X114588414Y-123464504D01*
X114660646Y-123551299D01*
X114788233Y-123665618D01*
X114862931Y-123732547D01*
X114862931Y-123732548D01*
X115020312Y-123836671D01*
X115089456Y-123882416D01*
X115335385Y-123997702D01*
X115335392Y-123997704D01*
X115595465Y-124075949D01*
X115595469Y-124075950D01*
X115595479Y-124075953D01*
X115763203Y-124100637D01*
X115864194Y-124115500D01*
X115864195Y-124115500D01*
X116067811Y-124115500D01*
X116270886Y-124100637D01*
X116535998Y-124041580D01*
X116789686Y-123944553D01*
X117026543Y-123811622D01*
X117241522Y-123645621D01*
X117430040Y-123450088D01*
X117588078Y-123229190D01*
X117712270Y-122987636D01*
X117799968Y-122730573D01*
X117849302Y-122463481D01*
X117854255Y-122327948D01*
X142840778Y-122327948D01*
X142870485Y-122597930D01*
X142939183Y-122860704D01*
X142939184Y-122860707D01*
X142956862Y-122902307D01*
X143045412Y-123110683D01*
X143117733Y-123229185D01*
X143186905Y-123342527D01*
X143186907Y-123342529D01*
X143186908Y-123342531D01*
X143288414Y-123464504D01*
X143360646Y-123551299D01*
X143488233Y-123665618D01*
X143562931Y-123732547D01*
X143562931Y-123732548D01*
X143720312Y-123836671D01*
X143789456Y-123882416D01*
X144035385Y-123997702D01*
X144035392Y-123997704D01*
X144295465Y-124075949D01*
X144295469Y-124075950D01*
X144295479Y-124075953D01*
X144463203Y-124100637D01*
X144564194Y-124115500D01*
X144564195Y-124115500D01*
X144767811Y-124115500D01*
X144970886Y-124100637D01*
X145235998Y-124041580D01*
X145489686Y-123944553D01*
X145726543Y-123811622D01*
X145941522Y-123645621D01*
X146130040Y-123450088D01*
X146288078Y-123229190D01*
X146412270Y-122987636D01*
X146499968Y-122730573D01*
X146549302Y-122463481D01*
X146549532Y-122457180D01*
X157907750Y-122457180D01*
X157948639Y-122728461D01*
X157948641Y-122728471D01*
X158029507Y-122990634D01*
X158144391Y-123229190D01*
X158148545Y-123237816D01*
X158303094Y-123464498D01*
X158303097Y-123464501D01*
X158303099Y-123464504D01*
X158489699Y-123665612D01*
X158489705Y-123665618D01*
X158704192Y-123836664D01*
X158704201Y-123836671D01*
X158704205Y-123836673D01*
X158704206Y-123836674D01*
X158941786Y-123973841D01*
X158941790Y-123973843D01*
X158941799Y-123973848D01*
X159197188Y-124074081D01*
X159464663Y-124135130D01*
X159533027Y-124140253D01*
X159669749Y-124150500D01*
X159669757Y-124150500D01*
X159806751Y-124150500D01*
X159932954Y-124141041D01*
X160011837Y-124135130D01*
X160279312Y-124074081D01*
X160534701Y-123973848D01*
X160772299Y-123836671D01*
X160902863Y-123732550D01*
X160986794Y-123665618D01*
X160986800Y-123665612D01*
X161049829Y-123597683D01*
X161173406Y-123464498D01*
X161327955Y-123237817D01*
X161446993Y-122990632D01*
X161527860Y-122728467D01*
X161568750Y-122457180D01*
X183587750Y-122457180D01*
X183628639Y-122728461D01*
X183628641Y-122728471D01*
X183709507Y-122990634D01*
X183824391Y-123229190D01*
X183828545Y-123237816D01*
X183983094Y-123464498D01*
X183983097Y-123464501D01*
X183983099Y-123464504D01*
X184169699Y-123665612D01*
X184169705Y-123665618D01*
X184384192Y-123836664D01*
X184384201Y-123836671D01*
X184384205Y-123836673D01*
X184384206Y-123836674D01*
X184621786Y-123973841D01*
X184621790Y-123973843D01*
X184621799Y-123973848D01*
X184877188Y-124074081D01*
X185144663Y-124135130D01*
X185213027Y-124140253D01*
X185349749Y-124150500D01*
X185349757Y-124150500D01*
X185486751Y-124150500D01*
X185612954Y-124141041D01*
X185691837Y-124135130D01*
X185959312Y-124074081D01*
X186214701Y-123973848D01*
X186452299Y-123836671D01*
X186582863Y-123732550D01*
X186666794Y-123665618D01*
X186666800Y-123665612D01*
X186729829Y-123597683D01*
X186853406Y-123464498D01*
X187007955Y-123237817D01*
X187122480Y-123000004D01*
X193994615Y-123000004D01*
X194014139Y-123347683D01*
X194014142Y-123347703D01*
X194072472Y-123691011D01*
X194168878Y-124025642D01*
X194302146Y-124347380D01*
X194440317Y-124597380D01*
X194470595Y-124652164D01*
X194672112Y-124936176D01*
X194904161Y-125195839D01*
X195163824Y-125427888D01*
X195447836Y-125629405D01*
X195600230Y-125713630D01*
X195752620Y-125797853D01*
X195752619Y-125797853D01*
X195752624Y-125797855D01*
X196074356Y-125931121D01*
X196408987Y-126027527D01*
X196752307Y-126085859D01*
X196752310Y-126085859D01*
X196752316Y-126085860D01*
X197099995Y-126105385D01*
X197100000Y-126105385D01*
X197100005Y-126105385D01*
X197447683Y-126085860D01*
X197447687Y-126085859D01*
X197447693Y-126085859D01*
X197791013Y-126027527D01*
X198125644Y-125931121D01*
X198447376Y-125797855D01*
X198752164Y-125629405D01*
X199036176Y-125427888D01*
X199295839Y-125195839D01*
X199527888Y-124936176D01*
X199729405Y-124652164D01*
X199897855Y-124347376D01*
X200031121Y-124025644D01*
X200127527Y-123691013D01*
X200185859Y-123347693D01*
X200186150Y-123342527D01*
X200205385Y-123000004D01*
X200205385Y-122999995D01*
X200185860Y-122652316D01*
X200185857Y-122652296D01*
X200176620Y-122597929D01*
X200127527Y-122308987D01*
X200031121Y-121974356D01*
X199897855Y-121652624D01*
X199897853Y-121652619D01*
X199729407Y-121347840D01*
X199729405Y-121347836D01*
X199527888Y-121063824D01*
X199295839Y-120804161D01*
X199036176Y-120572112D01*
X198752164Y-120370595D01*
X198752159Y-120370592D01*
X198447379Y-120202146D01*
X198447380Y-120202146D01*
X198125642Y-120068878D01*
X197791011Y-119972472D01*
X197447703Y-119914142D01*
X197447683Y-119914139D01*
X197100005Y-119894615D01*
X197099995Y-119894615D01*
X196752316Y-119914139D01*
X196752296Y-119914142D01*
X196408988Y-119972472D01*
X196074357Y-120068878D01*
X195752619Y-120202146D01*
X195447840Y-120370592D01*
X195295871Y-120478420D01*
X195163824Y-120572112D01*
X195039777Y-120682966D01*
X194904168Y-120804154D01*
X194904154Y-120804168D01*
X194841414Y-120874375D01*
X194672112Y-121063824D01*
X194667792Y-121069912D01*
X194470592Y-121347840D01*
X194302146Y-121652619D01*
X194168878Y-121974357D01*
X194072472Y-122308988D01*
X194014142Y-122652296D01*
X194014139Y-122652316D01*
X193994615Y-122999995D01*
X193994615Y-123000004D01*
X187122480Y-123000004D01*
X187126993Y-122990632D01*
X187207860Y-122728467D01*
X187248750Y-122457177D01*
X187248750Y-122182823D01*
X187207860Y-121911533D01*
X187126993Y-121649368D01*
X187102178Y-121597840D01*
X187019329Y-121425803D01*
X187007955Y-121402184D01*
X186853406Y-121175502D01*
X186853400Y-121175495D01*
X186666800Y-120974387D01*
X186666794Y-120974381D01*
X186452307Y-120803335D01*
X186452293Y-120803325D01*
X186214713Y-120666158D01*
X186214704Y-120666153D01*
X186214701Y-120666152D01*
X186214697Y-120666150D01*
X186214694Y-120666149D01*
X185959314Y-120565919D01*
X185691841Y-120504871D01*
X185691832Y-120504869D01*
X185486751Y-120489500D01*
X185486743Y-120489500D01*
X185349757Y-120489500D01*
X185349749Y-120489500D01*
X185144667Y-120504869D01*
X185144658Y-120504871D01*
X184877185Y-120565919D01*
X184621805Y-120666149D01*
X184621786Y-120666158D01*
X184384206Y-120803325D01*
X184384192Y-120803335D01*
X184169705Y-120974381D01*
X184169699Y-120974387D01*
X183983099Y-121175495D01*
X183983094Y-121175501D01*
X183983094Y-121175502D01*
X183828545Y-121402183D01*
X183828545Y-121402184D01*
X183828541Y-121402190D01*
X183709507Y-121649365D01*
X183628641Y-121911528D01*
X183628639Y-121911538D01*
X183587750Y-122182819D01*
X183587750Y-122457180D01*
X161568750Y-122457180D01*
X161568750Y-122457177D01*
X161568750Y-122182823D01*
X161527860Y-121911533D01*
X161446993Y-121649368D01*
X161422178Y-121597840D01*
X161339329Y-121425803D01*
X161327955Y-121402184D01*
X161173406Y-121175502D01*
X161173400Y-121175495D01*
X160986800Y-120974387D01*
X160986794Y-120974381D01*
X160772307Y-120803335D01*
X160772293Y-120803325D01*
X160534713Y-120666158D01*
X160534704Y-120666153D01*
X160534701Y-120666152D01*
X160534697Y-120666150D01*
X160534694Y-120666149D01*
X160279314Y-120565919D01*
X160011841Y-120504871D01*
X160011832Y-120504869D01*
X159806751Y-120489500D01*
X159806743Y-120489500D01*
X159669757Y-120489500D01*
X159669749Y-120489500D01*
X159464667Y-120504869D01*
X159464658Y-120504871D01*
X159197185Y-120565919D01*
X158941805Y-120666149D01*
X158941786Y-120666158D01*
X158704206Y-120803325D01*
X158704192Y-120803335D01*
X158489705Y-120974381D01*
X158489699Y-120974387D01*
X158303099Y-121175495D01*
X158303094Y-121175501D01*
X158303094Y-121175502D01*
X158148545Y-121402183D01*
X158148545Y-121402184D01*
X158148541Y-121402190D01*
X158029507Y-121649365D01*
X157948641Y-121911528D01*
X157948639Y-121911538D01*
X157907750Y-122182819D01*
X157907750Y-122457180D01*
X146549532Y-122457180D01*
X146559222Y-122192052D01*
X146529515Y-121922071D01*
X146460816Y-121659293D01*
X146354588Y-121409318D01*
X146350238Y-121402191D01*
X146327890Y-121365572D01*
X146213095Y-121177473D01*
X146110474Y-121054161D01*
X146039355Y-120968702D01*
X145855724Y-120804168D01*
X145837068Y-120787451D01*
X145610545Y-120637584D01*
X145477995Y-120575448D01*
X145364615Y-120522298D01*
X145364610Y-120522296D01*
X145364607Y-120522295D01*
X145104534Y-120444050D01*
X145104518Y-120444046D01*
X144835806Y-120404500D01*
X144835805Y-120404500D01*
X144632190Y-120404500D01*
X144632189Y-120404500D01*
X144429113Y-120419362D01*
X144164011Y-120478417D01*
X144164009Y-120478418D01*
X144164006Y-120478419D01*
X144164002Y-120478420D01*
X143955656Y-120558105D01*
X143910311Y-120575448D01*
X143673458Y-120708377D01*
X143673457Y-120708378D01*
X143458481Y-120874375D01*
X143269962Y-121069909D01*
X143111925Y-121290806D01*
X143111920Y-121290814D01*
X142987728Y-121532368D01*
X142987727Y-121532370D01*
X142900035Y-121789414D01*
X142900031Y-121789430D01*
X142850697Y-122056521D01*
X142840778Y-122327948D01*
X117854255Y-122327948D01*
X117859222Y-122192052D01*
X117829515Y-121922071D01*
X117760816Y-121659293D01*
X117654588Y-121409318D01*
X117650238Y-121402191D01*
X117627890Y-121365572D01*
X117513095Y-121177473D01*
X117410474Y-121054161D01*
X117339355Y-120968702D01*
X117155724Y-120804168D01*
X117137068Y-120787451D01*
X116910545Y-120637584D01*
X116777995Y-120575448D01*
X116664615Y-120522298D01*
X116664610Y-120522296D01*
X116664607Y-120522295D01*
X116404534Y-120444050D01*
X116404518Y-120444046D01*
X116135806Y-120404500D01*
X116135805Y-120404500D01*
X115932190Y-120404500D01*
X115932189Y-120404500D01*
X115729113Y-120419362D01*
X115464011Y-120478417D01*
X115464009Y-120478418D01*
X115464006Y-120478419D01*
X115464002Y-120478420D01*
X115255656Y-120558105D01*
X115210311Y-120575448D01*
X114973458Y-120708377D01*
X114973457Y-120708378D01*
X114758481Y-120874375D01*
X114569962Y-121069909D01*
X114411925Y-121290806D01*
X114411920Y-121290814D01*
X114287728Y-121532368D01*
X114287727Y-121532370D01*
X114200035Y-121789414D01*
X114200031Y-121789430D01*
X114150697Y-122056521D01*
X114140778Y-122327948D01*
X109035965Y-122327948D01*
X109006121Y-122224356D01*
X108872855Y-121902624D01*
X108872853Y-121902619D01*
X108704407Y-121597840D01*
X108704405Y-121597836D01*
X108502888Y-121313824D01*
X108270839Y-121054161D01*
X108011176Y-120822112D01*
X107727164Y-120620595D01*
X107727159Y-120620592D01*
X107422379Y-120452146D01*
X107422380Y-120452146D01*
X107100642Y-120318878D01*
X106766011Y-120222472D01*
X106422703Y-120164142D01*
X106422683Y-120164139D01*
X106075005Y-120144615D01*
X106074995Y-120144615D01*
X105727316Y-120164139D01*
X105727296Y-120164142D01*
X105383988Y-120222472D01*
X105049357Y-120318878D01*
X104727619Y-120452146D01*
X104422840Y-120620592D01*
X104358629Y-120666152D01*
X104138824Y-120822112D01*
X104014777Y-120932966D01*
X103879168Y-121054154D01*
X103879154Y-121054168D01*
X103770730Y-121175495D01*
X103647112Y-121313824D01*
X103567659Y-121425803D01*
X103445592Y-121597840D01*
X103277146Y-121902619D01*
X103143878Y-122224357D01*
X103047472Y-122558988D01*
X102989142Y-122902296D01*
X102989139Y-122902316D01*
X102969615Y-123249995D01*
X102969615Y-123250004D01*
X102989139Y-123597683D01*
X102989142Y-123597703D01*
X103047472Y-123941011D01*
X103143878Y-124275642D01*
X103277146Y-124597380D01*
X103427479Y-124869387D01*
X103439079Y-124929463D01*
X103413152Y-124984883D01*
X103359601Y-125014480D01*
X103298881Y-125006947D01*
X103270828Y-124987279D01*
X98735891Y-120452342D01*
X100574196Y-120452342D01*
X100613399Y-120572998D01*
X100669212Y-120649818D01*
X101350182Y-121330787D01*
X101350185Y-121330789D01*
X101350187Y-121330791D01*
X101427000Y-121386600D01*
X101427001Y-121386600D01*
X101427002Y-121386601D01*
X101547658Y-121425804D01*
X101547660Y-121425804D01*
X101674522Y-121425804D01*
X101674524Y-121425804D01*
X101795181Y-121386601D01*
X101872000Y-121330788D01*
X103330787Y-119872000D01*
X103386601Y-119795181D01*
X103425804Y-119674524D01*
X103425804Y-119547658D01*
X103386601Y-119427002D01*
X103330788Y-119350182D01*
X102649818Y-118669213D01*
X102649814Y-118669210D01*
X102649812Y-118669208D01*
X102572999Y-118613399D01*
X102507239Y-118592033D01*
X102452342Y-118574196D01*
X102325476Y-118574196D01*
X102301682Y-118581927D01*
X102204817Y-118613399D01*
X102128005Y-118669207D01*
X100669211Y-120128002D01*
X100613398Y-120204819D01*
X100583809Y-120295887D01*
X100574196Y-120325476D01*
X100574196Y-120452342D01*
X98735891Y-120452342D01*
X96223549Y-117940000D01*
X112732275Y-117940000D01*
X112751136Y-118143544D01*
X112769445Y-118207894D01*
X112807078Y-118340158D01*
X112895896Y-118518530D01*
X112898193Y-118523142D01*
X113021381Y-118686270D01*
X113172447Y-118823984D01*
X113346244Y-118931595D01*
X113536857Y-119005438D01*
X113737792Y-119043000D01*
X113737793Y-119043000D01*
X113942207Y-119043000D01*
X113942208Y-119043000D01*
X114143143Y-119005438D01*
X114333756Y-118931595D01*
X114507553Y-118823984D01*
X114658619Y-118686270D01*
X114781807Y-118523142D01*
X114872923Y-118340156D01*
X114928864Y-118143544D01*
X114947725Y-117940000D01*
X115732275Y-117940000D01*
X115751136Y-118143544D01*
X115769445Y-118207894D01*
X115807078Y-118340158D01*
X115895896Y-118518530D01*
X115898193Y-118523142D01*
X116021381Y-118686270D01*
X116172447Y-118823984D01*
X116346244Y-118931595D01*
X116536857Y-119005438D01*
X116737792Y-119043000D01*
X116737793Y-119043000D01*
X116942207Y-119043000D01*
X116942208Y-119043000D01*
X117143143Y-119005438D01*
X117333756Y-118931595D01*
X117507553Y-118823984D01*
X117658619Y-118686270D01*
X117781807Y-118523142D01*
X117872923Y-118340156D01*
X117928864Y-118143544D01*
X117947725Y-117940000D01*
X118732275Y-117940000D01*
X118751136Y-118143544D01*
X118769445Y-118207894D01*
X118807078Y-118340158D01*
X118895896Y-118518530D01*
X118898193Y-118523142D01*
X119021381Y-118686270D01*
X119172447Y-118823984D01*
X119346244Y-118931595D01*
X119536857Y-119005438D01*
X119737792Y-119043000D01*
X119737793Y-119043000D01*
X119942207Y-119043000D01*
X119942208Y-119043000D01*
X120143143Y-119005438D01*
X120333756Y-118931595D01*
X120507553Y-118823984D01*
X120658619Y-118686270D01*
X120781807Y-118523142D01*
X120872923Y-118340156D01*
X120928864Y-118143544D01*
X120947725Y-117940000D01*
X121732275Y-117940000D01*
X121751136Y-118143544D01*
X121769445Y-118207894D01*
X121807078Y-118340158D01*
X121895896Y-118518530D01*
X121898193Y-118523142D01*
X122021381Y-118686270D01*
X122172447Y-118823984D01*
X122346244Y-118931595D01*
X122536857Y-119005438D01*
X122737792Y-119043000D01*
X122737793Y-119043000D01*
X122942207Y-119043000D01*
X122942208Y-119043000D01*
X123143143Y-119005438D01*
X123333756Y-118931595D01*
X123507553Y-118823984D01*
X123658619Y-118686270D01*
X123781807Y-118523142D01*
X123872923Y-118340156D01*
X123928864Y-118143544D01*
X123947725Y-117940000D01*
X124732275Y-117940000D01*
X124751136Y-118143544D01*
X124769445Y-118207894D01*
X124807078Y-118340158D01*
X124895896Y-118518530D01*
X124898193Y-118523142D01*
X125021381Y-118686270D01*
X125172447Y-118823984D01*
X125346244Y-118931595D01*
X125536857Y-119005438D01*
X125737792Y-119043000D01*
X125737793Y-119043000D01*
X125942207Y-119043000D01*
X125942208Y-119043000D01*
X126143143Y-119005438D01*
X126333756Y-118931595D01*
X126507553Y-118823984D01*
X126658619Y-118686270D01*
X126781807Y-118523142D01*
X126872923Y-118340156D01*
X126928864Y-118143544D01*
X126947725Y-117940000D01*
X127732275Y-117940000D01*
X127751136Y-118143544D01*
X127769445Y-118207894D01*
X127807078Y-118340158D01*
X127895896Y-118518530D01*
X127898193Y-118523142D01*
X128021381Y-118686270D01*
X128172447Y-118823984D01*
X128346244Y-118931595D01*
X128536857Y-119005438D01*
X128737792Y-119043000D01*
X128737793Y-119043000D01*
X128942207Y-119043000D01*
X128942208Y-119043000D01*
X129143143Y-119005438D01*
X129333756Y-118931595D01*
X129507553Y-118823984D01*
X129658619Y-118686270D01*
X129781807Y-118523142D01*
X129872923Y-118340156D01*
X129928864Y-118143544D01*
X129947725Y-117940000D01*
X130732275Y-117940000D01*
X130751136Y-118143544D01*
X130769445Y-118207894D01*
X130807078Y-118340158D01*
X130895896Y-118518530D01*
X130898193Y-118523142D01*
X131021381Y-118686270D01*
X131172447Y-118823984D01*
X131346244Y-118931595D01*
X131536857Y-119005438D01*
X131737792Y-119043000D01*
X131737793Y-119043000D01*
X131942207Y-119043000D01*
X131942208Y-119043000D01*
X132143143Y-119005438D01*
X132333756Y-118931595D01*
X132507553Y-118823984D01*
X132658619Y-118686270D01*
X132781807Y-118523142D01*
X132872923Y-118340156D01*
X132928864Y-118143544D01*
X132947725Y-117940000D01*
X133732275Y-117940000D01*
X133751136Y-118143544D01*
X133769445Y-118207894D01*
X133807078Y-118340158D01*
X133895896Y-118518530D01*
X133898193Y-118523142D01*
X134021381Y-118686270D01*
X134172447Y-118823984D01*
X134346244Y-118931595D01*
X134536857Y-119005438D01*
X134737792Y-119043000D01*
X134737793Y-119043000D01*
X134942207Y-119043000D01*
X134942208Y-119043000D01*
X135143143Y-119005438D01*
X135333756Y-118931595D01*
X135507553Y-118823984D01*
X135658619Y-118686270D01*
X135781807Y-118523142D01*
X135872923Y-118340156D01*
X135928864Y-118143544D01*
X135947725Y-117940000D01*
X136732275Y-117940000D01*
X136751136Y-118143544D01*
X136769445Y-118207894D01*
X136807078Y-118340158D01*
X136895896Y-118518530D01*
X136898193Y-118523142D01*
X137021381Y-118686270D01*
X137172447Y-118823984D01*
X137346244Y-118931595D01*
X137536857Y-119005438D01*
X137737792Y-119043000D01*
X137737793Y-119043000D01*
X137942207Y-119043000D01*
X137942208Y-119043000D01*
X138143143Y-119005438D01*
X138333756Y-118931595D01*
X138507553Y-118823984D01*
X138658619Y-118686270D01*
X138781807Y-118523142D01*
X138872923Y-118340156D01*
X138928864Y-118143544D01*
X138947725Y-117940000D01*
X139732275Y-117940000D01*
X139751136Y-118143544D01*
X139769445Y-118207894D01*
X139807078Y-118340158D01*
X139895896Y-118518530D01*
X139898193Y-118523142D01*
X140021381Y-118686270D01*
X140172447Y-118823984D01*
X140346244Y-118931595D01*
X140536857Y-119005438D01*
X140737792Y-119043000D01*
X140737793Y-119043000D01*
X140942207Y-119043000D01*
X140942208Y-119043000D01*
X141143143Y-119005438D01*
X141333756Y-118931595D01*
X141507553Y-118823984D01*
X141658619Y-118686270D01*
X141781807Y-118523142D01*
X141872923Y-118340156D01*
X141928864Y-118143544D01*
X141947725Y-117940000D01*
X142732275Y-117940000D01*
X142751136Y-118143544D01*
X142769445Y-118207894D01*
X142807078Y-118340158D01*
X142895896Y-118518530D01*
X142898193Y-118523142D01*
X143021381Y-118686270D01*
X143172447Y-118823984D01*
X143346244Y-118931595D01*
X143536857Y-119005438D01*
X143737792Y-119043000D01*
X143737793Y-119043000D01*
X143942207Y-119043000D01*
X143942208Y-119043000D01*
X144143143Y-119005438D01*
X144333756Y-118931595D01*
X144507553Y-118823984D01*
X144658619Y-118686270D01*
X144781807Y-118523142D01*
X144872923Y-118340156D01*
X144928864Y-118143544D01*
X144947725Y-117940000D01*
X145732275Y-117940000D01*
X145751136Y-118143544D01*
X145769445Y-118207894D01*
X145807078Y-118340158D01*
X145895896Y-118518530D01*
X145898193Y-118523142D01*
X146021381Y-118686270D01*
X146172447Y-118823984D01*
X146346244Y-118931595D01*
X146536857Y-119005438D01*
X146737792Y-119043000D01*
X146737793Y-119043000D01*
X146942207Y-119043000D01*
X146942208Y-119043000D01*
X147143143Y-119005438D01*
X147333756Y-118931595D01*
X147507553Y-118823984D01*
X147658619Y-118686270D01*
X147781807Y-118523142D01*
X147872923Y-118340156D01*
X147928864Y-118143544D01*
X147947725Y-117940000D01*
X147928864Y-117736456D01*
X147872923Y-117539844D01*
X147781807Y-117356858D01*
X147658619Y-117193730D01*
X147507553Y-117056016D01*
X147461023Y-117027206D01*
X147333761Y-116948408D01*
X147333756Y-116948405D01*
X147143141Y-116874561D01*
X146964055Y-116841084D01*
X146942208Y-116837000D01*
X146737792Y-116837000D01*
X146715945Y-116841084D01*
X146536858Y-116874561D01*
X146346243Y-116948405D01*
X146346238Y-116948408D01*
X146172449Y-117056014D01*
X146172446Y-117056016D01*
X146021382Y-117193729D01*
X145898194Y-117356856D01*
X145898189Y-117356865D01*
X145828739Y-117496340D01*
X145807077Y-117539844D01*
X145751136Y-117736456D01*
X145732275Y-117940000D01*
X144947725Y-117940000D01*
X144928864Y-117736456D01*
X144872923Y-117539844D01*
X144781807Y-117356858D01*
X144658619Y-117193730D01*
X144507553Y-117056016D01*
X144461023Y-117027206D01*
X144333761Y-116948408D01*
X144333756Y-116948405D01*
X144143141Y-116874561D01*
X143964055Y-116841084D01*
X143942208Y-116837000D01*
X143737792Y-116837000D01*
X143715945Y-116841084D01*
X143536858Y-116874561D01*
X143346243Y-116948405D01*
X143346238Y-116948408D01*
X143172449Y-117056014D01*
X143172446Y-117056016D01*
X143021382Y-117193729D01*
X142898194Y-117356856D01*
X142898189Y-117356865D01*
X142828739Y-117496340D01*
X142807077Y-117539844D01*
X142751136Y-117736456D01*
X142732275Y-117940000D01*
X141947725Y-117940000D01*
X141928864Y-117736456D01*
X141872923Y-117539844D01*
X141781807Y-117356858D01*
X141658619Y-117193730D01*
X141507553Y-117056016D01*
X141461023Y-117027206D01*
X141333761Y-116948408D01*
X141333756Y-116948405D01*
X141143141Y-116874561D01*
X140964055Y-116841084D01*
X140942208Y-116837000D01*
X140737792Y-116837000D01*
X140715945Y-116841084D01*
X140536858Y-116874561D01*
X140346243Y-116948405D01*
X140346238Y-116948408D01*
X140172449Y-117056014D01*
X140172446Y-117056016D01*
X140021382Y-117193729D01*
X139898194Y-117356856D01*
X139898189Y-117356865D01*
X139828739Y-117496340D01*
X139807077Y-117539844D01*
X139751136Y-117736456D01*
X139732275Y-117940000D01*
X138947725Y-117940000D01*
X138928864Y-117736456D01*
X138872923Y-117539844D01*
X138781807Y-117356858D01*
X138658619Y-117193730D01*
X138507553Y-117056016D01*
X138461023Y-117027206D01*
X138333761Y-116948408D01*
X138333756Y-116948405D01*
X138143141Y-116874561D01*
X137964055Y-116841084D01*
X137942208Y-116837000D01*
X137737792Y-116837000D01*
X137715945Y-116841084D01*
X137536858Y-116874561D01*
X137346243Y-116948405D01*
X137346238Y-116948408D01*
X137172449Y-117056014D01*
X137172446Y-117056016D01*
X137021382Y-117193729D01*
X136898194Y-117356856D01*
X136898189Y-117356865D01*
X136828739Y-117496340D01*
X136807077Y-117539844D01*
X136751136Y-117736456D01*
X136732275Y-117940000D01*
X135947725Y-117940000D01*
X135928864Y-117736456D01*
X135872923Y-117539844D01*
X135781807Y-117356858D01*
X135658619Y-117193730D01*
X135507553Y-117056016D01*
X135461023Y-117027206D01*
X135333761Y-116948408D01*
X135333756Y-116948405D01*
X135143141Y-116874561D01*
X134964055Y-116841084D01*
X134942208Y-116837000D01*
X134737792Y-116837000D01*
X134715945Y-116841084D01*
X134536858Y-116874561D01*
X134346243Y-116948405D01*
X134346238Y-116948408D01*
X134172449Y-117056014D01*
X134172446Y-117056016D01*
X134021382Y-117193729D01*
X133898194Y-117356856D01*
X133898189Y-117356865D01*
X133828739Y-117496340D01*
X133807077Y-117539844D01*
X133751136Y-117736456D01*
X133732275Y-117940000D01*
X132947725Y-117940000D01*
X132928864Y-117736456D01*
X132872923Y-117539844D01*
X132781807Y-117356858D01*
X132658619Y-117193730D01*
X132507553Y-117056016D01*
X132461023Y-117027206D01*
X132333761Y-116948408D01*
X132333756Y-116948405D01*
X132143141Y-116874561D01*
X131964055Y-116841084D01*
X131942208Y-116837000D01*
X131737792Y-116837000D01*
X131715945Y-116841084D01*
X131536858Y-116874561D01*
X131346243Y-116948405D01*
X131346238Y-116948408D01*
X131172449Y-117056014D01*
X131172446Y-117056016D01*
X131021382Y-117193729D01*
X130898194Y-117356856D01*
X130898189Y-117356865D01*
X130828739Y-117496340D01*
X130807077Y-117539844D01*
X130751136Y-117736456D01*
X130732275Y-117940000D01*
X129947725Y-117940000D01*
X129928864Y-117736456D01*
X129872923Y-117539844D01*
X129781807Y-117356858D01*
X129658619Y-117193730D01*
X129507553Y-117056016D01*
X129461023Y-117027206D01*
X129333761Y-116948408D01*
X129333756Y-116948405D01*
X129143141Y-116874561D01*
X128964055Y-116841084D01*
X128942208Y-116837000D01*
X128737792Y-116837000D01*
X128715945Y-116841084D01*
X128536858Y-116874561D01*
X128346243Y-116948405D01*
X128346238Y-116948408D01*
X128172449Y-117056014D01*
X128172446Y-117056016D01*
X128021382Y-117193729D01*
X127898194Y-117356856D01*
X127898189Y-117356865D01*
X127828739Y-117496340D01*
X127807077Y-117539844D01*
X127751136Y-117736456D01*
X127732275Y-117940000D01*
X126947725Y-117940000D01*
X126928864Y-117736456D01*
X126872923Y-117539844D01*
X126781807Y-117356858D01*
X126658619Y-117193730D01*
X126507553Y-117056016D01*
X126461023Y-117027206D01*
X126333761Y-116948408D01*
X126333756Y-116948405D01*
X126143141Y-116874561D01*
X125964055Y-116841084D01*
X125942208Y-116837000D01*
X125737792Y-116837000D01*
X125715945Y-116841084D01*
X125536858Y-116874561D01*
X125346243Y-116948405D01*
X125346238Y-116948408D01*
X125172449Y-117056014D01*
X125172446Y-117056016D01*
X125021382Y-117193729D01*
X124898194Y-117356856D01*
X124898189Y-117356865D01*
X124828739Y-117496340D01*
X124807077Y-117539844D01*
X124751136Y-117736456D01*
X124732275Y-117940000D01*
X123947725Y-117940000D01*
X123928864Y-117736456D01*
X123872923Y-117539844D01*
X123781807Y-117356858D01*
X123658619Y-117193730D01*
X123507553Y-117056016D01*
X123461023Y-117027206D01*
X123333761Y-116948408D01*
X123333756Y-116948405D01*
X123143141Y-116874561D01*
X122964055Y-116841084D01*
X122942208Y-116837000D01*
X122737792Y-116837000D01*
X122715945Y-116841084D01*
X122536858Y-116874561D01*
X122346243Y-116948405D01*
X122346238Y-116948408D01*
X122172449Y-117056014D01*
X122172446Y-117056016D01*
X122021382Y-117193729D01*
X121898194Y-117356856D01*
X121898189Y-117356865D01*
X121828739Y-117496340D01*
X121807077Y-117539844D01*
X121751136Y-117736456D01*
X121732275Y-117940000D01*
X120947725Y-117940000D01*
X120928864Y-117736456D01*
X120872923Y-117539844D01*
X120781807Y-117356858D01*
X120658619Y-117193730D01*
X120507553Y-117056016D01*
X120461023Y-117027206D01*
X120333761Y-116948408D01*
X120333756Y-116948405D01*
X120143141Y-116874561D01*
X119964055Y-116841084D01*
X119942208Y-116837000D01*
X119737792Y-116837000D01*
X119715945Y-116841084D01*
X119536858Y-116874561D01*
X119346243Y-116948405D01*
X119346238Y-116948408D01*
X119172449Y-117056014D01*
X119172446Y-117056016D01*
X119021382Y-117193729D01*
X118898194Y-117356856D01*
X118898189Y-117356865D01*
X118828739Y-117496340D01*
X118807077Y-117539844D01*
X118751136Y-117736456D01*
X118732275Y-117940000D01*
X117947725Y-117940000D01*
X117928864Y-117736456D01*
X117872923Y-117539844D01*
X117781807Y-117356858D01*
X117658619Y-117193730D01*
X117507553Y-117056016D01*
X117461023Y-117027206D01*
X117333761Y-116948408D01*
X117333756Y-116948405D01*
X117143141Y-116874561D01*
X116964055Y-116841084D01*
X116942208Y-116837000D01*
X116737792Y-116837000D01*
X116715945Y-116841084D01*
X116536858Y-116874561D01*
X116346243Y-116948405D01*
X116346238Y-116948408D01*
X116172449Y-117056014D01*
X116172446Y-117056016D01*
X116021382Y-117193729D01*
X115898194Y-117356856D01*
X115898189Y-117356865D01*
X115828739Y-117496340D01*
X115807077Y-117539844D01*
X115751136Y-117736456D01*
X115732275Y-117940000D01*
X114947725Y-117940000D01*
X114928864Y-117736456D01*
X114872923Y-117539844D01*
X114781807Y-117356858D01*
X114658619Y-117193730D01*
X114507553Y-117056016D01*
X114461023Y-117027206D01*
X114333761Y-116948408D01*
X114333756Y-116948405D01*
X114143141Y-116874561D01*
X113964055Y-116841084D01*
X113942208Y-116837000D01*
X113737792Y-116837000D01*
X113715945Y-116841084D01*
X113536858Y-116874561D01*
X113346243Y-116948405D01*
X113346238Y-116948408D01*
X113172449Y-117056014D01*
X113172446Y-117056016D01*
X113021382Y-117193729D01*
X112898194Y-117356856D01*
X112898189Y-117356865D01*
X112828739Y-117496340D01*
X112807077Y-117539844D01*
X112751136Y-117736456D01*
X112732275Y-117940000D01*
X96223549Y-117940000D01*
X95088476Y-116804927D01*
X95060699Y-116750410D01*
X95070270Y-116689978D01*
X95099151Y-116655670D01*
X95107976Y-116649065D01*
X97544255Y-114212784D01*
X97598770Y-114185009D01*
X97659202Y-114194580D01*
X97684261Y-114212786D01*
X99452903Y-115981428D01*
X99455251Y-115983858D01*
X99499320Y-116031044D01*
X99499322Y-116031045D01*
X99499323Y-116031046D01*
X99535519Y-116053058D01*
X99543899Y-116058761D01*
X99560658Y-116071470D01*
X99577658Y-116084361D01*
X99596346Y-116091730D01*
X99611454Y-116099234D01*
X99628618Y-116109672D01*
X99669422Y-116121104D01*
X99679024Y-116124334D01*
X99718432Y-116139875D01*
X99718433Y-116139875D01*
X99718436Y-116139876D01*
X99738415Y-116141929D01*
X99754992Y-116145080D01*
X99774335Y-116150500D01*
X99816701Y-116150500D01*
X99826823Y-116151018D01*
X99868972Y-116155352D01*
X99888761Y-116151939D01*
X99905583Y-116150500D01*
X101934149Y-116150500D01*
X101937528Y-116150558D01*
X101939866Y-116150637D01*
X102002054Y-116152762D01*
X102043227Y-116142727D01*
X102053167Y-116140839D01*
X102095148Y-116135070D01*
X102113567Y-116127068D01*
X102129565Y-116121687D01*
X102149080Y-116116933D01*
X102186016Y-116096164D01*
X102195070Y-116091666D01*
X102233948Y-116074780D01*
X102249526Y-116062105D01*
X102263485Y-116052606D01*
X102280987Y-116042766D01*
X102310964Y-116012787D01*
X102318460Y-116006023D01*
X102351336Y-115979278D01*
X102362915Y-115962872D01*
X102373785Y-115949966D01*
X102660638Y-115663113D01*
X102715153Y-115635338D01*
X102775585Y-115644909D01*
X102778334Y-115646365D01*
X102782658Y-115648742D01*
X102969820Y-115751636D01*
X103256512Y-115865145D01*
X103555169Y-115941827D01*
X103861083Y-115980473D01*
X104169427Y-115980473D01*
X104475341Y-115941827D01*
X104773998Y-115865145D01*
X105060690Y-115751636D01*
X105330895Y-115603089D01*
X105580351Y-115421849D01*
X105805124Y-115210772D01*
X106001671Y-114973189D01*
X106022733Y-114940000D01*
X112732275Y-114940000D01*
X112751136Y-115143544D01*
X112807077Y-115340156D01*
X112898193Y-115523142D01*
X113021381Y-115686270D01*
X113172447Y-115823984D01*
X113346244Y-115931595D01*
X113536857Y-116005438D01*
X113737792Y-116043000D01*
X113737793Y-116043000D01*
X113942207Y-116043000D01*
X113942208Y-116043000D01*
X114143143Y-116005438D01*
X114333756Y-115931595D01*
X114507553Y-115823984D01*
X114658619Y-115686270D01*
X114781807Y-115523142D01*
X114872923Y-115340156D01*
X114928864Y-115143544D01*
X114947725Y-114940000D01*
X115732275Y-114940000D01*
X115751136Y-115143544D01*
X115807077Y-115340156D01*
X115898193Y-115523142D01*
X116021381Y-115686270D01*
X116172447Y-115823984D01*
X116346244Y-115931595D01*
X116536857Y-116005438D01*
X116737792Y-116043000D01*
X116737793Y-116043000D01*
X116942207Y-116043000D01*
X116942208Y-116043000D01*
X117143143Y-116005438D01*
X117333756Y-115931595D01*
X117507553Y-115823984D01*
X117658619Y-115686270D01*
X117781807Y-115523142D01*
X117872923Y-115340156D01*
X117928864Y-115143544D01*
X117947725Y-114940000D01*
X118732275Y-114940000D01*
X118751136Y-115143544D01*
X118807077Y-115340156D01*
X118898193Y-115523142D01*
X119021381Y-115686270D01*
X119172447Y-115823984D01*
X119346244Y-115931595D01*
X119536857Y-116005438D01*
X119737792Y-116043000D01*
X119737793Y-116043000D01*
X119942207Y-116043000D01*
X119942208Y-116043000D01*
X120143143Y-116005438D01*
X120333756Y-115931595D01*
X120507553Y-115823984D01*
X120658619Y-115686270D01*
X120781807Y-115523142D01*
X120872923Y-115340156D01*
X120928864Y-115143544D01*
X120947725Y-114940000D01*
X121732275Y-114940000D01*
X121751136Y-115143544D01*
X121807077Y-115340156D01*
X121898193Y-115523142D01*
X122021381Y-115686270D01*
X122172447Y-115823984D01*
X122346244Y-115931595D01*
X122536857Y-116005438D01*
X122737792Y-116043000D01*
X122737793Y-116043000D01*
X122942207Y-116043000D01*
X122942208Y-116043000D01*
X123143143Y-116005438D01*
X123333756Y-115931595D01*
X123507553Y-115823984D01*
X123658619Y-115686270D01*
X123781807Y-115523142D01*
X123872923Y-115340156D01*
X123928864Y-115143544D01*
X123947725Y-114940000D01*
X124732275Y-114940000D01*
X124751136Y-115143544D01*
X124807077Y-115340156D01*
X124898193Y-115523142D01*
X125021381Y-115686270D01*
X125172447Y-115823984D01*
X125346244Y-115931595D01*
X125536857Y-116005438D01*
X125737792Y-116043000D01*
X125737793Y-116043000D01*
X125942207Y-116043000D01*
X125942208Y-116043000D01*
X126143143Y-116005438D01*
X126333756Y-115931595D01*
X126507553Y-115823984D01*
X126658619Y-115686270D01*
X126781807Y-115523142D01*
X126872923Y-115340156D01*
X126928864Y-115143544D01*
X126947725Y-114940000D01*
X127732275Y-114940000D01*
X127751136Y-115143544D01*
X127807077Y-115340156D01*
X127898193Y-115523142D01*
X128021381Y-115686270D01*
X128172447Y-115823984D01*
X128346244Y-115931595D01*
X128536857Y-116005438D01*
X128737792Y-116043000D01*
X128737793Y-116043000D01*
X128942207Y-116043000D01*
X128942208Y-116043000D01*
X129143143Y-116005438D01*
X129333756Y-115931595D01*
X129507553Y-115823984D01*
X129658619Y-115686270D01*
X129781807Y-115523142D01*
X129872923Y-115340156D01*
X129928864Y-115143544D01*
X129947725Y-114940000D01*
X130732275Y-114940000D01*
X130751136Y-115143544D01*
X130807077Y-115340156D01*
X130898193Y-115523142D01*
X131021381Y-115686270D01*
X131172447Y-115823984D01*
X131346244Y-115931595D01*
X131536857Y-116005438D01*
X131737792Y-116043000D01*
X131737793Y-116043000D01*
X131942207Y-116043000D01*
X131942208Y-116043000D01*
X132143143Y-116005438D01*
X132333756Y-115931595D01*
X132507553Y-115823984D01*
X132658619Y-115686270D01*
X132781807Y-115523142D01*
X132872923Y-115340156D01*
X132928864Y-115143544D01*
X132947725Y-114940000D01*
X132928864Y-114736456D01*
X132872923Y-114539844D01*
X132781807Y-114356858D01*
X132658619Y-114193730D01*
X132507553Y-114056016D01*
X132479370Y-114038566D01*
X132333761Y-113948408D01*
X132333756Y-113948405D01*
X132143141Y-113874561D01*
X131946027Y-113837714D01*
X131942208Y-113837000D01*
X131737792Y-113837000D01*
X131733973Y-113837714D01*
X131536858Y-113874561D01*
X131346243Y-113948405D01*
X131346238Y-113948408D01*
X131172449Y-114056014D01*
X131172446Y-114056016D01*
X131021382Y-114193729D01*
X130898194Y-114356856D01*
X130898189Y-114356865D01*
X130807078Y-114539841D01*
X130807077Y-114539844D01*
X130751136Y-114736456D01*
X130732275Y-114940000D01*
X129947725Y-114940000D01*
X129928864Y-114736456D01*
X129872923Y-114539844D01*
X129781807Y-114356858D01*
X129658619Y-114193730D01*
X129507553Y-114056016D01*
X129479370Y-114038566D01*
X129333761Y-113948408D01*
X129333756Y-113948405D01*
X129143141Y-113874561D01*
X128946027Y-113837714D01*
X128942208Y-113837000D01*
X128737792Y-113837000D01*
X128733973Y-113837714D01*
X128536858Y-113874561D01*
X128346243Y-113948405D01*
X128346238Y-113948408D01*
X128172449Y-114056014D01*
X128172446Y-114056016D01*
X128021382Y-114193729D01*
X127898194Y-114356856D01*
X127898189Y-114356865D01*
X127807078Y-114539841D01*
X127807077Y-114539844D01*
X127751136Y-114736456D01*
X127732275Y-114940000D01*
X126947725Y-114940000D01*
X126928864Y-114736456D01*
X126872923Y-114539844D01*
X126781807Y-114356858D01*
X126658619Y-114193730D01*
X126507553Y-114056016D01*
X126479370Y-114038566D01*
X126333761Y-113948408D01*
X126333756Y-113948405D01*
X126143141Y-113874561D01*
X125946027Y-113837714D01*
X125942208Y-113837000D01*
X125737792Y-113837000D01*
X125733973Y-113837714D01*
X125536858Y-113874561D01*
X125346243Y-113948405D01*
X125346238Y-113948408D01*
X125172449Y-114056014D01*
X125172446Y-114056016D01*
X125021382Y-114193729D01*
X124898194Y-114356856D01*
X124898189Y-114356865D01*
X124807078Y-114539841D01*
X124807077Y-114539844D01*
X124751136Y-114736456D01*
X124732275Y-114940000D01*
X123947725Y-114940000D01*
X123928864Y-114736456D01*
X123872923Y-114539844D01*
X123781807Y-114356858D01*
X123658619Y-114193730D01*
X123507553Y-114056016D01*
X123479370Y-114038566D01*
X123333761Y-113948408D01*
X123333756Y-113948405D01*
X123143141Y-113874561D01*
X122946027Y-113837714D01*
X122942208Y-113837000D01*
X122737792Y-113837000D01*
X122733973Y-113837714D01*
X122536858Y-113874561D01*
X122346243Y-113948405D01*
X122346238Y-113948408D01*
X122172449Y-114056014D01*
X122172446Y-114056016D01*
X122021382Y-114193729D01*
X121898194Y-114356856D01*
X121898189Y-114356865D01*
X121807078Y-114539841D01*
X121807077Y-114539844D01*
X121751136Y-114736456D01*
X121732275Y-114940000D01*
X120947725Y-114940000D01*
X120928864Y-114736456D01*
X120872923Y-114539844D01*
X120781807Y-114356858D01*
X120658619Y-114193730D01*
X120507553Y-114056016D01*
X120479370Y-114038566D01*
X120333761Y-113948408D01*
X120333756Y-113948405D01*
X120143141Y-113874561D01*
X119946027Y-113837714D01*
X119942208Y-113837000D01*
X119737792Y-113837000D01*
X119733973Y-113837714D01*
X119536858Y-113874561D01*
X119346243Y-113948405D01*
X119346238Y-113948408D01*
X119172449Y-114056014D01*
X119172446Y-114056016D01*
X119021382Y-114193729D01*
X118898194Y-114356856D01*
X118898189Y-114356865D01*
X118807078Y-114539841D01*
X118807077Y-114539844D01*
X118751136Y-114736456D01*
X118732275Y-114940000D01*
X117947725Y-114940000D01*
X117928864Y-114736456D01*
X117872923Y-114539844D01*
X117781807Y-114356858D01*
X117658619Y-114193730D01*
X117507553Y-114056016D01*
X117479370Y-114038566D01*
X117333761Y-113948408D01*
X117333756Y-113948405D01*
X117143141Y-113874561D01*
X116946027Y-113837714D01*
X116942208Y-113837000D01*
X116737792Y-113837000D01*
X116733973Y-113837714D01*
X116536858Y-113874561D01*
X116346243Y-113948405D01*
X116346238Y-113948408D01*
X116172449Y-114056014D01*
X116172446Y-114056016D01*
X116021382Y-114193729D01*
X115898194Y-114356856D01*
X115898189Y-114356865D01*
X115807078Y-114539841D01*
X115807077Y-114539844D01*
X115751136Y-114736456D01*
X115732275Y-114940000D01*
X114947725Y-114940000D01*
X114928864Y-114736456D01*
X114872923Y-114539844D01*
X114781807Y-114356858D01*
X114658619Y-114193730D01*
X114507553Y-114056016D01*
X114479370Y-114038566D01*
X114333761Y-113948408D01*
X114333756Y-113948405D01*
X114143141Y-113874561D01*
X113946027Y-113837714D01*
X113942208Y-113837000D01*
X113737792Y-113837000D01*
X113733973Y-113837714D01*
X113536858Y-113874561D01*
X113346243Y-113948405D01*
X113346238Y-113948408D01*
X113172449Y-114056014D01*
X113172446Y-114056016D01*
X113021382Y-114193729D01*
X112898194Y-114356856D01*
X112898189Y-114356865D01*
X112807078Y-114539841D01*
X112807077Y-114539844D01*
X112751136Y-114736456D01*
X112732275Y-114940000D01*
X106022733Y-114940000D01*
X106166890Y-114712844D01*
X106298177Y-114433846D01*
X106393461Y-114140592D01*
X106451239Y-113837709D01*
X106470600Y-113529973D01*
X106451239Y-113222237D01*
X106393461Y-112919354D01*
X106298177Y-112626100D01*
X106281153Y-112589923D01*
X106202785Y-112423383D01*
X106166890Y-112347102D01*
X106001671Y-112086757D01*
X105997588Y-112081822D01*
X105805129Y-111849180D01*
X105805119Y-111849169D01*
X105580353Y-111638098D01*
X105362208Y-111479607D01*
X105330895Y-111456857D01*
X105060690Y-111308310D01*
X105060688Y-111308309D01*
X105060686Y-111308308D01*
X104773998Y-111194801D01*
X104475341Y-111118119D01*
X104475334Y-111118118D01*
X104475338Y-111118118D01*
X104169427Y-111079473D01*
X103861083Y-111079473D01*
X103555173Y-111118118D01*
X103256511Y-111194801D01*
X102969823Y-111308308D01*
X102699623Y-111456852D01*
X102699610Y-111456860D01*
X102450156Y-111638098D01*
X102225390Y-111849169D01*
X102225380Y-111849180D01*
X102028842Y-112086752D01*
X101863621Y-112347100D01*
X101863620Y-112347101D01*
X101732335Y-112626093D01*
X101732333Y-112626100D01*
X101678997Y-112790253D01*
X101637050Y-112919352D01*
X101637047Y-112919362D01*
X101579271Y-113222231D01*
X101559910Y-113529973D01*
X101579271Y-113837714D01*
X101637047Y-114140583D01*
X101637049Y-114140592D01*
X101732333Y-114433846D01*
X101732335Y-114433852D01*
X101782212Y-114539844D01*
X101863620Y-114712844D01*
X101891483Y-114756749D01*
X101894979Y-114762258D01*
X101910195Y-114821522D01*
X101887671Y-114878410D01*
X101881394Y-114885308D01*
X101746200Y-115020503D01*
X101691683Y-115048281D01*
X101676196Y-115049500D01*
X100119033Y-115049500D01*
X100060842Y-115030593D01*
X100049029Y-115020504D01*
X98462786Y-113434261D01*
X98435009Y-113379744D01*
X98444580Y-113319312D01*
X98462780Y-113294260D01*
X112028339Y-99728701D01*
X112069319Y-99677850D01*
X112097820Y-99633503D01*
X112117091Y-99598732D01*
X112124782Y-99569370D01*
X112150546Y-99524453D01*
X112519186Y-99155814D01*
X112887824Y-98787177D01*
X112942340Y-98759400D01*
X112957827Y-98758181D01*
X116242173Y-98758181D01*
X116300364Y-98777088D01*
G37*
%TD.AperFunction*%
%TD*%
%TA.AperFunction,Conductor*%
%TO.N,/Fused HB*%
G36*
X107740677Y-95269685D02*
G01*
X107761319Y-95286319D01*
X111812318Y-99337318D01*
X111845803Y-99398641D01*
X111840819Y-99468333D01*
X111812318Y-99512680D01*
X98193732Y-113131267D01*
X98132409Y-113164752D01*
X98062717Y-113159768D01*
X98018370Y-113131267D01*
X94236819Y-109349716D01*
X94203334Y-109288393D01*
X94200500Y-109262035D01*
X94200500Y-106212964D01*
X94220185Y-106145925D01*
X94236814Y-106125288D01*
X99788637Y-100573464D01*
X99798986Y-100564216D01*
X99826863Y-100541986D01*
X99859091Y-100494714D01*
X99861705Y-100491030D01*
X99895686Y-100444989D01*
X99895686Y-100444986D01*
X99895688Y-100444985D01*
X99899680Y-100437431D01*
X99903364Y-100429782D01*
X99920217Y-100375142D01*
X99921655Y-100370769D01*
X99940539Y-100316806D01*
X99940539Y-100316803D01*
X99942125Y-100308418D01*
X99943393Y-100300011D01*
X99943393Y-100242845D01*
X99943480Y-100238207D01*
X99945617Y-100181099D01*
X99944577Y-100171868D01*
X99945406Y-100171774D01*
X99943393Y-100156473D01*
X99943393Y-99657969D01*
X99963078Y-99590930D01*
X99979712Y-99570288D01*
X104263681Y-95286319D01*
X104325004Y-95252834D01*
X104351362Y-95250000D01*
X107673638Y-95250000D01*
X107740677Y-95269685D01*
G37*
%TD.AperFunction*%
%TD*%
M02*
