%TF.GenerationSoftware,KiCad,Pcbnew,7.0.11*%
%TF.CreationDate,2024-05-26T12:32:01+00:00*%
%TF.ProjectId,LHS Breakbeat,4c485320-4272-4656-916b-626561742e6b,Vol 1*%
%TF.SameCoordinates,Original*%
%TF.FileFunction,Soldermask,Top*%
%TF.FilePolarity,Negative*%
%FSLAX46Y46*%
G04 Gerber Fmt 4.6, Leading zero omitted, Abs format (unit mm)*
G04 Created by KiCad (PCBNEW 7.0.11) date 2024-05-26 12:32:01*
%MOMM*%
%LPD*%
G01*
G04 APERTURE LIST*
G04 Aperture macros list*
%AMRoundRect*
0 Rectangle with rounded corners*
0 $1 Rounding radius*
0 $2 $3 $4 $5 $6 $7 $8 $9 X,Y pos of 4 corners*
0 Add a 4 corners polygon primitive as box body*
4,1,4,$2,$3,$4,$5,$6,$7,$8,$9,$2,$3,0*
0 Add four circle primitives for the rounded corners*
1,1,$1+$1,$2,$3*
1,1,$1+$1,$4,$5*
1,1,$1+$1,$6,$7*
1,1,$1+$1,$8,$9*
0 Add four rect primitives between the rounded corners*
20,1,$1+$1,$2,$3,$4,$5,0*
20,1,$1+$1,$4,$5,$6,$7,0*
20,1,$1+$1,$6,$7,$8,$9,0*
20,1,$1+$1,$8,$9,$2,$3,0*%
%AMHorizOval*
0 Thick line with rounded ends*
0 $1 width*
0 $2 $3 position (X,Y) of the first rounded end (center of the circle)*
0 $4 $5 position (X,Y) of the second rounded end (center of the circle)*
0 Add line between two ends*
20,1,$1,$2,$3,$4,$5,0*
0 Add two circle primitives to create the rounded ends*
1,1,$1,$2,$3*
1,1,$1,$4,$5*%
%AMRotRect*
0 Rectangle, with rotation*
0 The origin of the aperture is its center*
0 $1 length*
0 $2 width*
0 $3 Rotation angle, in degrees counterclockwise*
0 Add horizontal line*
21,1,$1,$2,0,0,$3*%
G04 Aperture macros list end*
%ADD10C,3.000000*%
%ADD11RoundRect,0.300000X1.100000X-1.100000X1.100000X1.100000X-1.100000X1.100000X-1.100000X-1.100000X0*%
%ADD12RoundRect,0.250000X0.600000X0.725000X-0.600000X0.725000X-0.600000X-0.725000X0.600000X-0.725000X0*%
%ADD13O,1.700000X1.950000*%
%ADD14R,1.700000X1.700000*%
%ADD15O,1.700000X1.700000*%
%ADD16RoundRect,0.250000X0.548008X0.088388X0.088388X0.548008X-0.548008X-0.088388X-0.088388X-0.548008X0*%
%ADD17C,2.000000*%
%ADD18RoundRect,0.250000X-0.750000X0.600000X-0.750000X-0.600000X0.750000X-0.600000X0.750000X0.600000X0*%
%ADD19O,2.000000X1.700000*%
%ADD20RoundRect,0.250000X0.600000X0.750000X-0.600000X0.750000X-0.600000X-0.750000X0.600000X-0.750000X0*%
%ADD21O,1.700000X2.000000*%
%ADD22RoundRect,0.250000X-0.725000X0.600000X-0.725000X-0.600000X0.725000X-0.600000X0.725000X0.600000X0*%
%ADD23O,1.950000X1.700000*%
%ADD24C,5.600000*%
%ADD25RoundRect,0.250000X-0.106066X0.954594X-0.954594X0.106066X0.106066X-0.954594X0.954594X-0.106066X0*%
%ADD26HorizOval,1.700000X-0.106066X0.106066X0.106066X-0.106066X0*%
%ADD27RoundRect,0.250000X0.450000X-0.325000X0.450000X0.325000X-0.450000X0.325000X-0.450000X-0.325000X0*%
%ADD28RoundRect,0.250000X0.450000X-0.350000X0.450000X0.350000X-0.450000X0.350000X-0.450000X-0.350000X0*%
%ADD29RoundRect,0.200000X-0.353553X0.070711X0.070711X-0.353553X0.353553X-0.070711X-0.070711X0.353553X0*%
%ADD30C,3.050000*%
%ADD31C,1.605000*%
%ADD32C,2.780000*%
%ADD33R,1.520000X1.520000*%
%ADD34C,1.520000*%
%ADD35RotRect,0.900000X2.000000X135.000000*%
%ADD36RoundRect,1.025000X1.449569X0.000000X0.000000X1.449569X-1.449569X0.000000X0.000000X-1.449569X0*%
%ADD37C,4.100000*%
%ADD38C,2.550000*%
%ADD39C,1.500000*%
%ADD40RoundRect,0.250000X0.565685X0.070711X0.070711X0.565685X-0.565685X-0.070711X-0.070711X-0.565685X0*%
G04 APERTURE END LIST*
D10*
%TO.C,J3*%
X187600000Y-109600000D03*
X187600000Y-105400000D03*
X187600000Y-101200000D03*
X187600000Y-97000000D03*
D11*
X187600000Y-92800000D03*
D10*
X194900000Y-92800000D03*
X194900000Y-109600000D03*
%TD*%
D12*
%TO.C,J14*%
X110600000Y-84900000D03*
D13*
X108100000Y-84900000D03*
X105600000Y-84900000D03*
X103100000Y-84900000D03*
%TD*%
D14*
%TO.C,J27*%
X140200000Y-83780000D03*
D15*
X140200000Y-86320000D03*
X140200000Y-88860000D03*
X140200000Y-91400000D03*
X140200000Y-93940000D03*
%TD*%
D16*
%TO.C,D2*%
X102600000Y-95400000D03*
X101150432Y-93950432D03*
%TD*%
D17*
%TO.C,TP2*%
X160600000Y-94900000D03*
%TD*%
D18*
%TO.C,J13*%
X91000000Y-77500000D03*
D19*
X91000000Y-80000000D03*
%TD*%
D20*
%TO.C,J9*%
X119100000Y-95200000D03*
D21*
X116600000Y-95200000D03*
%TD*%
D12*
%TO.C,J22*%
X104950000Y-70725000D03*
D13*
X102450000Y-70725000D03*
X99950000Y-70725000D03*
X97450000Y-70725000D03*
%TD*%
D10*
%TO.C,FID1*%
X99200000Y-78700000D03*
%TD*%
D20*
%TO.C,J16*%
X167500000Y-83000000D03*
D21*
X165000000Y-83000000D03*
%TD*%
D12*
%TO.C,J21*%
X119533333Y-70725000D03*
D13*
X117033333Y-70725000D03*
X114533333Y-70725000D03*
X112033333Y-70725000D03*
%TD*%
D17*
%TO.C,TP5*%
X95000000Y-98000000D03*
%TD*%
D20*
%TO.C,J8*%
X167500000Y-93800000D03*
D21*
X165000000Y-93800000D03*
%TD*%
D17*
%TO.C,TP4*%
X112000000Y-93100000D03*
%TD*%
%TO.C,TP1*%
X160500000Y-91500000D03*
%TD*%
D12*
%TO.C,J20*%
X143699999Y-70725000D03*
D13*
X141199999Y-70725000D03*
X138699999Y-70725000D03*
X136199999Y-70725000D03*
%TD*%
D14*
%TO.C,JP1*%
X197725000Y-115925000D03*
D15*
X195185000Y-115925000D03*
%TD*%
D12*
%TO.C,J24*%
X169900000Y-104000000D03*
D13*
X167400000Y-104000000D03*
X164900000Y-104000000D03*
X162400000Y-104000000D03*
%TD*%
D22*
%TO.C,J23*%
X91000000Y-86500000D03*
D23*
X91000000Y-89000000D03*
X91000000Y-91500000D03*
X91000000Y-94000000D03*
%TD*%
D12*
%TO.C,J10*%
X125900000Y-84900000D03*
D13*
X123400000Y-84900000D03*
X120900000Y-84900000D03*
%TD*%
D20*
%TO.C,J15*%
X152000000Y-83000000D03*
D21*
X149500000Y-83000000D03*
%TD*%
D10*
%TO.C,FID3*%
X126275000Y-97275000D03*
%TD*%
D24*
%TO.C,H2*%
X197100000Y-123000000D03*
%TD*%
%TO.C,H3*%
X141800000Y-104400000D03*
%TD*%
D10*
%TO.C,FID2*%
X158700000Y-79100000D03*
%TD*%
D12*
%TO.C,J19*%
X158283332Y-70725000D03*
D13*
X155783332Y-70725000D03*
X153283332Y-70725000D03*
X150783332Y-70725000D03*
%TD*%
D25*
%TO.C,J7*%
X93000000Y-102800000D03*
D26*
X91232233Y-104567767D03*
%TD*%
D27*
%TO.C,D1*%
X190500000Y-71400000D03*
X190500000Y-69350000D03*
%TD*%
D12*
%TO.C,J17*%
X182450000Y-70725000D03*
D13*
X179950000Y-70725000D03*
X177450000Y-70725000D03*
X174950000Y-70725000D03*
%TD*%
D28*
%TO.C,R1*%
X188100000Y-71375000D03*
X188100000Y-69375000D03*
%TD*%
D24*
%TO.C,H5*%
X91000000Y-69800000D03*
%TD*%
D29*
%TO.C,D3*%
X160362527Y-108273038D03*
X161918161Y-109828672D03*
%TD*%
D30*
%TO.C,J1*%
X116000000Y-122260000D03*
X144700000Y-122260000D03*
D31*
X146840000Y-117940000D03*
X143840000Y-117940000D03*
X140840000Y-117940000D03*
X137840000Y-117940000D03*
X134840000Y-117940000D03*
X131840000Y-117940000D03*
X128840000Y-117940000D03*
X125840000Y-117940000D03*
X122840000Y-117940000D03*
X119840000Y-117940000D03*
X116840000Y-117940000D03*
X113840000Y-117940000D03*
X146840000Y-114940000D03*
X143840000Y-114940000D03*
X140840000Y-114940000D03*
X137840000Y-114940000D03*
X134840000Y-114940000D03*
X131840000Y-114940000D03*
X128840000Y-114940000D03*
X125840000Y-114940000D03*
X122840000Y-114940000D03*
X119840000Y-114940000D03*
X116840000Y-114940000D03*
X113840000Y-114940000D03*
%TD*%
D24*
%TO.C,H4*%
X197100000Y-69800000D03*
%TD*%
D32*
%TO.C,F1*%
X178500000Y-89960000D03*
X181900000Y-89960000D03*
X178500000Y-80040000D03*
X181900000Y-80040000D03*
%TD*%
D24*
%TO.C,H1*%
X106075000Y-123250000D03*
%TD*%
D20*
%TO.C,J11*%
X152000000Y-104000000D03*
D21*
X149500000Y-104000000D03*
%TD*%
D32*
%TO.C,F2*%
X104794832Y-99990669D03*
X102390669Y-102394832D03*
X111809331Y-107005168D03*
X109405168Y-109409331D03*
%TD*%
D20*
%TO.C,J12*%
X167866665Y-70725000D03*
D21*
X165366665Y-70725000D03*
%TD*%
D20*
%TO.C,J25*%
X152000000Y-93800000D03*
D21*
X149500000Y-93800000D03*
%TD*%
D17*
%TO.C,TP6*%
X97200000Y-100100000D03*
%TD*%
D20*
%TO.C,J26*%
X129116666Y-70725000D03*
D21*
X126616666Y-70725000D03*
%TD*%
D10*
%TO.C,J2*%
X159738250Y-122320000D03*
X185418250Y-122320000D03*
D33*
X187578250Y-118000000D03*
D34*
X184578250Y-118000000D03*
X181578250Y-118000000D03*
X178578250Y-118000000D03*
X175578250Y-118000000D03*
X172578250Y-118000000D03*
X169578250Y-118000000D03*
X166578250Y-118000000D03*
X163578250Y-118000000D03*
X160578250Y-118000000D03*
X157578250Y-118000000D03*
X187578250Y-115000000D03*
X184578250Y-115000000D03*
X181578250Y-115000000D03*
X178578250Y-115000000D03*
X175578250Y-115000000D03*
X172578250Y-115000000D03*
X169578250Y-115000000D03*
X166578250Y-115000000D03*
X163578250Y-115000000D03*
X160578250Y-115000000D03*
X157578250Y-115000000D03*
%TD*%
D35*
%TO.C,J5*%
X102000000Y-120000000D03*
X92454059Y-110454058D03*
D36*
X98924086Y-108438804D03*
D37*
X104015255Y-113529973D03*
%TD*%
D17*
%TO.C,TP3*%
X112000000Y-96300000D03*
%TD*%
D38*
%TO.C,J4*%
X187746545Y-78117214D03*
X187746545Y-83117214D03*
D39*
X192746545Y-75117214D03*
X192746545Y-86117214D03*
%TD*%
D40*
%TO.C,R2*%
X100907107Y-97100000D03*
X99492893Y-95685786D03*
%TD*%
M02*
