M48
; DRILL file {KiCad 7.0.11} date Sun May 26 12:32:12 2024
; FORMAT={-:-/ absolute / metric / decimal}
; #@! TF.CreationDate,2024-05-26T12:32:12+00:00
; #@! TF.GenerationSoftware,Kicad,Pcbnew,7.0.11
; #@! TF.FileFunction,Plated,1,2,PTH
FMAT,2
METRIC
; #@! TA.AperFunction,Plated,PTH,ViaDrill
T1C0.500
; #@! TA.AperFunction,Plated,PTH,ComponentDrill
T2C0.600
; #@! TA.AperFunction,Plated,PTH,ComponentDrill
T3C0.950
; #@! TA.AperFunction,Plated,PTH,ComponentDrill
T4C1.000
; #@! TA.AperFunction,Plated,PTH,ComponentDrill
T5C1.020
; #@! TA.AperFunction,Plated,PTH,ComponentDrill
T6C1.070
; #@! TA.AperFunction,Plated,PTH,ComponentDrill
T7C1.700
; #@! TA.AperFunction,Plated,PTH,ComponentDrill
T8C1.780
; #@! TA.AperFunction,Plated,PTH,ComponentDrill
T9C1.800
; #@! TA.AperFunction,Plated,PTH,ComponentDrill
T10C2.700
; #@! TA.AperFunction,Plated,PTH,ComponentDrill
T11C3.200
%
G90
G05
T1
X157.45Y-112.9
X159.43Y-107.355
T3
X91.0Y-86.5
X91.0Y-89.0
X91.0Y-91.5
X91.0Y-94.0
X97.45Y-70.725
X99.95Y-70.725
X102.45Y-70.725
X103.1Y-84.9
X104.95Y-70.725
X105.6Y-84.9
X108.1Y-84.9
X110.6Y-84.9
X112.033Y-70.725
X114.533Y-70.725
X117.033Y-70.725
X119.533Y-70.725
X120.9Y-84.9
X123.4Y-84.9
X125.9Y-84.9
X136.2Y-70.725
X138.7Y-70.725
X141.2Y-70.725
X143.7Y-70.725
X150.783Y-70.725
X153.283Y-70.725
X155.783Y-70.725
X158.283Y-70.725
X162.4Y-104.0
X164.9Y-104.0
X167.4Y-104.0
X169.9Y-104.0
X174.95Y-70.725
X177.45Y-70.725
X179.95Y-70.725
X182.45Y-70.725
T4
X91.0Y-77.5
X91.0Y-80.0
X91.232Y-104.568
X93.0Y-102.8
X116.6Y-95.2
X119.1Y-95.2
X126.617Y-70.725
X129.117Y-70.725
X140.2Y-83.78
X140.2Y-86.32
X140.2Y-88.86
X140.2Y-91.4
X140.2Y-93.94
X149.5Y-83.0
X149.5Y-93.8
X149.5Y-104.0
X152.0Y-83.0
X152.0Y-93.8
X152.0Y-104.0
X165.0Y-83.0
X165.0Y-93.8
X165.367Y-70.725
X167.5Y-83.0
X167.5Y-93.8
X167.867Y-70.725
X192.747Y-75.117
X192.747Y-86.117
X195.185Y-115.925
X197.725Y-115.925
T5
X157.578Y-115.0
X157.578Y-118.0
X160.578Y-115.0
X160.578Y-118.0
X163.578Y-115.0
X163.578Y-118.0
X166.578Y-115.0
X166.578Y-118.0
X169.578Y-115.0
X169.578Y-118.0
X172.578Y-115.0
X172.578Y-118.0
X175.578Y-115.0
X175.578Y-118.0
X178.578Y-115.0
X178.578Y-118.0
X181.578Y-115.0
X181.578Y-118.0
X184.578Y-115.0
X184.578Y-118.0
X187.578Y-115.0
X187.578Y-118.0
T6
X113.84Y-114.94
X113.84Y-117.94
X116.84Y-114.94
X116.84Y-117.94
X119.84Y-114.94
X119.84Y-117.94
X122.84Y-114.94
X122.84Y-117.94
X125.84Y-114.94
X125.84Y-117.94
X128.84Y-114.94
X128.84Y-117.94
X131.84Y-114.94
X131.84Y-117.94
X134.84Y-114.94
X134.84Y-117.94
X137.84Y-114.94
X137.84Y-117.94
X140.84Y-114.94
X140.84Y-117.94
X143.84Y-114.94
X143.84Y-117.94
X146.84Y-114.94
X146.84Y-117.94
T7
X187.747Y-78.117
X187.747Y-83.117
T8
X102.391Y-102.395
X104.795Y-99.991
X109.405Y-109.409
X111.809Y-107.005
X178.5Y-80.04
X178.5Y-89.96
X181.9Y-80.04
X181.9Y-89.96
T9
X187.6Y-92.8
X187.6Y-97.0
X187.6Y-101.2
X187.6Y-105.4
X187.6Y-109.6
T10
X98.924Y-108.439
X104.015Y-113.53
T11
X91.0Y-69.8
X106.075Y-123.25
X141.8Y-104.4
X197.1Y-69.8
X197.1Y-123.0
T2
X92.065Y-110.843G85X92.843Y-110.065
G05
X101.611Y-120.389G85X102.389Y-119.611
G05
M30
