<?xml version="1.0" encoding="UTF-8" standalone="no"?>
<!DOCTYPE svg PUBLIC "-//W3C//DTD SVG 1.1//EN" "http://www.w3.org/Graphics/SVG/1.1/DTD/svg11.dtd">
<svg width="100%" height="100%" viewBox="0 0 144 79" version="1.1" xmlns="http://www.w3.org/2000/svg" xmlns:xlink="http://www.w3.org/1999/xlink" xml:space="preserve" xmlns:serif="http://www.serif.com/" style="fill-rule:evenodd;clip-rule:evenodd;stroke-linejoin:round;stroke-miterlimit:2;">
    <g transform="matrix(0.866025,0.5,-0.5,0.866025,20.3279,-32.1798)">
        <g transform="matrix(0.391526,0,0,0.391526,-301.654,-351.687)">
            <path d="M1129.12,900.62C1126.51,903.08 1123.47,904.847 1120.02,905.92C1119.51,906.073 1119.52,906.173 1120.06,906.22L1121.24,906.31C1121.51,906.337 1121.72,906.467 1121.87,906.7C1123.07,908.673 1123.92,910.76 1124.43,912.96C1124.44,913.035 1124.45,913.111 1124.45,913.187C1124.45,913.818 1123.93,914.337 1123.3,914.337C1122.85,914.337 1122.43,914.067 1122.25,913.65L1118.75,905.1C1118.61,904.741 1118.75,904.329 1119.08,904.14L1129.23,898.41C1129.25,898.399 1129.27,898.389 1129.29,898.38C1129.9,898.068 1130.67,898.323 1130.98,898.945C1130.99,898.963 1131,898.981 1131.01,899L1134.52,906.96C1134.57,907.075 1134.6,907.198 1134.6,907.324C1134.6,907.696 1134.37,908.033 1134.02,908.17C1133.49,908.39 1133.02,908.23 1132.61,907.69C1131.02,905.557 1129.91,903.213 1129.28,900.66C1129.25,900.553 1129.2,900.54 1129.12,900.62Z" style="fill:white;fill-rule:nonzero;"/>
        </g>
        <g transform="matrix(0.391526,0,0,0.391526,-301.654,-351.687)">
            <path d="M1111.73,910.23L1111.47,911.07C1111.36,911.417 1111.15,911.677 1110.83,911.85C1108.65,913.07 1104.54,916.3 1101.98,915.25C1101.73,915.149 1101.57,914.907 1101.57,914.638C1101.57,914.398 1101.7,914.176 1101.91,914.06L1111.74,908.47C1112.75,907.89 1113.5,908.133 1113.97,909.2L1117.39,916.89C1117.4,916.905 1117.4,916.92 1117.41,916.935C1117.59,917.395 1117.36,917.923 1116.89,918.105C1116.88,918.11 1116.86,918.115 1116.85,918.12C1116.17,918.347 1115.52,918.097 1114.89,917.37C1113.95,916.283 1113.01,913.907 1112.06,910.24C1111.96,909.847 1111.85,909.843 1111.73,910.23Z" style="fill:white;fill-rule:nonzero;"/>
        </g>
        <g transform="matrix(0.391526,0,0,0.391526,-301.654,-351.687)">
            <path d="M1129.06,923.44C1129.86,921.267 1131.45,920.067 1133.84,919.84C1134.17,919.807 1134.33,919.623 1134.31,919.29L1133.82,910.54L1133.82,910.477C1133.82,909.884 1134.31,909.397 1134.9,909.397C1135,909.397 1135.1,909.411 1135.2,909.44C1135.82,909.62 1136.19,910.183 1136.3,911.13C1136.62,913.777 1136.75,916.43 1136.69,919.09C1136.66,920.37 1136.25,921.19 1134.97,921.36C1134.66,921.4 1134.39,921.517 1134.16,921.71C1132.37,923.197 1130.37,924.317 1128.16,925.07C1127.74,925.21 1127.44,925.077 1127.25,924.67L1123.66,916.64C1123.54,916.37 1123.56,916.06 1123.71,915.81C1124.06,915.23 1124.57,915.077 1125.24,915.35C1125.51,915.463 1125.74,915.67 1125.94,915.97C1127.47,918.243 1128.45,920.727 1128.87,923.42C1128.91,923.66 1128.97,923.667 1129.06,923.44Z" style="fill:white;fill-rule:nonzero;"/>
        </g>
        <g transform="matrix(0.391526,0,0,0.391526,-301.654,-351.687)">
            <path d="M1101.88,916.45C1101.83,916.343 1101.87,916.213 1101.98,916.16L1102.06,916.12L1102.06,916.119C1103.2,915.584 1104.58,916.088 1105.12,917.234L1105.12,917.24L1106.99,921.22C1107.53,922.366 1107.03,923.746 1105.9,924.28L1105.82,924.32C1105.71,924.37 1105.58,924.326 1105.53,924.22L1101.88,916.45Z" style="fill:white;fill-rule:nonzero;"/>
        </g>
        <g transform="matrix(0.391526,0,0,0.391526,-301.654,-351.687)">
            <path d="M1094.53,919.76L1094.29,920.81C1094.21,921.163 1094.02,921.433 1093.71,921.62C1090.66,923.52 1086.34,926.75 1084.51,924.88C1084.17,924.533 1084.21,924.243 1084.64,924.01L1095.23,918.11C1095.24,918.104 1095.25,918.098 1095.26,918.093C1095.72,917.86 1096.29,918.044 1096.52,918.499C1096.53,918.513 1096.53,918.526 1096.54,918.54L1100.2,926.76C1100.24,926.848 1100.26,926.941 1100.27,927.037C1100.32,927.545 1099.92,928.005 1099.39,928.057C1099.28,928.066 1099.18,928.061 1099.08,928.04C1098.89,928 1098.64,927.9 1098.33,927.74C1098.1,927.613 1097.91,927.427 1097.76,927.18C1096.4,924.933 1095.41,922.46 1094.79,919.76C1094.79,919.689 1094.73,919.63 1094.66,919.63C1094.59,919.63 1094.53,919.689 1094.53,919.76Z" style="fill:white;fill-rule:nonzero;"/>
        </g>
        <g transform="matrix(0.391526,0,0,0.391526,-301.654,-351.687)">
            <path d="M1118.48,919.53C1119.52,921.37 1121.83,925.76 1121.98,927.8L1121.98,927.893C1121.98,928.469 1121.51,928.943 1120.93,928.943C1120.56,928.943 1120.21,928.739 1120.02,928.41C1118.57,925.943 1117.5,923.54 1116.83,921.2C1116.64,920.54 1116.71,919.96 1117.05,919.46C1117.21,919.231 1117.47,919.094 1117.74,919.094C1118.05,919.094 1118.33,919.261 1118.48,919.53Z" style="fill:white;fill-rule:nonzero;"/>
        </g>
        <g transform="matrix(0.391526,0,0,0.391526,-301.654,-351.687)">
            <path d="M1110.06,934.58L1106.32,926.17C1106.28,926.079 1106.26,925.982 1106.26,925.883C1106.26,925.483 1106.59,925.153 1106.99,925.153C1107.02,925.153 1107.06,925.156 1107.09,925.16L1108.34,925.33C1108.59,925.364 1108.81,925.527 1108.91,925.76L1111.54,931.57C1111.59,931.677 1111.61,931.794 1111.6,931.91L1111.45,934.33C1111.42,934.708 1111.1,935.003 1110.72,935.003C1110.44,935.003 1110.18,934.837 1110.06,934.58Z" style="fill:white;fill-rule:nonzero;"/>
        </g>
        <g transform="matrix(0.391526,0,0,0.391526,-301.654,-351.687)">
            <path d="M1090.34,932.66L1097.85,928.27C1097.99,928.191 1098.14,928.15 1098.3,928.15C1098.74,928.15 1099.12,928.486 1099.18,928.93C1099.31,930.003 1098.8,930.847 1097.63,931.46C1095.68,932.487 1093.73,933.537 1091.78,934.61C1091.45,934.79 1091.16,934.743 1090.89,934.47C1090.32,933.877 1089.62,933.687 1088.81,933.9C1088.42,934 1088.14,933.867 1087.98,933.5L1084.94,926.59C1084.83,926.337 1084.9,926.177 1085.17,926.11C1088.25,925.35 1089.48,930.13 1090.02,932.52C1090.07,932.713 1090.17,932.76 1090.34,932.66Z" style="fill:white;fill-rule:nonzero;"/>
        </g>
        <g transform="matrix(0.391526,0,0,0.391526,-301.654,-351.687)">
            <path d="M1101.55,929.74L1104.76,936.94C1105.13,937.787 1104.86,938.257 1103.94,938.35C1103.16,938.423 1102.48,937.86 1101.9,936.66C1101.08,934.96 1100.33,933.23 1099.65,931.47C1099.32,930.61 1099.35,929.947 1099.74,929.48C1099.94,929.238 1100.25,929.099 1100.56,929.099C1100.99,929.099 1101.38,929.351 1101.55,929.74Z" style="fill:white;fill-rule:nonzero;"/>
        </g>
        <g transform="matrix(0.391526,0,0,0.391526,-301.654,-351.687)">
            <path d="M1068.61,934.32C1070.94,934.76 1072.61,940.13 1073.32,942.27C1073.36,942.39 1073.38,942.515 1073.38,942.641C1073.38,943.294 1072.84,943.831 1072.19,943.831C1071.72,943.831 1071.29,943.551 1071.1,943.12L1067.69,935.48C1067.26,934.507 1067.56,934.12 1068.61,934.32Z" style="fill:white;fill-rule:nonzero;"/>
        </g>
        <g transform="matrix(0.391526,0,0,0.391526,-301.654,-351.687)">
            <path d="M1089.76,937.67C1089.38,936.95 1089.27,936.26 1089.44,935.6C1089.55,935.16 1089.94,934.848 1090.39,934.848C1090.7,934.848 1090.99,934.989 1091.17,935.23C1093.23,937.897 1094.34,940.9 1094.49,944.24L1094.49,944.272C1094.49,944.689 1094.15,945.032 1093.73,945.032C1093.44,945.032 1093.18,944.868 1093.05,944.61C1091.9,942.29 1090.95,939.92 1089.76,937.67Z" style="fill:white;fill-rule:nonzero;"/>
        </g>
        <g transform="matrix(0.391526,0,0,0.391526,-301.654,-351.687)">
            <path d="M1051.67,943.35L1061.69,937.44C1062.01,937.253 1062.23,937.333 1062.35,937.68C1062.63,938.473 1062.44,939.197 1061.79,939.85C1060.78,940.87 1058.3,942.343 1054.35,944.27C1054.06,944.41 1053.77,944.407 1053.48,944.26L1051.67,943.35Z" style="fill:white;fill-rule:nonzero;"/>
        </g>
        <g transform="matrix(0.391526,0,0,0.391526,-301.654,-351.687)">
            <path d="M1051.67,943.35C1054.14,945.857 1055.67,948.743 1056.28,952.01C1056.33,952.237 1056.45,952.293 1056.64,952.18L1063.88,947.86C1064.26,947.634 1064.74,947.654 1065.1,947.91C1065.71,948.35 1065.81,948.903 1065.38,949.57C1065.21,949.843 1064.91,950.107 1064.48,950.36C1062.47,951.553 1060.46,952.737 1058.43,953.91C1057.73,954.323 1057.08,954.207 1056.48,953.56C1056.27,953.333 1056.02,953.277 1055.73,953.39L1055.19,953.6C1055.02,953.663 1054.82,953.591 1054.73,953.43C1053.04,950.497 1051.75,947.64 1050.86,944.86C1050.72,944.413 1050.99,943.91 1051.67,943.35Z" style="fill:white;fill-rule:nonzero;"/>
        </g>
        <g transform="matrix(0.391526,0,0,0.391526,-301.654,-351.687)">
            <path d="M1072.16,945.21C1072.15,945.194 1072.15,945.177 1072.15,945.16C1072.15,945.108 1072.18,945.06 1072.23,945.04L1072.26,945.02L1072.26,945.018C1073.44,944.515 1074.87,945.175 1075.43,946.481L1075.43,946.49L1077.55,951.45L1077.55,951.452C1078.11,952.757 1077.61,954.246 1076.43,954.75L1076.39,954.76C1076.33,954.789 1076.25,954.762 1076.22,954.7L1072.16,945.21Z" style="fill:white;fill-rule:nonzero;"/>
        </g>
        <g transform="matrix(0.391526,0,0,0.391526,-301.654,-351.687)">
            <path d="M1035.02,953.27C1035.05,953.097 1035.1,952.927 1035.19,952.76C1035.26,952.62 1035.38,952.497 1035.55,952.39C1038.58,950.59 1041.7,948.817 1044.89,947.07C1045.22,946.883 1045.43,946.98 1045.52,947.36C1046.12,950.03 1040.25,952.7 1037.36,954.11C1037.07,954.257 1036.79,954.23 1036.53,954.03C1036,953.623 1035.49,953.37 1035.02,953.27Z" style="fill:white;fill-rule:nonzero;"/>
        </g>
        <g transform="matrix(0.391526,0,0,0.391526,-301.654,-351.687)">
            <path d="M1078.29,954.33C1078.26,954.347 1078.23,954.356 1078.19,954.356C1078.13,954.356 1078.06,954.319 1078.03,954.26L1077.99,954.19C1077.36,953.107 1078.22,951.401 1079.91,950.41L1084.12,947.94C1085.81,946.954 1087.71,947.03 1088.35,948.11L1088.4,948.18C1088.42,948.209 1088.43,948.242 1088.43,948.275C1088.43,948.343 1088.39,948.406 1088.33,948.44L1078.29,954.33Z" style="fill:white;fill-rule:nonzero;"/>
        </g>
        <g transform="matrix(0.391526,0,0,0.391526,-301.654,-351.687)">
            <path d="M1035.02,953.27C1037.23,955.557 1038.76,958.473 1039.63,962.02C1039.65,962.106 1039.66,962.193 1039.66,962.281C1039.66,962.912 1039.14,963.431 1038.51,963.431C1038.06,963.431 1037.64,963.163 1037.46,962.75L1033.86,954.55C1033.71,954.222 1033.85,953.835 1034.17,953.68L1035.02,953.27Z" style="fill:white;fill-rule:nonzero;"/>
        </g>
        <g transform="matrix(0.391526,0,0,0.391526,-301.654,-351.687)">
            <path d="M1061.19,962.49L1061.24,961.8C1061.27,961.553 1061.38,961.357 1061.59,961.21C1064.48,959.21 1069.51,955.66 1071.22,957.59C1071.52,957.93 1071.47,958.21 1071.08,958.43L1060.55,964.4C1060.41,964.481 1060.24,964.524 1060.08,964.524C1059.7,964.524 1059.35,964.298 1059.2,963.95L1055.65,955.9C1055.55,955.667 1055.53,955.405 1055.6,955.158C1055.76,954.571 1056.37,954.22 1056.95,954.38C1057.2,954.448 1057.41,954.6 1057.56,954.81C1059.2,957.13 1060.31,959.697 1060.88,962.51C1060.9,962.576 1060.96,962.622 1061.03,962.622C1061.11,962.622 1061.18,962.566 1061.19,962.49Z" style="fill:white;fill-rule:nonzero;"/>
        </g>
        <g transform="matrix(0.391526,0,0,0.391526,-301.654,-351.687)">
            <path d="M1023.47,959.38L1027.73,956.97C1027.83,956.916 1027.94,956.887 1028.05,956.887C1028.42,956.887 1028.72,957.189 1028.72,957.557C1028.72,957.67 1028.69,957.781 1028.64,957.88L1027.56,959.79C1027.5,959.894 1027.41,959.981 1027.31,960.04L1025.66,960.97C1025.51,961.057 1025.32,961.079 1025.15,961.03L1023.62,960.61C1023.33,960.53 1023.13,960.265 1023.13,959.964C1023.13,959.722 1023.26,959.498 1023.47,959.38Z" style="fill:white;fill-rule:nonzero;"/>
        </g>
        <g transform="matrix(0.391526,0,0,0.391526,-301.654,-351.687)">
            <path d="M1017.28,962.97L1021.5,960.49C1021.84,960.29 1022.07,960.38 1022.19,960.76C1023.01,963.48 1019.25,965.26 1017.31,964.22C1016.56,963.82 1016.55,963.403 1017.28,962.97Z" style="fill:white;fill-rule:nonzero;"/>
        </g>
        <g transform="matrix(0.357677,-0.159248,0.159248,0.357677,99.6563,26.3392)">
            <rect x="-1.23" y="-4.75" width="2.46" height="9.5" style="fill:white;"/>
        </g>
        <g transform="matrix(0.391526,0,0,0.391526,-301.654,-351.687)">
            <path d="M1044.11,972.22L1044.26,971.57C1044.33,971.283 1044.48,971.057 1044.73,970.89C1047.56,969.01 1049.83,967.67 1051.54,966.87C1052.74,966.31 1053.71,966.47 1054.45,967.35C1054.46,967.363 1054.47,967.376 1054.48,967.389C1054.65,967.634 1054.58,967.975 1054.33,968.145C1054.32,968.154 1054.3,968.162 1054.29,968.17L1043.72,974.09C1043.71,974.098 1043.69,974.106 1043.68,974.113C1043.18,974.359 1042.57,974.15 1042.32,973.648C1042.31,973.636 1042.31,973.623 1042.3,973.61L1038.83,965.74C1038.77,965.605 1038.74,965.459 1038.74,965.311C1038.74,964.724 1039.22,964.241 1039.81,964.241C1039.88,964.241 1039.94,964.247 1040.01,964.26C1040.36,964.33 1040.79,964.61 1041.02,964.94C1042.55,967.14 1043.53,969.563 1043.94,972.21C1043.99,972.53 1044.04,972.533 1044.11,972.22Z" style="fill:white;fill-rule:nonzero;"/>
        </g>
        <g transform="matrix(0.359053,-0.156121,0.156121,0.359053,101.41,30.2623)">
            <rect x="-1.22" y="-4.92" width="2.44" height="9.84" style="fill:white;"/>
        </g>
        <g transform="matrix(0.391526,0,0,0.391526,-301.654,-351.687)">
            <path d="M1000.99,974.82C998.37,976.967 995.483,978.637 992.33,979.83C992.211,979.873 992.086,979.895 991.96,979.895C991.367,979.895 990.88,979.408 990.88,978.815C990.88,978.43 991.086,978.073 991.42,977.88L1000.96,972.43C1001.19,972.299 1001.45,972.231 1001.71,972.231C1002.31,972.231 1002.86,972.584 1003.1,973.13L1006.48,980.71C1006.69,981.167 1006.52,981.712 1006.1,981.98C1005.41,982.42 1004.79,982.193 1004.24,981.3C1003,979.28 1002.01,977.147 1001.28,974.9C1001.23,974.733 1001.13,974.707 1000.99,974.82Z" style="fill:white;fill-rule:nonzero;"/>
        </g>
        <g transform="matrix(0.391526,0,0,0.391526,-301.654,-351.687)">
            <path d="M1037.51,977.66L1032.84,980.56C1032.77,980.604 1032.68,980.628 1032.6,980.628C1032.35,980.628 1032.14,980.42 1032.14,980.168C1032.14,980.135 1032.14,980.102 1032.15,980.07L1032.65,977.94C1032.67,977.826 1032.74,977.726 1032.84,977.66L1034.63,976.45C1034.73,976.383 1034.85,976.358 1034.97,976.38L1037.35,976.82C1037.57,976.861 1037.72,977.052 1037.72,977.272C1037.72,977.429 1037.64,977.576 1037.51,977.66Z" style="fill:white;fill-rule:nonzero;"/>
        </g>
        <g transform="matrix(0.391526,0,0,0.391526,-301.654,-351.687)">
            <path d="M991.14,980.51C991.125,980.478 991.117,980.444 991.117,980.409C991.117,980.319 991.169,980.238 991.25,980.2L991.37,980.15C992.463,979.645 993.816,980.209 994.37,981.4L996.09,985.12C996.091,985.122 996.092,985.125 996.093,985.127C996.646,986.322 996.198,987.722 995.103,988.229C995.102,988.229 995.101,988.23 995.1,988.23L994.98,988.28C994.867,988.33 994.734,988.281 994.68,988.17L991.14,980.51Z" style="fill:white;fill-rule:nonzero;"/>
        </g>
        <g transform="matrix(0.391526,0,0,0.391526,-301.654,-351.687)">
            <path d="M1026.12,984.41C1026.09,984.427 1026.06,984.436 1026.03,984.436C1025.96,984.436 1025.89,984.399 1025.86,984.34L1025.8,984.24C1025.18,983.178 1025.86,981.617 1027.29,980.78L1027.55,980.63C1028.98,979.795 1030.67,979.975 1031.29,981.03L1031.35,981.13C1031.37,981.159 1031.38,981.192 1031.38,981.225C1031.38,981.293 1031.34,981.356 1031.28,981.39L1026.12,984.41Z" style="fill:white;fill-rule:nonzero;"/>
        </g>
        <g transform="matrix(0.391526,0,0,0.391526,-301.654,-351.687)">
            <path d="M986.4,984.1L989.03,989.93C989.104,990.093 989.125,990.275 989.09,990.45L988.81,991.85C988.73,992.251 988.375,992.542 987.967,992.542C987.627,992.542 987.317,992.341 987.18,992.03L983.57,983.89C983.524,983.782 983.5,983.667 983.5,983.55C983.5,983.078 983.888,982.69 984.36,982.69C984.539,982.69 984.714,982.746 984.86,982.85L986.12,983.76C986.241,983.847 986.338,983.964 986.4,984.1Z" style="fill:white;fill-rule:nonzero;"/>
        </g>
        <g transform="matrix(0.391526,0,0,0.391526,-301.654,-351.687)">
            <path d="M1008.48,984.87C1009.39,987.003 1010.34,989.313 1011.33,991.8C1011.36,991.883 1011.38,991.972 1011.38,992.061C1011.38,992.434 1011.08,992.741 1010.7,992.741C1010.61,992.741 1010.51,992.72 1010.42,992.68C1007.81,991.53 1006.67,987.39 1005.71,984.87C1005.65,984.728 1005.63,984.578 1005.63,984.426C1005.63,983.751 1006.18,983.196 1006.86,983.196C1007.17,983.196 1007.47,983.315 1007.7,983.53C1007.94,983.757 1008.2,984.203 1008.48,984.87Z" style="fill:white;fill-rule:nonzero;"/>
        </g>
        <g transform="matrix(0.391526,0,0,0.391526,-301.654,-351.687)">
            <path d="M996.19,992.17C995.757,991.29 995.593,990.58 995.7,990.04C995.739,989.854 995.82,989.678 995.936,989.527C996.356,988.985 997.144,988.88 997.682,989.296C997.834,989.414 997.957,989.566 998.04,989.74C999.17,992.09 1001.19,995.44 1000.61,998.05C1000.29,999.503 999.807,999.56 999.16,998.22C998.14,996.127 997.15,994.11 996.19,992.17Z" style="fill:white;fill-rule:nonzero;"/>
        </g>
        <g transform="matrix(0.391526,0,0,0.391526,-301.654,-351.687)">
            <path d="M973.31,1000.91C973.321,1000.93 973.327,1000.96 973.327,1000.99C973.327,1001.06 973.285,1001.12 973.22,1001.15L973.16,1001.17L973.157,1001.17C971.986,1001.67 970.525,1000.9 969.92,999.47L967.96,994.83C967.357,993.4 967.824,991.817 968.996,991.321C968.998,991.321 968.999,991.32 969,991.32L969.05,991.29C969.073,991.28 969.097,991.275 969.122,991.275C969.196,991.275 969.263,991.321 969.29,991.39L973.31,1000.91Z" style="fill:white;fill-rule:nonzero;"/>
        </g>
        <g transform="matrix(0.391526,0,0,0.391526,-301.654,-351.687)">
            <path d="M958.36,999.08C958.165,999.137 957.957,999.127 957.77,999.051C957.307,998.865 957.081,998.327 957.269,997.858C957.344,997.671 957.478,997.514 957.65,997.41L966.21,992.43C966.398,992.299 966.621,992.229 966.85,992.229C967.465,992.229 967.971,992.735 967.971,993.35C967.971,993.717 967.791,994.061 967.49,994.27C964.803,996.483 961.76,998.087 958.36,999.08Z" style="fill:white;fill-rule:nonzero;"/>
        </g>
        <g transform="matrix(0.391526,0,0,0.391526,-301.654,-351.687)">
            <path d="M992,1002.82L988.22,994.29C988.182,994.204 988.162,994.11 988.162,994.016C988.162,993.642 988.469,993.336 988.842,993.336C988.868,993.336 988.894,993.337 988.92,993.34L990.26,993.5C990.498,993.529 990.703,993.681 990.8,993.9L993.52,1000.03C993.572,1000.14 993.593,1000.27 993.58,1000.39L993.3,1002.63C993.26,1002.97 992.968,1003.23 992.625,1003.23C992.353,1003.23 992.107,1003.07 992,1002.82Z" style="fill:white;fill-rule:nonzero;"/>
        </g>
        <g transform="matrix(0.391526,0,0,0.391526,-301.654,-351.687)">
            <path d="M960.58,999.92L963.02,1005.53C963.103,1005.72 963.084,1005.93 962.97,1006.1L962.1,1007.37C961.99,1007.53 961.809,1007.62 961.616,1007.62C961.386,1007.62 961.176,1007.49 961.08,1007.28L957.9,1000.25C957.866,1000.17 957.848,1000.09 957.848,1000.01C957.848,999.684 958.114,999.418 958.438,999.418C958.455,999.418 958.473,999.418 958.49,999.42L960.09,999.57C960.305,999.588 960.493,999.723 960.58,999.92Z" style="fill:white;fill-rule:nonzero;"/>
        </g>
        <g transform="matrix(0.391526,0,0,0.391526,-301.654,-351.687)">
            <path d="M942.42,1006.16L951.36,1001.04C951.807,1000.78 952.053,1000.91 952.1,1001.43C952.37,1004.24 946.04,1006.99 943.87,1008.16C943.595,1008.29 943.269,1008.33 942.956,1008.26C942.254,1008.1 941.79,1007.46 941.928,1006.84C941.99,1006.56 942.165,1006.32 942.42,1006.16Z" style="fill:white;fill-rule:nonzero;"/>
        </g>
        <g transform="matrix(0.391526,0,0,0.391526,-301.654,-351.687)">
            <path d="M972.74,1012.53L972.42,1003.46C972.419,1003.41 972.421,1003.36 972.427,1003.32C972.492,1002.81 972.961,1002.44 973.468,1002.5C973.516,1002.51 973.563,1002.52 973.61,1002.53C974.403,1002.77 974.867,1003.43 975,1004.5C975.333,1007.15 975.42,1009.8 975.26,1012.47C975.19,1013.61 974.66,1014.31 973.66,1014.65C973.373,1014.74 973.103,1014.87 972.85,1015.02L968.95,1017.43C968.766,1017.54 968.552,1017.59 968.337,1017.58C967.768,1017.53 967.333,1017.04 967.373,1016.47C967.388,1016.26 967.471,1016.06 967.61,1015.89C969.137,1014.07 970.697,1013.11 972.29,1013.02C972.603,1013 972.753,1012.84 972.74,1012.53Z" style="fill:white;fill-rule:nonzero;"/>
        </g>
        <g transform="matrix(0.391526,0,0,0.391526,-301.654,-351.687)">
            <path d="M946.43,1015.95C948.65,1014.24 951.12,1013.07 953.51,1011.62C954.063,1011.29 954.54,1011.29 954.94,1011.64C955.225,1011.89 955.389,1012.25 955.389,1012.62C955.389,1013.07 955.154,1013.49 954.77,1013.73C952.403,1015.16 950.117,1016.47 947.91,1017.66C947.097,1018.1 946.507,1017.91 946.14,1017.08C945.993,1016.75 945.77,1016.69 945.47,1016.9C944.757,1017.39 944.243,1017.27 943.93,1016.53C942.923,1014.1 941.823,1011.61 940.63,1009.05C940.177,1008.08 940.487,1007.6 941.56,1007.61C942.393,1007.62 943.077,1008.21 943.61,1009.4C944.55,1011.47 945.64,1013.65 946.16,1015.86C946.2,1016.03 946.29,1016.06 946.43,1015.95Z" style="fill:white;fill-rule:nonzero;"/>
        </g>
        <g transform="matrix(0.391526,0,0,0.391526,-301.654,-351.687)">
            <path d="M961.88,1009.05C961.839,1008.95 961.889,1008.83 961.99,1008.79L962.14,1008.73C963.277,1008.25 964.687,1008.97 965.27,1010.32L967.32,1015.11C967.901,1016.47 967.441,1017.99 966.3,1018.48L966.15,1018.54C966.051,1018.58 965.935,1018.54 965.89,1018.44L961.88,1009.05Z" style="fill:white;fill-rule:nonzero;"/>
        </g>
        <g transform="matrix(0.391526,0,0,0.391526,-301.654,-351.687)">
            <path d="M933.39,1012.69L933.23,1013.8C933.163,1014.23 932.943,1014.56 932.57,1014.77C930.44,1016 926.18,1019.2 923.67,1018.18C923.433,1018.08 923.278,1017.85 923.278,1017.59C923.278,1017.37 923.396,1017.15 923.59,1017.04L933.1,1011.56C933.391,1011.39 933.722,1011.3 934.058,1011.3C934.822,1011.3 935.516,1011.76 935.82,1012.46L939.1,1019.93C939.255,1020.29 939.093,1020.71 938.741,1020.86L938.74,1020.86C937.673,1021.33 936.86,1021.08 936.3,1020.1C934.98,1017.77 934.103,1015.3 933.67,1012.69C933.57,1012.09 933.477,1012.09 933.39,1012.69Z" style="fill:white;fill-rule:nonzero;"/>
        </g>
        <g transform="matrix(0.391526,0,0,0.391526,-301.654,-351.687)">
            <path d="M950.46,1027.69L950.1,1027.98C950.075,1028 950.049,1028.02 950.021,1028.04C949.685,1028.24 949.235,1028.13 949.025,1027.79C949.008,1027.77 948.993,1027.74 948.98,1027.71L945.25,1019.32C945.212,1019.24 945.193,1019.15 945.193,1019.05C945.193,1018.77 945.384,1018.51 945.66,1018.43C946.74,1018.11 947.483,1018.37 947.89,1019.22C949.35,1022.24 950.4,1024.1 950.46,1027.69Z" style="fill:white;fill-rule:nonzero;"/>
        </g>
        <g transform="matrix(0.391526,0,0,0.391526,-301.654,-351.687)">
            <path d="M923.58,1019.44C923.523,1019.32 923.577,1019.17 923.7,1019.11L923.87,1019.04L923.871,1019.04C925.004,1018.52 926.412,1019.14 926.99,1020.41L928.63,1024.01C929.206,1025.28 928.751,1026.74 927.62,1027.26L927.45,1027.34C927.326,1027.4 927.178,1027.34 927.12,1027.22L923.58,1019.44Z" style="fill:white;fill-rule:nonzero;"/>
        </g>
        <g transform="matrix(0.391526,0,0,0.391526,-301.654,-351.687)">
            <path d="M950.46,1027.69L950.78,1025.62C950.833,1025.27 951.003,1025.01 951.29,1024.82C954.41,1022.78 958.84,1019.44 960.92,1021.15C960.933,1021.16 960.944,1021.17 960.956,1021.18C961.117,1021.36 961.111,1021.63 960.943,1021.78C960.929,1021.8 960.915,1021.81 960.9,1021.82C957.7,1024.15 954.22,1026.11 950.46,1027.69Z" style="fill:white;fill-rule:nonzero;"/>
        </g>
        <g transform="matrix(0.391526,0,0,0.391526,-301.654,-351.687)">
            <path d="M907.21,1027.09C907.33,1026.57 907.53,1026.23 907.81,1026.08C910.877,1024.37 913.92,1022.64 916.94,1020.9C917.035,1020.84 917.144,1020.81 917.255,1020.81C917.595,1020.81 917.875,1021.09 917.875,1021.43C917.875,1021.48 917.87,1021.52 917.86,1021.57C917.27,1024.42 912.09,1026.6 909.68,1027.86C909.373,1028.03 909.09,1027.99 908.83,1027.76C908.283,1027.28 907.743,1027.06 907.21,1027.09Z" style="fill:white;fill-rule:nonzero;"/>
        </g>
        <g transform="matrix(0.391526,0,0,0.391526,-301.654,-351.687)">
            <path d="M943.35,1031.66C940.51,1031.23 938.72,1025.72 938.29,1023.33C938.278,1023.26 938.272,1023.2 938.272,1023.13C938.272,1022.52 938.774,1022.02 939.382,1022.02C939.823,1022.02 940.224,1022.29 940.4,1022.69L943.94,1030.88C943.971,1030.95 943.987,1031.03 943.987,1031.11C943.987,1031.41 943.735,1031.66 943.427,1031.66L943.35,1031.66Z" style="fill:white;fill-rule:nonzero;"/>
        </g>
        <g transform="matrix(0.391526,0,0,0.391526,-301.654,-351.687)">
            <path d="M907.21,1027.09C909.397,1029.17 910.863,1031.82 911.61,1035.03C911.81,1035.9 911.6,1036.53 910.98,1036.93C910.97,1036.94 910.96,1036.94 910.95,1036.95C910.584,1037.16 910.107,1037.03 909.894,1036.66C909.889,1036.65 909.885,1036.64 909.88,1036.63C908.467,1033.9 907.223,1031.03 906.15,1028.02C905.923,1027.39 906.277,1027.08 907.21,1027.09Z" style="fill:white;fill-rule:nonzero;"/>
        </g>
        <g transform="matrix(0.391526,0,0,0.391526,-301.654,-351.687)">
            <path d="M931.62,1037.48L928.29,1029.39C928.247,1029.29 928.225,1029.18 928.225,1029.07C928.225,1028.61 928.605,1028.23 929.065,1028.23C929.131,1028.23 929.196,1028.24 929.26,1028.25L930.17,1028.47C930.424,1028.53 930.635,1028.71 930.74,1028.95L933.21,1034.55C933.258,1034.66 933.282,1034.78 933.28,1034.9L933.23,1037.17C933.217,1037.62 932.842,1037.99 932.39,1037.99C932.057,1037.99 931.753,1037.79 931.62,1037.48Z" style="fill:white;fill-rule:nonzero;"/>
        </g>
        <g transform="matrix(0.334187,-0.203989,0.203989,0.334187,58.0606,52.8025)">
            <ellipse cx="0" cy="0" rx="2.64" ry="1.31" style="fill:white;"/>
        </g>
        <g transform="matrix(0.391526,0,0,0.391526,-301.654,-351.687)">
            <path d="M902.57,1040.7C901.61,1038.9 899.22,1034.47 899.1,1032.64C899.099,1032.62 899.098,1032.6 899.098,1032.57C899.098,1032.03 899.545,1031.58 900.088,1031.58C900.399,1031.58 900.693,1031.73 900.88,1031.98C902.673,1034.36 903.893,1037.02 904.54,1039.97C904.557,1040.05 904.566,1040.12 904.566,1040.2C904.566,1040.78 904.087,1041.26 903.506,1041.26C903.114,1041.26 902.754,1041.05 902.57,1040.7Z" style="fill:white;fill-rule:nonzero;"/>
        </g>
        <g transform="matrix(0.391526,0,0,0.391526,-301.654,-351.687)">
            <path d="M926.5,1039.57C926.515,1039.6 926.522,1039.64 926.522,1039.67C926.522,1039.77 926.466,1039.85 926.38,1039.89L926.27,1039.95C925.13,1040.48 923.711,1039.89 923.12,1038.64L921.5,1035.2C920.908,1033.94 921.359,1032.47 922.5,1031.93L922.61,1031.88C922.728,1031.82 922.872,1031.87 922.93,1031.99L926.5,1039.57Z" style="fill:white;fill-rule:nonzero;"/>
        </g>
        <g transform="matrix(0.391526,0,0,0.391526,-301.654,-351.687)">
            <path d="M892.27,1037.98L885.37,1041.94C885.146,1042.07 884.87,1042.06 884.65,1041.93L883.67,1041.34C883.461,1041.21 883.333,1040.98 883.333,1040.74C883.333,1040.48 883.47,1040.25 883.69,1040.12L892.48,1035.01C892.588,1034.95 892.71,1034.92 892.834,1034.92C893.223,1034.92 893.544,1035.24 893.544,1035.63C893.544,1035.74 893.515,1035.86 893.46,1035.96L892.55,1037.7C892.485,1037.82 892.388,1037.91 892.27,1037.98Z" style="fill:white;fill-rule:nonzero;"/>
        </g>
        <g transform="matrix(0.391526,0,0,0.391526,-301.654,-351.687)">
            <path d="M914.52,1047.27L910.95,1039.1C910.907,1039 910.884,1038.89 910.884,1038.78C910.884,1038.34 911.25,1037.97 911.694,1037.97C911.767,1037.97 911.84,1037.98 911.91,1038L912.99,1038.3C913.225,1038.36 913.42,1038.53 913.52,1038.75L916.1,1044.49C916.152,1044.61 916.176,1044.73 916.17,1044.86L916.07,1046.98C916.05,1047.41 915.691,1047.75 915.261,1047.75C914.941,1047.75 914.649,1047.56 914.52,1047.27Z" style="fill:white;fill-rule:nonzero;"/>
        </g>
        <g transform="matrix(0.391526,0,0,0.391526,-301.654,-351.687)">
            <path d="M917.02,1047.43C916.991,1047.45 916.958,1047.46 916.925,1047.46C916.857,1047.46 916.794,1047.42 916.76,1047.36L916.71,1047.28C916.075,1046.17 916.885,1044.49 918.506,1043.56L918.51,1043.56L922.83,1041.07C924.449,1040.14 926.302,1040.29 926.94,1041.39L926.99,1041.48C927.007,1041.51 927.016,1041.54 927.016,1041.58C927.016,1041.64 926.979,1041.71 926.92,1041.74L917.02,1047.43Z" style="fill:white;fill-rule:nonzero;"/>
        </g>
        <g transform="matrix(0.391526,0,0,0.391526,-301.654,-351.687)">
            <path d="M887.45,1050.1C889.83,1048.23 892.403,1046.68 895.17,1045.45C895.574,1045.27 896.055,1045.41 896.29,1045.79C896.543,1046.2 896.53,1046.67 896.25,1047.19C896.09,1047.48 895.807,1047.75 895.4,1048C893.187,1049.38 891.217,1050.51 889.49,1051.4C889.458,1051.42 889.426,1051.43 889.393,1051.45C887.736,1052.23 885.731,1051.51 884.953,1049.86C884.938,1049.82 884.924,1049.79 884.91,1049.76L881.78,1042.56C881.725,1042.44 881.696,1042.31 881.696,1042.18C881.696,1041.68 882.107,1041.27 882.606,1041.27C882.873,1041.27 883.127,1041.39 883.3,1041.59C885.453,1044 886.78,1046.81 887.28,1050.03C887.3,1050.15 887.357,1050.17 887.45,1050.1Z" style="fill:white;fill-rule:nonzero;"/>
        </g>
        <g transform="matrix(0.391526,0,0,0.391526,-301.654,-351.687)">
            <path d="M903.53,1042.8C903.521,1042.78 903.516,1042.75 903.516,1042.73C903.516,1042.65 903.566,1042.58 903.64,1042.55L903.75,1042.51C904.92,1042.03 906.413,1042.91 907.06,1044.47L908.76,1048.57C909.406,1050.13 908.974,1051.81 907.804,1052.3L907.8,1052.3L907.69,1052.35C907.594,1052.38 907.487,1052.34 907.45,1052.24L903.53,1042.8Z" style="fill:white;fill-rule:nonzero;"/>
        </g>
        <g transform="matrix(0.391526,0,0,0.391526,-301.654,-351.687)">
            <path d="M865.98,1051.03C866.147,1050.42 866.363,1050.04 866.63,1049.89C869.603,1048.22 872.623,1046.49 875.69,1044.71C875.792,1044.65 875.908,1044.62 876.026,1044.62C876.394,1044.62 876.696,1044.92 876.696,1045.29C876.696,1045.4 876.67,1045.5 876.62,1045.6L875.76,1047.24C875.622,1047.5 875.415,1047.72 875.16,1047.87L868.49,1051.71C868.203,1051.88 867.93,1051.85 867.67,1051.64C867.103,1051.17 866.54,1050.96 865.98,1051.03Z" style="fill:white;fill-rule:nonzero;"/>
        </g>
        <g transform="matrix(0.391526,0,0,0.391526,-301.654,-351.687)">
            <path d="M902.67,1055.14C902.683,1055.17 902.69,1055.2 902.69,1055.23C902.69,1055.31 902.643,1055.38 902.57,1055.41L902.45,1055.46C901.3,1055.99 899.812,1055.24 899.15,1053.8L897.13,1049.42C896.468,1047.98 896.87,1046.36 898.02,1045.83L898.14,1045.78C898.167,1045.77 898.197,1045.76 898.227,1045.76C898.306,1045.76 898.378,1045.81 898.41,1045.88L902.67,1055.14Z" style="fill:white;fill-rule:nonzero;"/>
        </g>
        <g transform="matrix(0.391526,0,0,0.391526,-301.654,-351.687)">
            <path d="M865.98,1051.03C868.6,1053.54 870.097,1056.57 870.47,1060.14C870.037,1060.67 869.613,1060.91 869.2,1060.85C868.887,1060.81 868.61,1060.54 868.37,1060.03C867.103,1057.38 865.947,1054.69 864.9,1051.96C864.68,1051.39 865.04,1051.08 865.98,1051.03Z" style="fill:white;fill-rule:nonzero;"/>
        </g>
        <g transform="matrix(0.391526,0,0,0.391526,-301.654,-351.687)">
            <path d="M859.87,1055.28L863.46,1063.69C863.497,1063.78 863.515,1063.87 863.515,1063.96C863.515,1064.36 863.195,1064.67 862.805,1064.67L862.72,1064.67L861.58,1064.54C861.333,1064.51 861.12,1064.35 861.02,1064.12L858.32,1058.13C858.267,1058.01 858.246,1057.89 858.26,1057.76L858.51,1055.48C858.549,1055.12 858.855,1054.85 859.216,1054.85C859.501,1054.85 859.759,1055.02 859.87,1055.28Z" style="fill:white;fill-rule:nonzero;"/>
        </g>
        <g transform="matrix(0.391526,0,0,0.391526,-301.654,-351.687)">
            <path d="M870.47,1060.14C872.877,1057.88 875.553,1056.25 878.5,1055.24C878.727,1055.16 878.973,1055.16 879.199,1055.25C879.752,1055.44 880.043,1056.06 879.844,1056.62C879.764,1056.85 879.611,1057.04 879.41,1057.17C877.283,1058.5 875.12,1059.79 872.92,1061.02C871.85,1061.61 870.79,1061.39 870.47,1060.14Z" style="fill:white;fill-rule:nonzero;"/>
        </g>
        <g transform="matrix(0.391526,0,0,0.391526,-301.654,-351.687)">
            <path d="M857.36,1058.13L850.18,1062.27C850.055,1062.34 849.909,1062.36 849.77,1062.33L847.91,1061.92C847.643,1061.86 847.45,1061.63 847.45,1061.35C847.45,1061.14 847.561,1060.95 847.74,1060.85L857.33,1055.3C857.42,1055.25 857.522,1055.22 857.626,1055.22C857.944,1055.22 858.206,1055.48 858.206,1055.8C858.206,1055.86 858.197,1055.91 858.18,1055.97L857.63,1057.8C857.585,1057.94 857.489,1058.06 857.36,1058.13Z" style="fill:white;fill-rule:nonzero;"/>
        </g>
        <g transform="matrix(0.391526,0,0,0.391526,-301.654,-351.687)">
            <path d="M891.72,1059.09L898.53,1055.15C898.726,1055.04 898.962,1055.02 899.17,1055.11L900.39,1055.61C900.66,1055.72 900.837,1055.99 900.837,1056.28C900.837,1056.54 900.701,1056.78 900.48,1056.91L891.61,1062.04C891.5,1062.1 891.375,1062.14 891.248,1062.14C890.848,1062.14 890.518,1061.81 890.518,1061.41C890.518,1061.3 890.543,1061.19 890.59,1061.09L891.43,1059.4C891.494,1059.27 891.595,1059.16 891.72,1059.09Z" style="fill:white;fill-rule:nonzero;"/>
        </g>
        <g transform="matrix(0.391526,0,0,0.391526,-301.654,-351.687)">
            <path d="M875.15,1070.24L875.48,1068.94C875.56,1068.64 875.73,1068.41 875.99,1068.24C878.12,1066.87 882.4,1063.67 884.92,1064.5C885.222,1064.6 885.429,1064.88 885.429,1065.2C885.429,1065.46 885.288,1065.7 885.06,1065.83L875.57,1071.28C874.443,1071.93 873.6,1071.67 873.04,1070.5C872.147,1068.66 871.11,1066.51 869.93,1064.05C869.563,1063.29 869.56,1062.66 869.92,1062.17C869.957,1062.12 869.997,1062.08 870.041,1062.03C870.492,1061.59 871.223,1061.6 871.66,1062.05C871.704,1062.09 871.744,1062.14 871.78,1062.19C873.473,1064.62 874.527,1067.29 874.94,1070.22C874.987,1070.57 875.057,1070.58 875.15,1070.24Z" style="fill:white;fill-rule:nonzero;"/>
        </g>
        <g transform="matrix(0.391526,0,0,0.391526,-301.654,-351.687)">
            <path d="M848.14,1063.33C848.077,1063.19 848.14,1063.02 848.28,1062.96L848.42,1062.89L848.423,1062.89C849.501,1062.4 850.791,1062.88 851.28,1063.95L853.15,1068.05C853.636,1069.12 853.151,1070.41 852.074,1070.9L852.07,1070.9L851.93,1070.97C851.79,1071.03 851.623,1070.97 851.56,1070.83L848.14,1063.33Z" style="fill:white;fill-rule:nonzero;"/>
        </g>
        <g transform="matrix(0.391526,0,0,0.391526,-301.654,-351.687)">
            <path d="M857.97,1079.81C858.857,1077.61 860.497,1076.46 862.89,1076.36C863.11,1076.35 863.213,1076.24 863.2,1076.02L862.76,1066.79C862.759,1066.78 862.759,1066.76 862.759,1066.75C862.759,1066.22 863.192,1065.79 863.719,1065.79C863.884,1065.79 864.046,1065.83 864.19,1065.91C864.957,1066.34 865.377,1067.12 865.45,1068.25C865.617,1070.74 865.69,1073.24 865.67,1075.75C865.657,1076.96 865.123,1077.62 864.07,1077.74C863.737,1077.78 863.443,1077.91 863.19,1078.13C861.377,1079.7 859.327,1080.82 857.04,1081.5C856.607,1081.63 856.3,1081.48 856.12,1081.07L852.58,1073.09C852.369,1072.62 852.581,1072.06 853.05,1071.84C853.73,1071.53 854.31,1071.72 854.79,1072.43C856.33,1074.7 857.37,1077.15 857.91,1079.8C857.923,1079.87 857.943,1079.88 857.97,1079.81Z" style="fill:white;fill-rule:nonzero;"/>
        </g>
        <g transform="matrix(0.391526,0,0,0.391526,-301.654,-351.687)">
            <path d="M817.44,1077.57L841.1,1077.09L841.111,1077.09C841.292,1077.09 841.441,1077.24 841.441,1077.42C841.441,1077.47 841.431,1077.52 841.41,1077.56L831.79,1099.18C831.736,1099.3 831.619,1099.37 831.491,1099.37C831.383,1099.37 831.282,1099.32 831.22,1099.23L817.17,1078.09C817.131,1078.03 817.11,1077.97 817.11,1077.9C817.11,1077.72 817.259,1077.57 817.44,1077.57ZM826.21,1082.27C825.999,1082.28 825.829,1082.45 825.829,1082.66C825.829,1082.73 825.85,1082.81 825.89,1082.87L830.04,1089.12C830.112,1089.23 830.234,1089.29 830.363,1089.29C830.517,1089.29 830.658,1089.2 830.72,1089.06L833.57,1082.67C833.593,1082.62 833.604,1082.57 833.604,1082.51C833.604,1082.3 833.428,1082.12 833.214,1082.12L833.21,1082.12L826.21,1082.27Z" style="fill:white;fill-rule:nonzero;"/>
        </g>
    </g>
</svg>
