<?xml version="1.0" encoding="UTF-8" standalone="no"?>
<!DOCTYPE svg PUBLIC "-//W3C//DTD SVG 1.1//EN" "http://www.w3.org/Graphics/SVG/1.1/DTD/svg11.dtd">
<svg width="100%" height="100%" viewBox="0 0 144 79" version="1.1" xmlns="http://www.w3.org/2000/svg" xmlns:xlink="http://www.w3.org/1999/xlink" xml:space="preserve" xmlns:serif="http://www.serif.com/" style="fill-rule:evenodd;clip-rule:evenodd;stroke-linejoin:round;stroke-miterlimit:2;">
    <g transform="matrix(0.811893,0.468747,-0.468747,0.811893,23.0411,-26.5595)">
        <g transform="matrix(0.334187,-0.203989,0.203989,0.334187,58.0606,52.8025)">
            <ellipse cx="0" cy="0" rx="2.64" ry="1.31" style="fill:white;"/>
        </g>
        <g transform="matrix(0.923767,-0.533337,0.533337,0.923767,-7.11949,36.8235)">
            <path d="M144,36.265L0,36.265L0,50.09L144,50.09L144,36.265ZM56.504,47.623L56.985,47.024C57.066,46.922 57.168,46.871 57.294,46.863C58.66,46.787 60.682,46.538 61.029,47.464C61.031,47.469 61.033,47.474 61.035,47.48C61.053,47.567 61.002,47.651 60.921,47.668C60.913,47.672 60.906,47.673 60.9,47.673C59.455,47.826 57.989,47.811 56.504,47.623ZM42.251,47.761C42.238,47.762 42.226,47.759 42.215,47.753C42.194,47.74 42.181,47.716 42.181,47.691L42.18,47.656C42.182,47.187 42.748,46.801 43.434,46.803L43.435,46.804L45.265,46.805C45.95,46.807 46.512,47.194 46.513,47.661L46.512,47.699C46.512,47.712 46.51,47.723 46.502,47.736C46.491,47.755 46.467,47.77 46.442,47.769L42.251,47.761ZM110.601,47.764C110.589,47.763 110.578,47.761 110.565,47.753C110.546,47.742 110.53,47.718 110.532,47.694L110.532,47.664C110.53,47.204 111.117,46.82 111.836,46.815L113.627,46.802C114.346,46.799 114.936,47.172 114.941,47.633L114.944,47.664C114.945,47.677 114.942,47.689 114.936,47.7C114.923,47.721 114.899,47.734 114.874,47.734L110.601,47.764ZM90.555,47.158C90.352,46.947 90.018,46.81 89.646,46.812L89.535,46.812C88.927,46.815 88.425,47.187 88.427,47.638L88.427,47.681C88.426,47.705 88.442,47.73 88.464,47.742C88.473,47.748 88.485,47.751 88.497,47.751L90.692,47.738C90.717,47.738 90.741,47.725 90.754,47.704C90.76,47.693 90.763,47.681 90.762,47.668L90.761,47.625C90.76,47.511 90.727,47.403 90.668,47.304L91.306,47.377L91.211,47.478C91.202,47.486 91.195,47.497 91.189,47.507C91.143,47.587 91.172,47.692 91.251,47.738C91.277,47.752 91.31,47.761 91.34,47.76L93.357,47.695C93.413,47.693 93.466,47.661 93.495,47.611C93.535,47.541 93.522,47.452 93.46,47.399L92.784,46.822C92.75,46.793 92.707,46.779 92.663,46.782L91.872,46.838C91.828,46.841 91.788,46.86 91.76,46.893L91.449,47.224L91.839,43.802L90.949,43.701L90.555,47.158ZM96.453,47.177L96.62,46.998C96.695,46.92 96.784,46.876 96.894,46.868C98.139,46.79 99.106,46.781 99.797,46.84C100.281,46.883 100.56,47.112 100.634,47.527C100.635,47.533 100.635,47.539 100.636,47.545C100.645,47.654 100.56,47.75 100.45,47.758C100.445,47.759 100.437,47.758 100.432,47.758L95.986,47.7C95.981,47.701 95.973,47.7 95.969,47.7C95.765,47.687 95.609,47.508 95.622,47.303C95.621,47.297 95.623,47.293 95.623,47.287L95.964,44.149C95.97,44.095 95.987,44.043 96.014,43.996C96.122,43.809 96.363,43.744 96.551,43.852C96.573,43.865 96.591,43.878 96.611,43.895C96.709,43.981 96.794,44.149 96.807,44.296C96.89,45.276 96.756,46.226 96.401,47.143C96.358,47.254 96.373,47.264 96.453,47.177ZM64.087,47.034C64.098,47.028 64.109,47.024 64.121,47.019C64.94,46.721 65.612,46.702 66.135,46.966C66.238,47.017 66.315,46.994 66.368,46.893L67.931,43.951C67.94,43.935 67.95,43.919 67.959,43.908C68.073,43.758 68.29,43.726 68.44,43.838C68.454,43.85 68.467,43.862 68.48,43.874C68.688,44.096 68.714,44.39 68.56,44.755C68.18,45.659 67.721,46.517 67.18,47.336C66.949,47.686 66.652,47.811 66.272,47.736C66.164,47.711 66.054,47.703 65.946,47.705L64.264,47.755C64.186,47.756 64.108,47.733 64.042,47.69C63.929,47.611 63.869,47.482 63.875,47.354C63.7,47.532 63.469,47.631 63.229,47.602L63.17,47.594C63.132,47.588 63.102,47.554 63.106,47.514L63.555,43.793C63.56,43.754 63.598,43.725 63.637,43.731L63.696,43.739C64.146,43.796 64.462,44.283 64.399,44.819L64.172,46.718C64.158,46.83 64.129,46.936 64.087,47.034ZM132.409,47.262C133.062,46.718 133.788,46.628 134.589,46.995C134.7,47.045 134.785,47.016 134.84,46.906L136.29,44.035L136.301,44.015C136.41,43.826 136.655,43.762 136.843,43.87C136.875,43.888 136.904,43.911 136.93,43.939C137.094,44.11 137.109,44.356 136.97,44.678C136.586,45.578 136.14,46.445 135.633,47.28C135.388,47.681 135.108,47.866 134.67,47.685C134.564,47.641 134.456,47.629 134.348,47.648C133.506,47.792 132.665,47.781 131.824,47.615C131.665,47.582 131.594,47.485 131.608,47.321L131.941,44.109C131.952,44.002 132.015,43.907 132.109,43.855C132.327,43.735 132.517,43.78 132.68,43.989C132.745,44.075 132.78,44.183 132.788,44.315C132.858,45.318 132.713,46.288 132.352,47.221C132.321,47.304 132.339,47.318 132.409,47.262ZM17.538,47.216C18.224,46.68 18.956,46.615 19.735,47.023C19.807,47.06 19.86,47.044 19.896,46.971L21.457,43.944C21.554,43.775 21.771,43.718 21.938,43.815C21.991,43.845 22.035,43.887 22.066,43.939C22.231,44.217 22.221,44.542 22.037,44.914C21.633,45.737 21.198,46.545 20.731,47.339C20.504,47.721 20.214,47.833 19.857,47.678C19.744,47.629 19.626,47.617 19.505,47.64C18.641,47.807 17.784,47.786 16.932,47.583C16.771,47.545 16.7,47.441 16.719,47.277L17.058,44.091C17.077,43.903 17.247,43.764 17.437,43.78C17.71,43.806 17.859,43.973 17.881,44.287C17.954,45.291 17.835,46.261 17.521,47.202C17.512,47.227 17.516,47.234 17.538,47.216ZM24.755,47.327L25.099,46.974C25.179,46.894 25.276,46.852 25.389,46.846C26.318,46.801 28.266,46.569 28.914,47.296C28.992,47.383 29.006,47.51 28.948,47.612C28.9,47.694 28.811,47.745 28.715,47.744L24.698,47.735C24.22,47.735 24,47.497 24.037,47.023C24.091,46.274 24.156,45.4 24.232,44.401C24.255,44.093 24.369,43.892 24.574,43.802C24.595,43.793 24.615,43.788 24.638,43.78C24.862,43.723 25.093,43.86 25.149,44.083C25.156,44.104 25.159,44.127 25.161,44.15C25.254,45.233 25.099,46.275 24.692,47.282C24.643,47.402 24.663,47.418 24.755,47.327ZM103.668,47.219L103.811,47.009C103.866,46.936 103.936,46.894 104.03,46.886C105.316,46.78 107.566,46.575 107.756,47.502C107.789,47.665 107.721,47.745 107.557,47.744L103.114,47.709C103.055,47.709 102.993,47.691 102.942,47.662C102.821,47.592 102.751,47.456 102.768,47.318L103.117,44.108C103.128,44.015 103.169,43.928 103.237,43.863C103.395,43.705 103.654,43.706 103.809,43.863C103.876,43.931 103.915,44.017 103.924,44.112C104.019,45.15 103.901,46.17 103.566,47.169C103.56,47.193 103.571,47.219 103.593,47.232C103.618,47.246 103.651,47.241 103.668,47.219ZM32.069,46.824L34.957,46.821C35.039,46.822 35.118,46.859 35.167,46.926L35.464,47.309C35.529,47.393 35.536,47.512 35.483,47.604C35.435,47.686 35.348,47.738 35.254,47.739L31.492,47.741C31.446,47.74 31.399,47.73 31.359,47.707C31.232,47.633 31.188,47.468 31.261,47.341C31.281,47.306 31.309,47.275 31.343,47.252L31.92,46.869C31.964,46.84 32.016,46.823 32.069,46.824ZM6.249,38.154L13.56,42.851C13.615,42.888 13.63,42.965 13.593,43.02C13.583,43.035 13.57,43.048 13.555,43.056L6.199,47.675C6.158,47.701 6.108,47.698 6.069,47.672C6.036,47.65 6.016,47.614 6.015,47.574L6.06,38.257C6.061,38.23 6.067,38.208 6.081,38.187C6.118,38.132 6.194,38.117 6.249,38.154ZM117.305,44.573C117.316,44.274 117.408,44.035 117.583,43.856C117.699,43.736 117.88,43.709 118.023,43.791C118.122,43.848 118.188,43.946 118.201,44.056C118.366,45.282 118.168,46.44 117.603,47.529L117.597,47.54C117.52,47.672 117.349,47.719 117.216,47.642C117.124,47.588 117.071,47.489 117.077,47.383C117.137,46.434 117.27,45.506 117.305,44.573ZM77.559,44.725C77.583,44.365 77.661,44.11 77.794,43.958C77.841,43.906 77.899,43.864 77.963,43.838C78.196,43.743 78.466,43.854 78.561,44.085C78.587,44.15 78.599,44.221 78.593,44.292C78.521,45.246 78.548,46.682 77.885,47.405C77.517,47.808 77.353,47.737 77.393,47.193C77.453,46.34 77.508,45.517 77.559,44.725ZM56.504,47.623L56.3,47.654C56.156,47.655 56.034,47.538 56.029,47.391C56.027,47.382 56.028,47.37 56.03,47.358L56.384,44.006C56.386,43.974 56.397,43.942 56.415,43.91C56.466,43.821 56.575,43.773 56.677,43.798C57.079,43.895 57.268,44.114 57.241,44.459C57.151,45.687 57.143,46.471 56.504,47.623ZM36.275,47.578C36.273,47.59 36.27,47.601 36.264,47.61C36.25,47.636 36.222,47.649 36.193,47.645L36.146,47.639C35.683,47.597 35.348,47.085 35.402,46.506L35.563,44.743C35.617,44.164 36.042,43.722 36.505,43.765L36.552,43.771C36.563,43.773 36.574,43.775 36.584,43.781C36.609,43.795 36.622,43.824 36.62,43.852L36.275,47.578ZM38.813,43.813C38.813,43.805 38.817,43.795 38.821,43.788C38.836,43.763 38.864,43.75 38.893,43.754L38.936,43.761C39.396,43.823 39.709,44.377 39.628,44.992L39.416,46.607C39.335,47.222 38.89,47.676 38.428,47.617L38.426,47.617L38.382,47.612C38.346,47.604 38.32,47.572 38.326,47.533L38.813,43.813ZM53.515,47.58C52.691,46.922 53.133,44.842 53.435,44.003C53.444,43.979 53.453,43.959 53.466,43.937C53.578,43.743 53.83,43.676 54.023,43.787C54.163,43.868 54.241,44.028 54.223,44.187L53.846,47.44C53.843,47.468 53.833,47.497 53.818,47.522C53.763,47.617 53.637,47.651 53.539,47.594L53.515,47.58ZM48.718,47.277L49.144,44.094C49.149,44.055 49.162,44.016 49.182,43.981C49.267,43.835 49.457,43.784 49.604,43.868C49.625,43.88 49.643,43.895 49.662,43.91L49.911,44.147C49.981,44.213 50.015,44.309 50.004,44.404L49.761,46.638C49.756,46.681 49.742,46.724 49.719,46.762L49.287,47.474C49.2,47.615 49.013,47.664 48.869,47.581C48.763,47.52 48.704,47.4 48.718,47.277ZM74.273,47.341L74.637,43.936C74.64,43.901 74.651,43.868 74.668,43.838C74.737,43.719 74.891,43.678 75.009,43.747L75.43,44.059C75.5,44.112 75.538,44.198 75.528,44.285L75.268,46.733C75.264,46.778 75.247,46.823 75.221,46.858L74.721,47.519C74.646,47.62 74.505,47.649 74.396,47.586C74.31,47.536 74.261,47.44 74.273,47.341ZM124.325,47.316L124.68,43.956C124.684,43.92 124.695,43.886 124.713,43.854C124.787,43.727 124.952,43.683 125.079,43.756L125.476,44.06C125.549,44.117 125.589,44.209 125.578,44.301L125.348,46.631C125.344,46.674 125.329,46.715 125.305,46.75L124.813,47.492C124.734,47.606 124.578,47.641 124.457,47.572C124.368,47.52 124.316,47.42 124.325,47.316ZM82.806,44.66C82.703,45.505 82.581,46.413 82.44,47.386C82.434,47.417 82.424,47.449 82.408,47.478C82.339,47.596 82.187,47.639 82.067,47.569C82.038,47.552 82.01,47.527 81.989,47.498C81.37,46.654 81.768,45.128 81.925,44.151C81.932,44.095 81.953,44.044 81.981,43.995C82.105,43.781 82.382,43.705 82.598,43.83C82.696,43.887 82.77,43.98 82.803,44.09C82.838,44.207 82.839,44.396 82.806,44.66ZM41.486,47.251L41.85,43.999C41.855,43.959 41.868,43.92 41.888,43.885C41.969,43.745 42.153,43.695 42.294,43.776C42.317,43.789 42.339,43.806 42.357,43.825L42.646,44.119C42.709,44.181 42.74,44.271 42.731,44.359L42.498,46.657C42.493,46.705 42.478,46.747 42.453,46.788L42.032,47.443C41.946,47.576 41.77,47.618 41.633,47.54C41.531,47.481 41.474,47.367 41.486,47.251ZM129.764,44.077C129.757,44.853 129.685,46.673 129.358,47.349L129.341,47.378C129.236,47.561 128.999,47.626 128.815,47.519C128.697,47.451 128.623,47.322 128.623,47.183C128.615,46.132 128.716,45.172 128.933,44.305C128.993,44.061 129.122,43.889 129.322,43.793C129.415,43.749 129.523,43.753 129.608,43.803C129.707,43.86 129.765,43.964 129.764,44.077ZM110.327,43.74C110.326,43.733 110.329,43.727 110.333,43.722C110.342,43.705 110.36,43.696 110.38,43.698L110.394,43.697C110.861,43.754 111.194,44.226 111.133,44.744L111.131,44.747L110.894,46.713C110.833,47.231 110.401,47.612 109.933,47.556L109.919,47.552C109.894,47.55 109.874,47.527 109.876,47.501L110.327,43.74ZM122.508,44.216L122.207,47.094C122.169,47.431 121.997,47.531 121.688,47.391C121.426,47.271 121.314,46.968 121.349,46.48C121.401,45.789 121.48,45.101 121.587,44.417C121.64,44.083 121.771,43.878 121.981,43.801C122.089,43.761 122.213,43.773 122.311,43.83C122.448,43.909 122.526,44.061 122.508,44.216ZM46.707,47.002C46.706,47.014 46.701,47.028 46.696,47.038C46.677,47.07 46.645,47.085 46.61,47.082L46.564,47.081C46.105,47.04 45.762,46.592 45.803,46.086L45.92,44.695C45.963,44.186 46.376,43.801 46.838,43.839L46.882,43.844C46.93,43.846 46.967,43.888 46.963,43.937L46.707,47.002ZM7.96,41.38C7.893,41.34 7.807,41.357 7.764,41.421C7.749,41.443 7.739,41.471 7.739,41.498L7.725,44.251C7.724,44.3 7.749,44.343 7.788,44.369C7.835,44.401 7.897,44.402 7.944,44.372L10.12,43.008C10.138,42.998 10.151,42.985 10.163,42.967C10.206,42.903 10.19,42.812 10.124,42.768L7.96,41.38ZM118.409,43.087L121.602,43.069C121.661,43.07 121.716,43.085 121.767,43.114C121.907,43.195 121.966,43.371 121.903,43.523C121.748,43.888 121.431,44.063 120.946,44.043C120.138,44.012 119.326,43.988 118.509,43.971C118.371,43.967 118.287,43.899 118.252,43.763C118.179,43.47 117.992,43.281 117.695,43.2C117.553,43.16 117.488,43.067 117.505,42.921L117.806,40.166C117.818,40.066 117.869,40.027 117.968,40.056C119.086,40.379 118.6,42.125 118.333,42.983C118.313,43.054 118.336,43.087 118.409,43.087ZM32.361,43.182C33.461,43.025 34.564,43.004 35.669,43.121C35.83,43.138 35.957,43.271 35.962,43.435C35.968,43.612 35.877,43.759 35.693,43.872C35.589,43.935 35.449,43.969 35.274,43.974C34.317,44.006 33.484,44.004 32.771,43.97C32.757,43.971 32.745,43.968 32.731,43.968C32.061,43.912 31.556,43.315 31.612,42.648L31.943,39.745C31.947,39.697 31.962,39.65 31.986,39.609C32.078,39.45 32.284,39.395 32.442,39.487C32.527,39.536 32.586,39.62 32.604,39.716C32.846,40.877 32.752,42.014 32.32,43.129C32.305,43.171 32.319,43.188 32.361,43.182ZM25.121,43.258C26.301,42.981 27.451,42.954 28.573,43.174C28.66,43.19 28.738,43.235 28.793,43.305C28.934,43.467 28.913,43.718 28.747,43.859C28.679,43.918 28.596,43.95 28.508,43.954C27.588,43.987 26.664,44 25.739,43.987C25.29,43.978 24.994,43.714 25.121,43.258ZM57.664,40.05C57.697,40.19 57.703,40.357 57.683,40.552C57.602,41.382 57.548,42.275 57.308,43.073C57.289,43.135 57.313,43.161 57.377,43.151C58.397,43.015 59.397,43.097 60.422,43.074C60.659,43.071 60.81,43.158 60.873,43.343C60.918,43.475 60.904,43.619 60.836,43.737C60.754,43.88 60.602,43.97 60.436,43.976C59.421,43.996 58.454,43.993 57.534,43.967C57.195,43.957 57.042,43.789 57.078,43.457C57.091,43.325 57.032,43.265 56.898,43.277C56.581,43.302 56.44,43.17 56.476,42.877C56.602,41.92 56.709,40.926 56.8,39.894C56.834,39.502 57.021,39.406 57.36,39.606C57.421,39.643 57.474,39.688 57.519,39.742C57.508,39.627 57.54,39.514 57.618,39.429C57.689,39.352 57.789,39.307 57.899,39.303L61.681,39.317C61.871,39.316 61.925,39.402 61.844,39.576C61.415,40.519 58.898,40.232 57.993,40.205C57.882,40.196 57.771,40.149 57.684,40.069C57.677,40.063 57.671,40.056 57.664,40.05ZM104.155,39.388C104.48,40.638 104.436,41.836 104.031,42.987C104.005,43.068 104.033,43.108 104.114,43.107L107.208,43.062C107.37,43.06 107.519,43.155 107.587,43.302C107.7,43.554 107.63,43.748 107.371,43.881C107.267,43.937 107.123,43.966 106.94,43.967C106.082,43.977 105.226,43.985 104.365,43.985C104.067,43.988 103.882,43.832 103.81,43.516C103.785,43.405 103.716,43.342 103.603,43.324L103.392,43.292C103.327,43.281 103.276,43.221 103.277,43.154C103.278,41.911 103.393,40.766 103.62,39.719C103.658,39.551 103.836,39.441 104.155,39.388ZM97.041,39.485C97.324,40.618 97.275,41.826 96.901,43.113C96.892,43.144 96.879,43.173 96.863,43.201C96.747,43.402 96.486,43.472 96.286,43.356C96.143,43.273 96.059,43.111 96.077,42.947L96.438,39.679C96.45,39.548 96.566,39.45 96.696,39.46L97.041,39.485ZM75.928,40.363L75.694,42.698C75.688,42.764 75.661,42.826 75.618,42.875L75.272,43.268C75.173,43.381 75.007,43.409 74.877,43.334C74.769,43.271 74.707,43.15 74.721,43.026L75.067,39.776C75.072,39.734 75.086,39.693 75.107,39.655C75.194,39.505 75.388,39.453 75.538,39.54C75.595,39.573 75.641,39.623 75.668,39.683L75.901,40.203C75.924,40.253 75.933,40.308 75.928,40.363ZM38.893,42.969C38.918,42.221 38.971,40.374 39.269,39.77C39.272,39.764 39.276,39.757 39.281,39.748C39.38,39.576 39.605,39.515 39.778,39.615C39.877,39.672 39.942,39.774 39.956,39.887C40.089,40.973 39.989,42.042 39.653,43.099C39.644,43.127 39.634,43.151 39.619,43.177C39.513,43.361 39.272,43.426 39.088,43.319C38.963,43.247 38.887,43.114 38.893,42.969ZM136.616,40.019C135.335,40.322 134.045,40.326 132.751,40.034C132.561,39.989 132.546,40.022 132.709,40.136L133.067,40.382C133.148,40.44 133.191,40.52 133.196,40.621C133.215,41.469 133.102,42.288 132.861,43.081C132.85,43.107 132.839,43.133 132.825,43.157C132.71,43.357 132.449,43.427 132.249,43.311C132.106,43.229 132.022,43.066 132.041,42.9L132.498,39.54C132.519,39.4 132.639,39.295 132.779,39.295L137.057,39.337C137.065,39.337 137.073,39.337 137.081,39.338C137.333,39.351 137.531,39.573 137.515,39.828C137.515,39.836 137.515,39.843 137.514,39.851L137.169,43.025C137.164,43.071 137.151,43.116 137.128,43.156C137.06,43.274 136.925,43.339 136.788,43.318C136.579,43.291 136.459,43.154 136.428,42.907C136.314,41.937 136.392,40.988 136.66,40.061C136.67,40.022 136.656,40.008 136.616,40.019ZM111.197,39.626C111.857,40.194 111.402,42.207 111.235,43.018C111.226,43.063 111.209,43.107 111.186,43.147C111.066,43.354 110.796,43.426 110.589,43.307C110.44,43.22 110.355,43.052 110.373,42.881L110.691,39.826C110.733,39.438 110.9,39.37 111.197,39.626ZM68.427,39.703C68.605,39.529 68.834,39.435 69.071,39.464C69.071,39.464 69.072,39.464 69.072,39.464L69.093,39.464C69.103,39.465 69.111,39.468 69.119,39.472C69.143,39.486 69.155,39.513 69.151,39.54L68.682,43.304C68.682,43.312 68.678,43.323 68.673,43.332C68.66,43.354 68.636,43.366 68.609,43.363L68.586,43.358C68.122,43.302 67.799,42.789 67.869,42.224L68.097,40.389C68.11,40.286 68.135,40.188 68.171,40.096C68.133,40.112 68.092,40.121 68.051,40.125C66.79,40.335 65.529,40.287 64.266,39.978C64.193,39.961 64.129,39.919 64.083,39.861C63.97,39.717 63.997,39.504 64.143,39.39C64.201,39.344 64.273,39.319 64.346,39.317L67.981,39.305C68.065,39.298 68.149,39.317 68.222,39.359C68.349,39.432 68.422,39.565 68.427,39.703ZM129.325,39.882L129.088,40.102C128.989,40.192 128.875,40.236 128.741,40.232C127.824,40.22 125.925,40.492 125.304,39.689C125.243,39.611 125.237,39.504 125.286,39.419C125.33,39.343 125.412,39.296 125.5,39.298L129.651,39.325C130.078,39.326 130.272,39.541 130.226,39.966L129.902,43.038C129.902,43.045 129.899,43.05 129.9,43.056C129.873,43.235 129.703,43.361 129.52,43.333C129.516,43.332 129.508,43.33 129.504,43.33C129.246,43.277 129.086,43.079 129.019,42.732C128.92,42.214 129.057,41.286 129.428,39.946C129.468,39.803 129.434,39.781 129.325,39.882ZM22.644,39.767L22.241,43.1C22.237,43.135 22.226,43.167 22.209,43.196C22.136,43.323 21.977,43.363 21.853,43.291L21.826,43.275L21.488,43.025C21.415,42.97 21.376,42.88 21.387,42.789L21.628,40.389C21.633,40.341 21.648,40.299 21.677,40.26L22.175,39.581C22.253,39.474 22.4,39.444 22.515,39.511C22.605,39.563 22.656,39.664 22.644,39.767ZM25.366,39.538C25.738,40.816 25.658,42.054 25.121,43.258C24.886,43.347 24.708,43.345 24.587,43.25C24.495,43.18 24.457,43.043 24.474,42.837C24.557,41.762 24.684,40.695 24.852,39.635C24.887,39.414 25.058,39.381 25.366,39.538ZM64.817,40.653L64.563,42.884C64.555,42.959 64.51,43.023 64.443,43.056L63.933,43.3C63.869,43.331 63.795,43.326 63.733,43.29C63.66,43.248 63.617,43.168 63.625,43.084L63.905,40.266C63.909,40.234 63.917,40.205 63.932,40.18C63.992,40.076 64.125,40.041 64.228,40.1C64.234,40.103 64.239,40.106 64.245,40.11L64.726,40.452C64.791,40.497 64.826,40.574 64.817,40.653ZM91.486,39.773C91.531,39.696 91.566,39.609 91.588,39.512C91.62,39.369 91.563,39.298 91.419,39.299L89.622,39.313C89.311,39.317 89.237,39.451 89.402,39.716C89.744,40.267 90.79,40.456 91.314,39.985L90.974,43.225L91.872,43.32L92.232,39.89L92.48,40.141C92.525,40.188 92.589,40.215 92.653,40.215L93.348,40.222C93.391,40.222 93.435,40.211 93.473,40.189L94.167,39.78C94.201,39.758 94.231,39.728 94.252,39.692C94.32,39.575 94.28,39.424 94.162,39.356C94.127,39.336 94.087,39.325 94.045,39.324L92.249,39.308C92.16,39.307 92.078,39.354 92.033,39.431C91.978,39.527 91.993,39.648 92.071,39.726L92.19,39.847L91.486,39.773ZM122.108,39.755L121.839,40.045C121.749,40.142 121.639,40.193 121.506,40.196C120.188,40.24 118.222,40.474 117.983,39.544C117.939,39.371 118.005,39.286 118.184,39.291L122.646,39.359C122.835,39.369 122.983,39.533 122.972,39.719C122.973,39.726 122.97,39.73 122.971,39.736L122.626,43.021C122.622,43.056 122.612,43.089 122.597,43.122C122.52,43.292 122.308,43.365 122.13,43.284C122.094,43.267 122.063,43.247 122.035,43.222C121.982,43.175 121.921,43.097 121.852,42.989C121.802,42.907 121.776,42.813 121.773,42.706C121.753,41.743 121.892,40.775 122.191,39.803C122.204,39.78 122.196,39.75 122.173,39.738C122.151,39.725 122.121,39.732 122.108,39.755ZM42.866,39.495C43.179,40.557 43.159,41.669 42.807,42.826C42.711,43.139 42.529,43.301 42.258,43.314C42.253,43.316 42.25,43.314 42.245,43.315C42.09,43.315 41.962,43.186 41.962,43.029C41.963,43.025 41.963,43.021 41.963,43.017C42.015,41.89 42.147,40.749 42.358,39.596C42.401,39.354 42.571,39.32 42.866,39.495ZM17.438,40.174C17.443,40.117 17.494,40.075 17.55,40.082L17.608,40.086C18.041,40.128 18.363,40.517 18.322,40.947L18.164,42.593C18.122,43.023 17.731,43.344 17.299,43.302L17.298,43.301L17.24,43.298C17.185,43.291 17.143,43.241 17.148,43.185L17.438,40.174ZM82.269,40.09C81.042,40.292 79.818,40.293 78.597,40.094C78.551,40.085 78.507,40.069 78.467,40.046C78.279,39.937 78.213,39.693 78.322,39.505C78.393,39.382 78.524,39.307 78.665,39.307L82.698,39.325C82.795,39.326 82.89,39.352 82.973,39.399C83.164,39.51 83.274,39.723 83.25,39.94L82.933,42.97C82.916,43.154 82.762,43.296 82.579,43.304C82.279,43.317 82.124,43.131 82.113,42.747C82.089,41.877 82.166,41.017 82.347,40.169C82.361,40.107 82.334,40.08 82.269,40.09ZM53.83,39.722L53.576,40.045C53.476,40.17 53.345,40.234 53.188,40.233C52.285,40.233 50.344,40.468 49.733,39.683C49.676,39.608 49.669,39.506 49.717,39.424C49.757,39.354 49.835,39.305 49.917,39.306L53.946,39.309C54.069,39.309 54.191,39.341 54.298,39.403C54.541,39.543 54.677,39.816 54.645,40.095L54.317,43.071C54.3,43.214 54.171,43.318 54.032,43.301L54.032,43.301C53.606,43.254 53.394,43.026 53.396,42.611C53.404,41.629 53.578,40.682 53.919,39.773C53.998,39.564 53.968,39.547 53.83,39.722ZM49.473,40.067C49.477,40.019 49.522,39.981 49.572,39.984L49.639,39.993C50.095,40.036 50.429,40.492 50.379,41.001L50.24,42.447C50.19,42.956 49.777,43.337 49.322,43.294L49.254,43.289C49.203,43.285 49.167,43.239 49.171,43.19L49.473,40.067ZM125.052,40.052C125.056,40.009 125.092,39.975 125.137,39.978L125.17,39.98C125.631,40.019 125.977,40.432 125.938,40.896L125.937,40.898L125.801,42.506C125.762,42.969 125.35,43.316 124.893,43.279L124.86,43.277C124.816,43.272 124.783,43.234 124.786,43.192L125.052,40.052ZM78.094,40.091C78.095,40.078 78.099,40.066 78.105,40.055C78.121,40.026 78.153,40.01 78.186,40.013L78.233,40.019C78.673,40.059 79,40.487 78.957,40.967L78.821,42.468C78.777,42.949 78.378,43.312 77.937,43.272L77.888,43.266C77.843,43.261 77.81,43.221 77.813,43.176L78.094,40.091ZM97.041,39.485C97.083,39.436 97.13,39.391 97.189,39.355C97.237,39.323 97.298,39.306 97.371,39.303C98.665,39.287 99.982,39.296 101.317,39.326C101.456,39.327 101.505,39.397 101.464,39.534C101.164,40.493 98.809,40.264 97.631,40.182C97.512,40.175 97.428,40.115 97.382,40.004C97.288,39.778 97.172,39.603 97.041,39.485ZM42.866,39.495C42.999,39.351 43.125,39.28 43.242,39.284C44.53,39.303 45.815,39.312 47.095,39.313C47.136,39.311 47.176,39.321 47.211,39.342C47.319,39.404 47.357,39.545 47.295,39.653C47.285,39.669 47.276,39.68 47.264,39.694C46.553,40.492 44.507,40.234 43.509,40.193C43.381,40.19 43.298,40.126 43.258,40.005C43.172,39.752 43.041,39.583 42.866,39.495ZM104.155,39.388L108.424,39.348C108.56,39.347 108.616,39.413 108.59,39.546C108.534,39.849 108.34,40.044 108.014,40.133C107.506,40.271 106.447,40.284 104.838,40.172C104.72,40.163 104.628,40.109 104.563,40.009L104.155,39.388ZM25.366,39.538C25.531,39.375 25.669,39.293 25.782,39.295C27.033,39.309 28.311,39.314 29.612,39.311C29.656,39.31 29.698,39.322 29.736,39.344C29.853,39.411 29.894,39.562 29.826,39.68C29.806,39.715 29.779,39.742 29.745,39.764L29.17,40.128C29.079,40.185 28.973,40.217 28.864,40.218L26.039,40.215C25.917,40.216 25.835,40.156 25.791,40.042C25.697,39.788 25.557,39.618 25.366,39.538ZM36.118,40.214L33.198,40.207C33.103,40.207 33.017,40.153 32.971,40.072L32.768,39.704C32.725,39.624 32.726,39.528 32.771,39.452C32.818,39.369 32.904,39.321 32.998,39.32L36.73,39.309C36.775,39.31 36.819,39.322 36.859,39.345C36.982,39.417 37.026,39.577 36.954,39.701C36.934,39.736 36.903,39.769 36.867,39.791L36.258,40.177C36.216,40.203 36.168,40.214 36.118,40.214ZM21.323,40.213L18.281,40.211C18.228,40.21 18.178,40.19 18.139,40.155L17.623,39.683C17.549,39.615 17.53,39.507 17.582,39.418C17.62,39.351 17.69,39.311 17.766,39.312L21.833,39.308C21.87,39.308 21.908,39.317 21.941,39.337C22.042,39.395 22.078,39.526 22.019,39.627C22.008,39.646 21.996,39.661 21.98,39.677L21.469,40.157C21.429,40.194 21.377,40.214 21.323,40.213Z"/>
        </g>
    </g>
</svg>
