<?xml version="1.0" encoding="UTF-8" standalone="no"?>
<!DOCTYPE svg PUBLIC "-//W3C//DTD SVG 1.1//EN" "http://www.w3.org/Graphics/SVG/1.1/DTD/svg11.dtd">
<svg width="100%" height="100%" viewBox="0 0 146 90" version="1.1" xmlns="http://www.w3.org/2000/svg" xmlns:xlink="http://www.w3.org/1999/xlink" xml:space="preserve" xmlns:serif="http://www.serif.com/" style="fill-rule:evenodd;clip-rule:evenodd;stroke-linejoin:round;stroke-miterlimit:2;">
    <g transform="matrix(0.391526,0,0,0.391526,-221.146,-235.981)">
        <path d="M877.94,617.02L729.62,826.9C727.922,829.306 725.155,830.74 722.21,830.74C719.265,830.74 716.498,829.306 714.8,826.9L566.49,617.02C565.41,615.49 564.83,613.663 564.83,611.79C564.83,606.814 568.924,602.72 573.9,602.72L870.53,602.72C875.506,602.72 879.6,606.814 879.6,611.79C879.6,613.663 879.02,615.49 877.94,617.02ZM696.7,654.61L666.39,713.98C666.36,714.039 666.345,714.104 666.345,714.17C666.345,714.399 666.531,714.588 666.76,714.59L726.32,714.6C726.61,714.599 726.876,714.437 727.01,714.18L757.26,654.65C757.44,654.297 757.333,654.12 756.94,654.12L746.81,654.09C746.45,654.09 746.187,654.25 746.02,654.57L721.31,702.86C721.157,703.16 720.913,703.31 720.58,703.31C709.307,703.39 698.03,703.54 686.75,703.76C685.58,703.79 685.17,703.29 683.94,703.26C683.42,703.247 683.28,703.007 683.52,702.54L707.81,654.7C708.01,654.313 707.893,654.12 707.46,654.12L697.52,654.11C697.147,654.11 696.873,654.277 696.7,654.61ZM780.42,663.06C779.88,663.473 779.57,663.87 779.49,664.25C778.94,666.86 777.12,669.26 776.3,670.92C773.4,676.86 770.38,682.777 767.24,688.67C767.067,689.003 766.793,689.167 766.42,689.16L746.75,689.05L746.74,689.05C746.493,689.05 746.29,689.253 746.29,689.5L746.27,698.75C746.27,699.063 746.43,699.22 746.75,699.22L761.25,699.25C761.643,699.25 761.75,699.423 761.57,699.77L754.59,713.43C754.183,714.217 754.423,714.613 755.31,714.62L765.01,714.63C765.323,714.637 765.55,714.5 765.69,714.22L795.93,654.76C795.96,654.698 795.976,654.629 795.976,654.56C795.976,654.309 795.771,654.102 795.52,654.1L785.27,654.12C784.899,654.121 784.562,654.336 784.41,654.67L780.57,662.86C780.537,662.939 780.486,663.007 780.42,663.06Z" style="fill:white;fill-rule:nonzero;"/>
    </g>
    <g transform="matrix(0.391526,0,0,0.391526,-221.146,-235.981)">
        <path d="M759.02,817.44L908.41,606.29C909.99,604.054 912.562,602.721 915.3,602.72L928.87,602.72C933.499,602.722 937.307,606.531 937.307,611.16C937.307,612.904 936.766,614.606 935.76,616.03L786.36,827.18C784.78,829.416 782.208,830.749 779.47,830.75L765.91,830.75C761.281,830.748 757.473,826.939 757.473,822.31C757.473,820.566 758.014,818.864 759.02,817.44Z" style="fill:white;fill-rule:nonzero;"/>
    </g>
</svg>
