<?xml version="1.0" encoding="UTF-8" standalone="no"?>
<!DOCTYPE svg PUBLIC "-//W3C//DTD SVG 1.1//EN" "http://www.w3.org/Graphics/SVG/1.1/DTD/svg11.dtd">
<svg width="100%" height="100%" viewBox="0 0 325 325" version="1.1" xmlns="http://www.w3.org/2000/svg" xmlns:xlink="http://www.w3.org/1999/xlink" xml:space="preserve" xmlns:serif="http://www.serif.com/" style="fill-rule:evenodd;clip-rule:evenodd;stroke-linejoin:round;stroke-miterlimit:2;">
    <g id="path1" transform="matrix(1,0,0,1,-29.6044,-43.5518)">
        <path d="M36.441,44.087C33.614,44.601 30.857,47.218 30.1,50.106C29.547,52.214 29.401,356.069 29.95,360.459C30.32,363.413 33.023,366.796 35.686,367.637C37.112,368.088 63.115,368.201 190.4,368.312C344.841,368.445 344.628,368.447 349.091,367.126C350.999,366.561 353.353,363.675 353.925,361.199C354.664,357.995 354.58,54.272 353.839,51.173C352.926,47.356 351.465,45.666 347.974,44.39C345.525,43.495 41.326,43.2 36.441,44.087M121,103L121,135L89.225,135.102C64.07,135.184 57.384,135.1 57.131,134.702C56.746,134.096 56.685,71.448 57.069,71.064C57.217,70.916 71.662,70.841 89.169,70.898L121,71L121,103M141.143,71.331C141.424,71.67 141.622,74.881 141.692,80.231L141.8,88.6L145.264,88.715C149.575,88.858 149.545,88.82 149.686,94.224L149.8,98.6L154.176,98.714C160.186,98.871 159.6,96.899 159.6,116.969C159.6,136.91 159.18,135.2 164.08,135.2L167.6,135.2L167.6,131.649C167.6,127.11 167.56,127.142 173.058,127.286L177.4,127.4L177.501,130.4C177.676,135.581 177.24,135.2 182.993,135.2L187.971,135.2L188.086,131.3L188.2,127.4L191.539,127.283C195.838,127.133 196,127.274 196,131.169C196,135.089 195.877,135.2 191.52,135.2L188,135.2L188,144.92C188,151.947 188.133,154.773 188.48,155.12C189.158,155.798 204.842,155.798 205.52,155.12C205.833,154.807 206,153.164 206,150.4C206,145.049 205.841,145.2 211.48,145.2L216,145.2L216,135.2L211.48,135.2C206.012,135.2 206,135.191 206,131.2C206,127.209 206.012,127.2 211.48,127.2L216,127.2L216,117.2L211.449,117.2C205.866,117.2 206.059,117.396 205.914,111.576L205.8,107L201.8,106.883C195.631,106.703 196,106.394 196,111.728C196,117.187 195.991,117.2 192,117.2C188.034,117.2 188,117.155 188,112C188,106.768 187.972,106.8 192.48,106.8L196,106.8L196,103.28C196,98.793 195.992,98.8 201,98.8C206.008,98.8 206,98.793 206,103.28L206,106.8L210.551,106.8C216.134,106.8 215.941,106.604 216.086,112.424L216.2,117L224.2,117L224.308,108.219C224.434,97.945 223.918,98.814 229.9,98.806L234.4,98.8L234.4,94.28C234.4,88.812 234.409,88.8 238.4,88.8C242.192,88.8 242.4,88.6 242.4,84.953C242.4,80.441 243.2,80.8 233.157,80.8L224.4,80.8L224.4,84.32C224.4,89.063 224.939,88.8 215.2,88.8C205.458,88.8 206,89.065 206,84.308L206,80.775L201.1,80.888L196.2,81L196.083,84.38C195.919,89.074 196.498,88.8 186.765,88.8C178.932,88.8 178.403,88.847 178.014,89.574C177.753,90.062 177.6,95.208 177.6,103.531C177.6,115.184 177.527,116.743 176.967,116.957C175.775,117.415 168.583,117.223 168.08,116.72C167.726,116.366 167.6,112.764 167.6,103C167.6,87.74 167.901,88.8 163.569,88.8C159.674,88.8 159.533,88.638 159.683,84.339L159.8,81L168.6,80.78C173.44,80.659 177.445,80.524 177.5,80.48C177.555,80.436 177.6,78.442 177.6,76.049C177.6,70.279 176.205,70.77 192.247,70.895L205.8,71L205.912,75.907L206.025,80.815L215.112,80.707L224.2,80.6L224.6,71L252.2,71L252.2,98.6L243.286,98.708L234.371,98.815L234.486,102.708L234.6,106.6L237.98,106.717C242.483,106.874 242.4,106.766 242.4,112.437L242.4,117.175L247.3,117.288L252.2,117.4L252.2,145L247.824,145.114C242.259,145.26 242.4,145.123 242.4,150.369C242.4,155.636 242.431,155.6 237.92,155.6L234.4,155.6L234.4,159.151C234.4,163.485 234.445,163.53 238.82,163.683L242.2,163.8L242.303,186.363C242.374,201.885 242.542,209.09 242.842,209.45C243.141,209.811 244.665,210.01 247.738,210.087L252.2,210.2L252.6,219.8L257.176,219.914C263.248,220.065 262.8,219.305 262.8,229.449L262.8,238L266.6,238C268.69,238 270.436,237.955 270.48,237.9C270.524,237.845 270.659,233.84 270.78,229L271,220.2L275.441,220.087C280.901,219.949 280.739,219.79 280.886,225.424L281,229.8L285.9,229.912L290.8,230.025L290.8,225.492C290.8,219.582 290.1,220 300,220C305.876,220 308.378,219.862 308.72,219.52C309.423,218.817 309.375,211.043 308.663,210.452C308.286,210.139 301.417,209.976 285.563,209.903L263,209.8L263,202.2L280.364,202.096C292.372,202.024 297.894,201.854 298.264,201.547C299.023,200.917 299.023,192.683 298.264,192.053C297.894,191.746 292.372,191.576 280.364,191.504L263,191.4L262.6,181.8L258.024,181.686C252.42,181.547 252.4,181.532 252.4,177.631C252.4,173.605 252.407,173.6 257.872,173.6C263.161,173.6 262.745,174.08 262.901,167.8L263,163.8L270.6,163.4L270.708,154.831C270.838,144.545 270.494,145.2 275.769,145.2C280.903,145.2 280.8,145.092 280.8,150.431C280.8,155.789 280.663,155.661 286.258,155.514L290.6,155.4L290.714,150.824C290.869,144.581 288.861,145.2 308.969,145.2C329.103,145.2 327.2,144.654 327.2,150.431C327.2,155.93 327.861,155.561 317.769,155.692L309.4,155.8L309.292,164.169C309.161,174.234 309.556,173.543 303.862,173.687L299.4,173.8L299.4,181.4L307.769,181.508C317.942,181.64 317.257,181.24 317.113,186.959L317,191.4L313.62,191.517C309.157,191.673 309.2,191.622 309.2,196.8C309.2,201.978 309.157,201.927 313.62,202.083L317,202.2L317.4,229.8L321.776,229.914C327.61,230.067 327.2,229.364 327.2,239.2C327.2,249.036 327.61,248.333 321.776,248.486L317.4,248.6L317.283,251.98C317.134,256.256 317.007,256.4 313.384,256.4C309.123,256.4 309.2,256.469 309.2,252.637C309.2,247.984 311.529,248.4 285.506,248.4L262.771,248.4L262.886,252.3L263,256.2L290.6,256.6L290.714,260.976C290.867,266.809 290.169,266.4 299.969,266.4C305.869,266.4 308.378,266.538 308.72,266.88C309.062,267.222 309.2,269.731 309.2,275.631C309.2,285.427 308.95,284.918 313.679,284.731L317,284.6L317.117,281.021C317.269,276.362 317.227,276.4 322.169,276.4C327.169,276.4 327.2,276.426 327.2,280.6C327.2,284.818 327.223,284.8 321.72,284.8L317.2,284.8L317.2,294.775L322.1,294.888L327,295L327.117,298.566C327.259,302.933 327.448,302.786 321.688,302.794L317.175,302.8L317.288,307.7L317.4,312.6L321.862,312.713C327.412,312.853 327.26,312.692 327.114,318.258L327,322.6L318.631,322.708C308.588,322.838 309.135,322.566 309.286,327.361L309.4,331L317,331.4L317.114,335.742C317.255,341.127 317.205,341.2 313.384,341.2C308.988,341.2 309.2,341.465 309.2,335.957L309.2,331.2L300.48,331.2C290.069,331.2 290.8,330.805 290.8,336.437C290.8,341.487 291.113,341.2 285.616,341.2C280.77,341.2 280.859,341.297 280.714,335.776L280.6,331.4L271,331.4L270.886,335.776C270.742,341.284 270.763,341.259 266.439,341.115L263,341L262.886,336.624C262.732,330.755 263.576,331.2 252.6,331.2C241.741,331.2 242.478,331.531 242.317,326.579L242.2,323L234.6,322.6L234.486,318.224C234.341,312.682 234.507,312.85 229.062,312.713L224.6,312.6L224.6,295L232.969,294.892C243.142,294.76 242.457,295.16 242.313,289.441L242.2,285L229.485,284.8C214.773,284.569 216.015,285.021 216.006,279.888L216,276.375L211.1,276.488L206.2,276.6L206.085,280.263C205.936,285.032 206.489,284.763 196.569,284.892L188.2,285L188.092,293.571C188.009,300.161 188.101,302.217 188.492,302.465C188.771,302.643 192.825,302.791 197.5,302.794L206,302.8L206,299.249C206,294.71 205.96,294.742 211.458,294.886L215.8,295L215.8,302.6L210.895,302.712L205.99,302.825L206.095,316.912L206.2,331L215.8,331.4L215.8,341L211.458,341.114C205.83,341.262 206,341.429 206,335.739L206,331.175L201.1,331.288L196.2,331.4L196.086,335.776C195.933,341.611 196.64,341.2 186.765,341.2C176.888,341.2 177.6,341.648 177.6,335.426L177.6,331.2L167.6,331.2L167.6,335.72C167.6,341.188 167.591,341.2 163.6,341.2C159.609,341.2 159.6,341.188 159.6,335.72L159.6,331.2L149.6,331.2L149.6,335.72C149.6,338.702 149.437,340.403 149.12,340.72C148.441,341.399 132.359,341.399 131.68,340.72C131.337,340.377 131.2,337.861 131.2,331.934C131.2,322.14 130.814,322.8 136.545,322.8C141.406,322.8 141.6,322.968 141.6,327.18C141.6,331.133 141.753,331.268 146.061,331.117L149.4,331L149.517,327.421C149.669,322.762 149.627,322.8 154.569,322.8C159.641,322.8 159.6,322.762 159.6,327.494L159.6,331.229L163.5,331.114L167.4,331L167.511,327.4C167.65,322.864 167.724,322.8 172.796,322.8C177.517,322.8 177.6,322.87 177.6,326.847C177.6,331.404 177.375,331.2 182.414,331.2C187.873,331.2 188,331.1 188,326.82C188,322.968 188.109,322.867 192.42,322.717L195.8,322.6L195.914,318.258C196.068,312.389 196.754,312.8 186.8,312.8C176.964,312.8 177.667,313.21 177.514,307.376L177.4,303L173.024,302.886C167.556,302.743 167.6,302.78 167.6,298.351L167.6,294.8L163.8,294.8C161.71,294.8 159.964,294.845 159.92,294.9C159.876,294.955 159.741,298.96 159.62,303.8L159.4,312.6L149.8,312.6L149.587,298.8C149.47,291.21 149.335,284.955 149.287,284.9C149.239,284.845 147.49,284.8 145.4,284.8L141.6,284.8L141.6,293.32C141.6,303.498 141.983,302.8 136.4,302.8C130.84,302.8 131.2,303.412 131.2,293.953C131.2,283.952 130.768,284.8 135.869,284.8C141.513,284.8 141.6,284.74 141.6,280.814C141.6,276.49 141.485,276.4 135.971,276.4C133.567,276.4 131.563,276.355 131.518,276.3C131.473,276.245 131.338,271.79 131.218,266.4L131,256.6L126.112,256.488L121.225,256.376L121.112,261.288L121,266.2L113.4,266.2L113.288,261.3L113.175,256.4L103.2,256.4L103.2,260.92C103.2,266.423 103.218,266.4 99,266.4C94.826,266.4 94.8,266.369 94.8,261.369C94.8,256.427 94.762,256.469 99.421,256.317L103,256.2L103.114,252.3L103.229,248.4L94.214,248.4C89.257,248.4 85.164,248.445 85.12,248.5C85.076,248.555 84.941,252.56 84.82,257.4L84.6,266.2L71.047,266.305C55.063,266.43 56.4,266.875 56.4,261.431C56.4,256.053 55.765,256.4 65.6,256.4C71.476,256.4 73.978,256.262 74.32,255.92C74.663,255.577 74.8,253.013 74.8,246.92L74.8,238.4L66.229,238.4C56.058,238.4 56.4,238.541 56.4,234.345C56.4,230.035 56.441,230 61.534,230C66.909,230 66.8,230.103 66.8,225C66.8,219.904 66.9,220 61.6,220C56.3,220 56.4,220.096 56.4,215C56.4,209.901 56.296,210 61.631,210C66.775,210 66.728,210.04 66.883,205.58L67,202.2L70.38,202.083C74.843,201.927 74.8,201.978 74.8,196.8C74.8,191.518 74.655,191.66 80.224,191.514L84.6,191.4L84.714,187.058C84.86,181.492 85.012,181.653 79.462,181.513L75,181.4L75,173.8L94.8,173.586L94.8,163.6L90.249,163.6C84.687,163.6 84.726,163.632 84.883,159.139L85,155.8L89.9,155.688L94.8,155.575L94.8,151.016C94.8,144.665 93.573,145.2 108.149,145.2C122.386,145.2 121.2,144.728 121.2,150.4C121.2,156.084 122.474,155.6 107.506,155.6L94.771,155.6L94.886,159.5L95,163.4L98.579,163.517C103.287,163.67 103.2,163.566 103.2,169.049L103.2,173.6L113.175,173.6L113.288,168.7L113.4,163.8L121.769,163.692C131.577,163.565 131.2,163.721 131.2,159.784C131.2,155.408 130.972,155.6 136.163,155.6C141.631,155.6 141.6,155.575 141.6,159.88C141.6,163.889 140.219,163.321 150.6,163.58L159.4,163.8L159.513,168.241C159.651,173.701 159.81,173.539 154.176,173.686L149.8,173.8L149.683,177.18C149.529,181.591 149.463,181.656 145.239,181.515L141.8,181.4L141.6,178C141.316,173.168 142.753,173.6 126.976,173.6L113.2,173.6L113.2,181.6L121.567,181.6C132.126,181.6 131.2,181.142 131.2,186.363C131.2,192.105 129.784,191.6 145.88,191.6L159.6,191.6L159.6,187.08C159.6,181.533 159.545,181.6 164.08,181.6L167.6,181.6L167.6,178.049C167.6,173.51 167.56,173.542 173.058,173.686L177.4,173.8L177.8,181.4L182.343,181.514C187.991,181.655 187.938,181.694 188.085,177.264L188.2,173.8L192.1,173.686L196,173.571L196,169.066C196,163.184 196.705,163.6 186.744,163.6C177.163,163.6 177.879,163.945 177.6,159.2L177.4,155.8L173,155.6C167.276,155.34 167.6,155.677 167.6,149.976L167.6,145.2L164.08,145.2C159.572,145.2 159.6,145.168 159.6,150.4C159.6,155.7 159.696,155.6 154.6,155.6C149.14,155.6 149.6,156.908 149.6,141.369C149.6,125.931 149.975,127.114 145.139,127.283L141.8,127.4L141.683,130.78C141.528,135.24 141.575,135.2 136.431,135.2C130.83,135.2 131.2,135.837 131.2,126.2C131.2,116.589 130.857,117.2 136.251,117.2C141.566,117.2 141.6,117.168 141.6,112.103C141.6,106.857 141.54,106.8 135.981,106.8C132.433,106.8 131.643,106.69 131.443,106.167C131.126,105.341 131.126,72.259 131.443,71.433C131.769,70.582 140.445,70.491 141.143,71.331M327,103L327,135L295.244,135.102C272.115,135.177 263.34,135.082 262.944,134.753C262.189,134.127 262.129,72.031 262.882,71.278C263.253,70.907 270.767,70.819 295.182,70.898L327,71L327,103M67.062,80.731C66.206,81.678 66.031,125.471 66.88,126.32C67.513,126.953 110.849,127.016 112.026,126.386C112.777,125.984 112.8,125.306 112.8,103.376L112.8,80.78L111.774,80.39C109.628,79.574 67.821,79.893 67.062,80.731M272.986,80.381C271.135,81.131 271.167,80.686 271.287,103.789C271.396,124.913 271.427,125.684 272.176,126.232C273.406,127.131 316.07,127.073 316.971,126.171C318.014,125.129 317.916,81.61 316.869,80.662C316.064,79.934 274.743,79.669 272.986,80.381M102.786,89.974C103.408,91.137 103.347,116.093 102.72,116.72C102.116,117.324 77.795,117.406 76.226,116.81L75.2,116.42L75.2,103.077C75.2,95.738 75.32,89.613 75.467,89.467C76.23,88.704 102.366,89.189 102.786,89.974M308.705,102.908L308.811,116.416L307.779,116.808C306.206,117.406 281.885,117.325 281.28,116.72C280.771,116.211 280.551,91.114 281.045,89.828C281.263,89.258 282.753,89.201 294.945,89.295L308.6,89.4L308.705,102.908M224.4,122.2L224.4,127.2L216,127.2L216,135.2L224.4,135.2L224.4,139.751C224.4,145.234 224.487,145.13 219.779,145.283L216.2,145.4L215.8,173.4L196,173.614L196,191.6L216,191.6L216,187.08C216,181.577 215.982,181.6 220.2,181.6C224.374,181.6 224.4,181.631 224.4,186.631C224.4,191.573 224.438,191.531 219.779,191.683L216.2,191.8L215.8,209.8L211.458,209.914C206.034,210.056 206.062,210.078 205.915,205.664L205.8,202.2L200.9,202.088L196,201.975L196,205.539C196,209.886 195.957,209.93 191.58,210.083L188.2,210.2L188.2,229.8L191.58,229.917C195.925,230.068 196,230.142 196,234.235C196,238.554 196.344,238.4 186.688,238.4C177.294,238.4 177.6,238.558 177.6,233.711C177.6,229.849 177.819,230 172.21,230C167.307,230 167.6,230.357 167.6,224.38L167.6,220.025L172.5,219.912L177.4,219.8L177.4,210.2L173.058,210.086C167.431,209.938 167.6,209.773 167.6,215.449L167.6,220L159.6,220L159.6,201.975L154.7,202.088L149.8,202.2L149.683,205.58C149.514,210.43 151.337,210 130.951,210L113.2,210L113.2,202L108.833,202C102.822,202 103.2,202.323 103.2,197.19C103.2,191.341 103.377,191.6 99.386,191.6C94.337,191.6 94.8,189.242 94.8,214.949C94.8,240.17 94.419,238 98.851,238C103.123,238 103.2,238.103 103.2,243.829L103.2,248.4L113.2,248.4L113.2,256.4L121.229,256.4L121.114,252.5L121,248.6L117.1,248.486L113.2,248.371L113.2,243.634C113.2,237.967 113.117,238.074 117.62,237.917L121,237.8L121.114,233.912L121.229,230.024L126.114,229.912L131,229.8L131.114,225.424C131.26,219.859 131.123,220 136.369,220C142.101,220 141.6,218.619 141.6,234.437C141.6,249.847 141.166,248.4 145.784,248.4C149.721,248.4 149.565,248.023 149.692,257.831L149.8,266.2L159.576,266.424L159.8,276.2L167.4,276.2L167.512,271.3L167.625,266.4L177.6,266.4L177.6,256.4L167.6,256.4L167.606,252.9C167.614,248.179 167.41,248.351 172.832,248.486L177.4,248.6L177.8,256.2L182.343,256.314C187.991,256.455 187.938,256.494 188.085,252.064L188.2,248.6L195.8,248.6L195.908,256.949C196.044,267.443 197.073,266.4 186.594,266.4C176.708,266.4 177.6,265.889 177.6,271.553C177.6,276.841 176.264,276.4 192.28,276.4L206,276.4L206,271.849C206,266.173 205.831,266.338 211.458,266.486L215.8,266.6L216.2,276.2L219.839,276.314C224.39,276.457 224.341,276.514 224.486,270.976L224.6,266.6L229.488,266.488L234.375,266.376L234.488,271.288L234.6,276.2L242.2,276.2L242.314,271.858C242.458,266.36 242.49,266.4 237.951,266.4L234.4,266.4L234.4,257.88C234.4,251.787 234.263,249.223 233.92,248.88C233.566,248.526 229.964,248.4 220.2,248.4C204.645,248.4 206,248.903 206,243.134C206,237.509 204.231,238 224.494,238C244.259,238 242.4,237.457 242.4,243.231C242.4,248.836 241.562,248.436 253.05,248.307L262.6,248.2L262.6,238.6L257.884,238.4C251.999,238.15 252.414,238.899 252.406,228.5L252.4,220L247.849,220C242.285,220 242.46,219.828 242.314,225.424L242.2,229.8L234.6,229.8L234.497,202.238C234.426,183.09 234.261,174.515 233.959,174.15C233.658,173.788 232.138,173.59 229.062,173.513L224.6,173.4L224.6,155.8L234.2,155.4L234.414,135.2L237.927,135.2C242.671,135.2 242.4,135.774 242.4,125.72L242.4,117.2L224.4,117.2L224.4,122.2M233.92,127.68C234.221,127.981 234.4,129.476 234.4,131.68L234.4,135.2L224.4,135.2L224.4,127.2L228.92,127.2C231.902,127.2 233.603,127.363 233.92,127.68M167.6,140.212L167.6,145.225L172.5,145.112L177.4,145L177.512,140.1L177.625,135.2L167.6,135.2L167.6,140.212M74.32,145.68C75.012,146.372 74.978,154.555 74.28,155.134C73.994,155.371 72.239,155.618 70.38,155.683L67,155.8L66.883,159.18C66.727,163.646 66.783,163.6 61.565,163.6C57.687,163.6 57.184,163.518 56.814,162.826C56.086,161.465 56.273,146.584 57.029,145.829C57.843,145.014 73.519,144.879 74.32,145.68M290.8,159.106C290.8,163.473 290.914,163.602 294.78,163.594C298.88,163.586 298.855,163.612 298.717,159.366L298.6,155.8L294.7,155.686L290.8,155.571L290.8,159.106M270.8,168.108C270.8,173.669 270.856,173.6 266.32,173.6L262.8,173.6L262.8,181.61L290.6,181.4L290.6,173.8L286.224,173.686C280.682,173.541 280.85,173.707 280.713,168.262L280.6,163.8L275.7,163.688L270.8,163.575L270.8,168.108M327,168.6L327,173.4L322.658,173.514C317.061,173.661 317.2,173.791 317.2,168.418C317.2,163.19 316.802,163.553 322.379,163.688L327,163.8L327,168.6M94.8,177.106C94.8,181.571 94.83,181.6 99.48,181.6L103.2,181.6L103.2,191.6L113.2,191.6L113.2,181.6L103.229,181.6L103.114,177.7L103,173.8L94.8,173.572L94.8,177.106M66.32,182.08C66.823,182.583 67.015,189.775 66.557,190.967C66.247,191.775 57.67,191.91 56.88,191.12C56.57,190.81 56.4,189.209 56.4,186.6C56.4,181.504 56.3,181.6 61.6,181.6C64.364,181.6 66.007,181.767 66.32,182.08M167.6,186.586L167.6,191.571L163.7,191.686L159.8,191.8L159.8,201.8L163.139,201.917C167.651,202.075 167.6,202.138 167.6,196.351L167.6,191.6L177.6,191.6L177.6,181.6L167.6,181.6L167.6,186.586M113.374,192.124C113.263,192.413 113.224,194.708 113.286,197.224L113.4,201.8L116.739,201.917C118.856,201.991 120.283,201.863 120.639,201.568C121.375,200.957 121.444,192.804 120.72,192.08C120.029,191.389 113.641,191.428 113.374,192.124M177.874,191.859C177.723,192.01 177.6,194.07 177.6,196.438C177.6,202.408 176.945,202.04 187.336,201.908L195.8,201.8L195.8,191.8L186.974,191.693C182.12,191.633 178.025,191.708 177.874,191.859M113.288,214.9L113.4,219.8L116.78,219.917C121.267,220.073 121.2,219.989 121.2,225.457L121.2,230.015L112.3,229.908L103.4,229.8L103.292,220.408C103.16,208.809 102.578,210 108.375,210L113.175,210L113.288,214.9M75.28,220.48C74.937,220.823 74.8,223.389 74.8,229.492L74.8,238.025L79.7,237.912L84.6,237.8L84.708,229.451C84.784,223.63 84.678,220.935 84.359,220.551C83.758,219.827 75.994,219.766 75.28,220.48M159.6,228.786C159.6,237.063 159.555,237.596 158.826,237.986C157.727,238.574 150.681,238.521 150.08,237.92C149.561,237.401 149.36,220.774 149.867,220.267C150.013,220.12 152.263,220 154.867,220L159.6,220L159.6,228.786M223.92,220.48C224.23,220.79 224.4,222.391 224.4,225C224.4,230.351 225.062,230 214.963,230C205.112,230 206,230.51 206,224.847C206,219.681 205.395,220 215.2,220C221.076,220 223.578,220.138 223.92,220.48M291.067,230.267C290.685,230.648 290.748,236.899 291.14,237.517C291.377,237.891 292.451,238.001 295.034,237.917L298.6,237.8L298.717,234.234C298.801,231.651 298.691,230.577 298.317,230.34C297.699,229.948 291.448,229.885 291.067,230.267M167.6,261.4L167.6,266.4L159.6,266.4L159.6,262.033C159.6,256.08 159.359,256.4 163.843,256.4L167.6,256.4L167.6,261.4M252.88,266.88C252.526,267.234 252.4,270.836 252.4,280.6C252.4,290.364 252.526,293.966 252.88,294.32C253.567,295.007 279.633,295.007 280.32,294.32C281.007,293.633 281.007,267.567 280.32,266.88C279.966,266.526 276.364,266.4 266.6,266.4C256.836,266.4 253.234,266.526 252.88,266.88M121,308.6L121,340.6L89.4,340.704C60.047,340.8 57.764,340.759 57.3,340.127C56.585,339.155 56.568,277.592 57.282,276.878C57.653,276.507 65.123,276.419 89.382,276.498L121,276.6L121,308.6M270.32,276.88C271.192,277.752 270.952,283.891 270.026,284.386C268.948,284.963 263.873,284.913 263.28,284.32C262.607,283.647 262.624,276.938 263.3,276.665C264.355,276.239 269.848,276.408 270.32,276.88M67.023,285.689C66.202,286.86 66.066,329.906 66.88,330.72C67.389,331.229 110.867,331.456 112.167,330.957C113.134,330.586 113.134,285.414 112.167,285.043C111.819,284.909 101.659,284.8 89.59,284.8L67.645,284.8L67.023,285.689M167.848,285.42C167.711,285.775 167.6,288.031 167.6,290.433L167.6,294.8L172.1,294.794C177.948,294.786 177.651,295.073 177.514,289.568L177.4,285L172.748,284.888C168.77,284.792 168.059,284.869 167.848,285.42M291.048,285.418C290.586,286.622 290.774,293.814 291.28,294.32C291.581,294.621 293.078,294.8 295.292,294.8L298.825,294.8L298.712,289.9L298.6,285L294.948,284.886C291.884,284.79 291.257,284.875 291.048,285.418M102.72,294.88C103.422,295.582 103.404,320.769 102.7,321.73C102.243,322.353 101.043,322.403 88.8,322.306L75.4,322.2L75.4,295.036L76.4,294.758C78.264,294.239 102.19,294.35 102.72,294.88M299.286,298.7L299.4,302.6L308.3,302.708L317.2,302.815L317.2,294.8L299.171,294.8L299.286,298.7M242.88,303.28C242.534,303.626 242.4,306.412 242.4,313.292L242.4,322.825L247.3,322.712L252.2,322.6L252.314,318.224C252.46,312.652 252.315,312.8 257.625,312.8C262.815,312.8 262.542,312.514 262.8,318.2L263,322.6L280.6,322.6L280.712,317.7L280.825,312.8L290.825,312.8L290.712,307.9L290.6,303L286.258,302.886C280.63,302.738 280.8,302.571 280.8,308.261L280.8,312.825L275.9,312.712L271,312.6L270.886,308.224C270.823,305.817 270.576,303.612 270.337,303.324C269.733,302.596 243.606,302.554 242.88,303.28M291.067,313.067C290.683,313.45 290.749,321.7 291.14,322.317C291.377,322.691 292.451,322.801 295.034,322.717L298.6,322.6L298.714,318.032C298.798,314.647 298.694,313.38 298.314,313.138C297.698,312.748 291.447,312.686 291.067,313.067" style="fill:rgb(251,251,251);"/>
    </g>
</svg>
