<?xml version="1.0" encoding="UTF-8" standalone="no"?>
<!DOCTYPE svg PUBLIC "-//W3C//DTD SVG 1.1//EN" "http://www.w3.org/Graphics/SVG/1.1/DTD/svg11.dtd">
<svg width="100%" height="100%" viewBox="0 0 65 55" version="1.1" xmlns="http://www.w3.org/2000/svg" xmlns:xlink="http://www.w3.org/1999/xlink" xml:space="preserve" xmlns:serif="http://www.serif.com/" style="fill-rule:evenodd;clip-rule:evenodd;stroke-linejoin:round;stroke-miterlimit:2;">
    <g transform="matrix(0.0625697,0,0,0.0625697,28.4371,-3.25342)">
        <g transform="matrix(1,0,0,1,-448.678,0)">
            <path d="M1023.05,874.62C1027.39,884.222 1028.73,898.946 1024,906.22C1018.53,914.627 1006.13,925.027 990.25,925.06C668.837,925.7 347.42,925.933 26,925.76C15.22,925.753 1.963,920.602 -3.079,909.396C-7.412,899.764 -6.732,882.29 0,867.97C18.035,829.605 72.56,745.46 108.21,685.25C150.83,613.26 193.44,541.28 235.88,469.18C254.86,436.927 273.92,404.72 293.06,372.56C351.32,274.67 409.81,176.9 467.89,78.89C472.003,71.957 475.153,67.35 477.34,65.07C494.61,47.05 525.48,48.03 542.04,65.72C544.407,68.247 548.123,73.767 553.19,82.28C585.023,135.853 616.85,189.433 648.67,243.02C689.137,311.153 729.463,379.37 769.65,447.67C805.103,507.923 840.607,568.143 876.16,628.33C922.073,706.05 953.12,758.36 969.3,785.26C987.213,815.047 1013.93,854.46 1023.05,874.62ZM391.17,312.11C346.18,388.49 300.93,464.73 255.94,541.12C214.907,610.767 173.65,680.28 132.17,749.66C128.87,755.173 125.473,760.91 121.98,766.87C99.687,804.897 77.103,842.9 54.23,880.88C54.219,880.898 54.211,880.917 54.205,880.937C54.166,881.068 54.247,881.209 54.384,881.25C54.402,881.255 54.421,881.259 54.44,881.26C56,881.333 57.603,881.373 59.25,881.38C360.32,881.61 660.35,881.21 962.51,880.67C963.403,880.67 963.63,880.28 963.19,879.5C959.803,873.567 956.17,867.417 952.29,861.05C923.923,814.477 895.78,767.767 867.86,720.92C831.733,660.3 768.997,553.68 679.65,401.06C648.9,348.53 617.84,296.19 586.92,243.77C574.753,223.15 562.577,202.533 550.39,181.92C536.743,158.833 522.98,135.893 509.1,113.1C508.887,112.753 508.677,112.753 508.47,113.1C505.517,118.06 502.577,123.06 499.65,128.1C463.88,189.68 427.31,250.75 391.17,312.11Z" style="fill:white;fill-rule:nonzero;"/>
        </g>
        <g transform="matrix(1,0,0,1,-448.678,0)">
            <path d="M528.18,238.75C526.893,237.29 525.407,236.067 523.72,235.08C523.249,234.81 522.973,234.288 523.01,233.74L523.91,219.03C523.929,218.822 524.097,218.659 524.3,218.65C525.013,218.623 525.647,218.927 526.2,219.56C532.68,226.92 539.79,233.73 546.03,241.28C546.314,241.625 546.39,242.103 546.23,242.53C544.743,246.45 543.22,250.303 541.66,254.09C539.15,260.19 539.49,268.7 539.77,275.08C539.83,276.333 539.523,276.433 538.85,275.38C534.06,267.84 528.6,259.87 524.62,251.55C524.238,250.741 524.267,249.798 524.7,249.02C526.17,246.36 528.1,242.86 528.47,239.66C528.51,239.313 528.413,239.01 528.18,238.75Z" style="fill:white;fill-rule:nonzero;"/>
        </g>
        <g transform="matrix(1,0,0,1,-448.678,0)">
            <path d="M501.94,309.88L489.39,283.36C489.237,283.027 489.21,282.687 489.31,282.34C490.74,277.31 496.27,271.85 495.99,266.76C495.777,262.807 495.593,258.977 495.44,255.27C495.4,254.383 495.647,254.29 496.18,254.99L511.9,275.54C512.151,275.872 512.225,276.302 512.1,276.69C508.79,287.29 504.91,298.61 503.31,309.67C503.083,311.257 502.627,311.327 501.94,309.88Z" style="fill:white;fill-rule:nonzero;"/>
        </g>
        <g transform="matrix(1,0,0,1,-448.678,0)">
            <path d="M519.47,317.5C517.897,315.3 516.353,313.02 514.84,310.66C513.32,308.27 513.47,306.84 514.79,304.25C517.857,298.27 520.86,292.317 523.8,286.39C523.912,286.167 524.141,286.026 524.39,286.026C524.593,286.026 524.785,286.12 524.91,286.28L538.62,304.02C538.847,304.307 538.88,304.613 538.72,304.94C532.987,316.62 526.367,327.767 518.86,338.38C518.732,338.558 518.526,338.664 518.307,338.664C517.934,338.664 517.627,338.357 517.627,337.984C517.627,337.963 517.628,337.941 517.63,337.92L519.69,318.32C519.722,318.031 519.644,317.738 519.47,317.5Z" style="fill:white;fill-rule:nonzero;"/>
        </g>
        <g transform="matrix(1,0,0,1,-448.678,0)">
            <path d="M477.04,316.85C476.641,316.341 476.442,315.704 476.48,315.06L477.33,301.23C477.43,299.65 477.953,299.493 478.9,300.76C481.98,304.873 485.38,308.727 489.1,312.32C489.644,312.845 489.961,313.564 489.98,314.32C490.16,321.567 491.193,328.683 493.08,335.67C493.5,337.21 493.217,337.353 492.23,336.1L477.04,316.85Z" style="fill:white;fill-rule:nonzero;"/>
        </g>
        <g transform="matrix(1,0,0,1,-448.678,0)">
            <path d="M477.87,423.78L438.85,420.99C438.673,420.974 438.539,420.818 438.55,420.64L445.08,339.3C445.09,339.126 445.235,338.989 445.409,338.989C445.42,338.989 445.43,338.989 445.44,338.99L562.84,347.35C563.017,347.366 563.151,347.522 563.14,347.7L556,429.61C555.99,429.784 555.845,429.921 555.671,429.921C555.66,429.921 555.65,429.921 555.64,429.92L512.83,426.66C512.652,426.649 512.496,426.783 512.48,426.96L511.56,435.95C511.544,436.127 511.388,436.261 511.21,436.25L478.07,433.68C477.893,433.669 477.754,433.517 477.76,433.34L478.18,424.12C478.186,423.943 478.047,423.791 477.87,423.78ZM485.223,396.16C492.998,392.468 496.312,382.934 492.563,375.04C488.815,367.146 479.332,363.688 471.557,367.38C463.782,371.072 460.468,380.606 464.217,388.5C467.965,396.394 477.448,399.852 485.223,396.16ZM530.66,399.849C538.823,397.26 543.35,388.227 540.689,379.84C538.029,371.453 529.123,366.682 520.96,369.271C512.797,371.86 508.27,380.893 510.931,389.28C513.591,397.667 522.497,402.438 530.66,399.849Z" style="fill:white;fill-rule:nonzero;"/>
        </g>
        <g transform="matrix(0.997185,0.0749787,-0.0749787,0.997185,-22.948,382.13)">
            <path d="M6.72,-14.05C6.72,-17.759 3.709,-20.77 0,-20.77C-3.709,-20.77 -6.72,-17.759 -6.72,-14.05L-6.72,14.05C-6.72,17.759 -3.709,20.77 0,20.77C3.709,20.77 6.72,17.759 6.72,14.05L6.72,-14.05Z" style="fill:white;"/>
        </g>
        <g transform="matrix(0.996493,0.0836778,-0.0836778,0.996493,125.822,393.59)">
            <path d="M6.38,-15.16C6.38,-18.681 3.521,-21.54 0,-21.54C-3.521,-21.54 -6.38,-18.681 -6.38,-15.16L-6.38,15.16C-6.38,18.681 -3.521,21.54 0,21.54C3.521,21.54 6.38,18.681 6.38,15.16L6.38,-15.16Z" style="fill:white;"/>
        </g>
        <g transform="matrix(1,0,0,1,-448.678,0)">
            <path d="M551.39,480.36C550.257,488.433 549.3,496.683 548.52,505.11C545.64,536.143 542.607,567.203 539.42,598.29C539.387,598.637 539.197,598.8 538.85,598.78L424,591.76C423.38,591.727 423.103,591.38 423.17,590.72C425.537,565.633 427.707,542.223 429.68,520.49C430.19,514.87 429.83,511.38 433.29,505.78C436.603,500.407 440.113,495.16 443.82,490.04C456.38,472.69 438.67,450.69 419.26,459.22C414.84,461.16 411.793,464.147 410.12,468.18C409.367,469.987 409.073,469.913 409.24,467.96C409.427,465.753 409.183,463.603 408.51,461.51C408.403,461.177 408.443,460.86 408.63,460.56C413.5,452.67 416.6,445.52 420.22,438.83C420.38,438.537 420.613,438.33 420.92,438.21C423.613,437.15 426.35,436.807 429.13,437.18C430.93,437.42 431.857,437.54 431.91,437.54C473.997,441.327 516.287,444.74 558.78,447.78C559.52,447.833 560.057,448.193 560.39,448.86L568.01,464.21C568.219,464.63 568.138,465.14 567.81,465.48C563.103,470.38 557.97,474.783 552.41,478.69C551.855,479.08 551.486,479.685 551.39,480.36Z" style="fill:white;fill-rule:nonzero;"/>
        </g>
        <g transform="matrix(1,0,0,1,-448.678,0)">
            <path d="M432.14,490.31C432.32,490.69 432.6,490.997 432.98,491.23C433.827,491.77 434.05,492.503 433.65,493.43C432.663,495.71 431.643,497.783 430.59,499.65C422.577,513.757 414.797,527.99 407.25,542.35C407.103,542.63 406.89,542.693 406.61,542.54L376.1,525.6C375.68,525.363 375.526,524.827 375.759,524.411C375.76,524.411 375.76,524.41 375.76,524.41C383.1,511.5 392.01,499.48 401.78,488.3C405.607,483.927 409.973,480.31 414.88,477.45C415.272,477.225 415.565,476.86 415.7,476.43C421.92,456.59 451.08,471.52 432.31,489.34C432.05,489.589 431.981,489.982 432.14,490.31Z" style="fill:white;fill-rule:nonzero;"/>
        </g>
        <g transform="matrix(1,0,0,1,-448.678,0)">
            <path d="M570.93,479.7L597.34,514.61C597.544,514.882 597.509,515.266 597.26,515.49L571.55,539.34C571.317,539.56 571.1,539.547 570.9,539.3L556.87,522.22C556.43,521.68 556.243,521.063 556.31,520.37C557.23,511.25 558.087,501.953 558.88,492.48C558.94,491.74 559.5,490.767 560.56,489.56C563.647,486.033 566.7,482.723 569.72,479.63C569.871,479.474 570.078,479.386 570.295,479.386C570.544,479.386 570.779,479.502 570.93,479.7Z" style="fill:white;fill-rule:nonzero;"/>
        </g>
        <g transform="matrix(1,0,0,1,-448.678,0)">
            <path d="M918.34,520.69C917.71,519.94 917.13,519.71 916.53,519.08C916.17,518.707 916.247,518.473 916.76,518.38C918.253,518.113 919.123,518.733 919.37,520.24C919.384,520.337 919.374,520.436 919.339,520.527C919.226,520.824 918.884,520.974 918.581,520.859C918.488,520.824 918.405,520.766 918.34,520.69Z" style="fill:white;fill-rule:nonzero;"/>
        </g>
        <g transform="matrix(1,0,0,1,-448.678,0)">
            <path d="M655.56,565.87C654.26,567.27 652.913,568.623 651.52,569.93C650.25,571.11 648.49,571.46 648.6,573.78C648.867,579.367 649.387,584.827 650.16,590.16C650.228,590.671 650.556,591.116 651.03,591.34C660.23,595.7 669.167,600.397 677.84,605.43C678.127,605.597 678.35,605.747 678.51,605.88C678.593,605.952 678.662,606.039 678.714,606.136C678.955,606.579 678.792,607.14 678.354,607.378C678.256,607.431 678.15,607.466 678.04,607.48L641.42,612.4C641.02,612.453 640.697,612.323 640.45,612.01L621.69,588.01C621.22,587.41 621.074,586.619 621.3,585.9L624.05,577.06C624.205,576.555 623.983,576.005 623.52,575.75L578.48,551.09C577.953,550.797 577.89,550.423 578.29,549.97C585.47,541.76 593.3,534.46 605.52,523.84C605.76,523.627 606.02,523.603 606.3,523.77L641.36,544.24C641.548,544.35 641.766,544.396 641.98,544.37C647.907,543.583 653.827,542.867 659.74,542.22C662.19,541.95 663.94,541.68 666.07,543.29C672.243,547.957 678.607,552.57 685.16,557.13C685.966,557.693 686.517,558.549 686.69,559.51L691.91,589.2C691.914,589.223 691.916,589.247 691.916,589.271C691.916,589.496 691.731,589.681 691.506,589.681C691.453,589.681 691.4,589.67 691.35,589.65L674.26,582.22C673.88,582.055 673.624,581.691 673.6,581.28L673.19,574.28C673.171,573.982 673.021,573.704 672.78,573.52C672.067,572.987 671.153,572.453 670.04,571.92C665.533,569.753 660.987,567.677 656.4,565.69C656.08,565.557 655.8,565.617 655.56,565.87Z" style="fill:white;fill-rule:nonzero;"/>
        </g>
        <g transform="matrix(1,0,0,1,-448.678,0)">
            <path d="M359.92,601.91L349.34,604.44C348.904,604.546 348.549,604.866 348.4,605.29L337.97,635.18C337.786,635.724 337.241,636.068 336.67,636C334.857,635.787 333.65,634.99 333.05,633.61C330.237,627.137 327.567,620.98 325.04,615.14C324.491,613.874 324.406,612.45 324.8,611.12L332.18,586.43C332.44,585.563 332.973,584.92 333.78,584.5L351.13,575.46C352.152,574.929 352.964,574.061 353.43,573L370.02,535.12C370.025,535.109 370.03,535.098 370.035,535.087C370.233,534.683 370.733,534.515 371.142,534.715C371.151,534.72 371.161,534.725 371.17,534.73L401.13,550.85C401.59,551.097 401.72,551.46 401.52,551.94L386.42,589.16C386.133,589.868 386.147,590.663 386.46,591.36L393.43,607.14C393.526,607.365 393.53,607.64 393.44,607.91L382.6,638.05C382.368,638.689 381.841,639.174 381.19,639.35C372.17,641.77 361.89,645.31 352.54,646.11C352.525,646.111 352.51,646.112 352.496,646.112C352.205,646.112 351.966,645.873 351.966,645.582C351.966,645.474 351.999,645.369 352.06,645.28C353.24,643.59 354.28,641.83 355.64,640.19C361.8,632.783 366.18,624.397 368.78,615.03C368.861,614.726 368.773,614.402 368.55,614.18C365.37,610.96 363.18,606.03 360.67,602.21C360.49,601.937 360.24,601.837 359.92,601.91Z" style="fill:white;fill-rule:nonzero;"/>
        </g>
        <g transform="matrix(1,0,0,1,-448.678,0)">
            <path d="M456.38,634.33C457.56,625.65 455.82,615.68 450.3,608.64C450.239,608.566 450.206,608.474 450.206,608.378C450.206,608.167 450.369,607.988 450.58,607.97C472.967,605.703 495.44,604.393 518,604.04C523.77,603.94 530.14,603.62 533.92,608.77C534.647,609.757 534.987,611.017 534.94,612.55C534.767,618.17 534.687,623.793 534.7,629.42C534.7,629.713 534.553,629.867 534.26,629.88L456.87,634.85C456.857,634.851 456.843,634.851 456.83,634.85C456.572,634.841 456.367,634.626 456.376,634.374C456.377,634.359 456.378,634.345 456.38,634.33Z" style="fill:white;fill-rule:nonzero;"/>
        </g>
        <g transform="matrix(1,0,0,1,-448.678,0)">
            <ellipse cx="426.71" cy="623.42" rx="19.65" ry="18.69" style="fill:white;"/>
        </g>
        <g transform="matrix(1,0,0,1,-448.678,0)">
            <path d="M688.66,775.19C684.93,788.82 683.57,802.86 686.99,816.74C687.15,817.38 686.9,817.7 686.24,817.7C675.81,817.65 666.68,818.71 658.27,810.96C649.83,803.18 645.1,793.52 640.65,783.15C634.97,769.93 628.743,756.97 621.97,744.27C621.54,743.47 620.81,742.67 620.99,741.6C621.038,741.311 621.29,741.098 621.582,741.098C621.758,741.098 621.926,741.175 622.04,741.31C628.7,749.097 636.797,754.697 646.33,758.11C651.39,759.917 656.39,761.88 661.33,764C663.97,765.13 667.48,767.18 670.72,768.37C670.767,768.387 670.817,768.397 670.867,768.399C671.135,768.411 671.366,768.205 671.378,767.942C671.38,767.891 671.374,767.839 671.36,767.79C670.54,764.743 669.69,761.72 668.81,758.72C665.597,747.82 664.777,736.997 666.35,726.25C667.63,717.5 671.33,709.53 676.23,700.73C682.86,688.83 679.97,674.58 670.71,665.09C668.06,662.37 665.99,660.1 663.1,658.6C662.087,658.073 662.15,657.793 663.29,657.76C681.86,657.2 698.43,667.63 705.21,685.51C706.243,688.223 707.253,692.397 708.24,698.03C708.25,698.086 708.264,698.14 708.283,698.194C708.478,698.753 709.094,699.055 709.649,698.862C709.704,698.842 709.758,698.818 709.81,698.79L710.2,698.57C711.293,697.977 711.803,697.06 711.73,695.82C711.09,684.633 710.6,675.563 710.26,668.61C709.06,643.64 720.51,617.01 743.57,605.28C743.638,605.244 743.714,605.226 743.791,605.226C743.972,605.226 744.139,605.328 744.22,605.49C744.36,605.75 744.4,606.047 744.34,606.38C744.3,606.613 744.17,606.853 743.95,607.1C728.33,624.49 731.44,659.71 745.33,677.15C750.16,683.2 757.76,680.73 763.63,678.02C763.671,678.001 763.715,677.987 763.76,677.981C764.01,677.946 764.245,678.128 764.281,678.383C764.287,678.429 764.287,678.475 764.28,678.52C764.047,679.987 763.643,681.49 763.07,683.03C757.43,698.07 758.06,715.79 767.77,729.15C767.788,729.174 767.807,729.198 767.827,729.22C768.134,729.556 768.66,729.583 768.992,729.28C769.016,729.258 769.039,729.235 769.06,729.21C778.92,717.98 789.34,709.53 804.64,707.31C805.873,707.13 806.61,707.063 806.85,707.11C809.143,707.577 809.303,708.443 807.33,709.71C805.13,711.123 802.963,713 800.83,715.34C792.837,724.087 788.307,734.393 787.24,746.26C786.65,752.82 788.58,761.84 793.48,766.59C793.522,766.629 793.57,766.661 793.623,766.683C793.861,766.783 794.137,766.674 794.235,766.441C794.258,766.387 794.27,766.329 794.27,766.27C794.46,749.39 800.41,732.88 813.03,721.29C814.83,719.637 816.497,718.45 818.03,717.73C819.377,717.103 819.6,717.383 818.7,718.57C817.54,720.097 816.26,721.857 814.86,723.85C804.37,738.81 808.48,756.19 810.71,772.76C811.65,779.707 811.47,786.617 810.17,793.49C807.36,808.31 796.32,818.78 780.58,816.63C777.53,816.21 775.23,815.95 772.99,814.55C772.563,814.282 772.328,813.793 772.39,813.3L775.18,790.37C775.182,790.357 775.183,790.344 775.183,790.331C775.183,790.167 775.047,790.031 774.883,790.031C774.858,790.031 774.834,790.034 774.81,790.04L764.17,792.7C763.478,792.872 762.744,792.635 762.28,792.09C750.85,778.71 746.37,759.83 752.68,743.09C752.967,742.33 752.773,742.173 752.1,742.62C740.42,750.33 733.67,763.49 732.37,777.33C732.348,777.571 732.144,777.758 731.902,777.758C731.773,777.758 731.649,777.704 731.56,777.61C721.03,766.73 717.74,752.9 715.72,738.34C715.69,738.146 715.521,738.001 715.325,738.001C715.218,738.001 715.115,738.044 715.04,738.12C712.82,740.44 710.84,747.09 709.99,750.24C706.68,762.43 705.21,774.96 708.21,787.43C708.223,787.479 708.226,787.53 708.219,787.581C708.19,787.804 707.978,787.963 707.75,787.933C707.701,787.927 707.654,787.912 707.61,787.89C700.99,784.323 694.893,780.023 689.32,774.99C688.993,774.697 688.773,774.763 688.66,775.19Z" style="fill:white;fill-rule:nonzero;"/>
        </g>
        <g transform="matrix(1,0,0,1,-448.678,0)">
            <path d="M776.61,625.9C772.07,630.62 769.06,637.92 767.36,644.29C765.233,652.223 762.943,660.053 760.49,667.78C760.432,667.974 760.252,668.109 760.049,668.109C759.925,668.109 759.807,668.059 759.72,667.97C751.42,659.75 746.13,651.61 752.19,639.81C756.9,630.63 766.28,626 776.09,624.84C777.25,624.707 777.423,625.06 776.61,625.9Z" style="fill:white;fill-rule:nonzero;"/>
        </g>
        <g transform="matrix(1,0,0,1,-448.678,0)">
            <path d="M627.37,639.24C632.237,641.147 636.133,642.947 639.06,644.64C641.61,646.12 642.53,651.97 643.25,654.84C643.7,656.64 643.18,657.83 642.67,659.48C640.743,665.793 638.987,672.073 637.4,678.32C637.323,678.608 637.06,678.81 636.762,678.81C636.599,678.81 636.441,678.749 636.32,678.64C634.4,676.873 632.69,674.923 631.19,672.79C627.48,667.52 631.61,661.6 627.32,656.44C625.54,654.287 621.49,650.767 615.17,645.88C614.897,645.667 614.76,645.39 614.76,645.05L614.84,634.33C614.843,634.003 615.113,633.735 615.44,633.735C615.541,633.735 615.641,633.761 615.73,633.81C619.483,635.863 623.363,637.673 627.37,639.24Z" style="fill:white;fill-rule:nonzero;"/>
        </g>
        <g transform="matrix(1,0,0,1,-448.678,0)">
            <path d="M575.17,672.67C567.89,678.06 566.69,685.23 564.71,693.06C564.662,693.245 564.494,693.374 564.303,693.374C564.224,693.374 564.147,693.352 564.08,693.31L506.99,656.68C506.836,656.581 506.742,656.409 506.742,656.226C506.742,656.121 506.772,656.018 506.83,655.93C510.357,650.483 514.33,645.383 518.75,640.63C519.003,640.357 519.317,640.207 519.69,640.18L547.6,638.03C547.893,638.003 548.163,638.073 548.41,638.24L590.15,667.31C590.302,667.419 590.392,667.595 590.392,667.782C590.392,668.1 590.13,668.362 589.812,668.362C589.798,668.362 589.784,668.361 589.77,668.36C584.53,667.9 579.663,669.337 575.17,672.67Z" style="fill:white;fill-rule:nonzero;"/>
        </g>
        <g transform="matrix(1,0,0,1,-448.678,0)">
            <path d="M471.35,721.63C459.65,715.81 446.12,717.71 439.15,729.58C438.91,729.987 438.713,729.967 438.56,729.52C431.63,709.21 425.61,688.55 419.38,668.02C417.967,663.367 416.627,658.483 415.36,653.37C415.207,652.75 415.45,652.46 416.09,652.5C417.383,652.587 418.66,652.29 419.92,651.61C422.18,650.38 422.63,651.42 424.7,651.47C433.073,651.67 440.537,649.29 447.09,644.33C447.189,644.256 447.309,644.216 447.432,644.216C447.663,644.216 447.873,644.356 447.96,644.57C449.187,647.65 450.307,650.79 451.32,653.99C457.627,673.89 463.86,693.813 470.02,713.76C470.78,716.22 471.427,718.683 471.96,721.15C471.967,721.181 471.971,721.213 471.971,721.245C471.971,721.48 471.776,721.675 471.541,721.675C471.474,721.675 471.409,721.659 471.35,721.63Z" style="fill:white;fill-rule:nonzero;"/>
        </g>
        <g transform="matrix(1,0,0,1,-448.678,0)">
            <path d="M315.18,670.81C327.3,688.58 327.7,710.91 321.77,730.85C320.463,735.25 319.117,739.637 317.73,744.01C317.537,744.63 317.457,745.29 317.49,745.99C317.537,747.083 317.507,747.76 317.4,748.02C316.267,750.687 315.583,750.573 315.35,747.68C314.11,732.26 312.8,718.14 300.73,706.79C299.357,705.497 297.163,703.687 294.15,701.36C291.22,699.1 291.8,689.47 292.19,686.13C293.72,673.18 296.37,660.12 297.1,647.27C297.24,644.723 297.887,644.587 299.04,646.86C303.32,655.3 309.93,663.12 315.18,670.81Z" style="fill:white;fill-rule:nonzero;"/>
        </g>
        <g transform="matrix(0.999994,0.00349065,-0.00349065,0.999994,140.772,689.52)">
            <ellipse cx="0" cy="0" rx="12.48" ry="11.9" style="fill:white;"/>
        </g>
        <g transform="matrix(1,0,0,1,-448.678,0)">
            <path d="M312.01,781.58C312.09,781.98 312.293,782.057 312.62,781.81C324.13,772.95 333.97,760.61 341.63,748.37C346.637,740.357 350.59,731.857 353.49,722.87C353.67,722.31 353.85,722.083 354.03,722.19C354.487,722.471 354.745,722.989 354.69,723.52C353.923,730.847 353.143,737.75 352.35,744.23C351.017,755.137 348.923,765.897 346.07,776.51C341.79,792.41 336.07,810.46 345.86,825.76C346.213,826.319 346.832,826.653 347.49,826.64L359.25,826.51C359.523,826.503 359.74,826.387 359.9,826.16C367.5,815.22 380.42,810.72 393.43,812.28C393.444,812.282 393.457,812.283 393.471,812.284C393.893,812.311 394.262,811.991 394.288,811.575C394.289,811.56 394.29,811.545 394.29,811.53L394.37,806.27C394.37,806.219 394.377,806.167 394.39,806.118C394.474,805.805 394.805,805.619 395.123,805.704C395.171,805.717 395.217,805.736 395.26,805.76C399.98,808.44 404.523,811.3 408.89,814.34C413.48,817.55 416.19,820.13 415.46,825.78C415.413,826.14 415.57,826.317 415.93,826.31L527.33,826.27C527.885,826.271 528.393,825.946 528.63,825.44C537.91,805.54 553.8,795.35 576.52,799.17C590.78,801.57 602.43,812.18 607.97,825.15C608.257,825.823 608.767,826.16 609.5,826.16L812.26,825.54C812.827,825.54 813.11,825.823 813.11,826.39L812.89,864.29C812.89,864.71 812.55,865.059 812.13,865.07C811.53,865.09 810.82,865.1 810,865.1C609.107,865.76 407.207,866.053 204.3,865.98C203.32,865.973 202.823,865.483 202.81,864.51L202.44,827.02C202.44,826.74 202.666,826.51 202.94,826.51C207.32,826.463 211.777,826.377 216.31,826.25C216.437,826.25 216.553,826.22 216.66,826.16C216.833,826.067 216.94,826.003 216.98,825.97C217.26,825.691 217.29,825.244 217.05,824.93C215.177,822.483 213.39,819.957 211.69,817.35C203.03,804.07 202.83,786.53 207.83,771.9C214.34,752.91 230.96,727.39 216.05,707.44C214.803,705.773 213.587,704.083 212.4,702.37C212.273,702.19 212.233,701.997 212.28,701.79C212.314,701.629 212.458,701.512 212.623,701.512C212.67,701.512 212.717,701.521 212.76,701.54C228.43,708.34 237.62,725.81 238.22,741.89C238.74,756.13 230.57,776.22 246.47,785.59C248.537,786.81 250.613,787.353 252.7,787.22C253.669,787.163 254.563,786.683 255.14,785.91C258.76,781.05 260.28,772.14 260.9,766.24C264.02,736.93 256.6,708.55 254.95,679.44C254.931,679.157 255.016,678.876 255.19,678.65C255.757,677.89 256.163,677.94 256.41,678.8C258.097,684.567 260.69,690.32 264.19,696.06C272.51,709.72 283.07,721.35 292.07,734.43C302.017,748.863 308.663,764.58 312.01,781.58Z" style="fill:white;fill-rule:nonzero;"/>
        </g>
        <g transform="matrix(1,0,0,1,-448.678,0)">
            <path d="M571,702.27C578.42,710.66 586.92,711.58 597.42,710.96C597.813,710.94 597.977,711.123 597.91,711.51L583.25,791.47C583.248,791.483 583.245,791.497 583.241,791.51C583.185,791.711 582.969,791.828 582.763,791.771C582.752,791.768 582.741,791.764 582.73,791.76C571.8,787.53 559.92,788.32 548.59,790.3C548.568,790.303 548.546,790.305 548.523,790.305C548.287,790.305 548.093,790.111 548.093,789.875C548.093,789.85 548.096,789.825 548.1,789.8L561.44,710.41C561.556,709.734 561.911,709.122 562.44,708.69L570.36,702.22C570.555,702.064 570.839,702.087 571,702.27Z" style="fill:white;fill-rule:nonzero;"/>
        </g>
        <g transform="matrix(1,0,0,1,-448.678,0)">
            <path d="M438.27,739.51C438.47,742.56 440.66,742.8 442.79,743.48C442.908,743.518 443.032,743.537 443.156,743.537C443.678,743.537 444.142,743.197 444.3,742.7C446.94,734.31 451.33,727.48 461.24,728.74C467.1,729.49 470.32,736.02 471.66,741.19C471.76,741.577 471.717,741.943 471.53,742.29L430.74,816.44C430.611,816.671 430.367,816.815 430.102,816.815C429.951,816.815 429.803,816.768 429.68,816.68L398.58,794.61C398.526,794.57 398.509,794.495 398.54,794.43C398.967,793.497 399.443,792.6 399.97,791.74C409.537,776.027 419.12,760.323 428.72,744.63C431.44,740.19 434.307,735.943 437.32,731.89C437.867,731.157 438.127,731.247 438.1,732.16C438.04,734.42 438.097,736.87 438.27,739.51Z" style="fill:white;fill-rule:nonzero;"/>
        </g>
    </g>
</svg>
