M48
; DRILL file {KiCad 7.0.11} date Wed Mar  6 00:08:59 2024
; FORMAT={-:-/ absolute / inch / decimal}
; #@! TF.CreationDate,2024-03-06T00:08:59+00:00
; #@! TF.GenerationSoftware,Kicad,Pcbnew,7.0.11
; #@! TF.FileFunction,Plated,1,2,PTH
FMAT,2
INCH
; #@! TA.AperFunction,Plated,PTH,ViaDrill
T1C0.0197
; #@! TA.AperFunction,Plated,PTH,ComponentDrill
T2C0.0236
; #@! TA.AperFunction,Plated,PTH,ComponentDrill
T3C0.0374
; #@! TA.AperFunction,Plated,PTH,ComponentDrill
T4C0.0394
; #@! TA.AperFunction,Plated,PTH,ComponentDrill
T5C0.0402
; #@! TA.AperFunction,Plated,PTH,ComponentDrill
T6C0.0421
; #@! TA.AperFunction,Plated,PTH,ComponentDrill
T7C0.0669
; #@! TA.AperFunction,Plated,PTH,ComponentDrill
T8C0.0701
; #@! TA.AperFunction,Plated,PTH,ComponentDrill
T9C0.0709
; #@! TA.AperFunction,Plated,PTH,ComponentDrill
T10C0.1063
; #@! TA.AperFunction,Plated,PTH,ComponentDrill
T11C0.1260
%
G90
G05
T1
X6.1988Y-4.4449
X6.2768Y-4.2266
T3
X3.5827Y-3.4055
X3.5827Y-3.5039
X3.5827Y-3.6024
X3.5827Y-3.7008
X3.8366Y-2.7844
X3.935Y-2.7844
X4.0335Y-2.7844
X4.0591Y-3.3425
X4.1319Y-2.7844
X4.1575Y-3.3425
X4.2559Y-3.3425
X4.3543Y-3.3425
X4.4108Y-2.7844
X4.5092Y-2.7844
X4.6076Y-2.7844
X4.706Y-2.7844
X4.7598Y-3.3425
X4.8583Y-3.3425
X4.9567Y-3.3425
X5.3622Y-2.7844
X5.4606Y-2.7844
X5.5591Y-2.7844
X5.6575Y-2.7844
X5.9364Y-2.7844
X6.0348Y-2.7844
X6.1332Y-2.7844
X6.2316Y-2.7844
X6.3937Y-4.0945
X6.4921Y-4.0945
X6.5906Y-4.0945
X6.689Y-4.0945
X6.8878Y-2.7844
X6.9862Y-2.7844
X7.0846Y-2.7844
X7.1831Y-2.7844
T4
X3.5827Y-3.0512
X3.5827Y-3.1496
X3.5918Y-4.1168
X3.6614Y-4.0472
X4.5906Y-3.748
X4.689Y-3.748
X4.9849Y-2.7844
X5.0833Y-2.7844
X5.5197Y-3.2984
X5.5197Y-3.3984
X5.5197Y-3.4984
X5.5197Y-3.5984
X5.5197Y-3.6984
X5.8858Y-3.2677
X5.8858Y-3.6929
X5.8858Y-4.0945
X5.9843Y-3.2677
X5.9843Y-3.6929
X5.9843Y-4.0945
X6.4961Y-3.2677
X6.4961Y-3.6929
X6.5105Y-2.7844
X6.5945Y-3.2677
X6.5945Y-3.6929
X6.6089Y-2.7844
X7.5884Y-2.9574
X7.5884Y-3.3904
X7.6844Y-4.564
X7.7844Y-4.564
T5
X6.2039Y-4.5276
X6.2039Y-4.6457
X6.322Y-4.5276
X6.322Y-4.6457
X6.4401Y-4.5276
X6.4401Y-4.6457
X6.5582Y-4.5276
X6.5582Y-4.6457
X6.6763Y-4.5276
X6.6763Y-4.6457
X6.7944Y-4.5276
X6.7944Y-4.6457
X6.9125Y-4.5276
X6.9125Y-4.6457
X7.0306Y-4.5276
X7.0306Y-4.6457
X7.1487Y-4.5276
X7.1487Y-4.6457
X7.2669Y-4.5276
X7.2669Y-4.6457
X7.385Y-4.5276
X7.385Y-4.6457
T6
X4.4819Y-4.5252
X4.4819Y-4.6433
X4.6Y-4.5252
X4.6Y-4.6433
X4.7181Y-4.5252
X4.7181Y-4.6433
X4.8362Y-4.5252
X4.8362Y-4.6433
X4.9543Y-4.5252
X4.9543Y-4.6433
X5.0724Y-4.5252
X5.0724Y-4.6433
X5.1906Y-4.5252
X5.1906Y-4.6433
X5.3087Y-4.5252
X5.3087Y-4.6433
X5.4268Y-4.5252
X5.4268Y-4.6433
X5.5449Y-4.5252
X5.5449Y-4.6433
X5.663Y-4.5252
X5.663Y-4.6433
X5.7811Y-4.5252
X5.7811Y-4.6433
T7
X7.3916Y-3.0755
X7.3916Y-3.2723
T8
X4.0311Y-4.0313
X4.1258Y-3.9366
X4.3073Y-4.3075
X4.4019Y-4.2128
X6.9685Y-3.1528
X6.9685Y-3.5433
X7.1024Y-3.1528
X7.1024Y-3.5433
T9
X7.3858Y-3.6535
X7.3858Y-3.8189
X7.3858Y-3.9843
X7.3858Y-4.1496
X7.3858Y-4.315
T10
X3.8946Y-4.2692
X4.0951Y-4.4697
T11
X3.5827Y-2.748
X4.1762Y-4.8524
X5.5827Y-4.1102
X7.7598Y-2.748
X7.7598Y-4.8425
T2
G00X3.6246Y-4.3639
M15
G01X3.6552Y-4.3333
M16
G05
G00X4.0004Y-4.7397
M15
G01X4.0311Y-4.7091
M16
G05
M30
