<?xml version="1.0" encoding="UTF-8" standalone="no"?>
<!DOCTYPE svg PUBLIC "-//W3C//DTD SVG 1.1//EN" "http://www.w3.org/Graphics/SVG/1.1/DTD/svg11.dtd">
<svg width="100%" height="100%" viewBox="0 0 512 512" version="1.1" xmlns="http://www.w3.org/2000/svg" xmlns:xlink="http://www.w3.org/1999/xlink" xml:space="preserve" xmlns:serif="http://www.serif.com/" style="fill-rule:evenodd;clip-rule:evenodd;stroke-linejoin:round;stroke-miterlimit:2;">
    <g id="Logo" transform="matrix(1.33299,0,0,1.33299,-745.165,-748.035)">
        <path d="M877.94,617.02L729.62,826.9C727.922,829.306 725.155,830.74 722.21,830.74C719.265,830.74 716.498,829.306 714.8,826.9L566.49,617.02C565.41,615.49 564.83,613.663 564.83,611.79C564.83,606.814 568.924,602.72 573.9,602.72L870.53,602.72C875.506,602.72 879.6,606.814 879.6,611.79C879.6,613.663 879.02,615.49 877.94,617.02ZM696.7,654.61L666.39,713.98C666.36,714.039 666.345,714.104 666.345,714.17C666.345,714.399 666.531,714.588 666.76,714.59L726.32,714.6C726.61,714.599 726.876,714.437 727.01,714.18L757.26,654.65C757.44,654.297 757.333,654.12 756.94,654.12L746.81,654.09C746.45,654.09 746.187,654.25 746.02,654.57L721.31,702.86C721.157,703.16 720.913,703.31 720.58,703.31C709.307,703.39 698.03,703.54 686.75,703.76C685.58,703.79 685.17,703.29 683.94,703.26C683.42,703.247 683.28,703.007 683.52,702.54L707.81,654.7C708.01,654.313 707.893,654.12 707.46,654.12L697.52,654.11C697.147,654.11 696.873,654.277 696.7,654.61ZM780.42,663.06C779.88,663.473 779.57,663.87 779.49,664.25C778.94,666.86 777.12,669.26 776.3,670.92C773.4,676.86 770.38,682.777 767.24,688.67C767.067,689.003 766.793,689.167 766.42,689.16L746.75,689.05L746.74,689.05C746.493,689.05 746.29,689.253 746.29,689.5L746.27,698.75C746.27,699.063 746.43,699.22 746.75,699.22L761.25,699.25C761.643,699.25 761.75,699.423 761.57,699.77L754.59,713.43C754.183,714.217 754.423,714.613 755.31,714.62L765.01,714.63C765.323,714.637 765.55,714.5 765.69,714.22L795.93,654.76C795.96,654.698 795.976,654.629 795.976,654.56C795.976,654.309 795.771,654.102 795.52,654.1L785.27,654.12C784.899,654.121 784.562,654.336 784.41,654.67L780.57,662.86C780.537,662.939 780.486,663.007 780.42,663.06Z" style="fill-rule:nonzero;"/>
    </g>
    <g id="Text" transform="matrix(3.40459,0,0,3.40459,-615.576,-615.576)">
        <g transform="matrix(0.391526,0,0,0.391526,-38.0628,-38.9058)">
            <path d="M759.02,817.44L908.41,606.29C909.99,604.054 912.562,602.721 915.3,602.72L928.87,602.72C933.499,602.722 937.307,606.531 937.307,611.16C937.307,612.904 936.766,614.606 935.76,616.03L786.36,827.18C784.78,829.416 782.208,830.749 779.47,830.75L765.91,830.75C761.281,830.748 757.473,826.939 757.473,822.31C757.473,820.566 758.014,818.864 759.02,817.44Z" style="fill-rule:nonzero;"/>
        </g>
        <g transform="matrix(0.391526,0,0,0.391526,-38.0628,-38.9058)">
            <path d="M599.7,899.2C603.37,898.03 604.78,892.67 601.47,890.27C600.723,889.73 599.337,889.247 597.31,888.82C592.61,887.83 584.76,887.15 581.55,884.06C576.57,879.26 580.59,871.56 587.13,869.92C593.843,868.233 600.19,869.033 606.17,872.32C606.537,872.527 606.58,872.783 606.3,873.09L604.58,875C604.367,875.238 604.011,875.288 603.74,875.12C598.367,871.92 592.867,871.353 587.24,873.42C582.14,875.29 582.19,882.15 588.09,883.37C591.957,884.17 595.83,885.01 599.71,885.89C610.23,888.27 609.94,899.66 600.22,902.47C592.54,904.69 585.123,903.807 577.97,899.82C577.617,899.627 577.573,899.377 577.84,899.07L579.46,897.19C579.72,896.897 580.017,896.85 580.35,897.05C586.39,900.677 592.84,901.393 599.7,899.2Z" style="fill-rule:nonzero;"/>
        </g>
        <g transform="matrix(0.391526,0,0,0.391526,-38.0628,-38.9058)">
            <path d="M793.7,878.59C791.01,871.28 780.38,870.11 775.91,875.32C775.017,876.36 774.463,877.7 774.25,879.34C773.457,885.36 773.423,890.17 774.15,893.77C775.3,899.53 780.21,900.49 785.22,900.41C791.58,900.31 795.16,896.14 794.23,889.55C794.196,889.322 793.995,889.152 793.76,889.15L785.06,889.14C784.673,889.14 784.48,888.947 784.48,888.56L784.48,886.53C784.48,886.11 784.69,885.9 785.11,885.9L798.22,885.89C798.54,885.89 798.71,886.047 798.73,886.36C799,891.29 798.98,896.88 795.32,900.29C789.81,905.41 775.19,904.96 771.22,897.88C769.07,894.03 769.82,887.12 769.89,882.38C769.943,878.973 770.41,876.46 771.29,874.84C772.657,872.313 774.81,870.633 777.75,869.8C785.73,867.54 796.04,869.27 798.33,878.75C798.403,879.07 798.277,879.227 797.95,879.22L794.5,879.15C794.107,879.143 793.84,878.957 793.7,878.59Z" style="fill-rule:nonzero;"/>
        </g>
        <g transform="matrix(0.391526,0,0,0.391526,-38.0628,-38.9058)">
            <path d="M643.97,872.94L643.96,902.85C643.96,903.08 643.77,903.27 643.54,903.27L640.24,903.26C640.01,903.26 639.82,903.07 639.82,902.84L639.8,872.94C639.8,872.71 639.61,872.52 639.38,872.52L627.76,872.51C627.53,872.51 627.34,872.32 627.34,872.09L627.33,869.79C627.33,869.56 627.52,869.37 627.75,869.37L656.07,869.33C656.3,869.33 656.49,869.52 656.49,869.75L656.46,872.08C656.46,872.31 656.27,872.5 656.04,872.5L644.39,872.52C644.16,872.52 643.97,872.71 643.97,872.94Z" style="fill-rule:nonzero;"/>
        </g>
        <g transform="matrix(0.391526,0,0,0.391526,-38.0628,-38.9058)">
            <rect x="680.26" y="869.34" width="4.12" height="33.92"/>
        </g>
        <g transform="matrix(0.391526,0,0,0.391526,-38.0628,-38.9058)">
            <path d="M739.01,896.57L739.01,869.71C739.01,869.518 739.168,869.36 739.36,869.36L742.79,869.39C742.982,869.39 743.14,869.548 743.14,869.74L743.07,902.87C743.07,903.062 742.912,903.22 742.72,903.22L739.06,903.26C738.952,903.262 738.848,903.214 738.78,903.13L717.47,876.22C717.404,876.139 717.304,876.092 717.2,876.092C717.012,876.092 716.857,876.243 716.85,876.43L716.8,902.89C716.8,903.082 716.642,903.24 716.45,903.24L713.08,903.24C712.888,903.24 712.73,903.082 712.73,902.89L712.72,869.72C712.72,869.528 712.878,869.37 713.07,869.37L716.67,869.36C716.778,869.358 716.882,869.406 716.95,869.49L738.38,896.78C738.446,896.868 738.55,896.92 738.66,896.92C738.852,896.92 739.01,896.762 739.01,896.57Z" style="fill-rule:nonzero;"/>
        </g>
        <g transform="matrix(0.391526,0,0,0.391526,-38.0628,-38.9058)">
            <path d="M829.39,884.88L847.83,884.87C848.055,884.87 848.24,885.055 848.24,885.28L848.22,887.66C848.22,887.885 848.035,888.07 847.81,888.07L829.39,888.05C829.165,888.05 828.98,888.235 828.98,888.46L828.98,899.75C828.98,899.975 829.165,900.16 829.39,900.16L850.88,900.16C851.105,900.16 851.29,900.345 851.29,900.57L851.31,902.85C851.31,903.075 851.125,903.26 850.9,903.26L825.26,903.27C825.035,903.27 824.85,903.085 824.85,902.86L824.82,869.73C824.82,869.505 825.005,869.32 825.23,869.32L850.9,869.36C851.125,869.36 851.31,869.545 851.31,869.77L851.32,872.09C851.32,872.315 851.135,872.5 850.91,872.5L829.4,872.53C829.175,872.53 828.99,872.715 828.99,872.94L828.98,884.47C828.98,884.695 829.165,884.88 829.39,884.88Z" style="fill-rule:nonzero;"/>
        </g>
        <g transform="matrix(0.391526,0,0,0.391526,-38.0628,-38.9058)">
            <path d="M897.71,889L906.54,902.73C906.773,903.09 906.677,903.27 906.25,903.27L902.31,903.27C902.03,903.27 901.817,903.15 901.67,902.91L893.45,889.5C893.281,889.226 892.986,889.056 892.67,889.05L881.5,888.91C881.107,888.903 880.91,889.1 880.91,889.5L880.95,902.66C880.95,903.06 880.747,903.26 880.34,903.26L877.29,903.27C876.97,903.27 876.81,903.11 876.81,902.79L876.81,870.02C876.81,869.68 876.983,869.5 877.33,869.48C886.69,869.047 893.243,869.117 896.99,869.69C907.11,871.24 908,884.87 897.94,888.33C897.587,888.457 897.51,888.68 897.71,889ZM880.83,873.49L880.79,884.83L880.79,884.84C880.79,885.411 881.259,885.88 881.83,885.88L893.18,885.92C897.44,885.934 900.956,883.064 900.97,879.56L900.97,878.917C900.982,875.412 897.485,872.515 893.222,872.5L893.22,872.5L881.87,872.46C881.303,872.46 880.835,872.923 880.83,873.49Z" style="fill-rule:nonzero;"/>
        </g>
    </g>
</svg>
